<svg width="1066" height="1150" viewBox="0 0 1066 1150" fill="none" xmlns="http://www.w3.org/2000/svg">
<g clip-path="url(#clip0_1004_42)">
<path d="M696.177 986.001L694.626 985.79C672.446 982.765 650.105 990.081 634.011 1005.64C631.009 1008.54 628.262 1011.7 625.799 1015.07L598.439 1052.52C585.1 1070.78 577.346 1092.52 576.116 1115.1L574.249 1149.39C573.164 1169.3 582.651 1188.3 599.212 1199.4C612.159 1208.08 628.114 1211.02 643.304 1207.54L657.827 1204.21C668.521 1201.76 678.683 1197.39 687.822 1191.32L733.183 1161.2C737.376 1158.41 741.915 1156.18 746.685 1154.57L811.64 1132.63C828.643 1126.89 832.146 1104.39 817.693 1093.75C816.567 1092.92 815.522 1091.98 814.571 1090.96L765.5 1038L744.446 1012.74C732.258 998.11 715.04 988.574 696.177 986.001Z" fill="#9E716F"/>
<path d="M675 1089.86V1033.75C675 1026.98 680.483 1021.5 687.246 1021.5C693.609 1021.5 698.912 1026.37 699.448 1032.71L704.166 1088.55C704.385 1091.14 703.907 1093.74 702.791 1096.09C698.638 1104.81 687.285 1107.21 680.003 1100.86C676.825 1098.09 675 1094.08 675 1089.86Z" fill="#D9D9D9"/>
<g filter="url(#filter0_i_1004_42)">
<path d="M821 937L748.899 896.128C744.649 893.718 740.714 890.793 737.182 887.418L724.755 875.544C721.703 872.627 717.644 871 713.423 871C707.859 871 702.675 873.82 699.652 878.492L674.014 918.115C668.829 926.128 666.549 935.678 667.556 945.169C668.794 956.845 674.897 967.458 684.365 974.401L692 980L695.829 983.457C717.246 1002.79 737.192 1023.7 755.5 1046L802.5 1112.5L844.5 1187.5L855.981 1209.48C859.681 1216.56 867.009 1221 875 1221L1020.16 1230.37C1042.91 1231.83 1062.7 1214.95 1064.84 1192.26C1065.6 1184.25 1064.05 1176.2 1060.38 1169.05L1036.18 1121.9C1023.83 1097.83 1007.21 1076.21 987.143 1058.07L960.5 1034L821 937Z" fill="#111313"/>
</g>
<path d="M733 1122.5L692 1049.5L690.486 1047.08C689.706 1045.83 687.776 1046.55 688 1048L692 1101.5C692 1102.26 690.92 1102.4 690.728 1101.66L689.5 1097L678 1032L674.723 1016.55C674.578 1015.87 674.216 1015.25 673.692 1014.79C672.087 1013.39 669.586 1013.9 668.661 1015.82L652.085 1050.27C647.639 1059.51 647.934 1070.33 652.875 1079.32C654.937 1083.07 656.219 1087.19 656.645 1091.45L658.089 1105.89C659.025 1115.25 658.671 1124.7 657.036 1133.96L653.5 1154L651.887 1160.99C650.971 1164.96 649.282 1168.71 646.915 1172.02L645.43 1174.1C638.111 1184.34 638.643 1198.24 646.724 1207.9C651.087 1213.12 657.22 1216.54 663.95 1217.52L737.005 1228.13C740.987 1228.71 745.024 1228.8 749.03 1228.42L766.026 1226.77C771.045 1226.29 775.541 1223.46 778.158 1219.15C780.878 1214.67 781.23 1209.14 779.102 1204.35L766.5 1176L733 1122.5Z" fill="#111111"/>
<g filter="url(#filter1_i_1004_42)">
<path d="M659.153 1005.33L652.83 1000.94C640.665 992.489 641.195 974.325 653.833 966.602C659.574 963.093 666.671 962.625 672.823 965.348L685.738 971.064C690.872 973.337 695.562 976.502 699.59 980.413L728 1008L755.148 1035.69C786.476 1067.65 811.988 1104.83 830.537 1145.56L847.365 1182.51C848.119 1184.16 848.685 1185.9 849.052 1187.68C850.866 1196.49 847.666 1205.58 840.734 1211.32L835.734 1215.45C829.442 1220.65 821.533 1223.5 813.369 1223.5H812.237C796.18 1223.5 781.833 1213.47 776.32 1198.39L770.83 1183.37C769.281 1179.14 767.269 1175.09 764.829 1171.29L718 1098.5L693.5 1052.5L665.648 1011.86C663.897 1009.31 661.697 1007.09 659.153 1005.33Z" fill="#D9D9D9"/>
</g>
<path d="M251.5 757L262.665 670.657C264.946 653.021 278.442 638.923 295.962 635.876C306.552 634.034 317.441 636.469 326.238 642.646L340.556 652.699C352.948 661.4 362.72 673.329 368.811 687.191L374 699C393.469 731.338 419.225 759.444 449.744 781.657L572.5 871L641.852 911.224C645.608 913.403 649.139 915.949 652.392 918.825L679.846 943.1C688.542 950.789 690.262 963.702 683.882 973.399C682.963 974.796 682.197 976.287 681.597 977.847L678.127 986.871C676.045 992.282 674.383 997.846 673.156 1003.51L668.5 1025L654.5 1066.5L639 1108.5L624 1145L616 1166.5L612.627 1179.15C612.211 1180.71 612 1182.32 612 1183.93V1188.52C612 1196.24 605.739 1202.5 598.016 1202.5C595.708 1202.5 593.436 1201.93 591.402 1200.84L547 1177L456 1113L364.5 1054L326.405 1028.28C299.873 1010.37 278.138 986.222 263.102 957.96L252.231 937.526C239.108 912.861 234.46 884.567 239 857L243.5 813.5L251.5 757Z" fill="url(#paint0_linear_1004_42)"/>
<mask id="mask0_1004_42" style="mask-type:alpha" maskUnits="userSpaceOnUse" x="237" y="635" width="451" height="568">
<path d="M251.5 757L262.665 670.657C264.946 653.021 278.442 638.923 295.962 635.876C306.552 634.034 317.441 636.469 326.238 642.646L340.556 652.699C352.948 661.4 362.72 673.329 368.811 687.191L374 699C393.469 731.338 419.225 759.444 449.744 781.657L572.5 871L641.852 911.224C645.608 913.403 649.139 915.949 652.392 918.825L679.846 943.1C688.542 950.789 690.262 963.702 683.882 973.399C682.963 974.796 682.197 976.287 681.597 977.847L678.127 986.871C676.045 992.282 674.383 997.846 673.156 1003.51L668.5 1025L654.5 1066.5L639 1108.5L624 1145L616 1166.5L612.627 1179.15C612.211 1180.71 612 1182.32 612 1183.93V1188.52C612 1196.24 605.739 1202.5 598.016 1202.5C595.708 1202.5 593.436 1201.93 591.402 1200.84L547 1177L456 1113L364.5 1054L326.405 1028.28C299.873 1010.37 278.138 986.222 263.102 957.96L252.231 937.526C239.108 912.861 234.46 884.567 239 857L243.5 813.5L251.5 757Z" fill="url(#paint1_linear_1004_42)"/>
</mask>
<g mask="url(#mask0_1004_42)">
<g filter="url(#filter2_f_1004_42)">
<path d="M421 886.5L357.5 809C347.362 792.321 342 773.177 342 753.659V745V713.067C342 711.05 341.53 709.061 340.629 707.257C337.699 701.397 330.864 698.636 324.686 700.817L323.898 701.095C320.439 702.316 317.601 704.85 315.999 708.149L313.052 714.217C311.043 718.352 310 722.888 310 727.484V765.5V793.466C310 799.811 310.535 806.144 311.598 812.399L315.774 836.965C317.535 847.322 315.584 857.967 310.266 867.028L306.646 873.196C305.563 875.041 304.919 877.11 304.764 879.243L304.284 885.847C303.715 893.665 294.874 897.914 288.415 893.473C287.478 892.829 286.657 892.032 285.984 891.116L261.206 857.366C259.072 854.46 257.177 851.386 255.539 848.175L245.229 827.959C237.703 813.202 240.921 795.239 253.103 784.013C256.341 781.029 259.02 777.488 261.013 773.56L268.337 759.121C273.026 749.876 275.151 739.543 274.489 729.198L273.125 707.893C272.177 693.077 281.697 679.608 295.98 675.558C301.866 673.889 308.11 673.969 313.952 675.788L317.283 676.826C328.888 680.44 338.436 688.772 343.589 699.781L354.198 722.445C356.396 727.141 358.225 732.001 359.67 736.981L372 779.5C375.222 794.643 383.863 808.089 396.299 817.311L466 869L505.361 895.012C517.43 902.989 530.18 909.883 543.462 915.615L600.088 940.054C612.041 945.212 625.342 946.363 638.003 943.333L661.22 937.776C670.779 935.489 680.777 939.162 686.581 947.094C690.074 951.868 691.713 957.749 691.193 963.641L689.559 982.167C689.187 986.381 688.454 990.556 687.367 994.644L668 1067.5L627.5 1180.5L620.499 1206.56C619.32 1210.95 615.341 1214 610.797 1214C608.052 1214 605.428 1212.88 603.532 1210.89L576.861 1182.97C575.29 1181.33 573.585 1179.81 571.766 1178.45L527.918 1145.56C516.477 1136.98 520.499 1118.92 534.5 1116L549.029 1110.88C562.301 1106.21 572.772 1095.82 577.551 1082.59C581.083 1072.81 581.263 1062.13 578.062 1052.24L573.981 1039.62C569.09 1024.51 560.09 1011.05 547.986 1000.76L503 962.5L421 886.5Z" fill="#A47673"/>
</g>
</g>
<path d="M199.455 465.046L197.825 451.74C197.33 447.699 199.432 443.784 203.073 441.963C209.472 438.764 217 443.417 217 450.57V467.98C217 468.992 217.075 470.003 217.226 471.003L226 529.5L230.02 558.244C233.907 586.035 246.482 611.885 265.946 632.098L274.175 640.643C283.264 650.082 290.001 661.528 293.84 674.056C296.266 681.975 297.5 690.21 297.5 698.492V710.5V736.5L293.5 770V785.483C293.5 789.078 292.422 792.591 290.406 795.568L290.134 795.969C285.889 802.235 278.066 805.02 270.816 802.845C263.267 800.58 255.141 803.697 251.043 810.43L249.896 812.314C246.235 818.329 239.702 822 232.661 822H226H213.292C194.249 822 175.358 818.614 157.5 812L144 806.5L131.211 799.122C131.07 799.041 130.936 798.949 130.81 798.848L127.541 796.233C125.811 794.849 127.067 792.071 129.249 792.456C129.416 792.485 129.585 792.495 129.754 792.484L144.289 791.576C150.397 791.194 156.416 789.92 162.155 787.795C165.379 786.6 168.5 785.143 171.486 783.436L177.591 779.948C182.174 777.329 186.364 774.076 190.037 770.285L190.447 769.861C196.715 763.391 201.256 755.449 203.651 746.765L207.453 732.983C207.81 731.69 207.774 730.321 207.35 729.049C205.788 724.363 199.89 722.882 196.299 726.273L195.415 727.108C195.139 727.369 194.843 727.609 194.531 727.825L188.905 731.72C184.31 734.901 179.451 737.682 174.381 740.033L153.528 749.704C149.597 751.528 145.215 752.154 140.93 751.505L132.141 750.173C131.416 750.063 130.774 749.645 130.38 749.026C129.23 747.219 130.7 744.888 132.826 745.146L144 746.5C150.12 746.5 156.028 744.257 160.607 740.196L178.235 724.558C182.343 720.914 185.443 716.275 187.239 711.086C188.405 707.719 189 704.181 189 700.618V700.22C189 695.789 189.93 691.408 191.729 687.359C193.876 682.53 194.779 677.24 194.358 671.973L193.05 655.622C193.017 655.208 193.025 654.793 193.075 654.381C193.757 648.758 187.166 645.237 182.871 648.931L170.694 659.403C170.232 659.801 169.741 660.163 169.226 660.489L161.148 665.591C160.725 665.858 160.234 666 159.734 666C157.397 666 156.205 663.195 157.827 661.513L167 652L184.5 632L187.611 627.396C193.803 618.232 198.022 607.881 200 597L201.74 589.169C202.309 586.607 199.046 585.016 197.378 587.041C197.129 587.343 196.814 587.582 196.456 587.739L184.747 592.892C184.583 592.964 184.411 593.017 184.235 593.049L173.02 595.136C171.728 595.376 171.182 593.555 172.393 593.045C172.464 593.015 172.532 592.978 172.595 592.934L183.065 585.637C187 582.894 190.51 579.587 193.483 575.822L195.205 573.64C200.902 566.424 204 557.5 204 548.307V547.392C204 541.227 202.47 535.158 199.547 529.73C197.858 526.593 196.627 523.23 195.893 519.743L195.331 517.072C193.792 509.764 193.726 502.223 195.137 494.889L195.5 493L199.156 473.907C199.715 470.987 199.816 467.997 199.455 465.046Z" fill="url(#paint2_linear_1004_42)"/>
<path d="M911.209 454.992L909.5 451.5L891.865 411.629C885.507 397.256 865.031 397.487 859 412C843.455 444.082 833.685 478.653 830.137 514.126L827.431 541.194C824.153 573.968 817.314 606.292 807.157 637.625C801.584 654.819 796.912 669.352 796.5 671C795.918 673.327 787.548 711.564 780.076 745.779C775.109 768.524 776.252 792.173 783.376 814.338L784.345 817.35C788.417 830.019 794.673 841.879 802.83 852.393C809.575 861.085 817.54 868.757 826.48 875.17L836 882L835.687 881.518C827.906 869.521 820.992 856.983 815 844L817 834.5C825.317 846.144 834.651 857.026 844.893 867.018L850 872L847 859.5L837.896 840.685C834.034 832.703 832.345 823.843 833 815L840.5 831C852.111 849.91 866.276 867.127 882.593 882.164L883.5 883L899 890.5L892 882L881.5 869L879.454 865.848C868.543 849.039 860.137 830.731 854.5 811.5L845 782.5V767L856 785.5L859.358 790.241C868.395 802.998 879.414 814.226 892 823.5L904.5 829.5L899 821L896.558 812.278C895.864 809.8 895.809 807.186 896.399 804.681C897.115 801.635 896.876 798.441 895.714 795.535L890.5 782.5C901.736 792.414 914.713 800.158 928.774 805.338L945.5 811.5H964L958 805.5L941.98 800.84C934.372 798.627 927.154 795.249 920.58 790.827L910.795 784.244C905.694 780.812 901.618 776.063 899 770.5C893.343 755.192 888.942 739.449 885.841 723.426L884.5 716.5L882.157 707.441C878.724 694.167 876.331 680.646 875 667L876.974 670.769C879.264 675.14 882.901 678.656 887.346 680.796C891.673 682.88 895.237 686.268 897.536 690.483L909 711.5L916.367 724.392C919.452 729.79 922.922 734.959 926.752 739.857L935.012 750.423C939.956 756.746 946.092 762.039 953.073 766.001C958.329 768.984 963.115 772.727 967.278 777.108L970.5 780.5V775.5C966.192 766.222 960.482 757.662 953.57 750.122L953 749.5L942.5 736L929 718.5L915.492 701.615C915.167 701.209 914.924 700.743 914.776 700.245L912.07 691.11C911.749 690.029 913.026 689.188 913.893 689.91C913.964 689.97 914.039 690.019 914.123 690.06C919.332 692.582 929.706 697.706 930.5 698.5C931.3 699.3 943.167 701.167 949 702L954.5 703L951.5 699.5C935.676 694.979 921.955 685.019 912.753 671.375L912.5 671C916.515 668.529 921.551 668.417 925.672 670.707L938.57 677.872C943.443 680.579 948.925 682 954.5 682L946 676L927.43 664.651C921.944 661.299 917.628 656.334 915.072 650.436C913.375 646.52 912.5 642.298 912.5 638.031V624.859C912.5 616.325 913.653 607.831 915.928 599.607L919 588.5L926 546.5C930.238 515.206 925.09 483.358 911.209 454.992Z" fill="url(#paint3_linear_1004_42)"/>
<path d="M337.746 376.641L318.073 430.589C314.695 439.851 311.997 449.346 310 459L304.459 477.329C303.833 479.4 302.627 481.248 300.985 482.656L300.254 483.282C294.878 487.89 286.584 486.044 283.67 479.591C282.904 477.894 281.704 476.428 280.191 475.34L269.358 467.554C267.471 466.198 265.873 464.481 264.656 462.503C263.238 460.199 261.306 458.254 259.012 456.82L257.881 456.113C255.643 454.715 253.184 453.707 250.608 453.135L248.544 452.676C243.612 451.58 238.473 451.879 233.701 453.539C230.919 454.506 228.312 455.92 225.983 457.723L223.666 459.516C217.344 464.411 212.49 470.95 209.634 478.418C208.218 482.122 207.314 486.002 206.947 489.95L206.067 499.401C205.691 503.451 205.825 507.532 206.468 511.548C207.153 515.83 208.409 520.001 210.204 523.948L215 534.5L220.031 549.594C221.008 552.523 221.682 555.546 222.043 558.613C222.347 561.2 222.427 563.807 222.283 566.408L221.5 580.5L220.67 607.875C220.557 611.619 220.741 615.366 221.22 619.082C222.069 625.661 223.839 632.089 226.476 638.176L229 644C235.323 655.315 242.539 666.108 250.579 676.276L255.5 682.5L259.819 687.274C263.249 691.065 267.289 694.255 271.771 696.713L274.087 697.983C278.313 700.301 282.987 701.684 287.794 702.04C291.897 702.344 296.02 701.894 299.961 700.712L309 698L316.436 695.296C318.734 694.46 321.257 694.484 323.54 695.361C325.467 696.103 327.122 697.415 328.284 699.123L332.195 704.876C334.054 707.609 335.483 710.611 336.433 713.777L344 739L348.938 760.913C350.975 769.953 353.816 778.793 357.427 787.327L358.367 789.548C361.449 796.834 365.194 803.822 369.553 810.423C376.808 821.41 385.699 831.224 395.918 839.527L412.5 853L445 874.5L477.5 898.5L512.5 921L549.5 943L579.898 958.199C589.596 963.048 599.852 966.689 610.436 969.041C617.799 970.677 625.287 971.682 632.82 972.046L663 973.5L685 971.5L697.723 970.161C708.178 969.06 718.4 966.349 728.026 962.123L740.525 956.635C749.661 952.624 757.503 946.151 763.172 937.94C767.023 932.364 769.785 926.11 771.314 919.508L780 882L795 836.5L807.5 809.5C815.102 785.041 821.005 759.8 825 734.5L839.5 684.5L853.5 644L855.872 635.697C858.949 624.929 860.871 613.866 861.606 602.692C862.531 588.627 861.569 574.502 858.744 560.693L858.5 559.5L856.989 545.398C855.998 536.146 855.719 526.832 856.154 517.538L856.458 511.052C856.819 503.37 857.94 495.742 859.805 488.281L861.051 483.296C861.683 480.769 862.51 478.295 863.525 475.896C866.148 469.695 867.5 463.03 867.5 456.297V439L865.5 422.5L859 397L852 374C826.174 302.079 780.898 238.735 721.212 191.016L633.138 120.601C621.446 111.254 608.412 103.722 594.476 98.2586L569.822 88.5942C558.847 84.2922 546.854 83.2939 535.319 85.7223C522.151 88.4945 510.285 95.583 501.602 105.864L450.357 166.54C439.142 179.82 429.136 194.076 420.46 209.139L396.107 251.418C373.079 291.398 353.552 333.295 337.746 376.641Z" fill="url(#paint4_linear_1004_42)"/>
<mask id="mask1_1004_42" style="mask-type:alpha" maskUnits="userSpaceOnUse" x="205" y="84" width="663" height="890">
<path d="M337.746 376.641L318.073 430.589C314.695 439.851 311.997 449.346 310 459L304.459 477.329C303.833 479.4 302.627 481.248 300.985 482.656L300.254 483.282C294.878 487.89 286.584 486.044 283.67 479.591C282.904 477.894 281.704 476.428 280.191 475.34L269.358 467.554C267.471 466.198 265.873 464.481 264.656 462.503C263.238 460.199 261.306 458.254 259.012 456.82L257.881 456.113C255.643 454.715 253.184 453.707 250.608 453.135L248.544 452.676C243.612 451.58 238.473 451.879 233.701 453.539C230.919 454.506 228.312 455.92 225.983 457.723L223.666 459.516C217.344 464.411 212.49 470.95 209.634 478.418C208.218 482.122 207.314 486.002 206.947 489.95L206.067 499.401C205.691 503.451 205.825 507.532 206.468 511.548C207.153 515.83 208.409 520.001 210.204 523.948L215 534.5L220.031 549.594C221.008 552.523 221.682 555.546 222.043 558.613C222.347 561.2 222.427 563.807 222.283 566.408L221.5 580.5L220.67 607.875C220.557 611.619 220.741 615.366 221.22 619.082C222.069 625.661 223.839 632.089 226.476 638.176L229 644C235.323 655.315 242.539 666.108 250.579 676.276L255.5 682.5L259.819 687.274C263.249 691.065 267.289 694.255 271.771 696.713L274.087 697.983C278.313 700.301 282.987 701.684 287.794 702.04C291.897 702.344 296.02 701.894 299.961 700.712L309 698L316.436 695.296C318.734 694.46 321.257 694.484 323.54 695.361C325.467 696.103 327.122 697.415 328.284 699.123L332.195 704.876C334.054 707.609 335.483 710.611 336.433 713.777L344 739L348.938 760.913C350.975 769.953 353.816 778.793 357.427 787.327L358.367 789.548C361.449 796.834 365.194 803.822 369.553 810.423C376.808 821.41 385.699 831.224 395.918 839.527L412.5 853L445 874.5L477.5 898.5L512.5 921L549.5 943L579.898 958.199C589.596 963.048 599.852 966.689 610.436 969.041C617.799 970.677 625.287 971.682 632.82 972.046L663 973.5L685 971.5L697.723 970.161C708.178 969.06 718.4 966.349 728.026 962.123L740.525 956.635C749.661 952.624 757.503 946.151 763.172 937.94C767.023 932.364 769.785 926.11 771.314 919.508L780 882L795 836.5L807.5 809.5C815.102 785.041 821.005 759.8 825 734.5L839.5 684.5L853.5 644L855.872 635.697C858.949 624.929 860.871 613.866 861.606 602.692C862.531 588.627 861.569 574.502 858.744 560.693L858.5 559.5L856.989 545.398C855.998 536.146 855.719 526.832 856.154 517.538L856.458 511.052C856.819 503.37 857.94 495.742 859.805 488.281L861.051 483.296C861.683 480.769 862.51 478.295 863.525 475.896C866.148 469.695 867.5 463.03 867.5 456.297V439L865.5 422.5L859 397L852 374C826.174 302.079 780.898 238.735 721.212 191.016L633.138 120.601C621.446 111.254 608.412 103.722 594.476 98.2586L569.822 88.5942C558.847 84.2922 546.854 83.2939 535.319 85.7223C522.151 88.4945 510.285 95.583 501.602 105.864L450.357 166.54C439.142 179.82 429.136 194.076 420.46 209.139L396.107 251.418C373.079 291.398 353.552 333.295 337.746 376.641Z" fill="url(#paint5_linear_1004_42)"/>
</mask>
<g mask="url(#mask1_1004_42)">
<g filter="url(#filter3_f_1004_42)">
<path d="M780.922 850.628L798.5 873L794.5 889L775.5 931.5L719.5 981.5L563.5 975L403.5 877.5L354.5 803L391.5 829L439.5 858.5L496.5 889L557.5 914.5L604.5 929L655.706 938.31C661.89 939.434 668.161 940 674.446 940H689.97C715.577 940 739.462 927.105 753.511 905.697C759.436 896.669 763.368 886.483 765.047 875.816L768.503 853.864C769.453 847.825 777.145 845.821 780.922 850.628Z" fill="#AB7F7E"/>
</g>
<g filter="url(#filter4_f_1004_42)">
<path d="M783.91 592.217L771.625 561.328C770.893 559.489 769.605 557.925 767.94 556.854L763.095 553.74C759.895 551.683 755.624 553.44 754.799 557.154C754.603 558.037 754.629 558.956 754.875 559.827L761 581.5L768.5 605.5L772.701 630.057C774.14 638.472 771.344 647.057 765.225 653.011C759.698 658.389 752.063 661.027 744.395 660.209L725.217 658.163C721.081 657.722 716.913 657.667 712.767 657.999L674.512 661.059C670.855 661.352 667.258 662.157 663.826 663.451L640.815 672.127C639.422 672.652 638.5 673.986 638.5 675.474C638.5 676.731 639.159 677.896 640.237 678.542L648.5 683.5C658.99 689.4 670.822 692.5 682.858 692.5H684C698.143 694.145 711.718 699.023 723.672 706.759L731 711.5L768.93 731.665C769.961 732.213 771.111 732.5 772.278 732.5C775.621 732.5 778.516 730.178 779.241 726.914L779.927 723.827C780.554 721.007 783.056 719 785.945 719C787.279 719 788.577 719.433 789.644 720.233L798.471 726.853C803.42 730.565 807.422 735.394 810.151 740.946L820.332 761.658C820.443 761.885 820.521 762.127 820.561 762.376C821.035 765.3 825.273 765.204 825.615 762.261L827.45 746.434C827.483 746.145 827.543 745.86 827.628 745.583L856.314 652.242C856.878 650.404 854.488 649.14 853.287 650.641C853.099 650.876 852.853 651.059 852.573 651.171L848.493 652.803C844.921 654.232 841.886 656.743 839.815 659.985L832.325 671.708C831.777 672.566 831.337 673.489 831.015 674.454L828.59 681.73C826.447 688.159 817.953 689.511 813.919 684.066C813.64 683.689 813.393 683.29 813.181 682.872L807.421 671.526C800.509 657.912 795.586 643.378 792.8 628.366L790.019 613.38C788.676 606.144 786.63 599.056 783.91 592.217Z" fill="url(#paint6_linear_1004_42)"/>
</g>
<g filter="url(#filter5_f_1004_42)">
<path d="M396.285 602.79L384.832 595.993C384.279 595.665 383.693 595.395 383.085 595.187C375.721 592.668 368.679 599.717 371.206 607.079L375.393 619.275C376.111 621.367 377.497 623.164 379.337 624.391C382.237 626.324 385.929 626.623 389.102 625.181L390.678 624.464C393.472 623.195 396.621 622.938 399.583 623.739L405.336 625.293C410.673 626.736 415.503 629.636 419.284 633.67L428.56 643.564C433.496 648.829 437.672 654.758 440.968 661.178L465 708L478.226 741.38C479.218 743.884 482.973 742.84 482.531 740.184C482.51 740.061 482.48 739.941 482.44 739.824L470.45 704.882C466.822 694.311 462.356 684.047 457.092 674.187L447.689 656.572C435.791 634.284 418.012 615.683 396.285 602.79Z" fill="#8C6A68"/>
</g>
<g filter="url(#filter6_f_1004_42)">
<path d="M527.949 507.144L516.237 501.177C512.137 499.089 507.601 498 503 498L488 496L462.753 491.492C462.143 491.383 462.122 490.515 462.726 490.377L474.238 487.746C476.375 487.257 478.348 486.217 479.959 484.73C482.535 482.352 484 479.006 484 475.5V472.528C484 466.52 486.79 460.854 491.552 457.191L493.052 456.037C495.654 454.035 498.652 452.609 501.847 451.852L509.307 450.085C513.754 449.032 518.308 448.5 522.878 448.5H565.542C579.158 448.5 592.751 449.612 606.186 451.826L665.645 461.623C671.114 462.524 676.238 464.884 680.477 468.454C682.053 469.782 682.047 472.211 680.464 473.53L678.312 475.323C673.803 479.081 668.696 482.058 663.203 484.131L653.657 487.733C648.068 489.842 643.408 493.866 640.507 499.088C638.806 502.15 635.046 503.402 631.849 501.972L622.941 497.987C620.064 496.7 616.838 496.416 613.78 497.18C611.624 497.719 609.626 498.761 607.95 500.221L603.09 504.454C597.786 509.073 591.381 512.247 584.493 513.668L577.991 515.01C568.448 516.979 558.588 516.817 549.114 514.537L545.83 513.746C539.632 512.254 533.63 510.038 527.949 507.144Z" fill="#D59D9B"/>
</g>
<g filter="url(#filter7_f_1004_42)">
<path d="M794.583 524.893L787.812 521.991C786.339 521.359 785.196 520.14 784.663 518.628C783.514 515.374 779.774 513.863 776.688 515.406L774.209 516.646C771.877 517.811 770.241 520.018 769.802 522.588L767.264 537.455C767.09 538.474 766.708 539.446 766.142 540.312C762.861 545.33 755.318 544.693 752.924 539.196L746.026 523.356C745.346 521.794 744.906 520.139 744.722 518.446L743.972 511.544C743.023 502.807 745.245 494.019 750.235 486.784C751.741 484.601 753.479 482.588 755.419 480.78L759.839 476.661C769.5 467.659 780.983 460.839 793.511 456.663L794.344 456.385C800.102 454.466 806.028 453.096 812.044 452.294L838.937 448.708C844.806 447.926 850.768 449.15 855.854 452.182C866.45 458.499 871.22 471.339 867.319 483.042L866 487L860.612 515.285C860.206 517.419 860.074 519.598 860.22 521.766L862.307 552.716C862.625 557.435 857.86 560.836 853.5 559L848.259 557.166C845.111 556.064 842.185 554.411 839.618 552.283L831.232 545.335C828.034 542.686 826.641 538.437 827.648 534.408L829.199 528.202C830.114 524.544 827.347 521 823.576 521C822.865 521 822.159 521.131 821.495 521.386L811.547 525.213C806.067 527.32 799.98 527.206 794.583 524.893Z" fill="#D59D9B"/>
</g>
<g filter="url(#filter8_f_1004_42)">
<path d="M740.534 902.005L743.421 893.921C744.073 892.095 746.528 891.792 747.604 893.406C747.862 893.793 748 894.248 748 894.714V899.665C748 903.774 749.352 907.768 751.848 911.032L753.379 913.033C754.124 914.008 754.976 914.896 755.918 915.682L759.472 918.644C760.136 919.197 760.973 919.5 761.838 919.5C763.658 919.5 765.207 918.174 765.488 916.376L767.099 906.069C767.364 904.368 767.905 902.721 768.7 901.193L771.184 896.415C773.034 892.858 775.715 889.799 779 887.5C780.794 885.93 783.614 886.866 784.114 889.197L784.345 890.275C784.447 890.754 784.456 891.248 784.37 891.729L782 905L780.981 908.97C775.514 930.263 762.502 948.847 744.363 961.268C732.619 969.31 719.148 974.476 705.038 976.349L684.87 979.026C674.975 980.34 664.985 980.809 655.011 980.429L651.689 980.302C629.039 979.44 606.668 975 585.404 967.149L585 967C558.705 953.686 533.456 938.397 509.472 921.266L507 919.5L495.763 910.604C495.266 910.211 494.9 909.676 494.714 909.07L494.516 908.428C493.867 906.317 495.828 904.332 497.947 904.955C499.722 905.477 501.5 904.146 501.5 902.296V902.15C501.5 899.708 504.348 898.374 506.225 899.937L509.195 902.413C510.038 903.115 511.101 903.5 512.199 903.5H519.604C521.198 903.5 522.788 903.652 524.353 903.952L532.029 905.429C533.98 905.804 535.808 906.654 537.352 907.904L539.882 909.952C543.106 912.562 547.801 912.364 550.84 909.542C551.917 908.541 552.713 907.253 553.117 905.839C554.713 900.255 561.515 898.143 565.993 901.842L568 903.5L578.023 912.688C579.328 913.884 580.385 915.326 581.134 916.931L582.479 919.811C584.956 925.119 591.324 927.338 596.563 924.719C597.515 924.242 598.389 923.623 599.153 922.881L608.738 913.588C612.325 910.109 617.445 908.711 622.302 909.883C626.542 910.907 630.101 913.776 632.001 917.702L633.661 921.133C635.415 924.757 635.075 929.044 632.773 932.347C628.754 938.114 631.02 946.118 637.467 948.921L642.599 951.152C646.081 952.666 649.994 952.868 653.614 951.72L662.557 948.884C666.496 947.635 670.222 945.794 673.608 943.425L676.728 941.241C684.381 935.883 690.156 928.253 693.233 919.432L695.863 911.892C695.954 911.633 696.092 911.393 696.27 911.185C697.424 909.838 699.616 910.341 700.068 912.057L703.318 924.407C703.763 926.098 703.699 927.883 703.136 929.538L696.894 947.875C696.325 949.545 696.494 951.379 697.359 952.917C699.077 955.971 702.982 956.998 705.98 955.183L719.5 947L722.943 944.754C727.969 941.476 731 935.882 731 929.881V928.453C731 927.491 731.155 926.535 731.459 925.622L732.455 922.636C733.079 920.763 734.831 919.5 736.805 919.5C739.564 919.5 741.698 917.082 741.356 914.345L740.197 905.075C740.067 904.04 740.183 902.988 740.534 902.005Z" fill="#1F1F1F"/>
</g>
<g filter="url(#filter9_f_1004_42)">
<path d="M518 512L512 494.5H528L536.5 496L559.5 505.5H589L605 484.5L610.5 487.5L621.5 494.5L619 502L625 509L633.5 512V523.5L631 534L605 552L572.5 574L534.5 579L518 574H534.5L559.5 568L583 552L595.5 539.5L589 530.5L572.5 527L539 523.5L518 512Z" fill="#D69C96"/>
</g>
<g filter="url(#filter10_f_1004_42)">
<path d="M821.5 525.5L831.5 508L848 515.5L852.5 522L848 538.5L852.5 553.5L841 555.5L830 564.5L793.5 555.5L770.5 536V515.5L782.5 525.5L808.5 529.5L821.5 525.5Z" fill="#D29994"/>
</g>
<g filter="url(#filter11_f_1004_42)">
<path d="M700.635 713.999L705.942 701.909C706.61 700.388 707.938 699.255 709.546 698.836C713.559 697.789 717.219 701.443 716.178 705.457L715.244 709.06C715.082 709.684 715 710.326 715 710.972V732V742.906C715 745.996 712.496 748.5 709.406 748.5C707.87 748.5 706.402 747.868 705.345 746.753L702.328 743.569C699.549 740.635 698 736.748 698 732.707V726.554C698 722.232 698.897 717.956 700.635 713.999Z" fill="#C39491"/>
</g>
</g>
<circle cx="281.5" cy="662.5" r="24.5" fill="black"/>
<circle cx="281" cy="662" r="22" fill="white"/>
<circle cx="281" cy="662" r="20" fill="black"/>
<mask id="mask2_1004_42" style="mask-type:alpha" maskUnits="userSpaceOnUse" x="234" y="506" width="69" height="123">
<path d="M253.578 560.999L255.841 558.057C256.569 557.111 255.363 555.897 254.412 556.618L252.877 557.783C248.3 561.255 243.44 564.336 238.347 566.993L234.5 569L235.337 562.028C235.758 558.518 237.686 555.365 240.618 553.39L252.814 545.176C257.619 541.94 260.5 536.526 260.5 530.733C260.5 528.596 260.107 526.477 259.339 524.482L258.745 522.938C258.253 521.657 258 520.296 258 518.924C258 514.425 260.696 510.365 264.842 508.619L267.5 507.5C275.601 504.707 284.463 508.805 287.581 516.787L294.5 534.5L295.595 538.581C298.519 549.48 300 560.715 300 572L298.5 584V592.5V599.393C298.5 601.46 298.678 603.524 299.032 605.562L302.042 622.867C302.326 624.502 301.738 626.167 300.488 627.26C299.252 628.342 297.544 628.709 295.972 628.231L291.211 626.782C288.473 625.948 286.063 624.278 284.322 622.006L282.127 619.144C278.016 613.781 271.392 610.969 264.678 611.737L264.357 611.774C260.241 612.244 256.087 611.305 252.574 609.109C248.372 606.483 245.414 602.265 244.376 597.419L243.5 593.335C242.203 587.281 242.936 580.968 245.587 575.372L248.339 569.562C249.776 566.529 251.532 563.659 253.578 560.999Z" fill="#D9D9D9"/>
</mask>
<g mask="url(#mask2_1004_42)">
<g filter="url(#filter12_f_1004_42)">
<path d="M253.578 560.999L255.841 558.057C256.569 557.111 255.363 555.897 254.412 556.618L252.877 557.783C248.3 561.255 243.44 564.336 238.347 566.993L234.5 569L235.337 562.028C235.758 558.518 237.686 555.365 240.618 553.39L252.814 545.176C257.619 541.94 260.5 536.526 260.5 530.733C260.5 528.596 260.107 526.477 259.339 524.482L258.745 522.938C258.253 521.657 258 520.296 258 518.924C258 514.425 260.696 510.365 264.842 508.619L267.5 507.5C275.601 504.707 284.463 508.805 287.581 516.787L294.5 534.5L295.595 538.581C298.519 549.48 300 560.715 300 572L298.5 584V592.5V599.393C298.5 601.46 298.678 603.524 299.032 605.562L302.042 622.867C302.326 624.502 301.738 626.167 300.488 627.26C299.252 628.342 297.544 628.709 295.972 628.231L291.211 626.782C288.473 625.948 286.063 624.278 284.322 622.006L282.127 619.144C278.016 613.781 271.392 610.969 264.678 611.737L264.357 611.774C260.241 612.244 256.087 611.305 252.574 609.109C248.372 606.483 245.414 602.265 244.376 597.419L243.5 593.335C242.203 587.281 242.936 580.968 245.587 575.372L248.339 569.562C249.776 566.529 251.532 563.659 253.578 560.999Z" fill="#DC9F93"/>
</g>
</g>
<path d="M414 452.5L360.417 462.423C360.14 462.474 359.858 462.5 359.576 462.5C357.247 462.5 355.283 464.234 354.994 466.545L354.372 471.523C354.175 473.104 355.407 474.5 357 474.5L440.5 464L464.693 462.63C466.219 462.544 467.747 462.733 469.205 463.189L474.049 464.703C474.651 464.891 475.305 464.797 475.829 464.447C476.261 464.159 476.57 463.721 476.696 463.217L479.117 453.531C479.609 451.562 478.452 449.558 476.5 449L473.442 448.388C472.15 448.13 470.837 448 469.52 448H449L414 452.5Z" fill="black"/>
<path d="M365.5 654.246L354.346 667.857C353.743 668.593 352.571 668.409 352.223 667.523C352.082 667.166 352.114 666.765 352.309 666.434L355 661.873L360 651.703L362.477 647.991C367.056 641.128 369.5 633.063 369.5 624.813C369.5 621.732 369.159 618.661 368.484 615.655L367.893 613.027C366.308 605.977 363.577 599.235 359.809 593.07L354 583.567L349.521 574.001C345.846 566.152 342.769 558.036 340.316 549.724C337.776 541.112 335.914 532.315 334.747 523.412L334.5 521.532C334.5 518.79 331.383 517.211 329.172 518.835L325.5 521.532L318.953 527.774C312.784 533.655 308.458 541.203 306.5 549.498L302.179 561.426C300.396 566.348 299.004 571.404 298.018 576.545L295.526 589.534C295.509 589.623 295.48 589.71 295.439 589.792C294.962 590.763 293.5 590.423 293.5 589.341V576.234C293.5 576.038 293.486 575.842 293.457 575.648L291.5 562.211L290.229 549.289C290.077 547.736 289.813 546.195 289.44 544.68L288.899 542.479C287.663 537.448 284.921 532.914 281.039 529.482C277.421 526.282 274.787 522.119 273.446 517.479L269.617 504.24C268.541 500.52 267.763 496.719 267.29 492.875L266 482.379V472.826C266 469.055 264.716 465.395 262.36 462.45C260.807 460.508 258.837 458.94 256.596 457.861L254.422 456.814C249.272 454.335 243.471 453.539 237.844 454.541L234.94 455.058C231.683 455.638 228.585 456.897 225.847 458.754C222.664 460.912 220.058 463.816 218.255 467.212L212 479L206.965 491.818C206.658 492.599 206.5 493.431 206.5 494.27V496.175C206.5 500.985 200.966 503.688 197.172 500.732C195.522 499.447 194.696 497.37 195.012 495.302L197.232 480.786C197.741 477.464 197.702 474.08 197.118 470.77L195.857 463.625C194.955 458.514 193.524 453.511 191.587 448.696L185.5 433.565L178.287 409.037C172.443 389.167 168.59 368.764 166.783 348.131L166.025 339.47C164.018 316.546 165.187 293.455 169.5 270.851C180.104 232.098 196.6 195.204 218.412 161.462L221 157.46L243.5 126.442L253.831 112.981C268.192 94.2692 285.343 77.8757 304.683 64.3743C324.439 50.5834 346.236 39.9791 369.281 32.9486L381.098 29.3432C396.675 24.5909 412.604 21.0798 428.735 18.8427L443.455 16.8015C476.07 12.2784 509.056 11.016 541.922 13.0329L550.5 13.5594L580.926 16.0237C598.236 17.4259 615.294 21.0553 631.676 26.8221C641.212 30.1791 650.482 34.2475 659.409 38.9929L668 43.5598L702.16 64.4986C703.702 65.4436 705.021 66.711 706.027 68.2137C711.869 76.9403 705.039 88.5532 694.573 87.6879L664.264 85.182C660.787 84.8945 657.287 85.2787 653.955 86.3136L620.868 96.5904C614.64 98.5246 608.636 101.116 602.956 104.32L602.3 104.69C595.465 108.545 589.187 113.313 583.638 118.862C580.55 121.95 577.234 124.799 573.716 127.385L570.289 129.905C564.77 133.963 558.966 137.618 552.922 140.842L547 144L531 155C519.749 164.368 510.172 175.582 502.681 188.161L492.5 205.257L480.924 231.9C475.981 243.275 470.202 254.268 463.632 264.787L454.083 280.076C451.368 284.423 448.215 288.481 444.674 292.185C436.667 300.561 430.707 310.676 427.262 321.74L413.5 365.937L403.987 392.789C394.009 420.952 381.981 448.346 368 474.752L360.816 492.54C357.95 499.636 356.001 507.067 355.016 514.656C353.682 524.926 354.13 535.349 356.341 545.466L356.769 547.426C358.905 557.2 362.812 566.5 368.297 574.867L370.065 577.565C374.646 584.552 377.843 592.353 379.484 600.545L379.971 602.973C381.634 611.278 381.349 619.857 379.138 628.033C377.721 633.276 375.532 638.278 372.643 642.876L365.5 654.246Z" fill="url(#paint7_radial_1004_42)"/>
<path d="M868.905 434.782L874.607 448.609C876.191 452.451 878.411 455.998 881.173 459.103C884.684 463.049 888.998 466.198 893.827 468.339L906 473.735C916.631 478.977 928.813 480.148 940.248 477.028L943 476.277L954.769 473.883C955.239 473.788 955.653 473.516 955.929 473.125C956.8 471.884 955.913 470.175 954.396 470.175H953.5H947.165C944.424 470.175 941.718 469.555 939.251 468.36C934.928 466.266 931.61 462.545 930.024 458.01L925.727 445.72C924.91 443.382 924.269 440.988 923.809 438.555L922.28 430.467C920.431 420.689 919.5 410.76 919.5 400.808V398.309C919.5 384.566 917.979 370.866 914.966 357.458L907.5 324.241L904.66 309.189C895.591 261.115 880.414 214.398 859.5 170.172L849.139 153.59C835.816 132.267 818.857 113.446 799.031 97.9819C784.735 86.8303 769.085 77.5319 752.454 70.3079L678 37.9665L653.169 28.4968C635.143 21.6223 616.254 17.2696 597.037 15.562L578.446 13.91C575.823 13.6769 573.182 13.7269 570.57 14.059L558.852 15.5486C547.219 17.0273 538.5 26.925 538.5 38.6516C538.5 40.5605 538.265 42.4622 537.801 44.3138L532 67.4584L522.652 94.9251C518.828 106.159 521.103 118.572 528.66 127.72C533.113 133.11 539.111 137.006 545.846 138.882L570.418 145.728C577.788 147.781 584.935 150.562 591.755 154.03L629.5 173.222L656.742 189.795C675.848 201.419 693.521 215.248 709.396 231L713.83 235.399C722.262 243.764 729.973 252.825 736.882 262.486C743.284 271.439 750.376 279.878 758.093 287.725L790 320.174L825.5 361.36L827.176 363.667C837.373 377.697 846.347 392.576 854 408.141L856.778 412.238C861.58 419.318 865.644 426.873 868.905 434.782Z" fill="url(#paint8_linear_1004_42)"/>
<mask id="mask3_1004_42" style="mask-type:alpha" maskUnits="userSpaceOnUse" x="520" y="13" width="437" height="466">
<path d="M868.905 434.782L874.607 448.609C876.191 452.451 878.411 455.998 881.173 459.102C884.684 463.049 888.998 466.198 893.827 468.339L906 473.735C916.631 478.977 928.813 480.148 940.248 477.028L943 476.277L954.769 473.883C955.239 473.788 955.653 473.516 955.929 473.125C956.8 471.884 955.913 470.175 954.396 470.175H953.5H947.165C944.424 470.175 941.718 469.555 939.251 468.36C934.928 466.266 931.61 462.545 930.024 458.01L925.727 445.72C924.91 443.382 924.269 440.987 923.809 438.555L922.28 430.467C920.431 420.689 919.5 410.76 919.5 400.808V398.309C919.5 384.566 917.979 370.866 914.966 357.458L907.5 324.241L904.66 309.189C895.591 261.115 880.414 214.397 859.5 170.172L849.139 153.59C835.816 132.267 818.857 113.446 799.031 97.9818C784.735 86.8303 769.085 77.5318 752.454 70.3078L678 37.9664L653.169 28.4967C635.143 21.6223 616.254 17.2696 597.037 15.562L578.446 13.91C575.823 13.6769 573.182 13.7268 570.57 14.0589L558.852 15.5485C547.219 17.0273 538.5 26.9249 538.5 38.6516C538.5 40.5605 538.265 42.4621 537.801 44.3138L532 67.4583L522.652 94.925C518.828 106.159 521.103 118.571 528.66 127.72C533.113 133.11 539.111 137.006 545.846 138.882L570.418 145.728C577.788 147.781 584.935 150.562 591.755 154.03L629.5 173.222L656.742 189.795C675.848 201.418 693.521 215.248 709.396 231L713.83 235.399C722.262 243.764 729.973 252.825 736.882 262.486C743.284 271.439 750.376 279.877 758.093 287.725L790 320.173L825.5 361.36L827.176 363.667C837.373 377.697 846.347 392.576 854 408.141L856.778 412.238C861.58 419.318 865.644 426.873 868.905 434.782Z" fill="#D9D9D9"/>
</mask>
<g mask="url(#mask3_1004_42)">
<g filter="url(#filter13_f_1004_42)">
<path d="M768.25 93.5059L656.067 52L717.156 83.6235L682.169 75.2235L746.59 106.847L656.067 73.7412L686.056 99.9294L623.301 73.7412L692.165 127.6L617.192 89.0588L664.397 145.882L586.091 83.6235L627.743 127.6L562.766 89.0588L627.743 145.882L570.541 112.282L617.192 145.882L530 123.647L603.308 145.882L702.717 201.224L645.515 158.235L686.056 178.494L636.074 136.988L726.042 201.224L717.156 184.424L777.135 220L736.594 166.635L768.25 173.059L741.592 145.882L783.8 166.635L721.599 112.282L816.011 152.306L846 184.424L834.337 158.235L768.25 93.5059Z" fill="url(#paint9_linear_1004_42)" fill-opacity="0.32"/>
</g>
</g>
<mask id="mask4_1004_42" style="mask-type:alpha" maskUnits="userSpaceOnUse" x="165" y="12" width="544" height="657">
<path d="M365.5 654.246L354.346 667.857C353.743 668.593 352.571 668.409 352.223 667.523C352.082 667.166 352.114 666.765 352.309 666.434L355 661.873L360 651.703L362.477 647.991C367.056 641.128 369.5 633.063 369.5 624.813C369.5 621.732 369.159 618.661 368.484 615.655L367.893 613.027C366.308 605.977 363.577 599.235 359.809 593.07L354 583.567L349.521 574.001C345.846 566.152 342.769 558.036 340.316 549.724C337.776 541.112 335.914 532.315 334.747 523.412L334.5 521.532C334.5 518.79 331.383 517.211 329.172 518.835L325.5 521.532L318.953 527.774C312.784 533.655 308.458 541.203 306.5 549.498L302.179 561.426C300.396 566.348 299.004 571.404 298.018 576.545L295.526 589.534C295.509 589.623 295.48 589.71 295.439 589.792C294.962 590.763 293.5 590.423 293.5 589.341V576.234C293.5 576.038 293.486 575.842 293.457 575.648L291.5 562.211L290.229 549.289C290.077 547.736 289.813 546.195 289.44 544.68L288.899 542.479C287.663 537.448 284.921 532.914 281.039 529.482C277.421 526.282 274.787 522.119 273.446 517.479L269.617 504.24C268.541 500.52 267.763 496.719 267.29 492.875L266 482.379V472.826C266 469.055 264.716 465.395 262.36 462.45C260.807 460.508 258.837 458.94 256.596 457.861L254.422 456.814C249.272 454.335 243.471 453.539 237.844 454.541L234.94 455.058C231.683 455.638 228.585 456.897 225.847 458.754C222.664 460.912 220.058 463.816 218.255 467.212L212 479L206.965 491.818C206.658 492.599 206.5 493.431 206.5 494.27V496.175C206.5 500.985 200.966 503.688 197.172 500.732C195.522 499.447 194.696 497.37 195.012 495.302L197.232 480.786C197.741 477.464 197.702 474.08 197.118 470.77L195.857 463.625C194.955 458.514 193.524 453.511 191.587 448.696L185.5 433.565L178.287 409.037C172.443 389.167 168.59 368.764 166.783 348.131L166.025 339.47C164.018 316.546 165.187 293.455 169.5 270.851C180.104 232.098 196.6 195.204 218.412 161.462L221 157.46L243.5 126.442L253.831 112.981C268.192 94.2692 285.343 77.8757 304.683 64.3743C324.439 50.5834 346.236 39.9791 369.281 32.9486L381.098 29.3432C396.675 24.5909 412.604 21.0798 428.735 18.8427L443.455 16.8015C476.07 12.2784 509.056 11.016 541.922 13.0329L550.5 13.5594L580.926 16.0237C598.236 17.4259 615.294 21.0553 631.676 26.8221C641.212 30.1791 650.482 34.2475 659.409 38.9929L668 43.5598L702.16 64.4986C703.702 65.4436 705.021 66.711 706.027 68.2137C711.869 76.9403 705.039 88.5532 694.573 87.6879L664.264 85.182C660.787 84.8945 657.287 85.2787 653.955 86.3136L620.868 96.5904C614.64 98.5246 608.636 101.116 602.956 104.32L602.3 104.69C595.465 108.545 589.187 113.313 583.638 118.862C580.55 121.95 577.234 124.799 573.716 127.385L570.289 129.905C564.77 133.963 558.966 137.618 552.922 140.842L547 144L531 155C519.749 164.368 510.172 175.582 502.681 188.161L492.5 205.257L480.924 231.9C475.981 243.275 470.202 254.268 463.632 264.787L454.083 280.076C451.368 284.423 448.215 288.481 444.674 292.185C436.667 300.561 430.707 310.676 427.262 321.74L413.5 365.937L403.987 392.789C394.009 420.952 381.981 448.346 368 474.752L360.816 492.54C357.95 499.636 356.001 507.067 355.016 514.656C353.682 524.926 354.13 535.349 356.341 545.466L356.769 547.426C358.905 557.2 362.812 566.5 368.297 574.867L370.065 577.565C374.646 584.552 377.843 592.353 379.484 600.545L379.971 602.973C381.634 611.278 381.349 619.857 379.138 628.033C377.721 633.276 375.532 638.278 372.643 642.876L365.5 654.246Z" fill="white"/>
</mask>
<g mask="url(#mask4_1004_42)">
<g filter="url(#filter14_f_1004_42)">
<path d="M420.5 326.5L472.5 218L479.5 184L455.5 238L466.5 194.5L451 218L455.5 198.5L425.5 248.5L451 188L435.5 198.5L438.5 174L381 275.5L395.5 228L378 238L405.5 166.5L366.5 228V213.5L410 150L385 160.5L355 198.5L325.5 228L360 160.5L329.5 203.5L308.5 228L303.5 194.5L283 210.5L316 166.5L355 143L329.5 150L303.5 166.5L268 218L277 188L311.5 143L344 118.5L325.5 124L283 156L253.5 188L217 248.5V309L223 372L229.5 326.5L283 224.5L277 253L268 309L253.5 349.5L332.5 282.5V292L321 326.5L308.5 368.5L366.5 275.5L360 302.5L373.5 297L351 349.5L388.5 302.5L363.5 361.5L388.5 332L385 349.5L373.5 389L395.5 335.5V349.5L385 400.5V409.5L420.5 326.5Z" fill="url(#paint10_linear_1004_42)" fill-opacity="0.32"/>
</g>
</g>
<path d="M-0.5 957.5L21.8649 947.601C26.7674 945.431 32.4997 946.5 36.2907 950.291C36.7629 950.763 37.2708 951.198 37.8099 951.592L76 979.5L271.106 1168.14C271.701 1168.71 272.249 1169.33 272.746 1169.99C278.07 1177.09 276.424 1187.2 269.122 1192.24L266.564 1194C263.276 1196.27 259.343 1197.43 255.349 1197.29L115 1192.5H-30.5165C-32.1595 1192.5 -33.7899 1192.21 -35.334 1191.65C-40.5982 1189.74 -44.2296 1184.89 -44.5848 1179.3L-51.4124 1071.85C-52.7737 1050.43 -47.7728 1029.08 -37.0382 1010.49L-36.312 1009.24C-34.107 1005.42 -32.1879 1001.44 -30.5703 997.339L-26.804 987.789C-21.7542 974.984 -12.4711 964.294 -0.5 957.5Z" fill="#111313"/>
<path d="M105.701 920.37L107.699 922.124C117.661 930.866 133.211 927.721 138.993 915.795C141.821 909.962 147.293 905.854 153.683 904.767L156.362 904.311C163.159 903.154 169.191 899.278 173.068 893.576L179.535 884.067C182.48 879.735 184.501 874.844 185.472 869.696L192.449 832.718C193.255 828.449 189.981 824.5 185.637 824.5C184.56 824.5 183.499 824.751 182.536 825.232L172 830.5L134.683 846.014C129.91 847.998 125.377 850.517 121.17 853.521L106.37 864.093C97.666 870.31 92.5 880.348 92.5 891.045C92.5 896.91 94.057 902.669 97.012 907.735L101.19 914.896C102.389 916.952 103.912 918.8 105.701 920.37Z" fill="url(#paint11_linear_1004_42)"/>
<g filter="url(#filter15_i_1004_42)">
<path d="M120.752 914.789L107.059 933.806C102.442 940.219 103.271 949.057 109 954.5L373.336 1219.32C379.41 1225.4 386.378 1230.52 394 1234.5C404.889 1239.12 416.596 1241.5 428.423 1241.5H637.465C644.234 1241.5 647.691 1233.38 643 1228.5C608.779 1201.26 577.783 1170.19 550.616 1135.91L549.5 1134.5L362.858 954.801C334.99 927.97 309.135 899.125 285.5 868.5L267.658 843.246C258.265 829.952 244.021 820.884 228 818L196.353 813.131C195.785 813.044 195.211 813 194.637 813C189.778 813 185.464 816.109 183.927 820.719L178.5 837L174.464 858.188C173.167 864.996 170.539 871.48 166.731 877.269C162.303 884 156.389 889.624 149.445 893.709L133.742 902.946C128.637 905.949 124.213 909.982 120.752 914.789Z" fill="url(#paint12_linear_1004_42)"/>
</g>
<g filter="url(#filter16_i_1004_42)">
<path d="M164 827.5L184.5 819.5L180.5 830.5C178.504 831.498 176.425 832.322 174.287 832.964L172.652 833.454C169.225 834.483 165.898 835.822 162.715 837.457L158.733 839.502C152.261 842.825 146.143 846.798 140.474 851.358L126 863L104.07 883.175C102.079 885.007 100.745 887.444 100.275 890.109C99.7742 892.946 100.283 895.87 101.712 898.372L109.028 911.174C110.672 914.052 112.583 916.769 114.733 919.291L126 932.5L167.5 970.5L239 1037L312 1108L408.1 1197.16C408.699 1197.72 409.346 1198.22 410.033 1198.66L412.722 1200.39C421.92 1206.31 419.608 1220.35 409 1223L398.57 1227.17C384.026 1232.99 368.403 1235.62 352.755 1234.9C326.466 1233.67 301.493 1223.03 282.398 1204.92L263.5 1187L198 1126L113.5 1040.5L-4.5 941L-19.1433 930.784C-23.1884 927.962 -24.8356 922.776 -23.1604 918.136C-21.1319 912.519 -14.9621 909.578 -9.32107 911.54L0.142094 914.832C2.36495 915.605 4.70175 916 7.05523 916H9.86198C14.9027 916 19.8921 914.988 24.5344 913.024L43.5 905L66.2869 895.805C69.2864 894.595 70.4945 890.991 68.8304 888.217C67.9914 886.819 67.848 885.111 68.4423 883.592L70.4044 878.578C71.4494 875.907 73.1838 873.561 75.4306 871.779L92.3783 858.338C98.1075 853.794 104.335 849.917 110.941 846.782L118.652 843.123C126.539 839.38 134.701 836.246 143.067 833.749L164 827.5Z" fill="white"/>
</g>
<path d="M-0.868454 1157L-52.5 1120L-78 1103C-103.707 1081.99 -101.504 1042.03 -73.6438 1023.97L-32.3484 997.207C-25.816 992.973 -17.6995 991.978 -10.3378 994.509C-7.46927 995.495 -4.80116 996.988 -2.46057 998.918L99.5103 1082.97C102.987 1085.84 105 1090.11 105 1094.61C105 1099.83 102.307 1104.67 97.8777 1107.43L16.5 1158C11.0045 1161.05 4.24141 1160.66 -0.868454 1157Z" fill="#161818"/>
<path d="M12.9083 1083.37L-25.9455 1109.69L-28.8833 1111.25C-31.7293 1112.76 -32.4276 1116.52 -30.3115 1118.95L-7.92216 1144.64C-5.97066 1146.88 -2.50864 1146.94 -0.487903 1144.76L3.41335 1140.56C3.78344 1140.16 4.21612 1139.82 4.69433 1139.56L82.4658 1097.38C84.7032 1096.17 85.672 1093.47 84.716 1091.11L84.3987 1090.33L73.3467 1066.07C72.9299 1065.15 72.2471 1064.39 71.3873 1063.86L66.4273 1060.86C65.002 1060 63.2402 1059.9 61.729 1060.6L13.6053 1082.97C13.3628 1083.08 13.1297 1083.22 12.9083 1083.37Z" fill="#EDD058" stroke="black"/>
<path d="M523.924 481.764L519.557 485.417C516.51 487.966 516.162 492.525 518.785 495.508C519.317 496.113 519.949 496.623 520.653 497.015L531.149 502.861C536.295 505.728 541.773 507.954 547.46 509.49L553.394 511.093C562.84 513.644 572.818 513.436 582.149 510.492L590.851 507.747C596.039 506.11 600.535 502.796 603.633 498.324L605.831 495.153C607.243 493.114 608 490.694 608 488.214C608 485.015 606.742 481.945 604.498 479.665L602.886 478.029C600.265 475.366 596.872 473.597 593.188 472.971L585.857 471.726C583.013 471.244 580.125 471.064 577.243 471.19L558.634 472.003C551.612 472.311 544.672 473.646 538.037 475.968L527.856 479.53C526.421 480.032 525.089 480.788 523.924 481.764Z" fill="#E2E7F7"/>
<g filter="url(#filter17_i_1004_42)">
<path d="M558.5 507C573.136 507 585 495.136 585 480.5C585 477.297 584.432 474.227 583.391 471.385C581.35 471.165 579.295 471.1 577.243 471.19L558.634 472.003C551.612 472.311 544.672 473.646 538.037 475.968L532.113 478.04C532.038 478.85 532 479.671 532 480.5C532 495.136 543.864 507 558.5 507Z" fill="#1E1C1A"/>
</g>
<path d="M606.537 479.937L607.443 481.879C607.481 481.959 607.505 482.046 607.513 482.134C607.601 483.014 606.392 483.383 606.033 482.575C606.011 482.525 605.984 482.478 605.952 482.434L604.906 480.995C603.005 478.382 600.419 476.341 597.437 475.099C596.481 474.701 595.492 474.387 594.482 474.163L591.673 473.538C588.565 472.848 585.398 472.454 582.215 472.363L569.5 472L559.5 472.5L557.78 472.787C548.952 474.258 540.309 476.676 532 480L523.216 485.019C522.073 485.672 520.979 486.405 519.94 487.213L517.571 489.056C517.192 489.351 516.854 489.695 516.566 490.078C515.874 491.002 514.904 491.679 513.798 492.011L512.197 492.491C511.074 492.828 509.902 492.974 508.73 492.923L499 492.5C498.27 492.396 498.224 491.359 498.942 491.19L503.774 490.053C503.924 490.018 504.068 489.961 504.202 489.885L505.229 489.298C506.717 488.448 507.955 487.221 508.818 485.741L509.355 484.819C510.437 482.966 511.937 481.391 513.737 480.221L516.868 478.186C519.604 476.408 522.616 475.096 525.781 474.305L532.113 472.722C536.692 471.577 541.377 470.909 546.094 470.727L565 470H585.137C587.699 470 590.247 470.374 592.7 471.11L598.253 472.776C601.909 473.873 604.923 476.478 606.537 479.937Z" fill="black"/>
<circle cx="557" cy="482" r="9" fill="black"/>
<path d="M551.841 481.043L550.848 483.912C550.575 484.7 549.491 484.779 549.107 484.039C549.037 483.904 549 483.754 549 483.601V481.909C549 481.031 549.147 480.16 549.434 479.331L549.47 479.227C549.901 477.981 550.614 476.853 551.554 475.929L552.202 475.292C552.4 475.098 552.62 474.928 552.858 474.785L553.683 474.29C554.471 473.817 555.474 473.895 556.18 474.484C557.157 475.298 557.225 476.775 556.325 477.675L556.005 477.995C555.674 478.326 555.261 478.56 554.808 478.673L554.526 478.744C553.856 478.911 553.248 479.266 552.773 479.768L552.335 480.23C552.114 480.463 551.946 480.74 551.841 481.043Z" fill="#D9D9D9"/>
<path d="M769.19 506.506L768.276 504.416C767.473 502.581 767.586 500.475 768.579 498.736C768.859 498.248 769.202 497.798 769.6 497.4L772.645 494.355C773.879 493.121 775.231 492.013 776.682 491.045C779.209 489.361 782.006 488.124 784.951 487.387L785.613 487.222C787.533 486.742 789.496 486.45 791.472 486.351L798.5 486H807.605C809.859 486 812.103 486.29 814.283 486.864L817.391 487.682C819.433 488.219 821.316 489.242 822.879 490.663L823.249 490.999C825.038 492.625 826.272 494.771 826.779 497.135C827.249 499.331 827.071 501.616 826.265 503.712L825.491 505.723C825.164 506.573 824.776 507.399 824.329 508.193L823.131 510.322C821.4 513.4 818.987 516.04 816.078 518.04L815.91 518.155C813.656 519.705 811.134 520.821 808.472 521.448C805.522 522.142 802.461 522.22 799.48 521.678L796.507 521.138C794.175 520.714 791.889 520.063 789.682 519.197L781.358 515.926C779.79 515.31 778.288 514.539 776.873 513.624L773.244 511.275C771.454 510.117 770.044 508.459 769.19 506.506Z" fill="#E2E7F6"/>
<g filter="url(#filter18_i_1004_42)">
<path fill-rule="evenodd" clip-rule="evenodd" d="M789 517C802.255 517 813 505.583 813 491.5C813 489.777 812.839 488.094 812.533 486.467C810.91 486.157 809.26 486 807.605 486H798.5L791.472 486.351C789.496 486.45 787.533 486.742 785.613 487.222L784.951 487.387C782.006 488.124 779.209 489.361 776.682 491.045C775.231 492.013 773.879 493.121 772.645 494.355L769.6 497.4C769.202 497.798 768.858 498.248 768.579 498.736C767.622 500.412 767.482 502.429 768.192 504.216C772.337 511.857 780.103 517 789 517Z" fill="#1E1C1A"/>
</g>
<path fill-rule="evenodd" clip-rule="evenodd" d="M788.643 503C793.417 503 797.286 498.937 797.286 493.925C797.286 490.52 795.5 487.553 792.858 486L792.509 486.017C790.8 486.103 789.104 486.355 787.444 486.77L786.872 486.913C784.931 487.398 783.065 488.135 781.319 489.103C780.483 490.5 780 492.153 780 493.925C780 498.937 783.87 503 788.643 503Z" fill="black"/>
<path d="M833.5 507.5L846.851 515.51C847.459 515.876 848.206 515.323 848.033 514.634C848.011 514.545 847.974 514.461 847.923 514.385L846 511.5L843.298 507.597C842.257 506.093 842.44 504.06 843.733 502.767C845.041 501.459 845.212 499.397 844.137 497.891L843.898 497.557C843.634 497.188 843.314 496.863 842.948 496.595L839.204 493.85C837.076 492.289 834.769 490.987 832.332 489.972L830 489L820.5 486C815.512 485.002 810.438 484.5 805.351 484.5H803.5L790.774 485.348C789.26 485.449 787.756 485.665 786.275 485.994L783.855 486.532C780.99 487.169 778.308 488.453 776.016 490.287L774.563 491.45C774.521 491.483 774.483 491.521 774.448 491.562L773.408 492.81C773.089 493.193 773.522 493.739 773.968 493.516C773.989 493.505 774.01 493.493 774.029 493.479L775.348 492.537C776.777 491.516 778.328 490.678 779.965 490.041L782.026 489.24C784.997 488.084 788.1 487.3 791.263 486.905L794.093 486.551C797.025 486.184 799.984 486.087 802.933 486.261L804.686 486.364C806.226 486.454 807.756 486.674 809.259 487.021C812.069 487.67 814.759 488.756 817.232 490.239L819.242 491.445C820.41 492.146 821.487 492.987 822.45 493.95C824.13 495.63 825.432 497.652 826.266 499.877L826.5 500.5C827.148 502.444 828.426 504.117 830.131 505.254L833.5 507.5Z" fill="black"/>
<path d="M784.617 492.94L785.247 490.387C785.42 489.686 784.67 489.118 784.042 489.475C783.927 489.54 783.83 489.632 783.758 489.743L782.961 490.973C782.547 491.611 782.243 492.313 782.061 493.051L782.039 493.143C781.765 494.251 781.752 495.407 782 496.521L782.171 497.289C782.223 497.524 782.303 497.751 782.409 497.966L782.775 498.714C783.125 499.43 783.89 499.846 784.681 499.751C785.775 499.619 786.519 498.577 786.289 497.5L786.207 497.116C786.123 496.721 785.933 496.355 785.657 496.06L785.485 495.876C785.077 495.439 784.803 494.894 784.694 494.306L784.593 493.764C784.543 493.49 784.551 493.21 784.617 492.94Z" fill="#D9D9D9"/>
<path d="M301.377 805.703L296.417 788.759C294.838 783.363 291.763 778.526 287.548 774.807C286.185 773.605 284.936 772.281 283.816 770.851L271 754.5L257.666 737.709C257.556 737.57 257.43 737.445 257.29 737.335C255.455 735.893 252.899 737.827 253.788 739.985L254 740.5L258.5 751L271 773L275.283 782.016C278.751 789.318 281.444 796.965 283.317 804.83C286.415 817.844 287.23 831.298 285.725 844.592L282.698 871.336C282.233 875.438 281.435 879.496 280.311 883.469L279.51 886.297C276.234 897.875 269.829 908.325 261 916.5L251.045 925.082C248.019 927.69 244.806 930.073 241.43 932.211L236.179 935.537C233.076 937.502 229.707 939.012 226.175 940.021C222.742 941.002 219.189 941.5 215.618 941.5H212.5C214.142 941.5 215.759 941.902 217.209 942.67L218.19 943.189C221.591 944.989 225.566 945.368 229.245 944.241L238.882 941.291C244.872 939.458 250.331 936.205 254.795 931.81L267.471 919.328C276.099 910.833 283.287 900.989 288.75 890.183L293.395 880.996C299.736 868.456 303.534 854.786 304.572 840.772L304.784 837.915C305.588 827.06 304.434 816.149 301.377 805.703Z" fill="#07090A"/>
<path d="M239.5 804.75L236.672 793.674C236.558 793.226 236.5 792.766 236.5 792.305V778.028C236.5 774.556 241.344 773.726 242.5 777L254 802.5L254.481 804.012C258.801 817.589 261 831.752 261 846V856.139C261 860.038 261.365 863.928 262.09 867.759L262.477 869.807C263.811 876.861 263.684 884.113 262.103 891.115L261.245 894.915C261.082 895.637 260.851 896.341 260.554 897.019L258.015 902.823C257.702 903.538 256.996 904 256.215 904C255.037 904 254.124 902.971 254.264 901.801L255.241 893.66C255.411 892.239 255.25 890.799 254.768 889.451L251.951 881.563C250.986 878.861 249.763 876.257 248.301 873.788L247.43 872.32C244.178 866.831 242.079 860.736 241.262 854.409C240.756 850.485 240.748 846.514 241.239 842.588L242.5 832.5V828.627C242.5 820.574 241.492 812.553 239.5 804.75Z" fill="#07090A"/>
<path d="M776 611.5L767 585L761 565L754.5 543.5C752.386 536.923 744.197 534.706 739.054 539.32L667.034 603.932C664.023 606.633 660.684 608.944 657.095 610.81L644.121 617.557C639.918 619.743 636.876 623.652 635.791 628.264C635.597 629.087 635.34 629.893 635.021 630.676L632.729 636.302C630.927 640.725 630 645.456 630 650.233V650.82C630 656.518 631.408 662.128 634.099 667.151L635.671 670.086C636.877 672.338 638.535 674.317 640.54 675.9L641.244 676.456C644.91 679.35 649.627 680.562 654.234 679.794C655.408 679.599 656.557 679.277 657.663 678.835L671 673.5C678.234 670.541 686.057 669.306 693.851 669.894L694.24 669.924C703.557 670.627 712.486 673.946 720 679.5C721.325 680.493 722.801 681.267 724.372 681.791L725.75 682.25C728.234 683.078 730.835 683.5 733.453 683.5H733.741C737.212 683.5 740.649 682.809 743.849 681.466L754.5 677L765.598 673.585C771.094 671.894 776.02 668.728 779.84 664.43L781.939 662.068C784.59 659.086 786.323 655.402 786.929 651.459C787.624 646.947 786.807 642.331 784.607 638.331L783.883 637.014C782.964 635.344 782.238 633.574 781.72 631.739L776 611.5Z" fill="url(#paint13_linear_1004_42)"/>
<path fill-rule="evenodd" clip-rule="evenodd" d="M769.68 472.941C814.331 466.008 859.732 465.351 904.565 470.991C911.766 471.897 916.856 478.486 915.915 485.682L910.491 527.133L902.82 584.189C902.568 586.062 901.28 587.633 899.492 588.246C877.828 595.673 854.826 598.383 832.029 596.194L783.328 591.516C779.613 591.16 776.357 588.883 774.745 585.517L760.778 556.352C760.303 555.359 759.906 554.331 759.592 553.277L746.874 510.58C746.294 508.634 746 506.615 746 504.585V495.529C746 491.074 747.417 486.735 750.045 483.139L752.392 479.926C754.662 476.82 758.073 474.744 761.874 474.153L769.68 472.941Z" fill="url(#paint14_linear_1004_42)" fill-opacity="0.27"/>
<path fill-rule="evenodd" clip-rule="evenodd" d="M640.633 454.395C610.344 447.487 579.355 444.122 548.29 444.368L512.967 444.647C503.178 444.725 495.476 453.033 496.141 462.8L498.657 499.804L502.59 554.134C502.87 558.001 505.369 561.355 508.994 562.73C533.381 571.982 559.19 576.925 585.269 577.338L647.636 578.328C653.166 578.415 658.393 575.807 661.648 571.336L679.468 546.863C680.557 545.368 681.394 543.705 681.947 541.941L695.083 500.032C695.44 498.892 695.676 497.717 695.787 496.528L696.772 485.982C697.164 481.778 695.978 477.578 693.445 474.2L690.163 469.826C687.748 466.606 684.268 464.347 680.344 463.452L640.633 454.395Z" fill="url(#paint15_linear_1004_42)" fill-opacity="0.27"/>
<path fill-rule="evenodd" clip-rule="evenodd" d="M548.274 442.368C579.495 442.121 610.638 445.502 641.078 452.445L680.789 461.502C685.175 462.503 689.064 465.027 691.763 468.625C691.779 468.646 691.794 468.668 691.809 468.689L700.585 481.049L744.658 482.471L748.468 480.005C749.297 479.468 750.095 478.805 750.993 478.013C751.173 477.854 751.361 477.687 751.554 477.515C752.274 476.874 753.078 476.158 753.904 475.509C756.111 473.774 758.744 472.615 761.567 472.177C809.746 464.696 857.502 464.234 905.796 469.848C910.286 470.37 914.175 473.143 916.183 477.158L918.183 481.158C918.924 482.64 918.324 484.442 916.842 485.183C915.36 485.924 913.558 485.324 912.817 483.842L910.817 479.842C909.7 477.609 907.552 476.093 905.103 475.808C857.309 470.252 810.097 470.713 762.488 478.106C760.692 478.385 759.016 479.122 757.611 480.226C756.945 480.75 756.325 481.301 755.629 481.921C755.415 482.112 755.193 482.309 754.96 482.514C754.022 483.342 752.949 484.252 751.729 485.042L748.5 487.132V515.97L765.819 563.472C766.386 565.029 765.584 566.751 764.028 567.318C762.471 567.886 760.749 567.084 760.181 565.528L742.681 517.528C742.561 517.198 742.5 516.85 742.5 516.5V488.405L701.149 487.071L678.85 554.936C678.333 556.51 676.638 557.367 675.064 556.85C673.489 556.333 672.633 554.638 673.15 553.063L695.677 484.502L686.941 472.196C685.095 469.75 682.443 468.034 679.455 467.352L639.744 458.295C609.777 451.46 579.119 448.129 548.384 448.367L495.309 450.988L478.063 453.711L476.231 457.741C475.545 459.25 473.767 459.917 472.259 459.231C470.75 458.545 470.083 456.767 470.769 455.259L473.269 449.759C473.686 448.841 474.536 448.194 475.532 448.037L494.532 445.037C494.638 445.02 494.745 445.009 494.852 445.004L548.15 442.371C548.191 442.369 548.233 442.368 548.274 442.368Z" fill="black"/>
<path d="M682.5 527L675.411 552.992C675.181 553.838 675.651 554.717 676.483 554.994C677.329 555.276 678.246 554.836 678.555 554.001L693 515L698.541 496.672C699.163 494.614 700.441 492.815 702.18 491.551C704.005 490.224 706.229 489.562 708.482 489.677L727.621 490.65C731.77 490.861 735.365 493.594 736.678 497.534C736.892 498.176 737.041 498.838 737.122 499.51L738.519 511.028C738.836 513.65 739.67 516.183 740.973 518.481L746.642 528.486C747.213 529.493 747.695 530.549 748.084 531.64L757.433 557.906C757.809 558.965 758.315 559.973 758.938 560.908L762.506 566.26C762.815 566.722 763.334 567 763.89 567C765.106 567 765.91 565.737 765.396 564.635L763.285 560.111C763.096 559.706 762.964 559.276 762.893 558.834L758 528.5L753.63 507.959C753.212 505.998 753.092 503.984 753.274 501.987L753.844 495.711C754.268 491.052 756.312 486.688 759.62 483.38L767 476H761.75H756.5L747.759 479.147C745.277 480.04 742.644 480.434 740.01 480.305L709.587 478.821C705.309 478.613 701.211 477.036 697.896 474.324L697.5 474L690 469L688.5 471L690.181 474.361C692.016 478.031 692.677 482.177 692.076 486.236L691 493.5L682.5 527Z" fill="black"/>
<path d="M607.239 771.522L607.769 770.461C607.883 770.234 608.185 770.185 608.365 770.365C608.45 770.45 608.57 770.488 608.689 770.469L626.5 767.5L643.179 762.594C649.049 760.868 655.057 759.656 661.136 758.971L675.695 757.33C683.444 756.457 691.289 757.516 698.53 760.412L701.676 761.67C710.266 765.106 719.811 765.31 728.539 762.243L729.608 761.867C732.191 760.96 734.885 760.411 737.616 760.234L739.914 760.086C745.767 759.709 751.554 761.494 756.178 765.102L768.682 774.862C769.172 775.244 769.369 775.894 769.172 776.484C769.061 776.817 768.835 777.099 768.534 777.28L767.124 778.125C766.71 778.374 766.327 778.673 765.985 779.015L763.361 781.639C761.46 783.54 759.352 785.223 757.076 786.656L755.055 787.929C749.721 791.287 743.871 793.742 737.739 795.198L732.657 796.403C722.629 798.783 712.263 799.399 702.024 798.224L698.712 797.844C690.927 796.951 683.263 795.211 675.855 792.657L658 786.5L642.5 783.5L629.765 782.194C625.266 781.732 620.823 780.83 616.5 779.5L610.426 776.843C609.195 776.304 608.234 775.29 607.762 774.031L607.188 772.501C607.068 772.181 607.087 771.827 607.239 771.522Z" fill="url(#paint16_linear_1004_42)"/>
<path d="M611.857 766.732L607.985 769.636C607.385 770.086 607.81 771.038 608.546 770.891L610.895 770.421C613.93 769.814 617.059 769.867 620.071 770.576C622.668 771.187 625.355 771.311 627.997 770.942L667 765.5C673.309 765.5 679.593 766.284 685.709 767.835L709.355 773.83C711.112 774.275 712.916 774.5 714.728 774.5C717.549 774.5 720.344 773.954 722.958 772.892L726.198 771.576C731.985 769.225 738.244 768.27 744.468 768.789L749.076 769.173C751.665 769.389 754.183 770.129 756.478 771.347L767.399 777.149C768.35 777.655 769.52 777.48 770.282 776.718C770.742 776.258 771 775.635 771 774.985V771.654C771 770.233 770.711 768.827 770.152 767.52L769.291 765.512C767.48 761.286 764.34 757.766 760.349 755.485L753.222 751.413C750.455 749.832 747.324 749 744.137 749C741.413 749 738.724 749.608 736.265 750.779L720.34 758.362C719.458 758.782 718.493 759 717.516 759C716.519 759 715.534 758.773 714.637 758.335L702.418 752.374C697.848 750.146 692.894 748.814 687.823 748.452C683.634 748.152 679.424 748.519 675.35 749.537L649.5 756L623.869 763.456C622.629 763.817 621.345 764 620.053 764C617.098 764 614.222 764.959 611.857 766.732Z" fill="url(#paint17_linear_1004_42)"/>
<path d="M576.891 425.033L518 419.5C508.749 419.5 499.581 421.239 490.972 424.626L473.931 431.33C473.644 431.443 473.347 431.528 473.044 431.585L458.686 434.256C457.075 434.556 456.175 432.464 457.5 431.5L470.5 419.5L479.056 413.018C484.32 409.03 490.17 405.881 496.399 403.683C501.446 401.901 506.698 400.76 512.029 400.286L526.5 399H538H547L571.5 401L623.478 399.253C628.482 399.085 633.492 399.369 638.445 400.103L643.667 400.877C644.222 400.959 644.781 401 645.342 401C653.23 401 658.747 408.799 656.122 416.237L653.636 423.282C652.886 425.406 651.716 427.356 650.194 429.015L649.414 429.867C644.457 435.274 637.164 437.909 629.896 436.918L622.831 435.954C620.615 435.652 618.432 435.144 616.311 434.437L607.373 431.458C597.49 428.163 587.263 426.008 576.891 425.033Z" fill="#433A40"/>
<path d="M785.437 426.23L794.846 415.209C798.751 410.634 804.464 408 810.478 408C811.491 408 812.503 408.075 813.506 408.224L830.583 410.768C833.849 411.254 837.044 412.134 840.099 413.387L840.796 413.673C849.925 417.418 857.299 424.48 861.434 433.44L863.384 437.666C863.792 438.55 864.06 439.492 864.178 440.459L866.18 456.873C866.31 457.942 865.154 458.692 864.231 458.138C864.079 458.047 863.947 457.926 863.844 457.781L859.681 451.954C859.228 451.319 858.833 450.645 858.501 449.94L857.768 448.381C856.078 444.791 852.468 442.5 848.5 442.5C836.523 442.5 824.57 443.559 812.78 445.664L802.5 447.5L783.126 452.133C780.888 452.668 778.536 451.948 776.981 450.252C775.189 448.297 774.804 445.434 776.015 443.076L782.137 431.155C783.043 429.391 784.15 427.738 785.437 426.23Z" fill="#433A40"/>
<g filter="url(#filter19_f_1004_42)">
<path d="M675.82 812.104L660.433 818.811C660.15 818.935 659.906 819.134 659.729 819.387C658.772 820.754 660.179 822.529 661.728 821.909L667.92 819.432C668.623 819.151 669.395 819.094 670.132 819.269L674.2 820.238C677.643 821.058 680.733 822.958 683.02 825.659L684.263 827.129C684.75 827.705 685.128 828.365 685.377 829.077L685.858 830.451C687.103 834.008 691.592 835.114 694.347 832.543C695.402 831.558 696.817 831.054 698.256 831.15L710.876 831.992C715.331 832.289 719.396 829.453 720.656 825.17L720.797 824.69C720.932 824.232 721.124 823.793 721.37 823.383C722.862 820.897 725.998 819.951 728.615 821.198L734.5 824L740.003 826.001C743.17 827.153 746.704 825.833 748.341 822.887C749.654 820.522 749.455 817.607 747.832 815.443L745.62 812.493C743.923 810.231 741.512 808.608 738.778 807.889L724 804L719.541 802.628C713.907 800.895 707.977 800.336 702.118 800.987L696.478 801.614C691.287 802.19 686.404 804.363 682.501 807.833C680.513 809.6 678.258 811.041 675.82 812.104Z" fill="#CC908D"/>
</g>
<path d="M693.557 808.298L696.689 803.479C696.896 803.161 697.135 802.865 697.404 802.596C698.426 801.574 699.812 801 701.257 801H703.871C707.414 801 710.751 802.669 712.878 805.504C713.621 806.494 714.195 807.601 714.578 808.779L717.615 818.123C719.53 824.015 722.215 829.629 725.599 834.819L733.995 847.692C734.774 848.886 734.265 850.494 732.942 851.023L730.5 852L714 844.5L708.725 843.283C708.098 843.138 707.5 843.614 707.5 844.257V846.5L706.5 850L704.698 843.242C704.581 842.805 704.185 842.5 703.732 842.5H701.92C701.4 842.5 700.967 842.899 700.924 843.417L700.5 848.5L695.89 842.213C695.467 841.637 694.594 841.677 694.226 842.29L690.5 848.5L687.5 841C685.885 838.74 685.121 835.981 685.343 833.213L685.722 828.472C685.907 826.169 686.412 823.902 687.223 821.739L688.531 818.251C689.84 814.761 691.525 811.423 693.557 808.298Z" fill="#433A40"/>
<g filter="url(#filter20_f_1004_42)">
<path d="M696.5 900L698.334 921.278C698.774 926.374 698.189 931.507 696.614 936.374L696.005 938.256C694.363 943.332 691.433 947.895 687.5 951.5V951.5M625 910.5L627.739 927.326C628.246 930.437 628.5 933.584 628.5 936.736V944.118C628.5 948.963 627.297 953.733 625 958V958M655.5 893.5V900.979C655.5 905.97 656.173 910.939 657.5 915.75V915.75C658.827 920.561 659.5 925.53 659.5 930.521V934M593 884.5L599.5 910.5L602.5 923L603.782 928.981C604.891 934.158 607.804 938.772 612 942V942M617.5 886.5V886.5C617.5 895.481 618.323 904.443 619.958 913.274L620 913.5L622.5 923M745 890V890C746.98 899.902 746.98 910.098 745 920V920L742.5 932M764.5 882V882C767.45 887.245 769 893.161 769 899.179V900M547.5 890L543 895.625C540.734 898.457 539.5 901.976 539.5 905.603V905.603C539.5 907.519 539.845 909.419 540.517 911.212L542.5 916.5M560.5 900V905.946C560.5 907.639 560.757 909.322 561.262 910.938V910.938C562.387 914.54 562.263 918.417 560.908 921.939L560.5 923M573.5 910.5L577.5 923L579 927.5M585 927.5L583.577 931.2C582.865 933.051 582.5 935.017 582.5 937V937M636.5 910.5L639.888 921.089C640.294 922.355 640.5 923.677 640.5 925.007V925.007C640.5 927.608 641.289 930.147 642.762 932.29L646 937M677.5 882L667.5 896L665 900" stroke="black" stroke-linecap="round"/>
</g>
<g filter="url(#filter21_f_1004_42)">
<path d="M568.614 245.259L558.909 277.262C556.656 284.688 555.823 292.471 556.452 300.206C557.145 308.728 556.062 317.3 553.272 325.382L542.997 355.142C542.914 355.385 542.871 355.64 542.871 355.897C542.871 358.137 545.735 359.071 547.055 357.261L566.602 330.447C568.458 327.901 571.168 326.108 574.237 325.395L587.119 322.402C589.701 321.802 592.219 320.958 594.641 319.882C608.981 313.509 618.547 299.646 619.418 283.977L619.841 276.364C620.275 268.547 619.014 260.729 616.145 253.446L609.358 236.218C608.14 233.125 606.146 230.398 603.568 228.299C594.343 220.791 580.592 223.299 574.612 233.581L570.977 239.832C569.982 241.543 569.189 243.365 568.614 245.259Z" fill="white" fill-opacity="0.36"/>
</g>
</g>
<defs>
<filter id="filter0_i_1004_42" x="667.323" y="871" width="397.707" height="359.454" filterUnits="userSpaceOnUse" color-interpolation-filters="sRGB">
<feFlood flood-opacity="0" result="BackgroundImageFix"/>
<feBlend mode="normal" in="SourceGraphic" in2="BackgroundImageFix" result="shape"/>
<feColorMatrix in="SourceAlpha" type="matrix" values="0 0 0 0 0 0 0 0 0 0 0 0 0 0 0 0 0 0 127 0" result="hardAlpha"/>
<feOffset dx="-3" dy="8"/>
<feComposite in2="hardAlpha" operator="arithmetic" k2="-1" k3="1"/>
<feColorMatrix type="matrix" values="0 0 0 0 1 0 0 0 0 1 0 0 0 0 1 0 0 0 0.51 0"/>
<feBlend mode="normal" in2="shape" result="effect1_innerShadow_1004_42"/>
</filter>
<filter id="filter1_i_1004_42" x="644.021" y="963.594" width="205.531" height="267.906" filterUnits="userSpaceOnUse" color-interpolation-filters="sRGB">
<feFlood flood-opacity="0" result="BackgroundImageFix"/>
<feBlend mode="normal" in="SourceGraphic" in2="BackgroundImageFix" result="shape"/>
<feColorMatrix in="SourceAlpha" type="matrix" values="0 0 0 0 0 0 0 0 0 0 0 0 0 0 0 0 0 0 127 0" result="hardAlpha"/>
<feOffset dy="8"/>
<feGaussianBlur stdDeviation="4"/>
<feComposite in2="hardAlpha" operator="arithmetic" k2="-1" k3="1"/>
<feColorMatrix type="matrix" values="0 0 0 0 0 0 0 0 0 0 0 0 0 0 0 0 0 0 0.25 0"/>
<feBlend mode="normal" in2="shape" result="effect1_innerShadow_1004_42"/>
</filter>
<filter id="filter2_f_1004_42" x="183.195" y="616.362" width="566.093" height="655.638" filterUnits="userSpaceOnUse" color-interpolation-filters="sRGB">
<feFlood flood-opacity="0" result="BackgroundImageFix"/>
<feBlend mode="normal" in="SourceGraphic" in2="BackgroundImageFix" result="shape"/>
<feGaussianBlur stdDeviation="29" result="effect1_foregroundBlur_1004_42"/>
</filter>
<filter id="filter3_f_1004_42" x="304.5" y="753" width="544" height="278.5" filterUnits="userSpaceOnUse" color-interpolation-filters="sRGB">
<feFlood flood-opacity="0" result="BackgroundImageFix"/>
<feBlend mode="normal" in="SourceGraphic" in2="BackgroundImageFix" result="shape"/>
<feGaussianBlur stdDeviation="25" result="effect1_foregroundBlur_1004_42"/>
</filter>
<filter id="filter4_f_1004_42" x="628.5" y="542.867" width="237.899" height="231.652" filterUnits="userSpaceOnUse" color-interpolation-filters="sRGB">
<feFlood flood-opacity="0" result="BackgroundImageFix"/>
<feBlend mode="normal" in="SourceGraphic" in2="BackgroundImageFix" result="shape"/>
<feGaussianBlur stdDeviation="5" result="effect1_foregroundBlur_1004_42"/>
</filter>
<filter id="filter5_f_1004_42" x="330.682" y="554.666" width="191.885" height="228.14" filterUnits="userSpaceOnUse" color-interpolation-filters="sRGB">
<feFlood flood-opacity="0" result="BackgroundImageFix"/>
<feBlend mode="normal" in="SourceGraphic" in2="BackgroundImageFix" result="shape"/>
<feGaussianBlur stdDeviation="20" result="effect1_foregroundBlur_1004_42"/>
</filter>
<filter id="filter6_f_1004_42" x="453.284" y="439.5" width="237.371" height="85.8759" filterUnits="userSpaceOnUse" color-interpolation-filters="sRGB">
<feFlood flood-opacity="0" result="BackgroundImageFix"/>
<feBlend mode="normal" in="SourceGraphic" in2="BackgroundImageFix" result="shape"/>
<feGaussianBlur stdDeviation="4.5" result="effect1_foregroundBlur_1004_42"/>
</filter>
<filter id="filter7_f_1004_42" x="734.758" y="439.478" width="142.912" height="129.028" filterUnits="userSpaceOnUse" color-interpolation-filters="sRGB">
<feFlood flood-opacity="0" result="BackgroundImageFix"/>
<feBlend mode="normal" in="SourceGraphic" in2="BackgroundImageFix" result="shape"/>
<feGaussianBlur stdDeviation="4.5" result="effect1_foregroundBlur_1004_42"/>
</filter>
<filter id="filter8_f_1004_42" x="338.39" y="730.724" width="602.038" height="405.832" filterUnits="userSpaceOnUse" color-interpolation-filters="sRGB">
<feFlood flood-opacity="0" result="BackgroundImageFix"/>
<feBlend mode="normal" in="SourceGraphic" in2="BackgroundImageFix" result="shape"/>
<feGaussianBlur stdDeviation="78" result="effect1_foregroundBlur_1004_42"/>
</filter>
<filter id="filter9_f_1004_42" x="492" y="464.5" width="161.5" height="134.5" filterUnits="userSpaceOnUse" color-interpolation-filters="sRGB">
<feFlood flood-opacity="0" result="BackgroundImageFix"/>
<feBlend mode="normal" in="SourceGraphic" in2="BackgroundImageFix" result="shape"/>
<feGaussianBlur stdDeviation="10" result="effect1_foregroundBlur_1004_42"/>
</filter>
<filter id="filter10_f_1004_42" x="759.5" y="497" width="104" height="78.5" filterUnits="userSpaceOnUse" color-interpolation-filters="sRGB">
<feFlood flood-opacity="0" result="BackgroundImageFix"/>
<feBlend mode="normal" in="SourceGraphic" in2="BackgroundImageFix" result="shape"/>
<feGaussianBlur stdDeviation="5.5" result="effect1_foregroundBlur_1004_42"/>
</filter>
<filter id="filter11_f_1004_42" x="684" y="684.654" width="46.3569" height="77.8456" filterUnits="userSpaceOnUse" color-interpolation-filters="sRGB">
<feFlood flood-opacity="0" result="BackgroundImageFix"/>
<feBlend mode="normal" in="SourceGraphic" in2="BackgroundImageFix" result="shape"/>
<feGaussianBlur stdDeviation="7" result="effect1_foregroundBlur_1004_42"/>
</filter>
<filter id="filter12_f_1004_42" x="184.5" y="456.624" width="167.612" height="221.813" filterUnits="userSpaceOnUse" color-interpolation-filters="sRGB">
<feFlood flood-opacity="0" result="BackgroundImageFix"/>
<feBlend mode="normal" in="SourceGraphic" in2="BackgroundImageFix" result="shape"/>
<feGaussianBlur stdDeviation="25" result="effect1_foregroundBlur_1004_42"/>
</filter>
<filter id="filter13_f_1004_42" x="515" y="37" width="346" height="198" filterUnits="userSpaceOnUse" color-interpolation-filters="sRGB">
<feFlood flood-opacity="0" result="BackgroundImageFix"/>
<feBlend mode="normal" in="SourceGraphic" in2="BackgroundImageFix" result="shape"/>
<feGaussianBlur stdDeviation="7.5" result="effect1_foregroundBlur_1004_42"/>
</filter>
<filter id="filter14_f_1004_42" x="202" y="103.5" width="292.5" height="321" filterUnits="userSpaceOnUse" color-interpolation-filters="sRGB">
<feFlood flood-opacity="0" result="BackgroundImageFix"/>
<feBlend mode="normal" in="SourceGraphic" in2="BackgroundImageFix" result="shape"/>
<feGaussianBlur stdDeviation="7.5" result="effect1_foregroundBlur_1004_42"/>
</filter>
<filter id="filter15_i_1004_42" x="104.08" y="789" width="566.078" height="452.5" filterUnits="userSpaceOnUse" color-interpolation-filters="sRGB">
<feFlood flood-opacity="0" result="BackgroundImageFix"/>
<feBlend mode="normal" in="SourceGraphic" in2="BackgroundImageFix" result="shape"/>
<feColorMatrix in="SourceAlpha" type="matrix" values="0 0 0 0 0 0 0 0 0 0 0 0 0 0 0 0 0 0 127 0" result="hardAlpha"/>
<feOffset dx="32" dy="-24"/>
<feGaussianBlur stdDeviation="12.5"/>
<feComposite in2="hardAlpha" operator="arithmetic" k2="-1" k3="1"/>
<feColorMatrix type="matrix" values="0 0 0 0 0 0 0 0 0 0 0 0 0 0 0 0 0 0 0.25 0"/>
<feBlend mode="normal" in2="shape" result="effect1_innerShadow_1004_42"/>
</filter>
<filter id="filter16_i_1004_42" x="-35.8095" y="819.5" width="454.269" height="420.514" filterUnits="userSpaceOnUse" color-interpolation-filters="sRGB">
<feFlood flood-opacity="0" result="BackgroundImageFix"/>
<feBlend mode="normal" in="SourceGraphic" in2="BackgroundImageFix" result="shape"/>
<feColorMatrix in="SourceAlpha" type="matrix" values="0 0 0 0 0 0 0 0 0 0 0 0 0 0 0 0 0 0 127 0" result="hardAlpha"/>
<feOffset dx="-30" dy="5"/>
<feGaussianBlur stdDeviation="6"/>
<feComposite in2="hardAlpha" operator="arithmetic" k2="-1" k3="1"/>
<feColorMatrix type="matrix" values="0 0 0 0 0.438958 0 0 0 0 0.525556 0 0 0 0 0.5375 0 0 0 0.27 0"/>
<feBlend mode="normal" in2="shape" result="effect1_innerShadow_1004_42"/>
</filter>
<filter id="filter17_i_1004_42" x="532" y="471.151" width="53" height="35.8494" filterUnits="userSpaceOnUse" color-interpolation-filters="sRGB">
<feFlood flood-opacity="0" result="BackgroundImageFix"/>
<feBlend mode="normal" in="SourceGraphic" in2="BackgroundImageFix" result="shape"/>
<feColorMatrix in="SourceAlpha" type="matrix" values="0 0 0 0 0 0 0 0 0 0 0 0 0 0 0 0 0 0 127 0" result="hardAlpha"/>
<feOffset/>
<feGaussianBlur stdDeviation="5"/>
<feComposite in2="hardAlpha" operator="arithmetic" k2="-1" k3="1"/>
<feColorMatrix type="matrix" values="0 0 0 0 0 0 0 0 0 0 0 0 0 0 0 0 0 0 0.97 0"/>
<feBlend mode="normal" in2="shape" result="effect1_innerShadow_1004_42"/>
</filter>
<filter id="filter18_i_1004_42" x="767.745" y="486" width="45.2551" height="31" filterUnits="userSpaceOnUse" color-interpolation-filters="sRGB">
<feFlood flood-opacity="0" result="BackgroundImageFix"/>
<feBlend mode="normal" in="SourceGraphic" in2="BackgroundImageFix" result="shape"/>
<feColorMatrix in="SourceAlpha" type="matrix" values="0 0 0 0 0 0 0 0 0 0 0 0 0 0 0 0 0 0 127 0" result="hardAlpha"/>
<feOffset/>
<feGaussianBlur stdDeviation="5"/>
<feComposite in2="hardAlpha" operator="arithmetic" k2="-1" k3="1"/>
<feColorMatrix type="matrix" values="0 0 0 0 0 0 0 0 0 0 0 0 0 0 0 0 0 0 0.97 0"/>
<feBlend mode="normal" in2="shape" result="effect1_innerShadow_1004_42"/>
</filter>
<filter id="filter19_f_1004_42" x="644.417" y="785.723" width="119.787" height="63.2256" filterUnits="userSpaceOnUse" color-interpolation-filters="sRGB">
<feFlood flood-opacity="0" result="BackgroundImageFix"/>
<feBlend mode="normal" in="SourceGraphic" in2="BackgroundImageFix" result="shape"/>
<feGaussianBlur stdDeviation="7.5" result="effect1_foregroundBlur_1004_42"/>
</filter>
<filter id="filter20_f_1004_42" x="524" y="866.5" width="260.5" height="107" filterUnits="userSpaceOnUse" color-interpolation-filters="sRGB">
<feFlood flood-opacity="0" result="BackgroundImageFix"/>
<feBlend mode="normal" in="SourceGraphic" in2="BackgroundImageFix" result="shape"/>
<feGaussianBlur stdDeviation="7.5" result="effect1_foregroundBlur_1004_42"/>
</filter>
<filter id="filter21_f_1004_42" x="502.871" y="183.952" width="157.054" height="214.264" filterUnits="userSpaceOnUse" color-interpolation-filters="sRGB">
<feFlood flood-opacity="0" result="BackgroundImageFix"/>
<feBlend mode="normal" in="SourceGraphic" in2="BackgroundImageFix" result="shape"/>
<feGaussianBlur stdDeviation="20" result="effect1_foregroundBlur_1004_42"/>
</filter>
<linearGradient id="paint0_linear_1004_42" x1="249.5" y1="782.5" x2="683" y2="1091.5" gradientUnits="userSpaceOnUse">
<stop stop-color="#CCAAA6"/>
<stop offset="0.252239" stop-color="#DEBFAC"/>
<stop offset="0.526364" stop-color="#DEBBAC"/>
<stop offset="1" stop-color="#B99599"/>
</linearGradient>
<linearGradient id="paint1_linear_1004_42" x1="249.5" y1="782.5" x2="683" y2="1091.5" gradientUnits="userSpaceOnUse">
<stop stop-color="#CCAAA6"/>
<stop offset="0.252239" stop-color="#DEBFAC"/>
<stop offset="0.526364" stop-color="#DEBBAC"/>
<stop offset="1" stop-color="#B99599"/>
</linearGradient>
<linearGradient id="paint2_linear_1004_42" x1="527.5" y1="591" x2="191.5" y2="498.5" gradientUnits="userSpaceOnUse">
<stop stop-color="#07090A"/>
<stop offset="0.580261" stop-color="#07090A"/>
<stop offset="1" stop-color="#203234"/>
</linearGradient>
<linearGradient id="paint3_linear_1004_42" x1="819.5" y1="581.5" x2="961" y2="638.5" gradientUnits="userSpaceOnUse">
<stop stop-color="#07090A"/>
<stop offset="0.336545" stop-color="#0D1113"/>
<stop offset="1" stop-color="#3B2434"/>
</linearGradient>
<linearGradient id="paint4_linear_1004_42" x1="371" y1="355.5" x2="880.5" y2="815" gradientUnits="userSpaceOnUse">
<stop stop-color="#E2BCAF"/>
<stop offset="1" stop-color="#D19A97"/>
</linearGradient>
<linearGradient id="paint5_linear_1004_42" x1="371" y1="355.5" x2="880.5" y2="815" gradientUnits="userSpaceOnUse">
<stop stop-color="#EDCFC5"/>
<stop offset="1" stop-color="#D19A97"/>
</linearGradient>
<linearGradient id="paint6_linear_1004_42" x1="720" y1="614" x2="870.5" y2="696" gradientUnits="userSpaceOnUse">
<stop stop-color="#BB8D8B"/>
<stop offset="1" stop-color="#BB8D8B" stop-opacity="0"/>
</linearGradient>
<radialGradient id="paint7_radial_1004_42" cx="0" cy="0" r="1" gradientUnits="userSpaceOnUse" gradientTransform="translate(442 251.5) rotate(-143.78) scale(361.323 537.579)">
<stop stop-color="#07090A"/>
<stop offset="0.580261" stop-color="#07090A"/>
<stop offset="1" stop-color="#8FEBEE"/>
</radialGradient>
<linearGradient id="paint8_linear_1004_42" x1="834.5" y1="316" x2="958.313" y2="302.887" gradientUnits="userSpaceOnUse">
<stop stop-color="#07090A"/>
<stop offset="0.336545" stop-color="#0D1113"/>
<stop offset="1" stop-color="#3B2434"/>
</linearGradient>
<linearGradient id="paint9_linear_1004_42" x1="520.971" y1="78.8454" x2="663.009" y2="250.134" gradientUnits="userSpaceOnUse">
<stop stop-color="#090C0D"/>
<stop offset="1" stop-color="#6F888F" stop-opacity="0"/>
</linearGradient>
<linearGradient id="paint10_linear_1004_42" x1="209.5" y1="165" x2="426.5" y2="290.5" gradientUnits="userSpaceOnUse">
<stop stop-color="#090C0D"/>
<stop offset="1" stop-color="#6F888F" stop-opacity="0"/>
</linearGradient>
<linearGradient id="paint11_linear_1004_42" x1="133.5" y1="862" x2="175" y2="926.5" gradientUnits="userSpaceOnUse">
<stop offset="0.194757" stop-color="#4E7175"/>
<stop offset="1" stop-color="#0E0F13"/>
</linearGradient>
<linearGradient id="paint12_linear_1004_42" x1="225.5" y1="887" x2="586.5" y2="1280" gradientUnits="userSpaceOnUse">
<stop stop-color="#FAFFFF"/>
<stop offset="1" stop-color="#CBE6EF"/>
</linearGradient>
<linearGradient id="paint13_linear_1004_42" x1="343" y1="373.5" x2="768.273" y2="887.648" gradientUnits="userSpaceOnUse">
<stop stop-color="#E2BCAF"/>
<stop offset="1" stop-color="#D19A97"/>
</linearGradient>
<linearGradient id="paint14_linear_1004_42" x1="836.659" y1="495.98" x2="772.24" y2="582.458" gradientUnits="userSpaceOnUse">
<stop stop-color="white"/>
<stop offset="1" stop-color="white" stop-opacity="0.34"/>
</linearGradient>
<linearGradient id="paint15_linear_1004_42" x1="589.5" y1="475.5" x2="642" y2="578" gradientUnits="userSpaceOnUse">
<stop stop-color="white"/>
<stop offset="1" stop-color="white" stop-opacity="0.34"/>
</linearGradient>
<linearGradient id="paint16_linear_1004_42" x1="699" y1="807" x2="702" y2="758" gradientUnits="userSpaceOnUse">
<stop offset="0.231943" stop-color="#D6A39F"/>
<stop offset="0.548072" stop-color="#CC8D99"/>
<stop offset="1" stop-color="#CB8A98"/>
</linearGradient>
<linearGradient id="paint17_linear_1004_42" x1="680.5" y1="750" x2="682.5" y2="777.5" gradientUnits="userSpaceOnUse">
<stop stop-color="#C88690"/>
<stop offset="1" stop-color="#B47E86"/>
</linearGradient>
<clipPath id="clip0_1004_42">
<rect width="1066" height="1150" fill="white"/>
</clipPath>
</defs>
</svg>
