<svg width="14179" height="4185" viewBox="0 0 14179 4185" fill="none" xmlns="http://www.w3.org/2000/svg">
<path d="M2433.9 2432.9L2294.5 2248L2148.5 2018.5L1919.5 1626L1716.5 1229L1456 810L1310.5 532L1243.77 431.773C1206.11 375.202 1160.73 324.171 1108.94 280.159L1092.55 266.228C1038.27 220.101 976.313 183.869 909.5 159.185L876.293 146.916C830.792 130.105 782.669 121.5 734.162 121.5C661.051 121.5 589.27 141.044 526.25 178.107L445.629 225.523C378.723 264.873 319.194 315.593 269.721 375.404L251.463 397.477C202.397 456.796 166.687 525.989 146.762 600.348C134.64 645.587 128.5 692.221 128.5 739.057V837.356C128.5 973.909 150.307 1109.59 193.098 1239.26L252.845 1420.32C290.233 1533.63 335.784 1644.07 389.141 1750.78L512 1996.5L777 2556.5L1116.5 3130L1279.5 3346.5L1641.5 3739L1778.6 3874.05C1885.85 3979.69 2015.29 4060.12 2157.5 4109.5L2292.32 4141.75C2410.38 4170 2532.71 4175.7 2652.88 4158.56L2686.14 4153.82C2748.11 4144.98 2808.64 4127.99 2866.16 4103.31L2950.4 4067.16C3000.39 4045.7 3044.46 4012.48 3078.84 3970.32C3119.75 3920.17 3145.37 3859.31 3152.66 3794.99L3163.17 3702.14C3171.99 3624.34 3166.79 3545.59 3147.84 3469.63L3135.55 3420.37C3118.9 3353.66 3094.96 3288.98 3064.16 3227.51L3051.87 3203C3014.4 3128.21 2969.11 3057.6 2916.76 2992.35L2815 2865.5L2778.65 2816.67C2726.33 2746.37 2667.74 2680.95 2603.61 2621.22C2541.65 2563.52 2484.87 2500.5 2433.9 2432.9Z" fill="#008CCF" stroke="black" stroke-width="25"/>
<path d="M2502.49 3487.19L2267.5 3264L2143.59 3148.78C2097.97 3106.36 2056.67 3059.54 2020.28 3008.99L1975.04 2946.16C1945.87 2905.65 1910.38 2870.09 1869.92 2840.84L1816.07 2801.91C1747.67 2752.46 1702.39 2677.24 1690.7 2593.65C1685.28 2554.9 1672.58 2517.53 1653.25 2483.5L1576.07 2347.61C1500.16 2213.95 1397.73 2097.21 1275.06 2004.57L1175 1929C1037.24 1806.8 920.104 1663.16 828.123 1503.63L654.5 1202.5L467.105 757.665C454.752 728.341 446.189 697.562 441.623 666.072L436.148 628.311C425.484 554.768 444.319 479.99 488.548 420.273L509.651 391.78C540.608 349.983 586.904 322.199 638.35 314.545C680.007 308.347 722.552 315.727 759.687 335.594L871.97 395.661C934.337 429.026 987.396 477.423 1026.34 536.467C1038.43 554.795 1051.92 572.159 1066.69 588.403L1290 834C1413.08 1000.86 1497 1193.29 1535.52 1397.03L1542.75 1435.27C1564.51 1550.39 1599.25 1662.67 1646.29 1769.96L1661 1803.5L1728.89 1941.92C1777.71 2041.45 1840.6 2133.44 1915.64 2215.06C1980.63 2285.74 2036.55 2364.26 2082.11 2448.78L2203.5 2674L2307.5 2831.5L2526.5 3085L2694.28 3294.42C2719.21 3325.54 2738.22 3360.98 2750.36 3398.97L2784.15 3504.73C2790.11 3523.4 2788.05 3543.71 2778.46 3560.8C2760.01 3593.66 2719 3606.25 2685.29 3589.39L2556.12 3524.81C2536.48 3514.99 2518.41 3502.31 2502.49 3487.19Z" fill="#00AEEF"/>
<g filter="url(#filter0_d_1073_37)">
<path d="M1894.81 3519.35L1922.18 3564.97C1932.33 3581.89 1926.98 3603.82 1910.18 3614.16C1904.5 3617.65 1897.97 3619.5 1891.31 3619.5H1870.93C1839.66 3619.5 1810.38 3604.16 1792.58 3578.45L1784.26 3566.44C1773.33 3550.65 1770.03 3530.8 1775.26 3512.31L1781.85 3489.01C1785.78 3475.1 1798.48 3465.5 1812.93 3465.5C1818.23 3465.5 1823.45 3466.8 1828.12 3469.29L1860.03 3486.29C1874.4 3493.95 1886.43 3505.38 1894.81 3519.35Z" fill="#125677"/>
<path d="M1894.81 3519.35L1922.18 3564.97C1932.33 3581.89 1926.98 3603.82 1910.18 3614.16C1904.5 3617.65 1897.97 3619.5 1891.31 3619.5H1870.93C1839.66 3619.5 1810.38 3604.16 1792.58 3578.45L1784.26 3566.44C1773.33 3550.65 1770.03 3530.8 1775.26 3512.31L1781.85 3489.01C1785.78 3475.1 1798.48 3465.5 1812.93 3465.5C1818.23 3465.5 1823.45 3466.8 1828.12 3469.29L1860.03 3486.29C1874.4 3493.95 1886.43 3505.38 1894.81 3519.35Z" stroke="black"/>
</g>
<g filter="url(#filter1_d_1073_37)">
<path d="M2879.55 3440.91L2870.9 3388.41C2867.69 3368.94 2880.75 3350.52 2900.17 3347.1C2906.73 3345.94 2913.49 3346.63 2919.68 3349.08L2938.63 3356.58C2967.7 3368.1 2989.28 3393.15 2996.36 3423.6L2999.67 3437.83C3004.02 3456.54 2999.78 3476.21 2988.11 3491.47L2973.4 3510.71C2964.62 3522.19 2949.28 3526.44 2935.85 3521.12C2930.92 3519.17 2926.55 3516.04 2923.12 3512L2899.72 3484.45C2889.17 3472.03 2882.2 3456.98 2879.55 3440.91Z" fill="#125677"/>
<path d="M2879.55 3440.91L2870.9 3388.41C2867.69 3368.94 2880.75 3350.52 2900.17 3347.1C2906.73 3345.94 2913.49 3346.63 2919.68 3349.08L2938.63 3356.58C2967.7 3368.1 2989.28 3393.15 2996.36 3423.6L2999.67 3437.83C3004.02 3456.54 2999.78 3476.21 2988.11 3491.47L2973.4 3510.71C2964.62 3522.19 2949.28 3526.44 2935.85 3521.12C2930.92 3519.17 2926.55 3516.04 2923.12 3512L2899.72 3484.45C2889.17 3472.03 2882.2 3456.98 2879.55 3440.91Z" stroke="black"/>
</g>
<g filter="url(#filter2_d_1073_37)">
<path d="M2401.91 2719.84L2372.7 2675.37C2361.87 2658.88 2366.33 2636.74 2382.69 2625.73C2388.22 2622.01 2394.67 2619.9 2401.33 2619.63L2421.69 2618.8C2452.94 2617.52 2482.82 2631.66 2501.65 2656.63L2510.45 2668.29C2522.01 2683.62 2526.12 2703.32 2521.65 2722L2516.01 2745.56C2512.64 2759.61 2500.35 2769.72 2485.91 2770.31C2480.62 2770.53 2475.35 2769.44 2470.58 2767.14L2438.01 2751.45C2423.33 2744.38 2410.85 2733.45 2401.91 2719.84Z" fill="#125677"/>
<path d="M2401.91 2719.84L2372.7 2675.37C2361.87 2658.88 2366.33 2636.74 2382.69 2625.73C2388.22 2622.01 2394.67 2619.9 2401.33 2619.63L2421.69 2618.8C2452.94 2617.52 2482.82 2631.66 2501.65 2656.63L2510.45 2668.29C2522.01 2683.62 2526.12 2703.32 2521.65 2722L2516.01 2745.56C2512.64 2759.61 2500.35 2769.72 2485.91 2770.31C2480.62 2770.53 2475.35 2769.44 2470.58 2767.14L2438.01 2751.45C2423.33 2744.38 2410.85 2733.45 2401.91 2719.84Z" stroke="black"/>
</g>
<g filter="url(#filter3_d_1073_37)">
<path d="M1270.41 2608.68L1286.78 2659.3C1292.85 2678.07 1282.69 2698.23 1263.99 2704.51C1257.67 2706.63 1250.89 2706.96 1244.4 2705.46L1224.55 2700.86C1194.08 2693.8 1169.02 2672.24 1157.48 2643.18L1152.09 2629.6C1145.01 2611.75 1146.27 2591.67 1155.53 2574.84L1167.22 2553.63C1174.19 2540.97 1188.72 2534.48 1202.8 2537.74C1207.96 2538.94 1212.75 2541.38 1216.74 2544.86L1243.99 2568.63C1256.27 2579.33 1265.4 2593.18 1270.41 2608.68Z" fill="#125677"/>
<path d="M1270.41 2608.68L1286.78 2659.3C1292.85 2678.07 1282.69 2698.23 1263.99 2704.51C1257.67 2706.63 1250.89 2706.96 1244.4 2705.46L1224.55 2700.86C1194.08 2693.8 1169.02 2672.24 1157.48 2643.18L1152.09 2629.6C1145.01 2611.75 1146.27 2591.67 1155.53 2574.84L1167.22 2553.63C1174.19 2540.97 1188.72 2534.48 1202.8 2537.74C1207.96 2538.94 1212.75 2541.38 1216.74 2544.86L1243.99 2568.63C1256.27 2579.33 1265.4 2593.18 1270.41 2608.68Z" stroke="black"/>
</g>
<g filter="url(#filter4_d_1073_37)">
<path d="M1912.27 2085.7L1888.27 2038.21C1879.38 2020.61 1886.3 1999.12 1903.81 1990.02C1909.72 1986.95 1916.37 1985.58 1923.02 1986.06L1943.34 1987.54C1974.53 1989.81 2002.62 2007.23 2018.51 2034.17L2025.93 2046.75C2035.69 2063.29 2037.55 2083.33 2031 2101.38L2022.73 2124.15C2017.8 2137.73 2004.44 2146.39 1990.03 2145.34C1984.74 2144.96 1979.64 2143.28 1975.15 2140.46L1944.56 2121.19C1930.78 2112.51 1919.62 2100.24 1912.27 2085.7Z" fill="#125677"/>
<path d="M1912.27 2085.7L1888.27 2038.21C1879.38 2020.61 1886.3 1999.12 1903.81 1990.02C1909.72 1986.95 1916.37 1985.58 1923.02 1986.06L1943.34 1987.54C1974.53 1989.81 2002.62 2007.23 2018.51 2034.17L2025.93 2046.75C2035.69 2063.29 2037.55 2083.33 2031 2101.38L2022.73 2124.15C2017.8 2137.73 2004.44 2146.39 1990.03 2145.34C1984.74 2144.96 1979.64 2143.28 1975.15 2140.46L1944.56 2121.19C1930.78 2112.51 1919.62 2100.24 1912.27 2085.7Z" stroke="black"/>
</g>
<g filter="url(#filter5_d_1073_37)">
<path d="M1553.14 1371.46L1544.67 1318.93C1541.52 1299.46 1554.64 1281.08 1574.08 1277.72C1580.64 1276.59 1587.4 1277.29 1593.58 1279.77L1612.5 1287.34C1641.54 1298.95 1663.03 1324.07 1670 1354.55L1673.26 1368.79C1677.55 1387.51 1673.25 1407.17 1661.53 1422.39L1646.75 1441.58C1637.93 1453.03 1622.58 1457.23 1609.16 1451.86C1604.24 1449.9 1599.88 1446.75 1596.47 1442.7L1573.16 1415.07C1562.65 1402.61 1555.73 1387.54 1553.14 1371.46Z" fill="#125677"/>
<path d="M1553.14 1371.46L1544.67 1318.93C1541.52 1299.46 1554.64 1281.08 1574.08 1277.72C1580.64 1276.59 1587.4 1277.29 1593.58 1279.77L1612.5 1287.34C1641.54 1298.95 1663.03 1324.07 1670 1354.55L1673.26 1368.79C1677.55 1387.51 1673.25 1407.17 1661.53 1422.39L1646.75 1441.58C1637.93 1453.03 1622.58 1457.23 1609.16 1451.86C1604.24 1449.9 1599.88 1446.75 1596.47 1442.7L1573.16 1415.07C1562.65 1402.61 1555.73 1387.54 1553.14 1371.46Z" stroke="black"/>
</g>
<g filter="url(#filter6_d_1073_37)">
<path d="M1155.73 2168.62L1179.14 2216.4C1187.82 2234.11 1180.63 2255.51 1163.01 2264.39C1157.06 2267.39 1150.4 2268.68 1143.76 2268.12L1123.46 2266.39C1092.3 2263.74 1064.42 2245.97 1048.86 2218.85L1041.59 2206.18C1032.04 2189.52 1030.43 2169.46 1037.2 2151.48L1045.75 2128.82C1050.84 2115.3 1064.31 2106.81 1078.71 2108.03C1083.99 2108.48 1089.07 2110.22 1093.52 2113.1L1123.87 2132.74C1137.55 2141.59 1148.56 2153.99 1155.73 2168.62Z" fill="#125677"/>
<path d="M1155.73 2168.62L1179.14 2216.4C1187.82 2234.11 1180.63 2255.51 1163.01 2264.39C1157.06 2267.39 1150.4 2268.68 1143.76 2268.12L1123.46 2266.39C1092.3 2263.74 1064.42 2245.97 1048.86 2218.85L1041.59 2206.18C1032.04 2189.52 1030.43 2169.46 1037.2 2151.48L1045.75 2128.82C1050.84 2115.3 1064.31 2106.81 1078.71 2108.03C1083.99 2108.48 1089.07 2110.22 1093.52 2113.1L1123.87 2132.74C1137.55 2141.59 1148.56 2153.99 1155.73 2168.62Z" stroke="black"/>
</g>
<g filter="url(#filter7_d_1073_37)">
<path d="M1404.64 2761.36L1351.49 2759.1C1331.78 2758.27 1315.07 2773.45 1314.01 2793.14C1313.65 2799.8 1315.14 2806.42 1318.33 2812.27L1328.06 2830.18C1343 2857.65 1370.46 2876.05 1401.55 2879.41L1416.07 2880.97C1435.17 2883.04 1454.19 2876.46 1467.93 2863.04L1485.25 2846.11C1495.59 2836.01 1497.96 2820.27 1491.06 2807.58C1488.53 2802.92 1484.89 2798.96 1480.47 2796.04L1450.3 2776.13C1436.7 2767.16 1420.92 2762.05 1404.64 2761.36Z" fill="#125677"/>
<path d="M1404.64 2761.36L1351.49 2759.1C1331.78 2758.27 1315.07 2773.45 1314.01 2793.14C1313.65 2799.8 1315.14 2806.42 1318.33 2812.27L1328.06 2830.18C1343 2857.65 1370.46 2876.05 1401.55 2879.41L1416.07 2880.97C1435.17 2883.04 1454.19 2876.46 1467.93 2863.04L1485.25 2846.11C1495.59 2836.01 1497.96 2820.27 1491.06 2807.58C1488.53 2802.92 1484.89 2798.96 1480.47 2796.04L1450.3 2776.13C1436.7 2767.16 1420.92 2762.05 1404.64 2761.36Z" stroke="black"/>
</g>
<path d="M1332.5 1408.5L1377.42 1362.61C1409.26 1330.09 1435.57 1292.58 1455.32 1251.58L1467.26 1226.79C1478.68 1203.08 1486.24 1177.7 1489.64 1151.61L1493.43 1122.64C1498.01 1087.53 1490.89 1051.89 1473.15 1021.24L1472.5 1020.11C1457.17 993.618 1434.41 972.206 1407.04 958.52L1403.9 956.948C1384.24 947.118 1362.56 942 1340.58 942V942C1313.12 942 1286.25 949.984 1263.25 964.979L1208 1001M939 1596.5L921.949 1600.14C890.097 1606.95 857.09 1606.17 825.595 1597.87V1597.87C797.188 1590.37 770.695 1576.94 747.865 1558.45L728.176 1542.51C717.098 1533.53 707.135 1523.27 698.499 1511.93L694.644 1506.87C673.468 1479.06 662 1445.07 662 1410.12V1410.12C662 1399.73 663.014 1389.37 665.027 1379.18L667.849 1364.89C674.568 1330.87 686.973 1298.23 704.541 1268.34L711.5 1256.5" stroke="black" stroke-width="22" stroke-linecap="round" stroke-linejoin="round"/>
<path d="M1354.76 995.752L1349.23 994.243C1333.16 989.861 1316.11 990.69 1300.54 996.61C1292.9 999.519 1285.75 1003.6 1279.36 1008.72L1251.5 1031L1192 1094L1126.5 1165.5L1122.71 1170.94C1107.86 1192.28 1083.5 1205 1057.5 1205H997.168C971.47 1205 945.853 1207.87 920.794 1213.57L916.231 1214.61C893.156 1219.85 870.77 1227.77 849.527 1238.19L821.179 1252.11C789.346 1267.73 762.447 1291.85 743.451 1321.79L735.599 1334.17C721.165 1356.92 713.5 1383.31 713.5 1410.25V1414.09C713.5 1435.04 718.69 1455.66 728.607 1474.11C744.248 1503.21 770.631 1525.06 802.14 1535.01L827.462 1543C852.553 1550.91 879.003 1553.59 905.173 1550.87L958.543 1545.32C986.122 1542.44 1013.38 1537.03 1039.96 1529.15L1043.63 1528.07C1098.46 1511.81 1150.03 1486.13 1196.03 1452.16L1233.5 1424.5L1256.83 1410.42C1278.23 1397.5 1298.36 1382.6 1316.96 1365.91L1322.35 1361.07C1348.63 1337.49 1371.2 1310.08 1389.28 1279.75L1391.48 1276.07C1404.78 1253.77 1415.27 1229.93 1422.73 1205.07L1432.14 1173.71C1439.29 1149.86 1441.09 1124.73 1437.42 1100.11L1436.1 1091.3C1434.05 1077.54 1429.54 1064.14 1422.89 1051.92C1415.42 1038.19 1405.21 1025.97 1393.01 1016.21L1389.58 1013.46C1379.3 1005.24 1367.45 999.214 1354.76 995.752Z" fill="#142C37" stroke="black"/>
<path d="M1262 841L1258.93 858.055C1254.38 883.29 1243.47 907.219 1227.51 927.287V927.287C1220.57 936.007 1212.62 944.028 1203.95 951.021V951.021C1190.42 961.926 1175.11 970.421 1158.7 976.135L1127.5 987M877 1123.5L834 1160.5L829.887 1163.13C796.332 1184.59 757.332 1196 717.5 1196V1196H714.121C691.908 1196 670.228 1189.19 652 1176.5V1176.5" stroke="black" stroke-width="22" stroke-linecap="round" stroke-linejoin="round"/>
<circle cx="191.5" cy="191.5" r="181" transform="matrix(-0.994827 0.101582 0.101582 0.994827 1223.09 525.5)" fill="white" stroke="black" stroke-width="21"/>
<path d="M506.305 972.626C516.03 1067.87 606.667 1137.79 710.064 1127.23C813.461 1116.67 888.096 1029.88 878.371 934.634C868.645 839.392 778.009 769.475 674.612 780.033C571.215 790.591 496.58 877.384 506.305 972.626Z" fill="white" stroke="black" stroke-width="21"/>
<path d="M1030 954.5L1071 1006L1087.71 1030.74C1093.21 1038.87 1097.55 1047.73 1100.6 1057.07L1109.32 1083.73C1112.01 1091.94 1111.49 1100.86 1107.88 1108.71V1108.71C1100.99 1123.67 1084.43 1131.61 1068.45 1127.61L1066.3 1127.08C1062.13 1126.03 1058.18 1124.27 1054.61 1121.87L1017 1096.5L960.5 1052" stroke="black" stroke-width="22" stroke-linecap="round"/>
<path d="M412.248 92.7929C417.602 89.171 423.282 86.0103 429.23 83.3577L507.753 48.3438C562.966 23.7237 622.742 11 683.196 11H705.205C746.265 11 787.188 15.7339 827.163 25.108L864.579 33.882C970.577 58.7379 1070.94 103.349 1160.41 165.379L1263 236.5C1401.94 364.83 1521.67 512.511 1618.49 674.99L1690 795L1819 1093L1862.35 1178.5C1893.54 1240.02 1907.53 1308.83 1902.84 1377.64L1900.78 1407.79C1898.62 1439.6 1890.02 1470.64 1875.5 1499.02C1853.07 1542.9 1844.96 1592.71 1852.32 1641.44L1863.39 1714.78C1866.12 1732.88 1870.65 1750.67 1876.9 1767.87C1898.33 1826.86 1939.19 1876.8 1992.78 1909.47L2011.77 1921.06C2012.26 1921.35 2012.76 1921.61 2013.29 1921.83C2024.64 1926.59 2021.24 1943.5 2008.93 1943.5H1978.4C1975.83 1943.5 1973.29 1942.93 1970.97 1941.83L1935.19 1924.95C1891.63 1904.39 1857.28 1868.35 1838.82 1823.86L1788.1 1701.58C1773.74 1666.96 1763.04 1630.92 1756.19 1594.07L1738.64 1499.76C1733.23 1470.65 1730.5 1441.1 1730.5 1411.48C1730.5 1341.02 1715.07 1271.4 1685.29 1207.54L1666.91 1168.11C1638.13 1106.39 1600.23 1049.35 1554.48 998.901L1506.5 946L1371.5 795L1315.75 729.467C1252.58 655.206 1179.08 590.391 1097.5 537L1010.34 495.477C984.68 483.255 955.423 480.902 928.144 488.867C910.949 493.887 892.825 494.847 875.196 491.671L817.897 481.346C800.407 478.195 782.37 480.61 766.325 488.25C754.919 493.682 742.445 496.5 729.812 496.5H728.303C734.53 508.156 734.92 522.608 728.134 535.029L725.365 540.095C722.16 545.963 717.725 551.068 712.364 555.063L642 607.5L606.991 635.678C562.838 671.216 529.237 718.145 509.819 771.393C497.369 805.533 491 841.592 491 877.931V984.5L486.261 1058.12C480.142 1153.18 492.035 1248.55 521.315 1339.2L522.448 1342.71C533.799 1377.85 547.877 1412.05 564.554 1445L619.796 1554.14C621.254 1557.03 623.213 1559.62 625.581 1561.82L630.176 1566.08C646.693 1581.38 635.864 1609 613.346 1609C606.142 1609 599.295 1605.86 594.592 1600.41L512.867 1505.61C489.156 1478.1 470.673 1446.49 458.33 1412.34L440.5 1363L501.007 1564.81C517.787 1620.77 553.925 1668.94 602.96 1700.71C628.758 1717.42 657.459 1729.15 687.577 1735.3L770.62 1752.25C782.856 1754.75 794.888 1758.16 806.614 1762.45L888.396 1792.42C937.711 1810.49 970.5 1857.42 970.5 1909.94V1944.18C970.5 1947.64 971.567 1951.02 973.555 1953.85L980.333 1963.5C990.046 1977.33 972.877 1994.1 959.282 1984.05C957.452 1982.7 955.955 1980.95 954.907 1978.93L940.439 1951.04C930.357 1931.61 906.18 1924.39 887.094 1935.12L882.861 1937.5C870.23 1944.59 854.419 1942.42 844.174 1932.17C823.813 1911.81 789 1926.23 789 1955.03V2018L810.127 2173.4C811.03 2180.04 813.485 2186.37 817.293 2191.89L842.125 2227.84C854.115 2245.21 839.446 2268.47 818.612 2265.14C813.973 2264.4 809.655 2262.31 806.193 2259.13L771.323 2227.14C731.527 2190.63 710.061 2138.29 712.758 2084.35L716.829 2002.91C719.152 1956.47 700.41 1911.46 665.814 1880.39C650.105 1866.28 631.668 1855.54 611.645 1848.85L550.208 1828.3C510.911 1815.16 473.54 1796.84 439.079 1773.83L331.5 1702C216.196 1609.56 138.841 1478.01 114.115 1332.31L104.755 1277.16C96.2795 1227.22 82.1238 1178.41 62.5632 1131.68C28.5277 1050.37 11 963.108 11 874.964V713.333C11 643.193 21.7676 573.469 42.9263 506.597L45.2354 499.299C75.9846 402.117 129.055 313.481 200.2 240.485L224.116 215.947C251.236 188.122 282.155 164.273 315.954 145.109L399.249 97.8794C403.334 95.5631 407.713 93.8555 412.248 92.7929Z" fill="url(#paint0_linear_1073_37)" stroke="black" stroke-width="22" stroke-linecap="round"/>
<path d="M700.019 931.089L701.486 942.502C701.769 944.705 703.793 946.255 705.994 945.955L719.733 944.082C723.82 943.524 725.973 948.77 722.673 951.245L718.329 954.503C717.478 955.141 716.917 956.092 716.768 957.145L712.843 984.979C712.346 988.502 707.842 989.671 705.694 986.836L689.876 965.956C688.22 963.771 684.906 963.861 683.372 966.134L678.29 973.663C676.312 976.593 671.785 975.706 671.06 972.246L666.664 951.283C666.556 950.766 666.346 950.276 666.047 949.84L658.548 938.913C656.21 935.506 660.086 931.282 663.681 933.319C663.893 933.439 664.116 933.54 664.347 933.618L684.995 940.638C687.17 941.378 689.519 940.138 690.136 937.925L692.198 930.525C693.369 926.323 699.462 926.763 700.019 931.089Z" fill="black" stroke="black" stroke-width="22" stroke-linecap="round"/>
<path d="M1036.51 701.771L1048.02 701.831C1050.24 701.842 1052.04 700.042 1052.04 697.821L1052 683.955C1051.99 679.829 1057.48 678.391 1059.49 681.991L1062.14 686.729C1062.66 687.657 1063.53 688.339 1064.56 688.626L1091.62 696.209C1095.05 697.169 1095.61 701.789 1092.52 703.542L1069.72 716.45C1067.34 717.801 1066.99 721.097 1069.04 722.919L1075.82 728.956C1078.47 731.304 1076.98 735.674 1073.46 735.934L1052.1 737.51C1051.57 737.548 1051.06 737.691 1050.59 737.93L1038.76 743.913C1035.07 745.778 1031.4 741.376 1033.9 738.083C1034.05 737.889 1034.17 737.681 1034.28 737.462L1043.98 717.929C1045 715.871 1044.08 713.378 1041.97 712.473L1034.91 709.448C1030.9 707.73 1032.15 701.748 1036.51 701.771Z" fill="black" stroke="black" stroke-width="22" stroke-linecap="round"/>
<path d="M993.655 459.112L1004.69 471.529C1008.11 475.375 1010 480.343 1010 485.489C1010 497.093 1000.59 506.5 988.989 506.5H967.5H931.89C905.339 506.5 878.831 508.626 852.62 512.858L839.175 515.029C810.487 519.661 782.426 527.575 755.545 538.616L744.279 543.243C722.842 552.047 702.576 563.468 683.942 577.247C655.568 598.228 631.397 624.364 612.694 654.289L606.433 664.307C601.155 672.753 596.629 681.646 592.909 690.885L574.634 736.268C570.686 746.072 563.24 754.064 553.739 758.695L546.029 762.452C526.561 771.941 503.216 761.841 496.803 741.154C494.653 734.22 494.692 726.792 496.913 719.881L509.837 679.674C513.931 666.936 519.523 654.73 526.494 643.31L539.728 621.631C558.81 590.372 582.319 561.986 609.465 537.404C641.888 508.043 679.141 484.415 719.528 467.617L741.853 458.331C761.578 450.127 781.999 443.709 802.871 439.153L854.091 427.974C882.517 421.77 912.083 423.246 939.75 432.25L965.317 440.571C976.242 444.126 986.023 450.526 993.655 459.112Z" fill="black" stroke="black" stroke-width="22" stroke-linecap="round"/>
<path d="M1293 1560.5L1303.53 1575.98C1315.94 1594.22 1311.23 1619.07 1293 1631.5L1273.12 1644.25C1257.45 1654.3 1237.15 1653.44 1222.38 1642.1C1220.13 1640.37 1218.05 1638.43 1216.18 1636.3L1177.5 1592.5C1159.36 1575.91 1160.85 1546.9 1180.6 1532.26L1185 1529L1209.77 1514.09C1225.79 1504.45 1246.15 1505.96 1260.58 1517.85C1263.51 1520.27 1266.12 1523.07 1268.34 1526.16L1293 1560.5Z" fill="#161411" stroke="black" stroke-width="22" stroke-linecap="round"/>
<path d="M853.028 611.948L1083.39 464.83C1127.72 436.513 1186.63 449.622 1214.78 494.068L1332.7 680.28C1361.34 725.504 1346.98 785.449 1300.96 812.785L1072.43 948.522C1029.36 974.1 973.84 961.851 945.536 920.528L825.785 745.697C795.458 701.422 807.8 640.833 853.028 611.948Z" fill="white" fill-opacity="0.64" stroke="black" stroke-width="22" stroke-linecap="round"/>
<path d="M874.314 1062.55L643.957 1209.67C599.618 1237.99 540.71 1224.88 512.563 1180.43L394.641 994.22C366.002 948.996 380.364 889.051 426.387 861.715L654.915 725.978C697.979 700.4 753.502 712.649 781.806 753.972L901.558 928.803C931.885 973.078 919.543 1033.67 874.314 1062.55Z" fill="white" fill-opacity="0.64" stroke="black" stroke-width="22" stroke-linecap="round"/>
<rect width="51" height="60.1822" transform="matrix(-0.806086 0.591798 0.591798 0.806086 872.384 802.5)" fill="black"/>
<path d="M4863.11 1837.1C4863.11 2002.02 4831.41 2139.9 4767.99 2250.73C4705.24 2360.9 4614.12 2444.03 4494.62 2500.12C4375.13 2555.54 4231.27 2583.24 4063.05 2583.24H3648.5V1119H4108.11C4261.65 1119 4394.83 1146.38 4507.64 1201.13C4620.46 1255.21 4707.91 1335.67 4769.99 1442.5C4832.07 1548.66 4863.11 1680.19 4863.11 1837.1ZM4540.69 1845.11C4540.69 1736.95 4524.66 1648.14 4492.62 1578.7C4461.25 1508.6 4414.52 1456.85 4352.44 1423.47C4291.02 1390.08 4214.92 1373.39 4124.13 1373.39H3958.91V2326.85H4092.09C4243.62 2326.85 4356.11 2286.46 4429.54 2205.67C4503.64 2124.88 4540.69 2004.69 4540.69 1845.11Z" fill="#00AEEF"/>
<path d="M5601.1 1440.49C5751.3 1440.49 5866.45 1473.21 5946.56 1538.64C6026.66 1604.08 6066.72 1703.56 6066.72 1837.1V2583.24H5853.43L5794.35 2431.01H5786.34C5754.3 2471.07 5721.59 2503.79 5688.21 2529.16C5654.83 2554.53 5616.45 2573.23 5573.06 2585.25C5529.67 2597.27 5476.93 2603.28 5414.85 2603.28C5348.76 2603.28 5289.35 2590.59 5236.61 2565.22C5184.54 2539.84 5143.49 2501.12 5113.45 2449.04C5083.41 2396.29 5068.39 2329.52 5068.39 2248.73C5068.39 2129.88 5110.11 2042.42 5193.55 1986.33C5277 1929.58 5402.16 1898.19 5569.05 1892.19L5763.31 1886.18V1837.1C5763.31 1778.34 5747.96 1735.28 5717.25 1707.9C5686.54 1680.53 5643.82 1666.84 5589.08 1666.84C5535.01 1666.84 5481.94 1674.52 5429.87 1689.88C5377.8 1705.23 5325.73 1724.6 5273.66 1747.96L5172.53 1541.65C5231.94 1510.27 5298.36 1485.56 5371.79 1467.53C5445.89 1449.51 5522.32 1440.49 5601.1 1440.49ZM5763.31 2064.45L5645.15 2068.46C5546.36 2071.13 5477.6 2088.82 5438.88 2121.54C5400.83 2154.25 5381.8 2197.32 5381.8 2250.73C5381.8 2297.47 5395.49 2330.86 5422.86 2350.89C5450.23 2370.25 5485.94 2379.93 5530 2379.93C5595.42 2379.93 5650.5 2360.57 5695.22 2321.84C5740.61 2283.12 5763.31 2228.03 5763.31 2156.59V2064.45Z" fill="#00AEEF"/>
<path d="M6709.57 3076C6553.36 3076 6433.87 3048.62 6351.09 2993.87C6268.98 2939.79 6227.93 2863.67 6227.93 2765.52C6227.93 2698.09 6248.96 2641.67 6291.01 2596.26C6333.07 2550.86 6394.82 2518.48 6476.26 2499.12C6444.88 2485.76 6417.51 2464.06 6394.15 2434.02C6370.79 2403.3 6359.1 2370.92 6359.1 2336.87C6359.1 2294.13 6371.45 2258.75 6396.15 2230.7C6420.85 2201.99 6456.57 2173.95 6503.3 2146.58C6444.55 2121.2 6397.82 2080.47 6363.11 2024.39C6329.06 1968.3 6312.04 1902.2 6312.04 1826.08C6312.04 1744.63 6329.73 1675.52 6365.11 1618.77C6401.16 1561.34 6453.23 1517.61 6521.32 1487.57C6590.08 1457.52 6673.52 1442.5 6771.65 1442.5C6792.35 1442.5 6816.38 1443.83 6843.75 1446.5C6871.12 1449.17 6896.15 1452.18 6918.85 1455.52C6942.21 1458.85 6957.9 1461.53 6965.91 1463.53H7356.43V1618.77L7181.2 1663.84C7197.22 1688.54 7209.23 1714.91 7217.24 1742.96C7225.26 1771 7229.26 1800.71 7229.26 1832.09C7229.26 1952.28 7187.2 2046.09 7103.09 2113.52C7019.65 2180.29 6903.49 2213.68 6754.63 2213.68C6719.25 2211.68 6685.87 2209 6654.5 2205.67C6639.14 2217.68 6627.46 2230.37 6619.45 2243.72C6611.44 2257.08 6607.43 2271.1 6607.43 2285.79C6607.43 2300.48 6613.44 2312.83 6625.46 2322.85C6638.14 2332.19 6656.83 2339.54 6681.53 2344.88C6706.9 2349.55 6738.27 2351.89 6775.66 2351.89H6965.91C7088.74 2351.89 7182.2 2378.26 7246.28 2431.01C7311.04 2483.76 7343.41 2561.21 7343.41 2663.37C7343.41 2794.23 7288.67 2895.72 7179.19 2967.83C7070.38 3039.94 6913.84 3076 6709.57 3076ZM6722.59 2876.69C6795.35 2876.69 6857.77 2869.68 6909.84 2855.66C6962.57 2842.31 7002.96 2822.95 7031 2797.57C7059.03 2772.87 7073.05 2743.16 7073.05 2708.44C7073.05 2680.39 7064.71 2658.03 7048.02 2641.33C7032 2625.31 7007.3 2613.96 6973.92 2607.28C6941.21 2600.6 6899.16 2597.27 6847.75 2597.27H6689.54C6652.16 2597.27 6618.45 2603.28 6588.41 2615.29C6559.04 2627.31 6535.67 2644 6518.32 2665.37C6500.96 2687.4 6492.28 2712.78 6492.28 2741.49C6492.28 2783.55 6512.31 2816.6 6552.36 2840.64C6593.08 2864.68 6649.82 2876.69 6722.59 2876.69ZM6771.65 2027.39C6829.06 2027.39 6871.12 2009.7 6897.82 1974.31C6924.52 1938.92 6937.87 1890.85 6937.87 1830.09C6937.87 1762.65 6923.85 1712.24 6895.82 1678.86C6868.45 1644.81 6827.06 1627.78 6771.65 1627.78C6715.58 1627.78 6673.52 1644.81 6645.48 1678.86C6617.45 1712.24 6603.43 1762.65 6603.43 1830.09C6603.43 1890.85 6617.11 1938.92 6644.48 1974.31C6672.52 2009.7 6714.91 2027.39 6771.65 2027.39Z" fill="#00AEEF"/>
<path d="M8003.29 1442.5C8106.76 1442.5 8195.88 1462.53 8270.65 1502.59C8345.41 1541.98 8403.15 1599.4 8443.88 1674.85C8484.6 1750.3 8504.96 1842.44 8504.96 1951.28V2099.5H7783C7786.33 2185.64 7812.04 2253.41 7860.1 2302.81C7908.83 2351.56 7976.25 2375.93 8062.37 2375.93C8133.8 2375.93 8199.22 2368.58 8258.63 2353.89C8318.04 2339.2 8379.12 2317.17 8441.87 2287.79V2524.15C8386.47 2551.53 8328.39 2571.56 8267.64 2584.25C8207.56 2596.93 8134.46 2603.28 8048.35 2603.28C7936.2 2603.28 7836.74 2582.58 7749.95 2541.18C7663.84 2499.78 7596.08 2436.69 7546.68 2351.89C7497.95 2267.09 7473.59 2160.26 7473.59 2031.4C7473.59 1900.53 7495.61 1791.7 7539.67 1704.9C7584.4 1617.43 7646.48 1552 7725.92 1508.6C7805.36 1464.53 7897.82 1442.5 8003.29 1442.5ZM8005.29 1659.83C7945.88 1659.83 7896.48 1678.86 7857.1 1716.92C7818.38 1754.97 7796.01 1814.73 7790.01 1896.19H8218.58C8217.91 1850.79 8209.56 1810.39 8193.54 1775.01C8178.19 1739.62 8154.82 1711.58 8123.45 1690.88C8092.74 1670.18 8053.36 1659.83 8005.29 1659.83Z" fill="#00AEEF"/>
<path d="M9378.12 1442.5C9393.47 1442.5 9411.16 1443.5 9431.19 1445.5C9451.88 1446.84 9468.57 1448.84 9481.25 1451.51L9458.22 1737.95C9448.21 1734.61 9433.86 1732.27 9415.17 1730.94C9397.14 1728.94 9381.46 1727.93 9368.1 1727.93C9328.72 1727.93 9290.33 1732.94 9252.95 1742.96C9216.24 1752.97 9183.19 1769.33 9153.82 1792.03C9124.45 1814.07 9101.08 1843.44 9083.73 1880.17C9067.04 1916.22 9058.69 1960.62 9058.69 2013.37V2583.24H8753.29V1463.53H8984.59L9029.65 1651.82H9044.67C9066.7 1613.76 9094.07 1579.04 9126.78 1547.66C9160.16 1515.61 9197.88 1490.24 9239.93 1471.54C9282.66 1452.18 9328.72 1442.5 9378.12 1442.5Z" fill="#00AEEF"/>
<path d="M10014 2583.24H9708.56V1119H10547.7V1373.39H10014V1750.97H10510.6V2004.36H10014V2583.24Z" fill="#008CCF"/>
<path d="M11268.6 1440.49C11418.8 1440.49 11534 1473.21 11614.1 1538.64C11694.2 1604.08 11734.3 1703.56 11734.3 1837.1V2583.24H11521L11461.9 2431.01H11453.9C11421.8 2471.07 11389.1 2503.79 11355.7 2529.16C11322.4 2554.53 11284 2573.23 11240.6 2585.25C11197.2 2597.27 11144.5 2603.28 11082.4 2603.28C11016.3 2603.28 10956.9 2590.59 10904.1 2565.22C10852.1 2539.84 10811 2501.12 10781 2449.04C10750.9 2396.29 10735.9 2329.52 10735.9 2248.73C10735.9 2129.88 10777.6 2042.42 10861.1 1986.33C10944.5 1929.58 11069.7 1898.19 11236.6 1892.19L11430.8 1886.18V1837.1C11430.8 1778.34 11415.5 1735.28 11384.8 1707.9C11354.1 1680.53 11311.4 1666.84 11256.6 1666.84C11202.5 1666.84 11149.5 1674.52 11097.4 1689.88C11045.3 1705.23 10993.3 1724.6 10941.2 1747.96L10840.1 1541.65C10899.5 1510.27 10965.9 1485.56 11039.3 1467.53C11113.4 1449.51 11189.9 1440.49 11268.6 1440.49ZM11430.8 2064.45L11312.7 2068.46C11213.9 2071.13 11145.1 2088.82 11106.4 2121.54C11068.4 2154.25 11049.3 2197.32 11049.3 2250.73C11049.3 2297.47 11063 2330.86 11090.4 2350.89C11117.8 2370.25 11153.5 2379.93 11197.5 2379.93C11263 2379.93 11318 2360.57 11362.8 2321.84C11408.2 2283.12 11430.8 2228.03 11430.8 2156.59V2064.45Z" fill="#008CCF"/>
<path d="M12685.5 1442.5C12805 1442.5 12901.1 1475.21 12973.9 1540.65C13046.7 1605.41 13083 1709.57 13083 1853.13V2583.24H12777.6V1929.24C12777.6 1849.12 12763 1788.69 12733.6 1747.96C12704.9 1707.24 12659.5 1686.87 12597.4 1686.87C12503.9 1686.87 12440.2 1718.59 12406.1 1782.02C12372.1 1845.45 12355.1 1936.92 12355.1 2056.44V2583.24H12049.7V1463.53H12283L12324 1606.75H12341.1C12365.1 1568.02 12394.8 1536.64 12430.2 1512.6C12466.2 1488.57 12505.9 1470.87 12549.3 1459.52C12593.4 1448.17 12638.8 1442.5 12685.5 1442.5Z" fill="#008CCF"/>
<path d="M14178.5 2250.73C14178.5 2326.85 14160.5 2391.28 14124.4 2444.03C14089 2496.11 14036 2535.84 13965.2 2563.21C13894.5 2589.92 13806.3 2603.28 13700.9 2603.28C13622.8 2603.28 13555.7 2598.27 13499.6 2588.25C13444.2 2578.24 13388.1 2561.54 13331.4 2538.18V2285.79C13392.1 2313.16 13457.2 2335.87 13526.6 2353.89C13596.7 2371.25 13658.1 2379.93 13710.9 2379.93C13770.3 2379.93 13812.7 2371.25 13838 2353.89C13864.1 2335.87 13877.1 2312.5 13877.1 2283.79C13877.1 2265.09 13871.8 2248.4 13861.1 2233.71C13851.1 2218.35 13829 2201.33 13795 2182.63C13760.9 2163.27 13707.5 2138.23 13634.8 2107.52C13564.7 2078.14 13506.9 2048.42 13461.5 2018.38C13416.8 1988.33 13383.4 1952.95 13361.4 1912.22C13340.1 1870.82 13329.4 1818.41 13329.4 1754.97C13329.4 1651.48 13369.4 1573.7 13449.5 1521.62C13530.3 1468.87 13638.1 1442.5 13773 1442.5C13842.4 1442.5 13908.5 1449.51 13971.2 1463.53C14034.6 1477.55 14099.7 1499.92 14166.5 1530.63L14074.4 1750.97C14019 1726.93 13966.6 1707.24 13917.2 1691.88C13868.4 1676.52 13818.7 1668.84 13768 1668.84C13723.2 1668.84 13689.5 1674.85 13666.8 1686.87C13644.1 1698.89 13632.8 1717.25 13632.8 1741.95C13632.8 1759.98 13638.4 1776.01 13649.8 1790.03C13661.8 1804.05 13684.5 1819.74 13717.9 1837.1C13751.9 1853.79 13801.7 1875.49 13867.1 1902.2C13930.5 1928.24 13985.6 1955.62 14032.3 1984.33C14079 2012.37 14115.1 2047.42 14140.4 2089.49C14165.8 2130.88 14178.5 2184.63 14178.5 2250.73Z" fill="#008CCF"/>
<defs>
<filter id="filter0_d_1073_37" x="1772.33" y="3465" width="160.492" height="161" filterUnits="userSpaceOnUse" color-interpolation-filters="sRGB">
<feFlood flood-opacity="0" result="BackgroundImageFix"/>
<feColorMatrix in="SourceAlpha" type="matrix" values="0 0 0 0 0 0 0 0 0 0 0 0 0 0 0 0 0 0 127 0" result="hardAlpha"/>
<feOffset dx="5" dy="6"/>
<feComposite in2="hardAlpha" operator="out"/>
<feColorMatrix type="matrix" values="0 0 0 0 0.0555556 0 0 0 0 0.19769 0 0 0 0 0.266667 0 0 0 1 0"/>
<feBlend mode="normal" in2="BackgroundImageFix" result="effect1_dropShadow_1073_37"/>
<feBlend mode="normal" in="SourceGraphic" in2="effect1_dropShadow_1073_37" result="shape"/>
</filter>
<filter id="filter1_d_1073_37" x="2869.92" y="3346.05" width="136.923" height="183.842" filterUnits="userSpaceOnUse" color-interpolation-filters="sRGB">
<feFlood flood-opacity="0" result="BackgroundImageFix"/>
<feColorMatrix in="SourceAlpha" type="matrix" values="0 0 0 0 0 0 0 0 0 0 0 0 0 0 0 0 0 0 127 0" result="hardAlpha"/>
<feOffset dx="5" dy="6"/>
<feComposite in2="hardAlpha" operator="out"/>
<feColorMatrix type="matrix" values="0 0 0 0 0.0555556 0 0 0 0 0.19769 0 0 0 0 0.266667 0 0 0 1 0"/>
<feBlend mode="normal" in2="BackgroundImageFix" result="effect1_dropShadow_1073_37"/>
<feBlend mode="normal" in="SourceGraphic" in2="effect1_dropShadow_1073_37" result="shape"/>
</filter>
<filter id="filter2_d_1073_37" x="2366.29" y="2618.22" width="162.629" height="158.619" filterUnits="userSpaceOnUse" color-interpolation-filters="sRGB">
<feFlood flood-opacity="0" result="BackgroundImageFix"/>
<feColorMatrix in="SourceAlpha" type="matrix" values="0 0 0 0 0 0 0 0 0 0 0 0 0 0 0 0 0 0 127 0" result="hardAlpha"/>
<feOffset dx="5" dy="6"/>
<feComposite in2="hardAlpha" operator="out"/>
<feColorMatrix type="matrix" values="0 0 0 0 0.0555556 0 0 0 0 0.19769 0 0 0 0 0.266667 0 0 0 1 0"/>
<feBlend mode="normal" in2="BackgroundImageFix" result="effect1_dropShadow_1073_37"/>
<feBlend mode="normal" in="SourceGraphic" in2="effect1_dropShadow_1073_37" result="shape"/>
</filter>
<filter id="filter3_d_1073_37" x="1147.06" y="2536.4" width="146.985" height="176.481" filterUnits="userSpaceOnUse" color-interpolation-filters="sRGB">
<feFlood flood-opacity="0" result="BackgroundImageFix"/>
<feColorMatrix in="SourceAlpha" type="matrix" values="0 0 0 0 0 0 0 0 0 0 0 0 0 0 0 0 0 0 127 0" result="hardAlpha"/>
<feOffset dx="5" dy="6"/>
<feComposite in2="hardAlpha" operator="out"/>
<feColorMatrix type="matrix" values="0 0 0 0 0.0555556 0 0 0 0 0.19769 0 0 0 0 0.266667 0 0 0 1 0"/>
<feBlend mode="normal" in2="BackgroundImageFix" result="effect1_dropShadow_1073_37"/>
<feBlend mode="normal" in="SourceGraphic" in2="effect1_dropShadow_1073_37" result="shape"/>
</filter>
<filter id="filter4_d_1073_37" x="1883.9" y="1985.47" width="156.462" height="166.456" filterUnits="userSpaceOnUse" color-interpolation-filters="sRGB">
<feFlood flood-opacity="0" result="BackgroundImageFix"/>
<feColorMatrix in="SourceAlpha" type="matrix" values="0 0 0 0 0 0 0 0 0 0 0 0 0 0 0 0 0 0 127 0" result="hardAlpha"/>
<feOffset dx="5" dy="6"/>
<feComposite in2="hardAlpha" operator="out"/>
<feColorMatrix type="matrix" values="0 0 0 0 0.0555556 0 0 0 0 0.19769 0 0 0 0 0.266667 0 0 0 1 0"/>
<feBlend mode="normal" in2="BackgroundImageFix" result="effect1_dropShadow_1073_37"/>
<feBlend mode="normal" in="SourceGraphic" in2="effect1_dropShadow_1073_37" result="shape"/>
</filter>
<filter id="filter5_d_1073_37" x="1543.7" y="1276.69" width="136.687" height="183.982" filterUnits="userSpaceOnUse" color-interpolation-filters="sRGB">
<feFlood flood-opacity="0" result="BackgroundImageFix"/>
<feColorMatrix in="SourceAlpha" type="matrix" values="0 0 0 0 0 0 0 0 0 0 0 0 0 0 0 0 0 0 127 0" result="hardAlpha"/>
<feOffset dx="5" dy="6"/>
<feComposite in2="hardAlpha" operator="out"/>
<feColorMatrix type="matrix" values="0 0 0 0 0.0555556 0 0 0 0 0.19769 0 0 0 0 0.266667 0 0 0 1 0"/>
<feBlend mode="normal" in2="BackgroundImageFix" result="effect1_dropShadow_1073_37"/>
<feBlend mode="normal" in="SourceGraphic" in2="effect1_dropShadow_1073_37" result="shape"/>
</filter>
<filter id="filter6_d_1073_37" x="1032.57" y="2107.41" width="155.753" height="167.332" filterUnits="userSpaceOnUse" color-interpolation-filters="sRGB">
<feFlood flood-opacity="0" result="BackgroundImageFix"/>
<feColorMatrix in="SourceAlpha" type="matrix" values="0 0 0 0 0 0 0 0 0 0 0 0 0 0 0 0 0 0 127 0" result="hardAlpha"/>
<feOffset dx="5" dy="6"/>
<feComposite in2="hardAlpha" operator="out"/>
<feColorMatrix type="matrix" values="0 0 0 0 0.0555556 0 0 0 0 0.19769 0 0 0 0 0.266667 0 0 0 1 0"/>
<feBlend mode="normal" in2="BackgroundImageFix" result="effect1_dropShadow_1073_37"/>
<feBlend mode="normal" in="SourceGraphic" in2="effect1_dropShadow_1073_37" result="shape"/>
</filter>
<filter id="filter7_d_1073_37" x="1313.46" y="2758.57" width="187.03" height="129.275" filterUnits="userSpaceOnUse" color-interpolation-filters="sRGB">
<feFlood flood-opacity="0" result="BackgroundImageFix"/>
<feColorMatrix in="SourceAlpha" type="matrix" values="0 0 0 0 0 0 0 0 0 0 0 0 0 0 0 0 0 0 127 0" result="hardAlpha"/>
<feOffset dx="5" dy="6"/>
<feComposite in2="hardAlpha" operator="out"/>
<feColorMatrix type="matrix" values="0 0 0 0 0.0555556 0 0 0 0 0.19769 0 0 0 0 0.266667 0 0 0 1 0"/>
<feBlend mode="normal" in2="BackgroundImageFix" result="effect1_dropShadow_1073_37"/>
<feBlend mode="normal" in="SourceGraphic" in2="effect1_dropShadow_1073_37" result="shape"/>
</filter>
<linearGradient id="paint0_linear_1073_37" x1="1162.5" y1="304.5" x2="206" y2="2048.5" gradientUnits="userSpaceOnUse">
<stop stop-color="#13110F"/>
<stop offset="1" stop-color="#211E19"/>
</linearGradient>
</defs>
</svg>
