<svg width="844" height="534" viewBox="0 0 844 534" fill="none" xmlns="http://www.w3.org/2000/svg">
<path d="M18.1827 75.0944L26.4998 79.8962V69.8434L18.1827 75.0944Z" fill="#D1C0DE" fill-opacity="0.4"/>
<path d="M73.5951 40.1098L87.3013 48.7632V31.4564L73.5951 40.1098Z" fill="#D1C0DE" fill-opacity="0.4"/>
<path d="M69.9988 5.01044L61.4998 10.3763V0.103493L69.9988 5.01044Z" fill="#D1C0DE" fill-opacity="0.4"/>
<path d="M14.4047 40.1098L0.69873 48.7631V31.4566L14.4047 40.1098Z" fill="#D1C0DE" fill-opacity="0.4"/>
<path d="M26.4998 0.103775V10.3763L18.0009 5.01058L26.4998 0.103775Z" fill="#D1C0DE" fill-opacity="0.4"/>
<path d="M69.8173 75.0944L61.4998 69.8432V79.8965L69.8173 75.0944Z" fill="#D1C0DE" fill-opacity="0.4"/>
<path d="M126.183 75.0944L134.5 79.8962V69.8434L126.183 75.0944Z" fill="#D1C0DE" fill-opacity="0.4"/>
<path d="M181.595 40.1098L195.301 48.7632V31.4564L181.595 40.1098Z" fill="#D1C0DE" fill-opacity="0.4"/>
<path d="M177.999 5.01044L169.5 10.3763V0.103493L177.999 5.01044Z" fill="#D1C0DE" fill-opacity="0.4"/>
<path d="M122.405 40.1098L108.699 48.7631V31.4566L122.405 40.1098Z" fill="#D1C0DE" fill-opacity="0.4"/>
<path d="M134.5 0.103775V10.3763L126.001 5.01058L134.5 0.103775Z" fill="#D1C0DE" fill-opacity="0.4"/>
<path d="M177.817 75.0944L169.5 69.8432V79.8965L177.817 75.0944Z" fill="#D1C0DE" fill-opacity="0.4"/>
<path d="M234.183 75.0944L242.5 79.8962V69.8434L234.183 75.0944Z" fill="#D1C0DE" fill-opacity="0.4"/>
<path d="M289.595 40.1098L303.301 48.7632V31.4564L289.595 40.1098Z" fill="#D1C0DE" fill-opacity="0.4"/>
<path d="M285.999 5.01044L277.5 10.3763V0.103493L285.999 5.01044Z" fill="#D1C0DE" fill-opacity="0.4"/>
<path d="M230.405 40.1098L216.699 48.7631V31.4566L230.405 40.1098Z" fill="#D1C0DE" fill-opacity="0.4"/>
<path d="M242.5 0.103775V10.3763L234.001 5.01058L242.5 0.103775Z" fill="#D1C0DE" fill-opacity="0.4"/>
<path d="M285.817 75.0944L277.5 69.8432V79.8965L285.817 75.0944Z" fill="#D1C0DE" fill-opacity="0.4"/>
<path d="M342.183 75.0944L350.5 79.8962V69.8434L342.183 75.0944Z" fill="#D1C0DE" fill-opacity="0.4"/>
<path d="M397.595 40.1098L411.301 48.7632V31.4564L397.595 40.1098Z" fill="#D1C0DE" fill-opacity="0.4"/>
<path d="M393.999 5.01044L385.5 10.3763V0.103493L393.999 5.01044Z" fill="#D1C0DE" fill-opacity="0.4"/>
<path d="M338.405 40.1098L324.699 48.7631V31.4566L338.405 40.1098Z" fill="#D1C0DE" fill-opacity="0.4"/>
<path d="M350.5 0.103775V10.3763L342.001 5.01058L350.5 0.103775Z" fill="#D1C0DE" fill-opacity="0.4"/>
<path d="M393.817 75.0944L385.5 69.8432V79.8965L393.817 75.0944Z" fill="#D1C0DE" fill-opacity="0.4"/>
<path d="M450.183 75.0944L458.5 79.8962V69.8434L450.183 75.0944Z" fill="#D1C0DE" fill-opacity="0.4"/>
<path d="M505.595 40.1098L519.301 48.7632V31.4564L505.595 40.1098Z" fill="#D1C0DE" fill-opacity="0.4"/>
<path d="M501.999 5.01044L493.5 10.3763V0.103493L501.999 5.01044Z" fill="#D1C0DE" fill-opacity="0.4"/>
<path d="M446.405 40.1098L432.699 48.7631V31.4566L446.405 40.1098Z" fill="#D1C0DE" fill-opacity="0.4"/>
<path d="M458.5 0.103775V10.3763L450.001 5.01058L458.5 0.103775Z" fill="#D1C0DE" fill-opacity="0.4"/>
<path d="M501.817 75.0944L493.5 69.8432V79.8965L501.817 75.0944Z" fill="#D1C0DE" fill-opacity="0.4"/>
<path d="M558.183 75.0944L566.5 79.8962V69.8434L558.183 75.0944Z" fill="#D1C0DE" fill-opacity="0.4"/>
<path d="M613.595 40.1098L627.301 48.7632V31.4564L613.595 40.1098Z" fill="#D1C0DE" fill-opacity="0.4"/>
<path d="M609.999 5.01044L601.5 10.3763V0.103493L609.999 5.01044Z" fill="#D1C0DE" fill-opacity="0.4"/>
<path d="M554.405 40.1098L540.699 48.7631V31.4566L554.405 40.1098Z" fill="#D1C0DE" fill-opacity="0.4"/>
<path d="M566.5 0.103775V10.3763L558.001 5.01058L566.5 0.103775Z" fill="#D1C0DE" fill-opacity="0.4"/>
<path d="M609.817 75.0944L601.5 69.8432V79.8965L609.817 75.0944Z" fill="#D1C0DE" fill-opacity="0.4"/>
<path d="M666.183 75.0944L674.5 79.8962V69.8434L666.183 75.0944Z" fill="#D1C0DE" fill-opacity="0.4"/>
<path d="M721.595 40.1098L735.301 48.7632V31.4564L721.595 40.1098Z" fill="#D1C0DE" fill-opacity="0.4"/>
<path d="M717.999 5.01044L709.5 10.3763V0.103493L717.999 5.01044Z" fill="#D1C0DE" fill-opacity="0.4"/>
<path d="M662.405 40.1098L648.699 48.7631V31.4566L662.405 40.1098Z" fill="#D1C0DE" fill-opacity="0.4"/>
<path d="M674.5 0.103775V10.3763L666.001 5.01058L674.5 0.103775Z" fill="#D1C0DE" fill-opacity="0.4"/>
<path d="M717.817 75.0944L709.5 69.8432V79.8965L717.817 75.0944Z" fill="#D1C0DE" fill-opacity="0.4"/>
<path d="M774.183 75.0944L782.5 79.8962V69.8434L774.183 75.0944Z" fill="#D1C0DE" fill-opacity="0.4"/>
<path d="M829.595 40.1098L843.301 48.7632V31.4564L829.595 40.1098Z" fill="#D1C0DE" fill-opacity="0.4"/>
<path d="M825.999 5.01044L817.5 10.3763V0.103493L825.999 5.01044Z" fill="#D1C0DE" fill-opacity="0.4"/>
<path d="M770.405 40.1098L756.699 48.7631V31.4566L770.405 40.1098Z" fill="#D1C0DE" fill-opacity="0.4"/>
<path d="M782.5 0.103775V10.3763L774.001 5.01058L782.5 0.103775Z" fill="#D1C0DE" fill-opacity="0.4"/>
<path d="M825.817 75.0944L817.5 69.8432V79.8965L825.817 75.0944Z" fill="#D1C0DE" fill-opacity="0.4"/>
<path d="M15.091 185.309L29.9998 193.917V175.897L15.091 185.309Z" fill="#D1C0DE" fill-opacity="0.4"/>
<path d="M67.676 152.11L87.3013 164.5V139.719L67.676 152.11Z" fill="#D1C0DE" fill-opacity="0.4"/>
<path d="M73.0906 118.795L57.9998 128.323V110.083L73.0906 118.795Z" fill="#D1C0DE" fill-opacity="0.4"/>
<path d="M20.3237 152.11L0.69873 164.5V139.72L20.3237 152.11Z" fill="#D1C0DE" fill-opacity="0.4"/>
<path d="M29.9998 110.083V128.323L14.9092 118.796L29.9998 110.083Z" fill="#D1C0DE" fill-opacity="0.4"/>
<path d="M72.909 185.309L57.9998 175.896V193.917L72.909 185.309Z" fill="#D1C0DE" fill-opacity="0.4"/>
<path d="M123.091 185.309L138 193.917V175.897L123.091 185.309Z" fill="#D1C0DE" fill-opacity="0.4"/>
<path d="M175.676 152.11L195.301 164.5V139.719L175.676 152.11Z" fill="#D1C0DE" fill-opacity="0.4"/>
<path d="M181.091 118.795L166 128.323V110.083L181.091 118.795Z" fill="#D1C0DE" fill-opacity="0.4"/>
<path d="M128.324 152.11L108.699 164.5V139.72L128.324 152.11Z" fill="#D1C0DE" fill-opacity="0.4"/>
<path d="M138 110.083V128.323L122.909 118.796L138 110.083Z" fill="#D1C0DE" fill-opacity="0.4"/>
<path d="M180.909 185.309L166 175.896V193.917L180.909 185.309Z" fill="#D1C0DE" fill-opacity="0.4"/>
<path d="M231.091 185.309L246 193.917V175.897L231.091 185.309Z" fill="#D1C0DE" fill-opacity="0.4"/>
<path d="M283.676 152.11L303.301 164.5V139.719L283.676 152.11Z" fill="#D1C0DE" fill-opacity="0.4"/>
<path d="M289.091 118.795L274 128.323V110.083L289.091 118.795Z" fill="#D1C0DE" fill-opacity="0.4"/>
<path d="M236.324 152.11L216.699 164.5V139.72L236.324 152.11Z" fill="#D1C0DE" fill-opacity="0.4"/>
<path d="M246 110.083V128.323L230.909 118.796L246 110.083Z" fill="#D1C0DE" fill-opacity="0.4"/>
<path d="M288.909 185.309L274 175.896V193.917L288.909 185.309Z" fill="#D1C0DE" fill-opacity="0.4"/>
<path d="M339.974 185.819L353 193.34V177.596L339.974 185.819Z" fill="#D1C0DE" fill-opacity="0.4"/>
<path d="M393.367 152.11L411.301 163.432V140.787L393.367 152.11Z" fill="#D1C0DE" fill-opacity="0.4"/>
<path d="M396.207 118.285L383 126.624V110.66L396.207 118.285Z" fill="#D1C0DE" fill-opacity="0.4"/>
<path d="M342.633 152.11L324.699 163.432V140.787L342.633 152.11Z" fill="#D1C0DE" fill-opacity="0.4"/>
<path d="M353 110.66V126.624L339.793 118.286L353 110.66Z" fill="#D1C0DE" fill-opacity="0.4"/>
<path d="M396.026 185.819L383 177.596V193.34L396.026 185.819Z" fill="#D1C0DE" fill-opacity="0.4"/>
<path d="M447.974 185.819L461 193.34V177.596L447.974 185.819Z" fill="#D1C0DE" fill-opacity="0.4"/>
<path d="M501.367 152.11L519.301 163.432V140.787L501.367 152.11Z" fill="#D1C0DE" fill-opacity="0.4"/>
<path d="M504.207 118.285L491 126.624V110.66L504.207 118.285Z" fill="#D1C0DE" fill-opacity="0.4"/>
<path d="M450.633 152.11L432.699 163.432V140.787L450.633 152.11Z" fill="#D1C0DE" fill-opacity="0.4"/>
<path d="M461 110.66V126.624L447.793 118.286L461 110.66Z" fill="#D1C0DE" fill-opacity="0.4"/>
<path d="M504.026 185.819L491 177.596V193.34L504.026 185.819Z" fill="#D1C0DE" fill-opacity="0.4"/>
<path d="M555.974 185.819L569 193.34V177.596L555.974 185.819Z" fill="#D1C0DE" fill-opacity="0.4"/>
<path d="M609.367 152.11L627.301 163.432V140.787L609.367 152.11Z" fill="#D1C0DE" fill-opacity="0.4"/>
<path d="M612.207 118.285L599 126.624V110.66L612.207 118.285Z" fill="#D1C0DE" fill-opacity="0.4"/>
<path d="M558.633 152.11L540.699 163.432V140.787L558.633 152.11Z" fill="#D1C0DE" fill-opacity="0.4"/>
<path d="M569 110.66V126.624L555.793 118.286L569 110.66Z" fill="#D1C0DE" fill-opacity="0.4"/>
<path d="M612.026 185.819L599 177.596V193.34L612.026 185.819Z" fill="#D1C0DE" fill-opacity="0.4"/>
<path d="M663.974 185.819L677 193.34V177.596L663.974 185.819Z" fill="#D1C0DE" fill-opacity="0.4"/>
<path d="M717.367 152.11L735.301 163.432V140.787L717.367 152.11Z" fill="#D1C0DE" fill-opacity="0.4"/>
<path d="M720.207 118.285L707 126.624V110.66L720.207 118.285Z" fill="#D1C0DE" fill-opacity="0.4"/>
<path d="M666.633 152.11L648.699 163.432V140.787L666.633 152.11Z" fill="#D1C0DE" fill-opacity="0.4"/>
<path d="M677 110.66V126.624L663.793 118.286L677 110.66Z" fill="#D1C0DE" fill-opacity="0.4"/>
<path d="M720.026 185.819L707 177.596V193.34L720.026 185.819Z" fill="#D1C0DE" fill-opacity="0.4"/>
<path d="M774.183 187.094L782.5 191.896V181.843L774.183 187.094Z" fill="#D1C0DE" fill-opacity="0.4"/>
<path d="M829.595 152.11L843.301 160.763V143.456L829.595 152.11Z" fill="#D1C0DE" fill-opacity="0.4"/>
<path d="M825.999 117.01L817.5 122.376V112.103L825.999 117.01Z" fill="#D1C0DE" fill-opacity="0.4"/>
<path d="M770.405 152.11L756.699 160.763V143.457L770.405 152.11Z" fill="#D1C0DE" fill-opacity="0.4"/>
<path d="M782.5 112.104V122.376L774.001 117.011L782.5 112.104Z" fill="#D1C0DE" fill-opacity="0.4"/>
<path d="M825.817 187.094L817.5 181.843V191.897L825.817 187.094Z" fill="#D1C0DE" fill-opacity="0.4"/>
<path d="M23.706 264.11L0.69873 278.635V249.584L23.706 264.11Z" fill="#D1C0DE" fill-opacity="0.4"/>
<path d="M31.9998 284.499L13.3243 296.289L31.9998 307.072V284.499Z" fill="#D1C0DE" fill-opacity="0.4"/>
<path d="M64.2937 264.11L87.3013 249.584V278.636L64.2937 264.11Z" fill="#D1C0DE" fill-opacity="0.4"/>
<path d="M74.8573 231.815L55.9998 243.721V220.928L74.8573 231.815Z" fill="#D1C0DE" fill-opacity="0.4"/>
<path d="M55.9998 307.072V284.498L74.6757 296.289L55.9998 307.072Z" fill="#D1C0DE" fill-opacity="0.4"/>
<path d="M13.1425 231.816L31.9998 243.721V220.928L13.1425 231.816Z" fill="#D1C0DE" fill-opacity="0.4"/>
<path d="M131.706 264.11L108.699 278.635V249.584L131.706 264.11Z" fill="#D1C0DE" fill-opacity="0.4"/>
<path d="M140 284.499L121.324 296.289L140 307.072V284.499Z" fill="#D1C0DE" fill-opacity="0.4"/>
<path d="M172.294 264.11L195.301 249.584V278.636L172.294 264.11Z" fill="#D1C0DE" fill-opacity="0.4"/>
<path d="M182.857 231.815L164 243.721V220.928L182.857 231.815Z" fill="#D1C0DE" fill-opacity="0.4"/>
<path d="M164 307.072V284.498L182.676 296.289L164 307.072Z" fill="#D1C0DE" fill-opacity="0.4"/>
<path d="M121.142 231.816L140 243.721V220.928L121.142 231.816Z" fill="#D1C0DE" fill-opacity="0.4"/>
<path d="M239.706 264.11L216.699 278.635V249.584L239.706 264.11Z" fill="#D1C0DE" fill-opacity="0.4"/>
<path d="M248 284.499L229.324 296.289L248 307.072V284.499Z" fill="#D1C0DE" fill-opacity="0.4"/>
<path d="M280.294 264.11L303.301 249.584V278.636L280.294 264.11Z" fill="#D1C0DE" fill-opacity="0.4"/>
<path d="M290.857 231.815L272 243.721V220.928L290.857 231.815Z" fill="#D1C0DE" fill-opacity="0.4"/>
<path d="M272 307.072V284.498L290.676 296.289L272 307.072Z" fill="#D1C0DE" fill-opacity="0.4"/>
<path d="M229.142 231.816L248 243.721V220.928L229.142 231.816Z" fill="#D1C0DE" fill-opacity="0.4"/>
<path d="M347.706 264.11L324.699 278.635V249.584L347.706 264.11Z" fill="#D1C0DE" fill-opacity="0.4"/>
<path d="M356 284.499L337.324 296.289L356 307.072V284.499Z" fill="#D1C0DE" fill-opacity="0.4"/>
<path d="M388.294 264.11L411.301 249.584V278.636L388.294 264.11Z" fill="#D1C0DE" fill-opacity="0.4"/>
<path d="M398.857 231.815L380 243.721V220.928L398.857 231.815Z" fill="#D1C0DE" fill-opacity="0.4"/>
<path d="M380 307.072V284.498L398.676 296.289L380 307.072Z" fill="#D1C0DE" fill-opacity="0.4"/>
<path d="M337.142 231.816L356 243.721V220.928L337.142 231.816Z" fill="#D1C0DE" fill-opacity="0.4"/>
<path d="M455.706 264.11L432.699 278.635V249.584L455.706 264.11Z" fill="#D1C0DE" fill-opacity="0.4"/>
<path d="M464 284.499L445.324 296.289L464 307.072V284.499Z" fill="#D1C0DE" fill-opacity="0.4"/>
<path d="M496.294 264.11L519.301 249.584V278.636L496.294 264.11Z" fill="#D1C0DE" fill-opacity="0.4"/>
<path d="M506.857 231.815L488 243.721V220.928L506.857 231.815Z" fill="#D1C0DE" fill-opacity="0.4"/>
<path d="M488 307.072V284.498L506.676 296.289L488 307.072Z" fill="#D1C0DE" fill-opacity="0.4"/>
<path d="M445.142 231.816L464 243.721V220.928L445.142 231.816Z" fill="#D1C0DE" fill-opacity="0.4"/>
<path d="M563.706 264.11L540.699 278.635V249.584L563.706 264.11Z" fill="#D1C0DE" fill-opacity="0.4"/>
<path d="M572 284.499L553.324 296.289L572 307.072V284.499Z" fill="#D1C0DE" fill-opacity="0.4"/>
<path d="M604.294 264.11L627.301 249.584V278.636L604.294 264.11Z" fill="#D1C0DE" fill-opacity="0.4"/>
<path d="M614.857 231.815L596 243.721V220.928L614.857 231.815Z" fill="#D1C0DE" fill-opacity="0.4"/>
<path d="M596 307.072V284.498L614.676 296.289L596 307.072Z" fill="#D1C0DE" fill-opacity="0.4"/>
<path d="M553.142 231.816L572 243.721V220.928L553.142 231.816Z" fill="#D1C0DE" fill-opacity="0.4"/>
<path d="M663.974 297.819L677 305.34V289.596L663.974 297.819Z" fill="#D1C0DE" fill-opacity="0.4"/>
<path d="M717.367 264.11L735.301 275.432V252.787L717.367 264.11Z" fill="#D1C0DE" fill-opacity="0.4"/>
<path d="M720.207 230.285L707 238.624V222.66L720.207 230.285Z" fill="#D1C0DE" fill-opacity="0.4"/>
<path d="M666.633 264.11L648.699 275.432V252.787L666.633 264.11Z" fill="#D1C0DE" fill-opacity="0.4"/>
<path d="M677 222.66V238.624L663.793 230.286L677 222.66Z" fill="#D1C0DE" fill-opacity="0.4"/>
<path d="M720.026 297.819L707 289.596V305.34L720.026 297.819Z" fill="#D1C0DE" fill-opacity="0.4"/>
<path d="M774.183 299.094L782.5 303.896V293.843L774.183 299.094Z" fill="#D1C0DE" fill-opacity="0.4"/>
<path d="M829.595 264.11L843.301 272.763V255.456L829.595 264.11Z" fill="#D1C0DE" fill-opacity="0.4"/>
<path d="M825.999 229.01L817.5 234.376V224.103L825.999 229.01Z" fill="#D1C0DE" fill-opacity="0.4"/>
<path d="M770.405 264.11L756.699 272.763V255.457L770.405 264.11Z" fill="#D1C0DE" fill-opacity="0.4"/>
<path d="M782.5 224.104V234.376L774.001 229.011L782.5 224.104Z" fill="#D1C0DE" fill-opacity="0.4"/>
<path d="M825.817 299.094L817.5 293.843V303.897L825.817 299.094Z" fill="#D1C0DE" fill-opacity="0.4"/>
<path d="M32.1618 376.11L0.69873 395.974V356.246L32.1618 376.11Z" fill="#D1C0DE" fill-opacity="0.4"/>
<path d="M36.9998 388.003L8.90751 405.739L36.9998 421.958V388.003Z" fill="#D1C0DE" fill-opacity="0.4"/>
<path d="M55.8379 376.11L87.3013 356.245V395.974L55.8379 376.11Z" fill="#D1C0DE" fill-opacity="0.4"/>
<path d="M79.274 346.365L50.9998 364.216V330.041L79.274 346.365Z" fill="#D1C0DE" fill-opacity="0.4"/>
<path d="M50.9998 421.959V388.003L79.0925 405.739L50.9998 421.959Z" fill="#D1C0DE" fill-opacity="0.4"/>
<path d="M8.72572 346.366L36.9998 364.216V330.042L8.72572 346.366Z" fill="#D1C0DE" fill-opacity="0.4"/>
<path d="M136.78 376.11L108.699 393.839V358.381L136.78 376.11Z" fill="#D1C0DE" fill-opacity="0.4"/>
<path d="M143 391.401L118.675 406.759L143 420.804V391.401Z" fill="#D1C0DE" fill-opacity="0.4"/>
<path d="M167.221 376.11L195.302 358.381V393.839L167.221 376.11Z" fill="#D1C0DE" fill-opacity="0.4"/>
<path d="M185.508 345.345L161 360.818V331.196L185.508 345.345Z" fill="#D1C0DE" fill-opacity="0.4"/>
<path d="M161 420.804V391.401L185.326 406.759L161 420.804Z" fill="#D1C0DE" fill-opacity="0.4"/>
<path d="M118.493 345.346L143 360.818V331.196L118.493 345.346Z" fill="#D1C0DE" fill-opacity="0.4"/>
<path d="M244.78 376.11L216.699 393.839V358.381L244.78 376.11Z" fill="#D1C0DE" fill-opacity="0.4"/>
<path d="M251 391.401L226.675 406.759L251 420.804V391.401Z" fill="#D1C0DE" fill-opacity="0.4"/>
<path d="M275.221 376.11L303.302 358.381V393.839L275.221 376.11Z" fill="#D1C0DE" fill-opacity="0.4"/>
<path d="M293.508 345.345L269 360.818V331.196L293.508 345.345Z" fill="#D1C0DE" fill-opacity="0.4"/>
<path d="M269 420.804V391.401L293.326 406.759L269 420.804Z" fill="#D1C0DE" fill-opacity="0.4"/>
<path d="M226.493 345.346L251 360.818V331.196L226.493 345.346Z" fill="#D1C0DE" fill-opacity="0.4"/>
<path d="M352.78 376.11L324.699 393.839V358.381L352.78 376.11Z" fill="#D1C0DE" fill-opacity="0.4"/>
<path d="M359 391.401L334.675 406.759L359 420.804V391.401Z" fill="#D1C0DE" fill-opacity="0.4"/>
<path d="M383.221 376.11L411.302 358.381V393.839L383.221 376.11Z" fill="#D1C0DE" fill-opacity="0.4"/>
<path d="M401.508 345.345L377 360.818V331.196L401.508 345.345Z" fill="#D1C0DE" fill-opacity="0.4"/>
<path d="M377 420.804V391.401L401.326 406.759L377 420.804Z" fill="#D1C0DE" fill-opacity="0.4"/>
<path d="M334.493 345.346L359 360.818V331.196L334.493 345.346Z" fill="#D1C0DE" fill-opacity="0.4"/>
<path d="M455.707 376.11L432.699 390.635V361.584L455.707 376.11Z" fill="#D1C0DE" fill-opacity="0.4"/>
<path d="M464 396.499L445.325 408.289L464 419.072V396.499Z" fill="#D1C0DE" fill-opacity="0.4"/>
<path d="M496.294 376.11L519.302 361.584V390.636L496.294 376.11Z" fill="#D1C0DE" fill-opacity="0.4"/>
<path d="M506.858 343.815L488 355.721V332.928L506.858 343.815Z" fill="#D1C0DE" fill-opacity="0.4"/>
<path d="M488 419.072V396.498L506.676 408.289L488 419.072Z" fill="#D1C0DE" fill-opacity="0.4"/>
<path d="M445.143 343.816L464 355.721V332.928L445.143 343.816Z" fill="#D1C0DE" fill-opacity="0.4"/>
<path d="M563.707 376.11L540.699 390.635V361.584L563.707 376.11Z" fill="#D1C0DE" fill-opacity="0.4"/>
<path d="M572 396.499L553.325 408.289L572 419.072V396.499Z" fill="#D1C0DE" fill-opacity="0.4"/>
<path d="M604.294 376.11L627.302 361.584V390.636L604.294 376.11Z" fill="#D1C0DE" fill-opacity="0.4"/>
<path d="M614.858 343.815L596 355.721V332.928L614.858 343.815Z" fill="#D1C0DE" fill-opacity="0.4"/>
<path d="M596 419.072V396.498L614.676 408.289L596 419.072Z" fill="#D1C0DE" fill-opacity="0.4"/>
<path d="M553.143 343.816L572 355.721V332.928L553.143 343.816Z" fill="#D1C0DE" fill-opacity="0.4"/>
<path d="M663.975 409.819L677 417.34V401.596L663.975 409.819Z" fill="#D1C0DE" fill-opacity="0.4"/>
<path d="M717.368 376.11L735.302 387.432V364.787L717.368 376.11Z" fill="#D1C0DE" fill-opacity="0.4"/>
<path d="M720.208 342.285L707 350.624V334.66L720.208 342.285Z" fill="#D1C0DE" fill-opacity="0.4"/>
<path d="M666.633 376.11L648.699 387.432V364.787L666.633 376.11Z" fill="#D1C0DE" fill-opacity="0.4"/>
<path d="M677 334.66V350.624L663.793 342.286L677 334.66Z" fill="#D1C0DE" fill-opacity="0.4"/>
<path d="M720.026 409.819L707 401.596V417.34L720.026 409.819Z" fill="#D1C0DE" fill-opacity="0.4"/>
<path d="M774.183 411.094L782.5 415.896V405.843L774.183 411.094Z" fill="#D1C0DE" fill-opacity="0.4"/>
<path d="M829.596 376.11L843.302 384.763V367.456L829.596 376.11Z" fill="#D1C0DE" fill-opacity="0.4"/>
<path d="M825.999 341.01L817.5 346.376V336.103L825.999 341.01Z" fill="#D1C0DE" fill-opacity="0.4"/>
<path d="M770.405 376.11L756.699 384.763V367.457L770.405 376.11Z" fill="#D1C0DE" fill-opacity="0.4"/>
<path d="M782.5 336.104V346.376L774.001 341.011L782.5 336.104Z" fill="#D1C0DE" fill-opacity="0.4"/>
<path d="M825.818 411.094L817.5 405.843V415.897L825.818 411.094Z" fill="#D1C0DE" fill-opacity="0.4"/>
<path d="M32.1623 488.11L0.699219 507.974V468.246L32.1623 488.11Z" fill="#D1C0DE" fill-opacity="0.4"/>
<path d="M37.0002 500.003L8.908 517.739L37.0002 533.958V500.003Z" fill="#D1C0DE" fill-opacity="0.4"/>
<path d="M55.8384 488.11L87.3018 468.245V507.974L55.8384 488.11Z" fill="#D1C0DE" fill-opacity="0.4"/>
<path d="M79.2745 458.365L51.0002 476.216V442.041L79.2745 458.365Z" fill="#D1C0DE" fill-opacity="0.4"/>
<path d="M51.0002 533.959V500.003L79.0929 517.739L51.0002 533.959Z" fill="#D1C0DE" fill-opacity="0.4"/>
<path d="M8.7262 458.366L37.0002 476.216V442.042L8.7262 458.366Z" fill="#D1C0DE" fill-opacity="0.4"/>
<path d="M140.162 488.11L108.699 507.974V468.246L140.162 488.11Z" fill="#D1C0DE" fill-opacity="0.4"/>
<path d="M145 500.003L116.908 517.739L145 533.958V500.003Z" fill="#D1C0DE" fill-opacity="0.4"/>
<path d="M163.838 488.11L195.302 468.245V507.974L163.838 488.11Z" fill="#D1C0DE" fill-opacity="0.4"/>
<path d="M187.275 458.365L159 476.216V442.041L187.275 458.365Z" fill="#D1C0DE" fill-opacity="0.4"/>
<path d="M159 533.959V500.003L187.093 517.739L159 533.959Z" fill="#D1C0DE" fill-opacity="0.4"/>
<path d="M116.726 458.366L145 476.216V442.042L116.726 458.366Z" fill="#D1C0DE" fill-opacity="0.4"/>
<path d="M244.78 488.11L216.699 505.839V470.381L244.78 488.11Z" fill="#D1C0DE" fill-opacity="0.4"/>
<path d="M251 503.401L226.675 518.759L251 532.804V503.401Z" fill="#D1C0DE" fill-opacity="0.4"/>
<path d="M275.221 488.11L303.302 470.381V505.839L275.221 488.11Z" fill="#D1C0DE" fill-opacity="0.4"/>
<path d="M293.508 457.345L269 472.818V443.196L293.508 457.345Z" fill="#D1C0DE" fill-opacity="0.4"/>
<path d="M269 532.804V503.401L293.326 518.759L269 532.804Z" fill="#D1C0DE" fill-opacity="0.4"/>
<path d="M226.493 457.346L251 472.818V443.196L226.493 457.346Z" fill="#D1C0DE" fill-opacity="0.4"/>
<path d="M352.78 488.11L324.699 505.839V470.381L352.78 488.11Z" fill="#D1C0DE" fill-opacity="0.4"/>
<path d="M359 503.401L334.675 518.759L359 532.804V503.401Z" fill="#D1C0DE" fill-opacity="0.4"/>
<path d="M383.221 488.11L411.302 470.381V505.839L383.221 488.11Z" fill="#D1C0DE" fill-opacity="0.4"/>
<path d="M401.508 457.345L377 472.818V443.196L401.508 457.345Z" fill="#D1C0DE" fill-opacity="0.4"/>
<path d="M377 532.804V503.401L401.326 518.759L377 532.804Z" fill="#D1C0DE" fill-opacity="0.4"/>
<path d="M334.493 457.346L359 472.818V443.196L334.493 457.346Z" fill="#D1C0DE" fill-opacity="0.4"/>
<path d="M455.707 488.11L432.699 502.635V473.584L455.707 488.11Z" fill="#D1C0DE" fill-opacity="0.4"/>
<path d="M464 508.499L445.325 520.289L464 531.072V508.499Z" fill="#D1C0DE" fill-opacity="0.4"/>
<path d="M496.294 488.11L519.302 473.584V502.636L496.294 488.11Z" fill="#D1C0DE" fill-opacity="0.4"/>
<path d="M506.858 455.815L488 467.721V444.928L506.858 455.815Z" fill="#D1C0DE" fill-opacity="0.4"/>
<path d="M488 531.072V508.498L506.676 520.289L488 531.072Z" fill="#D1C0DE" fill-opacity="0.4"/>
<path d="M445.143 455.816L464 467.721V444.928L445.143 455.816Z" fill="#D1C0DE" fill-opacity="0.4"/>
<path d="M563.707 488.11L540.699 502.635V473.584L563.707 488.11Z" fill="#D1C0DE" fill-opacity="0.4"/>
<path d="M572 508.499L553.325 520.289L572 531.072V508.499Z" fill="#D1C0DE" fill-opacity="0.4"/>
<path d="M604.294 488.11L627.302 473.584V502.636L604.294 488.11Z" fill="#D1C0DE" fill-opacity="0.4"/>
<path d="M614.858 455.815L596 467.721V444.928L614.858 455.815Z" fill="#D1C0DE" fill-opacity="0.4"/>
<path d="M596 531.072V508.498L614.676 520.289L596 531.072Z" fill="#D1C0DE" fill-opacity="0.4"/>
<path d="M553.143 455.816L572 467.721V444.928L553.143 455.816Z" fill="#D1C0DE" fill-opacity="0.4"/>
<path d="M663.975 521.819L677 529.34V513.596L663.975 521.819Z" fill="#D1C0DE" fill-opacity="0.4"/>
<path d="M717.368 488.11L735.302 499.432V476.787L717.368 488.11Z" fill="#D1C0DE" fill-opacity="0.4"/>
<path d="M720.208 454.285L707 462.624V446.66L720.208 454.285Z" fill="#D1C0DE" fill-opacity="0.4"/>
<path d="M666.633 488.11L648.699 499.432V476.787L666.633 488.11Z" fill="#D1C0DE" fill-opacity="0.4"/>
<path d="M677 446.66V462.624L663.793 454.286L677 446.66Z" fill="#D1C0DE" fill-opacity="0.4"/>
<path d="M720.026 521.819L707 513.596V529.34L720.026 521.819Z" fill="#D1C0DE" fill-opacity="0.4"/>
<path d="M774.183 523.094L782.5 527.896V517.843L774.183 523.094Z" fill="#D1C0DE" fill-opacity="0.4"/>
<path d="M829.596 488.11L843.302 496.763V479.456L829.596 488.11Z" fill="#D1C0DE" fill-opacity="0.4"/>
<path d="M825.999 453.01L817.5 458.376V448.103L825.999 453.01Z" fill="#D1C0DE" fill-opacity="0.4"/>
<path d="M770.405 488.11L756.699 496.763V479.457L770.405 488.11Z" fill="#D1C0DE" fill-opacity="0.4"/>
<path d="M782.5 448.104V458.376L774.001 453.011L782.5 448.104Z" fill="#D1C0DE" fill-opacity="0.4"/>
<path d="M825.818 523.094L817.5 517.843V527.897L825.818 523.094Z" fill="#D1C0DE" fill-opacity="0.4"/>
</svg>
