<svg width="996" height="37" viewBox="0 0 996 37" fill="none" xmlns="http://www.w3.org/2000/svg">
<path d="M6 29.8207V14.6757H7.92851L8.12939 16.9076V29.8207H6ZM11.1527 25.4366C10.3358 25.4366 9.67621 25.2506 9.174 24.8786C8.67848 24.5066 8.39724 23.9885 8.33028 23.3243H7.4062L8.12939 20.3152C8.12939 21.4046 8.34367 22.2316 8.77223 22.7962C9.20748 23.3608 9.84362 23.6431 10.6806 23.6431C11.5378 23.6431 12.1873 23.3409 12.6292 22.7364C13.0712 22.1319 13.2922 21.2385 13.2922 20.0562C13.2922 18.8074 13.0712 17.8641 12.6292 17.2264C12.1873 16.5888 11.5378 16.2699 10.6806 16.2699C9.84362 16.2699 9.20748 16.5522 8.77223 17.1168C8.34367 17.6815 8.12939 18.5085 8.12939 19.5978L7.4062 16.5888H8.22983C8.32358 15.9245 8.62491 15.4064 9.13382 15.0344C9.64943 14.6624 10.3224 14.4764 11.1527 14.4764C12.5522 14.4764 13.6102 14.9481 14.3267 15.8913C15.0432 16.8345 15.4015 18.2228 15.4015 20.0562C15.4015 21.8231 15.0432 23.1615 14.3267 24.0716C13.6102 24.9816 12.5522 25.4366 11.1527 25.4366Z" fill="#C98040"/>
<path d="M21.6691 20.6938L21.0464 17.3859H21.87C21.9905 15.4463 22.9682 14.4764 24.8029 14.4764C25.9011 14.4764 26.698 14.7886 27.1935 15.413C27.689 16.0374 27.9368 17.0471 27.9368 18.442H25.8275C25.8275 17.6715 25.7103 17.1168 25.4759 16.7781C25.2482 16.4393 24.8766 16.2699 24.361 16.2699C23.457 16.2699 22.7807 16.6552 22.332 17.4257C21.8901 18.1896 21.6691 19.279 21.6691 20.6938ZM17.1693 25.2373V23.5036H24.2806V25.2373H17.1693ZM19.5397 25.2373V14.6757H21.2673L21.6691 17.7047V25.2373H19.5397ZM17.571 16.4094V14.6757H21.1267L21.3276 16.4094H17.571Z" fill="#C98040"/>
<path d="M34.0839 25.2373V15.2736H36.2133V25.2373H34.0839ZM30.026 25.2373V23.5036H34.2848V25.2373H30.026ZM36.0124 25.2373V23.5036H39.4877V25.2373H36.0124ZM30.6286 16.4094V14.6757H36.2133V16.4094H30.6286ZM35.0783 13.0018C34.6698 13.0018 34.3182 12.859 34.0236 12.5734C33.7357 12.2811 33.5917 11.9324 33.5917 11.5272C33.5917 11.1153 33.7357 10.7666 34.0236 10.481C34.3182 10.1954 34.6698 10.0525 35.0783 10.0525C35.4934 10.0525 35.845 10.1954 36.1329 10.481C36.4208 10.7666 36.5648 11.1153 36.5648 11.5272C36.5648 11.9324 36.4208 12.2811 36.1329 12.5734C35.845 12.859 35.4934 13.0018 35.0783 13.0018Z" fill="#C98040"/>
<path d="M48.7084 25.2373V18.3623C48.7084 17.7246 48.541 17.2331 48.2062 16.8877C47.8713 16.5423 47.4026 16.3696 46.8 16.3696C45.1259 16.3696 44.2889 17.346 44.2889 19.2989L43.6661 16.5888H44.4898C44.55 15.878 44.8112 15.3499 45.2732 15.0045C45.7353 14.6525 46.4116 14.4764 47.3022 14.4764C48.4271 14.4764 49.2976 14.8152 49.9137 15.4928C50.5297 16.1703 50.8378 17.1268 50.8378 18.3623V25.2373H48.7084ZM42.1595 25.2373V14.6757H44.088L44.2889 16.9076V25.2373H42.1595Z" fill="#C98040"/>
<path d="M60.4803 25.4366C58.8665 25.4366 57.698 25.1045 56.9748 24.4402C56.2583 23.776 55.9001 22.7132 55.9001 21.2518V19.4583H58.0295V21.1522C58.0295 21.9891 58.2337 22.5969 58.6422 22.9755C59.0573 23.3542 59.737 23.5435 60.6812 23.5435C61.016 23.5435 61.3709 23.5269 61.7459 23.4937C62.1209 23.4538 62.5494 23.404 63.0315 23.3442L63.2726 25.1975C62.8039 25.2772 62.3452 25.337 61.8965 25.3768C61.4546 25.4167 60.9825 25.4366 60.4803 25.4366ZM55.9001 20.2554V11.4873H58.0295V20.2554H55.9001ZM53.2283 16.4094V14.6757H62.8708V16.4094H53.2283Z" fill="#C98040"/>
<path d="M74.1205 27.2301C71.9442 27.2301 70.2534 26.4363 69.0481 24.8487C67.8495 23.2545 67.2501 21.006 67.2501 18.1033C67.2501 15.2403 67.8495 13.0251 69.0481 11.4574C70.2534 9.88315 71.9442 9.09601 74.1205 9.09601H74.6026V10.8895H74.3213C72.7343 10.8895 71.5089 11.5205 70.6451 12.7826C69.788 14.0447 69.3595 15.8182 69.3595 18.1033C69.3595 20.4281 69.788 22.2316 70.6451 23.5136C71.5089 24.7956 72.7343 25.4366 74.3213 25.4366H74.6026V27.2301H74.1205Z" fill="#A2ABCC"/>
<path d="M79.685 17.4656L79.4841 11.0888H81.8144L81.6135 17.4656H79.685ZM83.7429 17.4656L83.542 11.0888H85.8723L85.6714 17.4656H83.7429Z" fill="#C8C8C8"/>
<path d="M97.3228 25.2373V11.0888H99.3316V25.2373H97.3228ZM90.0909 25.2373V11.0888H92.0998V25.2373H90.0909ZM90.5128 19.1395V17.2464H98.96V19.1395H90.5128Z" fill="#C8C8C8"/>
<path d="M107.789 25.4366C105.974 25.4366 104.571 24.965 103.58 24.0217C102.596 23.0719 102.104 21.7101 102.104 19.9366C102.104 18.2095 102.522 16.8678 103.359 15.9112C104.196 14.9547 105.378 14.4764 106.905 14.4764C108.345 14.4764 109.456 14.9082 110.24 15.7717C111.03 16.6353 111.425 17.8907 111.425 19.538C111.425 20.0229 111.405 20.4746 111.365 20.8931H103.892V19.279H109.496C109.496 18.3291 109.269 17.6018 108.813 17.0969C108.358 16.5854 107.729 16.3297 106.925 16.3297C106.021 16.3297 105.318 16.6353 104.816 17.2464C104.32 17.8575 104.073 18.721 104.073 19.837C104.073 21.0592 104.414 21.9891 105.097 22.6268C105.787 23.2645 106.764 23.5833 108.03 23.5833C108.472 23.5833 108.907 23.5601 109.336 23.5136C109.764 23.4604 110.2 23.3907 110.642 23.3043L110.903 25.1576C110.273 25.2772 109.697 25.3536 109.175 25.3868C108.653 25.42 108.191 25.4366 107.789 25.4366Z" fill="#C8C8C8"/>
<path d="M120.405 25.4366C119.172 25.4366 118.282 25.1045 117.733 24.4402C117.184 23.776 116.909 22.7132 116.909 21.2518V10.2917H119.039V21.1522C119.039 21.7101 119.092 22.1652 119.199 22.5172C119.306 22.8693 119.514 23.1283 119.822 23.2944C120.137 23.4604 120.599 23.5435 121.208 23.5435C121.764 23.5435 122.474 23.4173 123.338 23.1649L123.579 25.0181C123.036 25.1643 122.514 25.2705 122.012 25.337C121.516 25.4034 120.98 25.4366 120.405 25.4366ZM113.775 12.0254V10.2917H117.09V12.0254H113.775Z" fill="#C8C8C8"/>
<path d="M132.458 25.4366C131.226 25.4366 130.335 25.1045 129.786 24.4402C129.237 23.776 128.962 22.7132 128.962 21.2518V10.2917H131.092V21.1522C131.092 21.7101 131.145 22.1652 131.252 22.5172C131.36 22.8693 131.567 23.1283 131.875 23.2944C132.19 23.4604 132.652 23.5435 133.261 23.5435C133.817 23.5435 134.527 23.4173 135.391 23.1649L135.632 25.0181C135.089 25.1643 134.567 25.2705 134.065 25.337C133.569 25.4034 133.034 25.4366 132.458 25.4366ZM125.829 12.0254V10.2917H129.143V12.0254H125.829Z" fill="#C8C8C8"/>
<path d="M142.924 25.4366C141.451 25.4366 140.306 24.9583 139.489 24.0018C138.672 23.0453 138.263 21.6969 138.263 19.9565C138.263 18.2095 138.672 16.8611 139.489 15.9112C140.306 14.9547 141.451 14.4764 142.924 14.4764C144.404 14.4764 145.549 14.9547 146.359 15.9112C147.176 16.8611 147.584 18.2095 147.584 19.9565C147.584 21.6969 147.176 23.0453 146.359 24.0018C145.549 24.9583 144.404 25.4366 142.924 25.4366ZM142.924 23.5435C143.707 23.5435 144.31 23.2313 144.732 22.6069C145.16 21.9825 145.375 21.099 145.375 19.9565C145.375 18.8074 145.16 17.9239 144.732 17.3062C144.31 16.6818 143.707 16.3696 142.924 16.3696C142.14 16.3696 141.534 16.6818 141.106 17.3062C140.684 17.9239 140.473 18.8074 140.473 19.9565C140.473 21.099 140.684 21.9825 141.106 22.6069C141.534 23.2313 142.14 23.5435 142.924 23.5435Z" fill="#C8C8C8"/>
<path d="M153.089 29.5815L153.892 22.7065H156.223L155.017 29.5815H153.089Z" fill="#C8C8C8"/>
<path d="M174.865 25.2373L173.258 11.0888H175.367L176.572 23.6431H176.773L178.089 14.6757H180.098L179.425 16.6486H179.023L177.968 25.2373H174.865ZM180.198 25.2373L179.144 16.6486H178.742L178.089 14.6757H180.098L181.394 23.6431H181.594L182.8 11.0888H184.909L183.302 25.2373H180.198Z" fill="#C8C8C8"/>
<path d="M191.137 25.4366C189.663 25.4366 188.518 24.9583 187.701 24.0018C186.884 23.0453 186.476 21.6969 186.476 19.9565C186.476 18.2095 186.884 16.8611 187.701 15.9112C188.518 14.9547 189.663 14.4764 191.137 14.4764C192.616 14.4764 193.761 14.9547 194.572 15.9112C195.389 16.8611 195.797 18.2095 195.797 19.9565C195.797 21.6969 195.389 23.0453 194.572 24.0018C193.761 24.9583 192.616 25.4366 191.137 25.4366ZM191.137 23.5435C191.92 23.5435 192.523 23.2313 192.945 22.6069C193.373 21.9825 193.587 21.099 193.587 19.9565C193.587 18.8074 193.373 17.9239 192.945 17.3062C192.523 16.6818 191.92 16.3696 191.137 16.3696C190.353 16.3696 189.747 16.6818 189.319 17.3062C188.897 17.9239 188.686 18.8074 188.686 19.9565C188.686 21.099 188.897 21.9825 189.319 22.6069C189.747 23.2313 190.353 23.5435 191.137 23.5435Z" fill="#C8C8C8"/>
<path d="M202.467 20.6938L201.844 17.3859H202.667C202.788 15.4463 203.766 14.4764 205.6 14.4764C206.699 14.4764 207.495 14.7886 207.991 15.413C208.486 16.0374 208.734 17.0471 208.734 18.442H206.625C206.625 17.6715 206.508 17.1168 206.273 16.7781C206.046 16.4393 205.674 16.2699 205.158 16.2699C204.254 16.2699 203.578 16.6552 203.129 17.4257C202.688 18.1896 202.467 19.279 202.467 20.6938ZM197.967 25.2373V23.5036H205.078V25.2373H197.967ZM200.337 25.2373V14.6757H202.065L202.467 17.7047V25.2373H200.337ZM198.368 16.4094V14.6757H201.924L202.125 16.4094H198.368Z" fill="#C8C8C8"/>
<path d="M216.83 25.4366C215.598 25.4366 214.707 25.1045 214.158 24.4402C213.609 23.776 213.334 22.7132 213.334 21.2518V10.2917H215.464V21.1522C215.464 21.7101 215.517 22.1652 215.625 22.5172C215.732 22.8693 215.939 23.1283 216.247 23.2944C216.562 23.4604 217.024 23.5435 217.633 23.5435C218.189 23.5435 218.899 23.4173 219.763 23.1649L220.004 25.0181C219.461 25.1643 218.939 25.2705 218.437 25.337C217.941 25.4034 217.406 25.4366 216.83 25.4366ZM210.201 12.0254V10.2917H213.515V12.0254H210.201Z" fill="#C8C8C8"/>
<path d="M226.482 25.4366C225.09 25.4366 224.032 24.9816 223.308 24.0716C222.592 23.1615 222.234 21.8231 222.234 20.0562C222.234 18.2228 222.592 16.8345 223.308 15.8913C224.032 14.9481 225.09 14.4764 226.482 14.4764C227.279 14.4764 227.925 14.6624 228.421 15.0344C228.923 15.4064 229.218 15.9245 229.305 16.5888H230.129L229.506 19.5978C229.506 18.5085 229.288 17.6815 228.853 17.1168C228.424 16.5522 227.792 16.2699 226.955 16.2699C226.097 16.2699 225.448 16.5888 225.006 17.2264C224.564 17.8641 224.343 18.8074 224.343 20.0562C224.343 21.2385 224.564 22.1319 225.006 22.7364C225.448 23.3409 226.097 23.6431 226.955 23.6431C227.792 23.6431 228.424 23.3608 228.853 22.7962C229.288 22.2316 229.506 21.4046 229.506 20.3152L230.229 23.3243H229.305C229.238 23.9885 228.953 24.5066 228.451 24.8786C227.956 25.2506 227.299 25.4366 226.482 25.4366ZM229.727 25.337L229.506 23.2645V10.2917H231.635V25.2373L229.727 25.337Z" fill="#C8C8C8"/>
<path d="M238.365 20.6938L238.305 10.9891H240.394L240.293 20.6938H238.365ZM239.349 25.4366C238.941 25.4366 238.589 25.2938 238.295 25.0082C238.007 24.7159 237.863 24.3671 237.863 23.962C237.863 23.5501 238.007 23.2014 238.295 22.9158C238.589 22.6301 238.941 22.4873 239.349 22.4873C239.764 22.4873 240.116 22.6301 240.404 22.9158C240.692 23.2014 240.836 23.5501 240.836 23.962C240.836 24.3671 240.692 24.7159 240.404 25.0082C240.116 25.2938 239.764 25.4366 239.349 25.4366Z" fill="#C8C8C8"/>
<path d="M248.429 17.4656L248.228 11.0888H250.559L250.358 17.4656H248.429ZM252.487 17.4656L252.286 11.0888H254.617L254.416 17.4656H252.487Z" fill="#C8C8C8"/>
<path d="M259.458 27.2301V25.4366H259.739C261.326 25.4366 262.548 24.7956 263.405 23.5136C264.269 22.2316 264.701 20.4281 264.701 18.1033C264.701 15.8182 264.269 14.0447 263.405 12.7826C262.548 11.5205 261.326 10.8895 259.739 10.8895H259.458V9.09601H259.94C262.123 9.09601 263.814 9.88315 265.012 11.4574C266.211 13.0251 266.81 15.2403 266.81 18.1033C266.81 21.006 266.211 23.2545 265.012 24.8487C263.814 26.4363 262.123 27.2301 259.94 27.2301H259.458Z" fill="#A2ABCC"/>
<path d="M286.557 28.3261V8H288.566V28.3261H286.557Z" fill="#A2ABCC"/>
<path d="M312.693 25.4366C310.878 25.4366 309.475 24.965 308.484 24.0217C307.5 23.0719 307.008 21.7101 307.008 19.9366C307.008 18.2095 307.473 16.8678 308.404 15.9112C309.341 14.9547 310.677 14.4764 312.411 14.4764C313.449 14.4764 314.337 14.6691 315.073 15.0543C315.816 15.433 316.345 15.971 316.66 16.6685L315.023 17.894C314.722 17.4091 314.337 17.0338 313.868 16.7681C313.399 16.5024 312.887 16.3696 312.331 16.3696C311.327 16.3696 310.547 16.6718 309.991 17.2763C309.435 17.8741 309.157 18.7277 309.157 19.837C309.157 21.0393 309.482 21.9592 310.131 22.5969C310.788 23.228 311.722 23.5435 312.934 23.5435C313.429 23.5435 313.925 23.5202 314.42 23.4737C314.916 23.4272 315.398 23.3641 315.867 23.2844L316.108 25.1377C315.559 25.2572 314.989 25.337 314.4 25.3768C313.818 25.4167 313.248 25.4366 312.693 25.4366Z" fill="#D7D7D7"/>
<path d="M323.721 25.4366C322.248 25.4366 321.103 24.9583 320.286 24.0018C319.469 23.0453 319.061 21.6969 319.061 19.9565C319.061 18.2095 319.469 16.8611 320.286 15.9112C321.103 14.9547 322.248 14.4764 323.721 14.4764C325.201 14.4764 326.346 14.9547 327.156 15.9112C327.973 16.8611 328.382 18.2095 328.382 19.9565C328.382 21.6969 327.973 23.0453 327.156 24.0018C326.346 24.9583 325.201 25.4366 323.721 25.4366ZM323.721 23.5435C324.505 23.5435 325.107 23.2313 325.529 22.6069C325.958 21.9825 326.172 21.099 326.172 19.9565C326.172 18.8074 325.958 17.9239 325.529 17.3062C325.107 16.6818 324.505 16.3696 323.721 16.3696C322.938 16.3696 322.332 16.6818 321.903 17.3062C321.481 17.9239 321.271 18.8074 321.271 19.9565C321.271 21.099 321.481 21.9825 321.903 22.6069C322.332 23.2313 322.938 23.5435 323.721 23.5435Z" fill="#D7D7D7"/>
<path d="M337.984 25.2373V18.3623C337.984 17.7246 337.817 17.2331 337.482 16.8877C337.147 16.5423 336.678 16.3696 336.076 16.3696C334.402 16.3696 333.565 17.346 333.565 19.2989L332.942 16.5888H333.766C333.826 15.878 334.087 15.3499 334.549 15.0045C335.011 14.6525 335.687 14.4764 336.578 14.4764C337.703 14.4764 338.574 14.8152 339.19 15.4928C339.806 16.1703 340.114 17.1268 340.114 18.3623V25.2373H337.984ZM331.435 25.2373V14.6757H333.364L333.565 16.9076V25.2373H331.435Z" fill="#D7D7D7"/>
<path d="M347.004 25.4366C346.2 25.4366 345.511 25.4133 344.935 25.3668C344.366 25.3204 343.843 25.244 343.368 25.1377L343.609 23.2246C344.312 23.3309 344.932 23.4106 345.467 23.4638C346.01 23.5169 346.522 23.5435 347.004 23.5435C348.082 23.5435 348.862 23.4405 349.344 23.2346C349.833 23.022 350.078 22.6866 350.078 22.2283C350.078 21.9094 349.991 21.6736 349.816 21.5208C349.649 21.3614 349.388 21.2385 349.033 21.1522L346.582 20.5344C345.531 20.2687 344.757 19.9399 344.262 19.548C343.773 19.1561 343.529 18.5616 343.529 17.7645C343.529 16.6087 343.974 15.7717 344.865 15.2536C345.762 14.7355 347.205 14.4764 349.194 14.4764C349.709 14.4764 350.188 14.4931 350.63 14.5263C351.079 14.5528 351.537 14.6027 352.006 14.6757L351.785 16.5091C351.243 16.4559 350.764 16.4194 350.349 16.3995C349.934 16.3795 349.529 16.3696 349.133 16.3696C347.942 16.3696 347.078 16.4725 346.542 16.6784C346.006 16.8777 345.738 17.2065 345.738 17.6649C345.738 17.9704 345.849 18.1929 346.07 18.3324C346.291 18.4653 346.629 18.5882 347.084 18.7011L349.053 19.1793C350.171 19.445 350.988 19.8004 351.504 20.2455C352.026 20.6905 352.287 21.3382 352.287 22.1884C352.287 23.3243 351.869 24.1513 351.032 24.6694C350.195 25.1809 348.852 25.4366 347.004 25.4366Z" fill="#D7D7D7"/>
<path d="M359.881 25.4366C358.408 25.4366 357.263 24.9583 356.446 24.0018C355.629 23.0453 355.22 21.6969 355.22 19.9565C355.22 18.2095 355.629 16.8611 356.446 15.9112C357.263 14.9547 358.408 14.4764 359.881 14.4764C361.361 14.4764 362.506 14.9547 363.316 15.9112C364.133 16.8611 364.541 18.2095 364.541 19.9565C364.541 21.6969 364.133 23.0453 363.316 24.0018C362.506 24.9583 361.361 25.4366 359.881 25.4366ZM359.881 23.5435C360.664 23.5435 361.267 23.2313 361.689 22.6069C362.117 21.9825 362.332 21.099 362.332 19.9565C362.332 18.8074 362.117 17.9239 361.689 17.3062C361.267 16.6818 360.664 16.3696 359.881 16.3696C359.097 16.3696 358.491 16.6818 358.063 17.3062C357.641 17.9239 357.43 18.8074 357.43 19.9565C357.43 21.099 357.641 21.9825 358.063 22.6069C358.491 23.2313 359.097 23.5435 359.881 23.5435Z" fill="#D7D7D7"/>
<path d="M373.521 25.4366C372.289 25.4366 371.398 25.1045 370.849 24.4402C370.3 23.776 370.026 22.7132 370.026 21.2518V10.2917H372.155V21.1522C372.155 21.7101 372.209 22.1652 372.316 22.5172C372.423 22.8693 372.63 23.1283 372.938 23.2944C373.253 23.4604 373.715 23.5435 374.325 23.5435C374.88 23.5435 375.59 23.4173 376.454 23.1649L376.695 25.0181C376.153 25.1643 375.63 25.2705 375.128 25.337C374.633 25.4034 374.097 25.4366 373.521 25.4366ZM366.892 12.0254V10.2917H370.206V12.0254H366.892Z" fill="#D7D7D7"/>
<path d="M385.012 25.4366C383.197 25.4366 381.794 24.965 380.803 24.0217C379.819 23.0719 379.327 21.7101 379.327 19.9366C379.327 18.2095 379.745 16.8678 380.582 15.9112C381.419 14.9547 382.601 14.4764 384.128 14.4764C385.567 14.4764 386.679 14.9082 387.462 15.7717C388.253 16.6353 388.648 17.8907 388.648 19.538C388.648 20.0229 388.628 20.4746 388.587 20.8931H381.114V19.279H386.719C386.719 18.3291 386.492 17.6018 386.036 17.0969C385.581 16.5854 384.951 16.3297 384.148 16.3297C383.244 16.3297 382.541 16.6353 382.039 17.2464C381.543 17.8575 381.295 18.721 381.295 19.837C381.295 21.0592 381.637 21.9891 382.32 22.6268C383.01 23.2645 383.987 23.5833 385.253 23.5833C385.695 23.5833 386.13 23.5601 386.558 23.5136C386.987 23.4604 387.422 23.3907 387.864 23.3043L388.125 25.1576C387.496 25.2772 386.92 25.3536 386.398 25.3868C385.875 25.42 385.413 25.4366 385.012 25.4366Z" fill="#D7D7D7"/>
<path d="M396.04 25.4366C395.632 25.4366 395.28 25.2938 394.986 25.0082C394.698 24.7159 394.554 24.3671 394.554 23.962C394.554 23.5501 394.698 23.2014 394.986 22.9158C395.28 22.6301 395.632 22.4873 396.04 22.4873C396.455 22.4873 396.807 22.6301 397.095 22.9158C397.383 23.2014 397.527 23.5501 397.527 23.962C397.527 24.3671 397.383 24.7159 397.095 25.0082C396.807 25.2938 396.455 25.4366 396.04 25.4366Z" fill="#A2ABCC"/>
<path d="M409.68 25.4366C408.448 25.4366 407.558 25.1045 407.009 24.4402C406.46 23.776 406.185 22.7132 406.185 21.2518V10.2917H408.314V21.1522C408.314 21.7101 408.368 22.1652 408.475 22.5172C408.582 22.8693 408.79 23.1283 409.098 23.2944C409.413 23.4604 409.875 23.5435 410.484 23.5435C411.04 23.5435 411.75 23.4173 412.613 23.1649L412.854 25.0181C412.312 25.1643 411.79 25.2705 411.288 25.337C410.792 25.4034 410.256 25.4366 409.68 25.4366ZM403.051 12.0254V10.2917H406.366V12.0254H403.051Z" fill="#9560AD"/>
<path d="M420.147 25.4366C418.673 25.4366 417.528 24.9583 416.711 24.0018C415.895 23.0453 415.486 21.6969 415.486 19.9565C415.486 18.2095 415.895 16.8611 416.711 15.9112C417.528 14.9547 418.673 14.4764 420.147 14.4764C421.626 14.4764 422.772 14.9547 423.582 15.9112C424.399 16.8611 424.807 18.2095 424.807 19.9565C424.807 21.6969 424.399 23.0453 423.582 24.0018C422.772 24.9583 421.626 25.4366 420.147 25.4366ZM420.147 23.5435C420.93 23.5435 421.533 23.2313 421.955 22.6069C422.383 21.9825 422.597 21.099 422.597 19.9565C422.597 18.8074 422.383 17.9239 421.955 17.3062C421.533 16.6818 420.93 16.3696 420.147 16.3696C419.363 16.3696 418.757 16.6818 418.329 17.3062C417.907 17.9239 417.696 18.8074 417.696 19.9565C417.696 21.099 417.907 21.9825 418.329 22.6069C418.757 23.2313 419.363 23.5435 420.147 23.5435Z" fill="#9560AD"/>
<path d="M428.001 30L427.901 28.067L431.316 27.9674C432.394 27.9342 433.177 27.6386 433.666 27.0806C434.155 26.5226 434.403 25.7023 434.41 24.6196V16.9076L434.61 14.6757H436.539V24.3007C436.539 26.1806 436.107 27.5688 435.243 28.4656C434.379 29.3623 433.003 29.8406 431.115 29.9004L428.001 30ZM431.386 25.4366C429.993 25.4366 428.935 24.9816 428.212 24.0716C427.496 23.1615 427.137 21.8231 427.137 20.0562C427.137 18.2228 427.496 16.8345 428.212 15.8913C428.935 14.9481 429.993 14.4764 431.386 14.4764C432.217 14.4764 432.89 14.6624 433.405 15.0344C433.921 15.4064 434.222 15.9245 434.309 16.5888H435.133L434.41 19.5978C434.41 18.5085 434.192 17.6815 433.757 17.1168C433.328 16.5522 432.695 16.2699 431.858 16.2699C431.001 16.2699 430.352 16.5888 429.91 17.2264C429.468 17.8641 429.247 18.8074 429.247 20.0562C429.247 21.2385 429.468 22.1319 429.91 22.7364C430.352 23.3409 431.001 23.6431 431.858 23.6431C432.695 23.6431 433.328 23.3608 433.757 22.7962C434.192 22.2316 434.41 21.4046 434.41 20.3152L435.133 23.3243H434.209C434.142 23.9885 433.857 24.5066 433.355 24.8786C432.859 25.2506 432.203 25.4366 431.386 25.4366Z" fill="#9560AD"/>
<path d="M447.768 27.2301C445.592 27.2301 443.901 26.4363 442.696 24.8487C441.497 23.2545 440.898 21.006 440.898 18.1033C440.898 15.2403 441.497 13.0251 442.696 11.4574C443.901 9.88315 445.592 9.09601 447.768 9.09601H448.251V10.8895H447.969C446.382 10.8895 445.157 11.5205 444.293 12.7826C443.436 14.0447 443.007 15.8182 443.007 18.1033C443.007 20.4281 443.436 22.2316 444.293 23.5136C445.157 24.7956 446.382 25.4366 447.969 25.4366H448.251V27.2301H447.768Z" fill="#A2ABCC"/>
<path d="M453.333 17.4656L453.132 11.0888H455.462L455.262 17.4656H453.333ZM457.391 17.4656L457.19 11.0888H459.52L459.319 17.4656H457.391Z" fill="#5EACCE"/>
<path d="M470.971 25.2373V11.0888H472.98V25.2373H470.971ZM463.739 25.2373V11.0888H465.748V25.2373H463.739ZM464.161 19.1395V17.2464H472.608V19.1395H464.161Z" fill="#5EACCE"/>
<path d="M481.437 25.4366C479.622 25.4366 478.219 24.965 477.228 24.0217C476.244 23.0719 475.752 21.7101 475.752 19.9366C475.752 18.2095 476.17 16.8678 477.007 15.9112C477.844 14.9547 479.026 14.4764 480.553 14.4764C481.993 14.4764 483.104 14.9082 483.888 15.7717C484.678 16.6353 485.073 17.8907 485.073 19.538C485.073 20.0229 485.053 20.4746 485.013 20.8931H477.54V19.279H483.144C483.144 18.3291 482.917 17.6018 482.461 17.0969C482.006 16.5854 481.377 16.3297 480.573 16.3297C479.669 16.3297 478.966 16.6353 478.464 17.2464C477.968 17.8575 477.721 18.721 477.721 19.837C477.721 21.0592 478.062 21.9891 478.745 22.6268C479.435 23.2645 480.412 23.5833 481.678 23.5833C482.12 23.5833 482.555 23.5601 482.984 23.5136C483.412 23.4604 483.848 23.3907 484.29 23.3043L484.551 25.1576C483.921 25.2772 483.345 25.3536 482.823 25.3868C482.301 25.42 481.839 25.4366 481.437 25.4366Z" fill="#5EACCE"/>
<path d="M494.053 25.4366C492.821 25.4366 491.93 25.1045 491.381 24.4402C490.832 23.776 490.557 22.7132 490.557 21.2518V10.2917H492.687V21.1522C492.687 21.7101 492.74 22.1652 492.847 22.5172C492.954 22.8693 493.162 23.1283 493.47 23.2944C493.785 23.4604 494.247 23.5435 494.856 23.5435C495.412 23.5435 496.122 23.4173 496.986 23.1649L497.227 25.0181C496.684 25.1643 496.162 25.2705 495.66 25.337C495.164 25.4034 494.628 25.4366 494.053 25.4366ZM487.423 12.0254V10.2917H490.738V12.0254H487.423Z" fill="#5EACCE"/>
<path d="M506.106 25.4366C504.874 25.4366 503.983 25.1045 503.434 24.4402C502.885 23.776 502.61 22.7132 502.61 21.2518V10.2917H504.74V21.1522C504.74 21.7101 504.793 22.1652 504.9 22.5172C505.008 22.8693 505.215 23.1283 505.523 23.2944C505.838 23.4604 506.3 23.5435 506.909 23.5435C507.465 23.5435 508.175 23.4173 509.039 23.1649L509.28 25.0181C508.737 25.1643 508.215 25.2705 507.713 25.337C507.217 25.4034 506.682 25.4366 506.106 25.4366ZM499.477 12.0254V10.2917H502.791V12.0254H499.477Z" fill="#5EACCE"/>
<path d="M516.572 25.4366C515.099 25.4366 513.954 24.9583 513.137 24.0018C512.32 23.0453 511.911 21.6969 511.911 19.9565C511.911 18.2095 512.32 16.8611 513.137 15.9112C513.954 14.9547 515.099 14.4764 516.572 14.4764C518.052 14.4764 519.197 14.9547 520.007 15.9112C520.824 16.8611 521.232 18.2095 521.232 19.9565C521.232 21.6969 520.824 23.0453 520.007 24.0018C519.197 24.9583 518.052 25.4366 516.572 25.4366ZM516.572 23.5435C517.355 23.5435 517.958 23.2313 518.38 22.6069C518.808 21.9825 519.023 21.099 519.023 19.9565C519.023 18.8074 518.808 17.9239 518.38 17.3062C517.958 16.6818 517.355 16.3696 516.572 16.3696C515.788 16.3696 515.182 16.6818 514.754 17.3062C514.332 17.9239 514.121 18.8074 514.121 19.9565C514.121 21.099 514.332 21.9825 514.754 22.6069C515.182 23.2313 515.788 23.5435 516.572 23.5435Z" fill="#5EACCE"/>
<path d="M526.737 29.5815L527.54 22.7065H529.871L528.665 29.5815H526.737Z" fill="#5EACCE"/>
<path d="M548.513 25.2373L546.906 11.0888H549.015L550.22 23.6431H550.421L551.737 14.6757H553.746L553.073 16.6486H552.671L551.616 25.2373H548.513ZM553.846 25.2373L552.792 16.6486H552.39L551.737 14.6757H553.746L555.042 23.6431H555.242L556.448 11.0888H558.557L556.95 25.2373H553.846Z" fill="#5EACCE"/>
<path d="M564.785 25.4366C563.311 25.4366 562.166 24.9583 561.349 24.0018C560.532 23.0453 560.124 21.6969 560.124 19.9565C560.124 18.2095 560.532 16.8611 561.349 15.9112C562.166 14.9547 563.311 14.4764 564.785 14.4764C566.264 14.4764 567.409 14.9547 568.22 15.9112C569.037 16.8611 569.445 18.2095 569.445 19.9565C569.445 21.6969 569.037 23.0453 568.22 24.0018C567.409 24.9583 566.264 25.4366 564.785 25.4366ZM564.785 23.5435C565.568 23.5435 566.171 23.2313 566.593 22.6069C567.021 21.9825 567.235 21.099 567.235 19.9565C567.235 18.8074 567.021 17.9239 566.593 17.3062C566.171 16.6818 565.568 16.3696 564.785 16.3696C564.001 16.3696 563.395 16.6818 562.967 17.3062C562.545 17.9239 562.334 18.8074 562.334 19.9565C562.334 21.099 562.545 21.9825 562.967 22.6069C563.395 23.2313 564.001 23.5435 564.785 23.5435Z" fill="#5EACCE"/>
<path d="M576.115 20.6938L575.492 17.3859H576.315C576.436 15.4463 577.414 14.4764 579.248 14.4764C580.347 14.4764 581.143 14.7886 581.639 15.413C582.134 16.0374 582.382 17.0471 582.382 18.442H580.273C580.273 17.6715 580.156 17.1168 579.921 16.7781C579.694 16.4393 579.322 16.2699 578.806 16.2699C577.902 16.2699 577.226 16.6552 576.777 17.4257C576.336 18.1896 576.115 19.279 576.115 20.6938ZM571.615 25.2373V23.5036H578.726V25.2373H571.615ZM573.985 25.2373V14.6757H575.713L576.115 17.7047V25.2373H573.985ZM572.016 16.4094V14.6757H575.572L575.773 16.4094H572.016Z" fill="#5EACCE"/>
<path d="M590.478 25.4366C589.246 25.4366 588.355 25.1045 587.806 24.4402C587.257 23.776 586.982 22.7132 586.982 21.2518V10.2917H589.112V21.1522C589.112 21.7101 589.165 22.1652 589.273 22.5172C589.38 22.8693 589.587 23.1283 589.895 23.2944C590.21 23.4604 590.672 23.5435 591.281 23.5435C591.837 23.5435 592.547 23.4173 593.411 23.1649L593.652 25.0181C593.11 25.1643 592.587 25.2705 592.085 25.337C591.589 25.4034 591.054 25.4366 590.478 25.4366ZM583.849 12.0254V10.2917H587.163V12.0254H583.849Z" fill="#5EACCE"/>
<path d="M600.13 25.4366C598.738 25.4366 597.68 24.9816 596.956 24.0716C596.24 23.1615 595.882 21.8231 595.882 20.0562C595.882 18.2228 596.24 16.8345 596.956 15.8913C597.68 14.9481 598.738 14.4764 600.13 14.4764C600.927 14.4764 601.574 14.6624 602.069 15.0344C602.571 15.4064 602.866 15.9245 602.953 16.5888H603.777L603.154 19.5978C603.154 18.5085 602.936 17.6815 602.501 17.1168C602.072 16.5522 601.44 16.2699 600.603 16.2699C599.745 16.2699 599.096 16.5888 598.654 17.2264C598.212 17.8641 597.991 18.8074 597.991 20.0562C597.991 21.2385 598.212 22.1319 598.654 22.7364C599.096 23.3409 599.745 23.6431 600.603 23.6431C601.44 23.6431 602.072 23.3608 602.501 22.7962C602.936 22.2316 603.154 21.4046 603.154 20.3152L603.877 23.3243H602.953C602.886 23.9885 602.601 24.5066 602.099 24.8786C601.604 25.2506 600.947 25.4366 600.13 25.4366ZM603.375 25.337L603.154 23.2645V10.2917H605.283V25.2373L603.375 25.337Z" fill="#5EACCE"/>
<path d="M612.013 20.6938L611.953 10.9891H614.042L613.941 20.6938H612.013ZM612.997 25.4366C612.589 25.4366 612.237 25.2938 611.943 25.0082C611.655 24.7159 611.511 24.3671 611.511 23.962C611.511 23.5501 611.655 23.2014 611.943 22.9158C612.237 22.6301 612.589 22.4873 612.997 22.4873C613.412 22.4873 613.764 22.6301 614.052 22.9158C614.34 23.2014 614.484 23.5501 614.484 23.962C614.484 24.3671 614.34 24.7159 614.052 25.0082C613.764 25.2938 613.412 25.4366 612.997 25.4366Z" fill="#5EACCE"/>
<path d="M622.077 17.4656L621.876 11.0888H624.207L624.006 17.4656H622.077ZM626.135 17.4656L625.934 11.0888H628.265L628.064 17.4656H626.135Z" fill="#5EACCE"/>
<path d="M633.106 27.2301V25.4366H633.387C634.974 25.4366 636.196 24.7956 637.053 23.5136C637.917 22.2316 638.349 20.4281 638.349 18.1033C638.349 15.8182 637.917 14.0447 637.053 12.7826C636.196 11.5205 634.974 10.8895 633.387 10.8895H633.106V9.09601H633.588C635.771 9.09601 637.462 9.88315 638.66 11.4574C639.859 13.0251 640.458 15.2403 640.458 18.1033C640.458 21.006 639.859 23.2545 638.66 24.8487C637.462 26.4363 635.771 27.2301 633.588 27.2301H633.106Z" fill="#A2ABCC"/>
<path d="M649.157 17.4257C648.748 17.4257 648.397 17.2829 648.102 16.9973C647.814 16.705 647.67 16.3563 647.67 15.9511C647.67 15.5393 647.814 15.1905 648.102 14.9049C648.397 14.6193 648.748 14.4764 649.157 14.4764C649.572 14.4764 649.923 14.6193 650.211 14.9049C650.499 15.1905 650.643 15.5393 650.643 15.9511C650.643 16.3563 650.499 16.705 650.211 16.9973C649.923 17.2829 649.572 17.4257 649.157 17.4257ZM647.268 29.5815L648.072 22.7065H650.402L649.197 29.5815H647.268Z" fill="#A2ABCC"/>
<path d="M672.259 28.3261V8H674.267V28.3261H672.259Z" fill="#A2ABCC"/>
<path d="M697.008 25.2373V15.2736H699.137V25.2373H697.008ZM692.95 25.2373V23.5036H697.209V25.2373H692.95ZM698.936 25.2373V23.5036H702.412V25.2373H698.936ZM693.553 16.4094V14.6757H699.137V16.4094H693.553ZM698.002 13.0018C697.594 13.0018 697.242 12.859 696.947 12.5734C696.66 12.2811 696.516 11.9324 696.516 11.5272C696.516 11.1153 696.66 10.7666 696.947 10.481C697.242 10.1954 697.594 10.0525 698.002 10.0525C698.417 10.0525 698.769 10.1954 699.057 10.481C699.345 10.7666 699.489 11.1153 699.489 11.5272C699.489 11.9324 699.345 12.2811 699.057 12.5734C698.769 12.859 698.417 13.0018 698.002 13.0018Z" fill="#A2ABCC"/>
<path d="M709.423 25.4366C707.949 25.4366 706.804 24.9583 705.987 24.0018C705.17 23.0453 704.762 21.6969 704.762 19.9565C704.762 18.2095 705.17 16.8611 705.987 15.9112C706.804 14.9547 707.949 14.4764 709.423 14.4764C710.902 14.4764 712.047 14.9547 712.858 15.9112C713.675 16.8611 714.083 18.2095 714.083 19.9565C714.083 21.6969 713.675 23.0453 712.858 24.0018C712.047 24.9583 710.902 25.4366 709.423 25.4366ZM709.423 23.5435C710.206 23.5435 710.809 23.2313 711.23 22.6069C711.659 21.9825 711.873 21.099 711.873 19.9565C711.873 18.8074 711.659 17.9239 711.23 17.3062C710.809 16.6818 710.206 16.3696 709.423 16.3696C708.639 16.3696 708.033 16.6818 707.604 17.3062C707.183 17.9239 706.972 18.8074 706.972 19.9565C706.972 21.099 707.183 21.9825 707.604 22.6069C708.033 23.2313 708.639 23.5435 709.423 23.5435Z" fill="#A2ABCC"/>
<path d="M721.476 25.4366C721.067 25.4366 720.716 25.2938 720.421 25.0082C720.133 24.7159 719.989 24.3671 719.989 23.962C719.989 23.5501 720.133 23.2014 720.421 22.9158C720.716 22.6301 721.067 22.4873 721.476 22.4873C721.891 22.4873 722.242 22.6301 722.53 22.9158C722.818 23.2014 722.962 23.5501 722.962 23.962C722.962 24.3671 722.818 24.7159 722.53 25.0082C722.242 25.2938 721.891 25.4366 721.476 25.4366Z" fill="#A2ABCC"/>
<path d="M734.734 25.2373L733.489 16.8478H733.328L732.454 14.6757H734.403L735.658 23.6431H735.839L736.743 14.6757H738.852L737.346 25.2373H734.734ZM729.411 25.2373L728.205 14.6757H730.214L731.018 23.6431H731.199L732.454 14.6757H734.403L733.509 16.8478H733.368L732.123 25.2373H729.411Z" fill="#82B0CC"/>
<path d="M744.859 20.6938L744.236 17.3859H745.06C745.18 15.4463 746.158 14.4764 747.993 14.4764C749.091 14.4764 749.888 14.7886 750.383 15.413C750.879 16.0374 751.126 17.0471 751.126 18.442H749.017C749.017 17.6715 748.9 17.1168 748.666 16.7781C748.438 16.4393 748.066 16.2699 747.551 16.2699C746.647 16.2699 745.97 16.6552 745.522 17.4257C745.08 18.1896 744.859 19.279 744.859 20.6938ZM740.359 25.2373V23.5036H747.47V25.2373H740.359ZM742.729 25.2373V14.6757H744.457L744.859 17.7047V25.2373H742.729ZM740.761 16.4094V14.6757H744.316L744.517 16.4094H740.761Z" fill="#82B0CC"/>
<path d="M757.274 25.2373V15.2736H759.403V25.2373H757.274ZM753.216 25.2373V23.5036H757.474V25.2373H753.216ZM759.202 25.2373V23.5036H762.677V25.2373H759.202ZM753.818 16.4094V14.6757H759.403V16.4094H753.818ZM758.268 13.0018C757.859 13.0018 757.508 12.859 757.213 12.5734C756.925 12.2811 756.781 11.9324 756.781 11.5272C756.781 11.1153 756.925 10.7666 757.213 10.481C757.508 10.1954 757.859 10.0525 758.268 10.0525C758.683 10.0525 759.035 10.1954 759.323 10.481C759.611 10.7666 759.755 11.1153 759.755 11.5272C759.755 11.9324 759.611 12.2811 759.323 12.5734C759.035 12.859 758.683 13.0018 758.268 13.0018Z" fill="#82B0CC"/>
<path d="M771.617 25.4366C770.003 25.4366 768.835 25.1045 768.111 24.4402C767.395 23.776 767.037 22.7132 767.037 21.2518V19.4583H769.166V21.1522C769.166 21.9891 769.37 22.5969 769.779 22.9755C770.194 23.3542 770.874 23.5435 771.818 23.5435C772.153 23.5435 772.507 23.5269 772.882 23.4937C773.257 23.4538 773.686 23.404 774.168 23.3442L774.409 25.1975C773.94 25.2772 773.482 25.337 773.033 25.3768C772.591 25.4167 772.119 25.4366 771.617 25.4366ZM767.037 20.2554V11.4873H769.166V20.2554H767.037ZM764.365 16.4094V14.6757H774.007V16.4094H764.365Z" fill="#82B0CC"/>
<path d="M782.766 25.4366C780.951 25.4366 779.548 24.965 778.557 24.0217C777.573 23.0719 777.081 21.7101 777.081 19.9366C777.081 18.2095 777.499 16.8678 778.336 15.9112C779.173 14.9547 780.355 14.4764 781.882 14.4764C783.322 14.4764 784.433 14.9082 785.217 15.7717C786.007 16.6353 786.402 17.8907 786.402 19.538C786.402 20.0229 786.382 20.4746 786.342 20.8931H778.869V19.279H784.474C784.474 18.3291 784.246 17.6018 783.791 17.0969C783.335 16.5854 782.706 16.3297 781.902 16.3297C780.998 16.3297 780.295 16.6353 779.793 17.2464C779.297 17.8575 779.05 18.721 779.05 19.837C779.05 21.0592 779.391 21.9891 780.074 22.6268C780.764 23.2645 781.741 23.5833 783.007 23.5833C783.449 23.5833 783.884 23.5601 784.313 23.5136C784.741 23.4604 785.177 23.3907 785.619 23.3043L785.88 25.1576C785.25 25.2772 784.674 25.3536 784.152 25.3868C783.63 25.42 783.168 25.4366 782.766 25.4366Z" fill="#82B0CC"/>
<path d="M797.31 27.2301C795.134 27.2301 793.443 26.4363 792.238 24.8487C791.039 23.2545 790.44 21.006 790.44 18.1033C790.44 15.2403 791.039 13.0251 792.238 11.4574C793.443 9.88315 795.134 9.09601 797.31 9.09601H797.792V10.8895H797.511C795.924 10.8895 794.699 11.5205 793.835 12.7826C792.978 14.0447 792.549 15.8182 792.549 18.1033C792.549 20.4281 792.978 22.2316 793.835 23.5136C794.699 24.7956 795.924 25.4366 797.511 25.4366H797.792V27.2301H797.31Z" fill="#A2ABCC"/>
<path d="M802.875 17.4656L802.674 11.0888H805.004L804.803 17.4656H802.875ZM806.933 17.4656L806.732 11.0888H809.062L808.861 17.4656H806.933Z" fill="#F1995A"/>
<path d="M820.512 25.2373V11.0888H822.521V25.2373H820.512ZM813.281 25.2373V11.0888H815.289V25.2373H813.281ZM813.702 19.1395V17.2464H822.15V19.1395H813.702Z" fill="#F1995A"/>
<path d="M830.979 25.4366C829.164 25.4366 827.761 24.965 826.77 24.0217C825.786 23.0719 825.294 21.7101 825.294 19.9366C825.294 18.2095 825.712 16.8678 826.549 15.9112C827.386 14.9547 828.568 14.4764 830.095 14.4764C831.534 14.4764 832.646 14.9082 833.429 15.7717C834.22 16.6353 834.615 17.8907 834.615 19.538C834.615 20.0229 834.595 20.4746 834.554 20.8931H827.081V19.279H832.686C832.686 18.3291 832.459 17.6018 832.003 17.0969C831.548 16.5854 830.918 16.3297 830.115 16.3297C829.211 16.3297 828.508 16.6353 828.006 17.2464C827.51 17.8575 827.262 18.721 827.262 19.837C827.262 21.0592 827.604 21.9891 828.287 22.6268C828.976 23.2645 829.954 23.5833 831.22 23.5833C831.662 23.5833 832.097 23.5601 832.525 23.5136C832.954 23.4604 833.389 23.3907 833.831 23.3043L834.092 25.1576C833.463 25.2772 832.887 25.3536 832.365 25.3868C831.842 25.42 831.38 25.4366 830.979 25.4366Z" fill="#F1995A"/>
<path d="M843.594 25.4366C842.362 25.4366 841.472 25.1045 840.923 24.4402C840.373 23.776 840.099 22.7132 840.099 21.2518V10.2917H842.228V21.1522C842.228 21.7101 842.282 22.1652 842.389 22.5172C842.496 22.8693 842.704 23.1283 843.012 23.2944C843.326 23.4604 843.788 23.5435 844.398 23.5435C844.954 23.5435 845.663 23.4173 846.527 23.1649L846.768 25.0181C846.226 25.1643 845.704 25.2705 845.201 25.337C844.706 25.4034 844.17 25.4366 843.594 25.4366ZM836.965 12.0254V10.2917H840.28V12.0254H836.965Z" fill="#F1995A"/>
<path d="M855.647 25.4366C854.415 25.4366 853.525 25.1045 852.976 24.4402C852.427 23.776 852.152 22.7132 852.152 21.2518V10.2917H854.281V21.1522C854.281 21.7101 854.335 22.1652 854.442 22.5172C854.549 22.8693 854.757 23.1283 855.065 23.2944C855.38 23.4604 855.842 23.5435 856.451 23.5435C857.007 23.5435 857.717 23.4173 858.58 23.1649L858.821 25.0181C858.279 25.1643 857.757 25.2705 857.255 25.337C856.759 25.4034 856.223 25.4366 855.647 25.4366ZM849.018 12.0254V10.2917H852.333V12.0254H849.018Z" fill="#F1995A"/>
<path d="M866.114 25.4366C864.64 25.4366 863.495 24.9583 862.678 24.0018C861.862 23.0453 861.453 21.6969 861.453 19.9565C861.453 18.2095 861.862 16.8611 862.678 15.9112C863.495 14.9547 864.64 14.4764 866.114 14.4764C867.593 14.4764 868.739 14.9547 869.549 15.9112C870.366 16.8611 870.774 18.2095 870.774 19.9565C870.774 21.6969 870.366 23.0453 869.549 24.0018C868.739 24.9583 867.593 25.4366 866.114 25.4366ZM866.114 23.5435C866.897 23.5435 867.5 23.2313 867.922 22.6069C868.35 21.9825 868.564 21.099 868.564 19.9565C868.564 18.8074 868.35 17.9239 867.922 17.3062C867.5 16.6818 866.897 16.3696 866.114 16.3696C865.33 16.3696 864.724 16.6818 864.296 17.3062C863.874 17.9239 863.663 18.8074 863.663 19.9565C863.663 21.099 863.874 21.9825 864.296 22.6069C864.724 23.2313 865.33 23.5435 866.114 23.5435Z" fill="#F1995A"/>
<path d="M876.278 29.5815L877.082 22.7065H879.412L878.207 29.5815H876.278Z" fill="#F1995A"/>
<path d="M898.054 25.2373L896.447 11.0888H898.557L899.762 23.6431H899.963L901.279 14.6757H903.288L902.615 16.6486H902.213L901.158 25.2373H898.054ZM903.388 25.2373L902.333 16.6486H901.932L901.279 14.6757H903.288L904.583 23.6431H904.784L905.989 11.0888H908.099L906.492 25.2373H903.388Z" fill="#F1995A"/>
<path d="M914.326 25.4366C912.853 25.4366 911.708 24.9583 910.891 24.0018C910.074 23.0453 909.666 21.6969 909.666 19.9565C909.666 18.2095 910.074 16.8611 910.891 15.9112C911.708 14.9547 912.853 14.4764 914.326 14.4764C915.806 14.4764 916.951 14.9547 917.761 15.9112C918.578 16.8611 918.987 18.2095 918.987 19.9565C918.987 21.6969 918.578 23.0453 917.761 24.0018C916.951 24.9583 915.806 25.4366 914.326 25.4366ZM914.326 23.5435C915.11 23.5435 915.712 23.2313 916.134 22.6069C916.563 21.9825 916.777 21.099 916.777 19.9565C916.777 18.8074 916.563 17.9239 916.134 17.3062C915.712 16.6818 915.11 16.3696 914.326 16.3696C913.543 16.3696 912.937 16.6818 912.508 17.3062C912.086 17.9239 911.875 18.8074 911.875 19.9565C911.875 21.099 912.086 21.9825 912.508 22.6069C912.937 23.2313 913.543 23.5435 914.326 23.5435Z" fill="#F1995A"/>
<path d="M925.656 20.6938L925.033 17.3859H925.857C925.978 15.4463 926.955 14.4764 928.79 14.4764C929.888 14.4764 930.685 14.7886 931.181 15.413C931.676 16.0374 931.924 17.0471 931.924 18.442H929.815C929.815 17.6715 929.697 17.1168 929.463 16.7781C929.235 16.4393 928.864 16.2699 928.348 16.2699C927.444 16.2699 926.768 16.6552 926.319 17.4257C925.877 18.1896 925.656 19.279 925.656 20.6938ZM921.156 25.2373V23.5036H928.268V25.2373H921.156ZM923.527 25.2373V14.6757H925.254L925.656 17.7047V25.2373H923.527ZM921.558 16.4094V14.6757H925.114L925.315 16.4094H921.558Z" fill="#F1995A"/>
<path d="M940.02 25.4366C938.787 25.4366 937.897 25.1045 937.348 24.4402C936.799 23.776 936.524 22.7132 936.524 21.2518V10.2917H938.654V21.1522C938.654 21.7101 938.707 22.1652 938.814 22.5172C938.921 22.8693 939.129 23.1283 939.437 23.2944C939.752 23.4604 940.214 23.5435 940.823 23.5435C941.379 23.5435 942.089 23.4173 942.953 23.1649L943.194 25.0181C942.651 25.1643 942.129 25.2705 941.627 25.337C941.131 25.4034 940.595 25.4366 940.02 25.4366ZM933.39 12.0254V10.2917H936.705V12.0254H933.39Z" fill="#F1995A"/>
<path d="M949.672 25.4366C948.279 25.4366 947.221 24.9816 946.498 24.0716C945.782 23.1615 945.423 21.8231 945.423 20.0562C945.423 18.2228 945.782 16.8345 946.498 15.8913C947.221 14.9481 948.279 14.4764 949.672 14.4764C950.469 14.4764 951.115 14.6624 951.611 15.0344C952.113 15.4064 952.408 15.9245 952.495 16.5888H953.318L952.695 19.5978C952.695 18.5085 952.478 17.6815 952.043 17.1168C951.614 16.5522 950.981 16.2699 950.144 16.2699C949.287 16.2699 948.638 16.5888 948.196 17.2264C947.754 17.8641 947.533 18.8074 947.533 20.0562C947.533 21.2385 947.754 22.1319 948.196 22.7364C948.638 23.3409 949.287 23.6431 950.144 23.6431C950.981 23.6431 951.614 23.3608 952.043 22.7962C952.478 22.2316 952.695 21.4046 952.695 20.3152L953.419 23.3243H952.495C952.428 23.9885 952.143 24.5066 951.641 24.8786C951.145 25.2506 950.489 25.4366 949.672 25.4366ZM952.916 25.337L952.695 23.2645V10.2917H954.825V25.2373L952.916 25.337Z" fill="#F1995A"/>
<path d="M961.555 20.6938L961.494 10.9891H963.584L963.483 20.6938H961.555ZM962.539 25.4366C962.13 25.4366 961.779 25.2938 961.484 25.0082C961.196 24.7159 961.052 24.3671 961.052 23.962C961.052 23.5501 961.196 23.2014 961.484 22.9158C961.779 22.6301 962.13 22.4873 962.539 22.4873C962.954 22.4873 963.306 22.6301 963.594 22.9158C963.881 23.2014 964.025 23.5501 964.025 23.962C964.025 24.3671 963.881 24.7159 963.594 25.0082C963.306 25.2938 962.954 25.4366 962.539 25.4366Z" fill="#F1995A"/>
<path d="M971.619 17.4656L971.418 11.0888H973.748L973.547 17.4656H971.619ZM975.677 17.4656L975.476 11.0888H977.806L977.605 17.4656H975.677Z" fill="#F1995A"/>
<path d="M982.648 27.2301V25.4366H982.929C984.516 25.4366 985.738 24.7956 986.595 23.5136C987.459 22.2316 987.891 20.4281 987.891 18.1033C987.891 15.8182 987.459 14.0447 986.595 12.7826C985.738 11.5205 984.516 10.8895 982.929 10.8895H982.648V9.09601H983.13C985.313 9.09601 987.003 9.88315 988.202 11.4574C989.401 13.0251 990 15.2403 990 18.1033C990 21.006 989.401 23.2545 988.202 24.8487C987.003 26.4363 985.313 27.2301 983.13 27.2301H982.648Z" fill="#A2ABCC"/>
</svg>
