<svg width="1000" height="1000" viewBox="0 0 1000 1000" fill="none" xmlns="http://www.w3.org/2000/svg">
<g clip-path="url(#clip0_1090_298)">
<mask id="mask0_1090_298" style="mask-type:alpha" maskUnits="userSpaceOnUse" x="0" y="0" width="1000" height="1000">
<circle cx="500" cy="500" r="500" fill="#D9D9D9"/>
</mask>
<g mask="url(#mask0_1090_298)">
<rect y="-22.5" width="1000" height="55" fill="white"/>
<rect y="32.5" width="1000" height="55" fill="#C04242"/>
<rect y="87.5" width="1000" height="55" fill="white"/>
<rect y="142.5" width="1000" height="55" fill="#C04242"/>
<rect y="197.5" width="1000" height="55" fill="white"/>
<rect y="252.5" width="1000" height="55" fill="#C04242"/>
<rect y="307.5" width="1000" height="55" fill="white"/>
<rect y="362.5" width="1000" height="55" fill="#C04242"/>
<rect y="417.5" width="1000" height="55" fill="white"/>
<rect y="472.5" width="1000" height="55" fill="#C04242"/>
<rect y="527.5" width="1000" height="55" fill="white"/>
<rect y="582.5" width="1000" height="55" fill="#C04242"/>
<rect y="637.5" width="1000" height="55" fill="white"/>
<rect y="692.5" width="1000" height="55" fill="#C04242"/>
<rect y="747.5" width="1000" height="55" fill="white"/>
<rect y="802.5" width="1000" height="55" fill="#C04242"/>
<rect y="857.5" width="1000" height="55" fill="white"/>
<rect y="912.5" width="1000" height="55" fill="#C04242"/>
<rect y="967.5" width="1000" height="55" fill="#C04242"/>
<rect x="-15" y="-121" width="466" height="538" fill="#284C8F"/>
</g>
</g>
<defs>
<clipPath id="clip0_1090_298">
<rect width="1000" height="1000" fill="white"/>
</clipPath>
</defs>
</svg>
