<svg width="2833" height="2833" viewBox="0 0 2833 2833" fill="none" xmlns="http://www.w3.org/2000/svg">
<g filter="url(#filter0_i_1029_807)">
<path d="M407.125 2707H539.65C578.441 2707 617.165 2703.8 655.428 2697.42L690.828 2691.52L741.962 2678.6C766.716 2672.35 790.861 2663.9 814.109 2653.34L829.146 2646.52C841.945 2640.71 854.209 2633.79 865.799 2625.83L869.45 2623.33C886.278 2611.78 901.335 2597.84 914.144 2581.95C925.204 2568.23 934.495 2553.17 941.796 2537.13L943.583 2533.21C953.525 2511.37 960.194 2488.18 963.377 2464.4L963.844 2460.91C966.095 2444.08 966.743 2427.08 965.779 2410.13L965.712 2408.95C964.601 2389.44 961.454 2370.09 956.322 2351.24L953.915 2342.39C947.627 2319.29 939.099 2296.85 928.452 2275.41L912.586 2243.45L854.717 2142.07C850.499 2134.69 846.856 2126.98 843.82 2119.04L842.465 2115.49C836.141 2098.94 832.899 2081.36 832.899 2063.64C832.899 2056.33 833.452 2049.02 834.552 2041.79L835.425 2036.05C837.983 2019.25 842.462 2002.79 848.775 1987.01L868.417 1937.91L875.576 1919.41C888.902 1884.98 895.738 1848.39 895.738 1811.47V1803.03C895.738 1792.18 894.842 1781.35 893.058 1770.65L890.941 1757.94C888.99 1746.24 885.233 1734.91 879.804 1724.36L870.169 1705.63C866.058 1697.64 859.665 1691.06 851.803 1686.71L835.917 1677.93C829.41 1674.33 821.374 1675.03 815.584 1679.69C811.272 1683.16 808.765 1688.4 808.765 1693.94V1715.24L806.18 1743.42C804.873 1757.66 801.702 1771.66 796.748 1785.08L792.981 1795.28C788.069 1808.57 780.598 1820.78 770.989 1831.2L768.882 1833.48C758.584 1844.65 745.771 1853.2 731.507 1858.43L723.515 1861.36C712.845 1865.27 701.326 1866.27 690.141 1864.26C678.101 1862.1 666.931 1856.54 657.949 1848.23L656.341 1846.75C650.533 1841.38 645.656 1835.08 641.906 1828.12L633.419 1812.36C625.887 1798.37 620.285 1783.43 616.765 1767.94L612.507 1749.21L612.507 589.39L624.437 563.044C628.852 553.294 635.756 544.878 644.454 538.642L659.416 527.914C671.423 519.306 676.709 504.071 672.614 489.876C660.805 432.65 654.855 374.37 654.855 315.939V245.806C654.855 233.626 651.292 221.712 644.605 211.532L593.838 134.244L592.718 132.468C587.647 124.424 575.611 125.455 571.981 134.244L431.731 520.385L427.584 529.755C422.563 541.097 424.155 554.278 431.731 564.099L456.776 593.396L456.776 1689.56L455.41 1693.38L445.187 1721.09C440.585 1733.56 432.147 1744.25 421.085 1751.63L418.614 1753.28C407.41 1760.75 393.857 1763.85 380.519 1761.99C372.561 1760.89 364.941 1758.05 358.195 1753.69L350.189 1748.51C341.762 1743.06 334.221 1736.34 327.832 1728.6L317.132 1715.63C304.948 1700.87 294.872 1684.49 287.193 1666.95L286.47 1665.3C276.526 1642.59 270.494 1618.37 268.631 1593.65L265.009 1545.6C264.747 1542.13 264.779 1538.64 265.104 1535.17L269.402 1489.33C270.499 1477.63 261.296 1467.52 249.548 1467.52C245.427 1467.52 241.407 1468.8 238.041 1471.18L216.846 1486.15C206.585 1493.4 197.757 1502.49 190.81 1512.96L186.253 1519.82C173.705 1538.73 165.745 1560.31 163.01 1582.83L161.86 1592.3C160.244 1605.61 160.072 1619.06 161.346 1632.4L163.469 1654.63C165.93 1680.4 170.94 1705.86 178.425 1730.65L226.459 1889.7C232.757 1910.56 237 1931.98 239.128 1953.66L240.624 1968.89C242.344 1986.42 241.872 2004.09 239.22 2021.49C237.031 2035.85 233.372 2049.95 228.298 2063.56L134.641 2314.84C127.503 2333.99 122.175 2353.76 118.725 2373.91L116.558 2386.56C112.078 2412.71 111.827 2439.42 115.814 2465.65C121.15 2500.77 133.969 2534.32 153.405 2564.05L159.159 2572.85C213.877 2656.55 307.127 2707 407.125 2707Z" fill="#360404"/>
</g>
<mask id="mask0_1029_807" style="mask-type:alpha" maskUnits="userSpaceOnUse" x="113" y="127" width="854" height="2580">
<path d="M407.125 2707H539.65C578.441 2707 617.165 2703.8 655.428 2697.42L690.828 2691.52L741.962 2678.6C766.716 2672.35 790.861 2663.9 814.109 2653.34L829.146 2646.52C841.945 2640.71 854.209 2633.79 865.799 2625.83L869.45 2623.33C886.278 2611.78 901.335 2597.84 914.144 2581.95C925.204 2568.23 934.495 2553.17 941.796 2537.13L943.583 2533.21C953.525 2511.37 960.194 2488.18 963.377 2464.4L963.844 2460.91C966.095 2444.08 966.743 2427.08 965.779 2410.13L965.712 2408.95C964.601 2389.44 961.454 2370.09 956.322 2351.24L953.915 2342.39C947.627 2319.29 939.099 2296.85 928.452 2275.41L912.586 2243.45L854.717 2142.07C850.499 2134.69 846.856 2126.98 843.82 2119.04L842.465 2115.49C836.141 2098.94 832.899 2081.36 832.899 2063.64C832.899 2056.33 833.452 2049.02 834.552 2041.79L835.425 2036.05C837.983 2019.25 842.462 2002.79 848.775 1987.01L868.417 1937.91L875.576 1919.41C888.902 1884.98 895.738 1848.39 895.738 1811.47V1803.03C895.738 1792.18 894.842 1781.35 893.058 1770.65L890.941 1757.94C888.99 1746.24 885.233 1734.91 879.804 1724.36L870.169 1705.63C866.058 1697.64 859.665 1691.06 851.803 1686.71L835.917 1677.93C829.41 1674.33 821.374 1675.03 815.584 1679.69C811.272 1683.16 808.765 1688.4 808.765 1693.94V1715.24L806.18 1743.42C804.873 1757.66 801.702 1771.66 796.748 1785.08L792.981 1795.28C788.069 1808.57 780.598 1820.78 770.989 1831.2L768.882 1833.48C758.584 1844.65 745.771 1853.2 731.507 1858.43L723.515 1861.36C712.845 1865.27 701.326 1866.27 690.141 1864.26C678.101 1862.1 666.931 1856.54 657.949 1848.23L656.341 1846.75C650.533 1841.38 645.656 1835.08 641.906 1828.12L633.419 1812.36C625.887 1798.37 620.285 1783.43 616.765 1767.94L612.507 1749.21L612.507 589.39L624.437 563.044C628.852 553.294 635.756 544.878 644.454 538.642L659.416 527.914C671.423 519.306 676.709 504.071 672.614 489.876C660.805 432.65 654.855 374.37 654.855 315.939V245.806C654.855 233.626 651.292 221.712 644.605 211.532L593.838 134.244L592.718 132.468C587.647 124.424 575.611 125.455 571.981 134.244L431.731 520.385L427.584 529.755C422.563 541.097 424.155 554.278 431.731 564.099L456.776 593.396L456.776 1689.56L455.41 1693.38L445.187 1721.09C440.585 1733.56 432.147 1744.25 421.085 1751.63L418.614 1753.28C407.41 1760.75 393.857 1763.85 380.519 1761.99C372.561 1760.89 364.941 1758.05 358.195 1753.69L350.189 1748.51C341.762 1743.06 334.221 1736.34 327.832 1728.6L317.132 1715.63C304.948 1700.87 294.872 1684.49 287.193 1666.95L286.47 1665.3C276.526 1642.59 270.494 1618.37 268.631 1593.65L265.009 1545.6C264.747 1542.13 264.779 1538.64 265.104 1535.17L269.402 1489.33C270.499 1477.63 261.296 1467.52 249.548 1467.52C245.427 1467.52 241.407 1468.8 238.041 1471.18L216.846 1486.15C206.585 1493.4 197.757 1502.49 190.81 1512.96L186.253 1519.82C173.705 1538.73 165.745 1560.31 163.01 1582.83L161.86 1592.3C160.244 1605.61 160.072 1619.06 161.346 1632.4L163.469 1654.63C165.93 1680.4 170.94 1705.86 178.425 1730.65L226.459 1889.7C232.757 1910.56 237 1931.98 239.128 1953.66L240.624 1968.89C242.344 1986.42 241.872 2004.09 239.22 2021.49C237.031 2035.85 233.372 2049.95 228.298 2063.56L134.641 2314.84C127.503 2333.99 122.175 2353.76 118.725 2373.91L116.558 2386.56C112.078 2412.71 111.827 2439.42 115.814 2465.65C121.15 2500.77 133.969 2534.32 153.405 2564.05L159.159 2572.85C213.877 2656.55 307.127 2707 407.125 2707Z" fill="#D9D9D9"/>
</mask>
<g mask="url(#mask0_1029_807)">
<path d="M438.015 2430.93L371.622 2402.92C308.21 2376.16 235.559 2382.86 178.076 2420.72C177.863 2420.86 177.988 2421.19 178.241 2421.16L197.988 2418.4C217.608 2415.66 237.603 2418.01 256.049 2425.24C272.767 2431.78 287.728 2442.14 299.744 2455.48L305.156 2461.48C315.006 2472.42 323.189 2484.75 329.44 2498.08L347.337 2536.23C357.817 2558.56 370.194 2579.96 384.332 2600.18L399.683 2622.14C421.181 2652.89 448.383 2679.23 479.811 2699.72C512.376 2720.95 548.838 2735.5 587.077 2742.5L615.222 2747.66C665.692 2756.91 717.399 2757.17 767.958 2748.42L806.867 2741.69C844.46 2735.19 880.959 2723.46 915.303 2706.84C967.293 2681.7 1013.37 2645.83 1050.5 2601.59L1053.09 2598.51C1069.13 2579.4 1083.48 2558.93 1095.95 2537.32L1118.88 2497.61C1120 2495.67 1121.32 2493.87 1122.84 2492.23L1124.94 2489.95C1135.51 2478.51 1134.33 2460.55 1122.37 2450.58C1121.16 2449.58 1120.05 2448.47 1119.03 2447.28L1065.3 2383.9L1025.63 2328.35L982.341 2270.58C967.776 2251.14 951.494 2233.04 933.69 2216.52L905.217 2190.08C886.848 2173.03 865.443 2159.58 842.112 2150.42C805.798 2136.17 766.113 2132.82 727.927 2140.8L716.493 2143.19C699.893 2146.66 683.708 2151.88 668.211 2158.77L656.901 2163.8C656.526 2163.96 656.558 2164.51 656.951 2164.63L693.794 2175.96C702.847 2178.75 711.683 2182.2 720.231 2186.28L739.103 2195.28C742.881 2197.09 746.388 2199.41 749.521 2202.18C759.132 2210.7 764.634 2222.92 764.634 2235.76V2241.36C751.767 2224.63 733.76 2212.59 713.385 2207.1L706.547 2205.26C688.843 2200.49 670.266 2199.93 652.31 2203.64L594.606 2215.57L527.256 2227.86C514.327 2230.21 502.102 2235.48 491.504 2243.25C464.916 2262.75 429.453 2265.43 400.17 2250.28C388.839 2244.42 378.89 2236.12 371.112 2226L363.408 2215.99C363.303 2215.85 363.085 2215.93 363.085 2216.1V2224C363.085 2250.85 370.963 2277.11 385.741 2299.53C398.214 2318.45 415.179 2333.99 435.121 2344.76L463.716 2360.2C492.726 2375.86 524.391 2386 557.103 2390.11L633.996 2399.77C608.178 2399.77 582.8 2406.46 560.338 2419.19L551.25 2424.34C523.189 2440.24 490.169 2445.01 458.758 2437.68C451.665 2436.02 444.726 2433.77 438.015 2430.93Z" fill="#E13030"/>
<mask id="mask1_1029_807" style="mask-type:alpha" maskUnits="userSpaceOnUse" x="177" y="2136" width="956" height="619">
<path d="M438.015 2430.93L371.622 2402.92C308.21 2376.16 235.559 2382.86 178.076 2420.72C177.863 2420.86 177.988 2421.19 178.241 2421.16L197.988 2418.4C217.608 2415.66 237.603 2418.01 256.049 2425.24C272.767 2431.78 287.728 2442.14 299.744 2455.48L305.156 2461.48C315.006 2472.42 323.189 2484.75 329.44 2498.08L347.337 2536.23C357.817 2558.56 370.194 2579.96 384.332 2600.18L399.683 2622.14C421.181 2652.89 448.383 2679.23 479.811 2699.72C512.376 2720.95 548.838 2735.5 587.077 2742.5L615.222 2747.66C665.692 2756.91 717.399 2757.17 767.958 2748.42L806.867 2741.69C844.46 2735.19 880.959 2723.46 915.303 2706.84C967.293 2681.7 1013.37 2645.83 1050.5 2601.59L1053.09 2598.51C1069.13 2579.4 1083.48 2558.93 1095.95 2537.32L1118.88 2497.61C1120 2495.67 1121.32 2493.87 1122.84 2492.23L1124.94 2489.95C1135.51 2478.51 1134.33 2460.55 1122.37 2450.58C1121.16 2449.58 1120.05 2448.47 1119.03 2447.28L1065.3 2383.9L1025.63 2328.35L982.341 2270.58C967.776 2251.14 951.494 2233.04 933.69 2216.52L905.217 2190.08C886.848 2173.03 865.443 2159.58 842.112 2150.42C805.798 2136.17 766.113 2132.82 727.927 2140.8L716.493 2143.19C699.893 2146.66 683.708 2151.88 668.211 2158.77L656.901 2163.8C656.526 2163.96 656.558 2164.51 656.951 2164.63L693.794 2175.96C702.847 2178.75 711.683 2182.2 720.231 2186.28L739.103 2195.28C742.881 2197.09 746.388 2199.41 749.521 2202.18C759.132 2210.7 764.634 2222.92 764.634 2235.76V2241.36C751.767 2224.63 733.76 2212.59 713.385 2207.1L706.547 2205.26C688.843 2200.49 670.266 2199.93 652.31 2203.64L594.606 2215.57L527.256 2227.86C514.327 2230.21 502.102 2235.48 491.504 2243.25C464.916 2262.75 429.453 2265.43 400.17 2250.28C388.839 2244.42 378.89 2236.12 371.112 2226L363.408 2215.99C363.303 2215.85 363.085 2215.93 363.085 2216.1V2224C363.085 2250.85 370.963 2277.11 385.741 2299.53C398.214 2318.45 415.179 2333.99 435.121 2344.76L463.716 2360.2C492.726 2375.86 524.391 2386 557.103 2390.11L633.996 2399.77C608.178 2399.77 582.8 2406.46 560.338 2419.19L551.25 2424.34C523.189 2440.24 490.169 2445.01 458.758 2437.68C451.665 2436.02 444.726 2433.77 438.015 2430.93Z" fill="#E13030"/>
</mask>
<g mask="url(#mask1_1029_807)">
<path d="M708.744 2491.29L664.97 2509.75C623.167 2527.38 575.279 2522.96 537.383 2498.02C537.242 2497.92 537.324 2497.71 537.491 2497.73L550.513 2499.55C563.445 2501.35 576.623 2499.8 588.783 2495.04C599.806 2490.73 609.671 2483.9 617.595 2475.11L621.156 2471.16C627.651 2463.95 633.047 2455.82 637.17 2447.04L648.964 2421.91C655.874 2407.19 664.035 2393.09 673.357 2379.76L683.467 2365.31C697.645 2345.04 715.582 2327.68 736.305 2314.18C757.769 2300.19 781.801 2290.61 807.001 2285.99L825.572 2282.59C858.841 2276.5 892.926 2276.33 926.254 2282.09L951.918 2286.53C976.695 2290.81 1000.75 2298.54 1023.39 2309.48C1057.67 2326.06 1088.05 2349.7 1112.54 2378.85L1114.23 2380.86C1124.81 2393.46 1134.26 2406.95 1142.49 2421.19L1157.6 2447.35C1158.34 2448.63 1159.21 2449.82 1160.21 2450.9L1161.6 2452.4C1168.56 2459.94 1167.79 2471.77 1159.9 2478.34C1159.11 2479 1158.37 2479.73 1157.7 2480.52L1122.28 2522.28L1096.12 2558.88L1067.59 2596.94C1057.99 2609.75 1047.25 2621.68 1035.51 2632.57L1016.75 2649.98C1004.64 2661.22 990.523 2670.09 975.14 2676.12C951.202 2685.51 925.045 2687.71 899.874 2682.46L892.331 2680.88C881.387 2678.6 870.716 2675.16 860.499 2670.62L853.045 2667.31C852.798 2667.2 852.819 2666.84 853.078 2666.76L877.368 2659.29C883.335 2657.45 889.159 2655.18 894.793 2652.49L907.237 2646.56C909.727 2645.37 912.038 2643.84 914.103 2642.01C920.439 2636.4 924.067 2628.35 924.067 2619.88V2616.2C915.584 2627.22 903.716 2635.15 890.287 2638.77L885.77 2639.99C874.101 2643.13 861.857 2643.49 850.021 2641.05L811.977 2633.19L767.576 2625.1C759.053 2623.54 750.994 2620.07 744.007 2614.95C726.478 2602.1 703.104 2600.34 683.799 2610.32C676.328 2614.18 669.766 2619.65 664.636 2626.32L659.561 2632.91C659.492 2633 659.348 2632.96 659.348 2632.84V2627.65C659.348 2609.95 664.543 2592.64 674.287 2577.86C682.508 2565.4 693.687 2555.16 706.827 2548.07L725.694 2537.89C744.815 2527.57 765.685 2520.89 787.243 2518.19L837.945 2511.82C820.924 2511.82 804.193 2507.41 789.383 2499.02L783.397 2495.63C764.896 2485.15 743.129 2482.01 722.421 2486.84C717.744 2487.93 713.169 2489.42 708.744 2491.29Z" fill="#E19D30"/>
</g>
<rect x="421.847" y="2204.61" width="73.4996" height="221.945" rx="36.7498" transform="rotate(-90 421.847 2204.61)" fill="#060606" stroke="black" stroke-width="3"/>
<rect x="421.847" y="2032.48" width="73.4996" height="221.945" rx="36.7498" transform="rotate(-90 421.847 2032.48)" fill="#060606" stroke="black" stroke-width="3"/>
<circle cx="484.096" cy="507.635" r="20.4463" transform="rotate(-90 484.096 507.635)" fill="#F2F2F2" stroke="#9A9E7E"/>
<circle cx="576.077" cy="269.94" r="20.4463" transform="rotate(-90 576.077 269.94)" fill="#F2F2F2" stroke="#9A9E7E"/>
<circle cx="546.024" cy="348.261" r="20.4463" transform="rotate(-90 546.024 348.261)" fill="#F2F2F2" stroke="#9A9E7E"/>
<circle cx="518.703" cy="425.671" r="20.4463" transform="rotate(-90 518.703 425.671)" fill="#F2F2F2" stroke="#9A9E7E"/>
<path d="M488.649 505.865L488.649 2329.06M518.547 428.893L518.547 2329.06M548.445 347.822L548.445 2329.06M578.81 273.583L578.81 2329.06" stroke="#9A9E7E" stroke-width="5"/>
<rect x="417.293" y="2401.32" width="114.482" height="231.053" rx="8.5" transform="rotate(-90 417.293 2401.32)" fill="#121212" stroke="black" stroke-width="3"/>
</g>
<g filter="url(#filter1_d_1029_807)">
<path d="M1389.41 1453.08L1389.98 1453.02L1390.55 1452.91C1440.24 1443.45 1478.75 1420.73 1504.55 1384.07C1530.14 1347.73 1542.17 1299.18 1542.17 1239.84V795.558C1542.17 738.746 1528.78 694.499 1498.87 666.294C1469.1 638.229 1422.07 625.779 1361.23 625.779H1023H1009.5V639.279V1443V1456.5H1023H1355.65H1356.35L1357.04 1456.43L1389.41 1453.08ZM1338.29 802.872L1338.61 803.189L1338.95 803.485C1346.42 810.024 1352.2 823.654 1352.2 849.14V1214.16C1352.2 1243.11 1346.06 1262.3 1336.11 1274.12C1326.54 1285.5 1311.6 1292.2 1288.67 1292.2H1200.59V790.081H1288.67C1315.97 790.081 1331.04 795.62 1338.29 802.872ZM2341.93 1248.35V920.686H2419.97H2433.47V907.186V775.465V761.965H2419.97H2344.16V627V607.75L2326.06 614.307L2172.02 670.121L2163.12 673.346V682.814V1266.63C2163.12 1329.61 2175.16 1378.51 2202.01 1410.39L2202.14 1410.54L2202.26 1410.68C2230.33 1442.15 2273.45 1456.5 2328.43 1456.5H2418.85H2432.35V1443V1307.93V1294.43H2418.85H2386.48C2368.73 1294.43 2357.86 1291.14 2351.71 1286.68C2346.36 1282.8 2343.05 1276.93 2343.05 1266.63V1266.21L2343.02 1265.79L2341.93 1248.35Z" fill="white" stroke="#524367" stroke-width="27"/>
<circle cx="1850.43" cy="1180.41" r="249.091" fill="#947EB4" stroke="#524367" stroke-width="27"/>
<mask id="path-16-outside-1_1029_807" maskUnits="userSpaceOnUse" x="939" y="1557" width="1714" height="676" fill="black">
<rect fill="white" x="939" y="1557" width="1714" height="676"/>
<path d="M1198.84 2094.85L1178.19 2096.99H966V1584H1181.75C1219.72 1584 1247.02 1591.84 1263.63 1607.51C1280.25 1623.19 1288.55 1648.6 1288.55 1683.75V1967.32C1288.55 2040.94 1258.65 2083.45 1198.84 2094.85ZM1184.6 1717.95C1184.6 1700.85 1180.8 1688.97 1173.2 1682.32C1166.08 1675.2 1153.5 1671.64 1135.47 1671.64H1070.67V2009.35H1135.47C1168.22 2009.35 1184.6 1989.88 1184.6 1950.93V1717.95Z"/>
<path d="M1664.9 2099.84C1633.1 2099.84 1609.36 2094.85 1593.7 2084.88C1578.03 2074.9 1568.78 2059.47 1565.93 2038.57L1565.22 2032.15L1563.08 2001.52L1545.99 1780.65C1544.09 1757.37 1532.22 1745.73 1510.39 1745.73C1506.59 1745.73 1503.03 1745.73 1499.71 1745.73C1499.23 1745.73 1495.2 1746.68 1487.6 1748.58C1480.01 1750.01 1474.07 1753.1 1469.8 1757.85C1466 1762.12 1463.63 1767.82 1462.68 1774.95L1461.97 1779.93V1968.74C1461.97 1985.84 1465.06 1997.48 1471.23 2003.65C1477.87 2009.35 1490.21 2012.2 1508.25 2012.2H1555.25V2096.99H1481.91C1438.71 2096.99 1408.33 2088.68 1390.77 2072.05C1373.68 2054.95 1365.13 2025.27 1365.13 1982.99V1788.48C1365.13 1738.61 1376.05 1705.84 1397.89 1690.16C1419.72 1674.49 1465.53 1666.65 1535.31 1666.65C1574.23 1666.65 1601.29 1673.06 1616.48 1685.89C1631.67 1698.71 1639.27 1720.8 1639.27 1752.15L1658.49 1982.99L1659.2 1986.55L1660.63 1996.53C1662.53 2006.5 1669.17 2012.2 1680.57 2013.63H1685.55V2096.99L1664.9 2099.84Z"/>
<path d="M1874.55 2206L1843.22 2205.29C1796.7 2205.29 1765.14 2197.93 1748.52 2183.2C1731.91 2168.48 1723.6 2139.98 1723.6 2097.7L1722.89 2079.89H1815.45L1816.17 2088.44C1819.01 2117.89 1835.87 2132.61 1866.72 2132.61C1869.57 2132.61 1874.79 2132.14 1882.38 2131.19C1908.49 2127.86 1921.55 2112.43 1921.55 2084.88L1920.84 1752.15H1862.45C1832.54 1752.15 1817.59 1764.97 1817.59 1790.62C1817.59 1794.42 1817.83 1797.51 1818.3 1799.88L1836.81 1938.11C1838.71 1953.31 1842.75 1963.99 1848.92 1970.17C1855.09 1976.34 1864.82 1979.43 1878.11 1979.43H1906.59V2060.65H1851.77C1814.27 2060.65 1787.68 2054 1772.02 2040.7C1756.35 2027.4 1746.39 2003.42 1742.11 1968.74L1720.04 1782.78C1719.57 1778.98 1719.09 1774.95 1718.62 1770.67C1718.62 1766.4 1718.62 1763.07 1718.62 1760.7C1718.62 1700.85 1752.79 1670.92 1821.15 1670.92H2018.38V2096.99C2018.38 2137.84 2008.18 2166.1 1987.77 2181.78C1967.83 2197.93 1930.09 2206 1874.55 2206Z"/>
<path d="M2206.31 1919.58V1838.36H2296.74V1784.92L2296.03 1775.66C2296.03 1759.03 2283.69 1749.06 2259 1745.73L2246.9 1744.31C2226.96 1744.31 2212.96 1747.87 2204.89 1755C2196.82 1762.12 2192.78 1774.47 2192.78 1792.05V1970.17L2193.5 1979.43C2195.87 1992.73 2200.38 2001.75 2207.03 2006.5C2214.15 2011.25 2226.73 2013.63 2244.76 2013.63H2373.64V2096.99H2204.18C2165.73 2096.99 2137.96 2088.2 2120.87 2070.63C2104.25 2052.58 2095.95 2022.89 2095.95 1981.57V1770.67L2097.37 1752.86C2101.17 1721.51 2113.99 1699.42 2135.82 1686.6C2158.13 1673.3 2195.87 1666.65 2249.04 1666.65C2302.68 1666.65 2339.94 1674.72 2360.83 1690.87C2382.19 1706.55 2392.87 1733.62 2392.87 1772.1V1919.58H2206.31Z"/>
<path d="M2614.61 1750.72C2582.8 1755 2566.9 1773.76 2566.9 1807.01V2096.99H2469.35V1804.87C2469.35 1758.32 2478.37 1725.55 2496.41 1706.55C2514.92 1687.07 2550.05 1673.77 2601.79 1666.65C2610.81 1665.22 2618.88 1664.75 2626 1665.22V1750.01L2614.61 1750.72Z"/>
</mask>
<path d="M1198.84 2094.85L1178.19 2096.99H966V1584H1181.75C1219.72 1584 1247.02 1591.84 1263.63 1607.51C1280.25 1623.19 1288.55 1648.6 1288.55 1683.75V1967.32C1288.55 2040.94 1258.65 2083.45 1198.84 2094.85ZM1184.6 1717.95C1184.6 1700.85 1180.8 1688.97 1173.2 1682.32C1166.08 1675.2 1153.5 1671.64 1135.47 1671.64H1070.67V2009.35H1135.47C1168.22 2009.35 1184.6 1989.88 1184.6 1950.93V1717.95Z" fill="white"/>
<path d="M1664.9 2099.84C1633.1 2099.84 1609.36 2094.85 1593.7 2084.88C1578.03 2074.9 1568.78 2059.47 1565.93 2038.57L1565.22 2032.15L1563.08 2001.52L1545.99 1780.65C1544.09 1757.37 1532.22 1745.73 1510.39 1745.73C1506.59 1745.73 1503.03 1745.73 1499.71 1745.73C1499.23 1745.73 1495.2 1746.68 1487.6 1748.58C1480.01 1750.01 1474.07 1753.1 1469.8 1757.85C1466 1762.12 1463.63 1767.82 1462.68 1774.95L1461.97 1779.93V1968.74C1461.97 1985.84 1465.06 1997.48 1471.23 2003.65C1477.87 2009.35 1490.21 2012.2 1508.25 2012.2H1555.25V2096.99H1481.91C1438.71 2096.99 1408.33 2088.68 1390.77 2072.05C1373.68 2054.95 1365.13 2025.27 1365.13 1982.99V1788.48C1365.13 1738.61 1376.05 1705.84 1397.89 1690.16C1419.72 1674.49 1465.53 1666.65 1535.31 1666.65C1574.23 1666.65 1601.29 1673.06 1616.48 1685.89C1631.67 1698.71 1639.27 1720.8 1639.27 1752.15L1658.49 1982.99L1659.2 1986.55L1660.63 1996.53C1662.53 2006.5 1669.17 2012.2 1680.57 2013.63H1685.55V2096.99L1664.9 2099.84Z" fill="white"/>
<path d="M1874.55 2206L1843.22 2205.29C1796.7 2205.29 1765.14 2197.93 1748.52 2183.2C1731.91 2168.48 1723.6 2139.98 1723.6 2097.7L1722.89 2079.89H1815.45L1816.17 2088.44C1819.01 2117.89 1835.87 2132.61 1866.72 2132.61C1869.57 2132.61 1874.79 2132.14 1882.38 2131.19C1908.49 2127.86 1921.55 2112.43 1921.55 2084.88L1920.84 1752.15H1862.45C1832.54 1752.15 1817.59 1764.97 1817.59 1790.62C1817.59 1794.42 1817.83 1797.51 1818.3 1799.88L1836.81 1938.11C1838.71 1953.31 1842.75 1963.99 1848.92 1970.17C1855.09 1976.34 1864.82 1979.43 1878.11 1979.43H1906.59V2060.65H1851.77C1814.27 2060.65 1787.68 2054 1772.02 2040.7C1756.35 2027.4 1746.39 2003.42 1742.11 1968.74L1720.04 1782.78C1719.57 1778.98 1719.09 1774.95 1718.62 1770.67C1718.62 1766.4 1718.62 1763.07 1718.62 1760.7C1718.62 1700.85 1752.79 1670.92 1821.15 1670.92H2018.38V2096.99C2018.38 2137.84 2008.18 2166.1 1987.77 2181.78C1967.83 2197.93 1930.09 2206 1874.55 2206Z" fill="white"/>
<path d="M2206.31 1919.58V1838.36H2296.74V1784.92L2296.03 1775.66C2296.03 1759.03 2283.69 1749.06 2259 1745.73L2246.9 1744.31C2226.96 1744.31 2212.96 1747.87 2204.89 1755C2196.82 1762.12 2192.78 1774.47 2192.78 1792.05V1970.17L2193.5 1979.43C2195.87 1992.73 2200.38 2001.75 2207.03 2006.5C2214.15 2011.25 2226.73 2013.63 2244.76 2013.63H2373.64V2096.99H2204.18C2165.73 2096.99 2137.96 2088.2 2120.87 2070.63C2104.25 2052.58 2095.95 2022.89 2095.95 1981.57V1770.67L2097.37 1752.86C2101.17 1721.51 2113.99 1699.42 2135.82 1686.6C2158.13 1673.3 2195.87 1666.65 2249.04 1666.65C2302.68 1666.65 2339.94 1674.72 2360.83 1690.87C2382.19 1706.55 2392.87 1733.62 2392.87 1772.1V1919.58H2206.31Z" fill="white"/>
<path d="M2614.61 1750.72C2582.8 1755 2566.9 1773.76 2566.9 1807.01V2096.99H2469.35V1804.87C2469.35 1758.32 2478.37 1725.55 2496.41 1706.55C2514.92 1687.07 2550.05 1673.77 2601.79 1666.65C2610.81 1665.22 2618.88 1664.75 2626 1665.22V1750.01L2614.61 1750.72Z" fill="white"/>
<path d="M1198.84 2094.85L1178.19 2096.99H966V1584H1181.75C1219.72 1584 1247.02 1591.84 1263.63 1607.51C1280.25 1623.19 1288.55 1648.6 1288.55 1683.75V1967.32C1288.55 2040.94 1258.65 2083.45 1198.84 2094.85ZM1184.6 1717.95C1184.6 1700.85 1180.8 1688.97 1173.2 1682.32C1166.08 1675.2 1153.5 1671.64 1135.47 1671.64H1070.67V2009.35H1135.47C1168.22 2009.35 1184.6 1989.88 1184.6 1950.93V1717.95Z" stroke="#524367" stroke-width="54" mask="url(#path-16-outside-1_1029_807)"/>
<path d="M1664.9 2099.84C1633.1 2099.84 1609.36 2094.85 1593.7 2084.88C1578.03 2074.9 1568.78 2059.47 1565.93 2038.57L1565.22 2032.15L1563.08 2001.52L1545.99 1780.65C1544.09 1757.37 1532.22 1745.73 1510.39 1745.73C1506.59 1745.73 1503.03 1745.73 1499.71 1745.73C1499.23 1745.73 1495.2 1746.68 1487.6 1748.58C1480.01 1750.01 1474.07 1753.1 1469.8 1757.85C1466 1762.12 1463.63 1767.82 1462.68 1774.95L1461.97 1779.93V1968.74C1461.97 1985.84 1465.06 1997.48 1471.23 2003.65C1477.87 2009.35 1490.21 2012.2 1508.25 2012.2H1555.25V2096.99H1481.91C1438.71 2096.99 1408.33 2088.68 1390.77 2072.05C1373.68 2054.95 1365.13 2025.27 1365.13 1982.99V1788.48C1365.13 1738.61 1376.05 1705.84 1397.89 1690.16C1419.72 1674.49 1465.53 1666.65 1535.31 1666.65C1574.23 1666.65 1601.29 1673.06 1616.48 1685.89C1631.67 1698.71 1639.27 1720.8 1639.27 1752.15L1658.49 1982.99L1659.2 1986.55L1660.63 1996.53C1662.53 2006.5 1669.17 2012.2 1680.57 2013.63H1685.55V2096.99L1664.9 2099.84Z" stroke="#524367" stroke-width="54" mask="url(#path-16-outside-1_1029_807)"/>
<path d="M1874.55 2206L1843.22 2205.29C1796.7 2205.29 1765.14 2197.93 1748.52 2183.2C1731.91 2168.48 1723.6 2139.98 1723.6 2097.7L1722.89 2079.89H1815.45L1816.17 2088.44C1819.01 2117.89 1835.87 2132.61 1866.72 2132.61C1869.57 2132.61 1874.79 2132.14 1882.38 2131.19C1908.49 2127.86 1921.55 2112.43 1921.55 2084.88L1920.84 1752.15H1862.45C1832.54 1752.15 1817.59 1764.97 1817.59 1790.62C1817.59 1794.42 1817.83 1797.51 1818.3 1799.88L1836.81 1938.11C1838.71 1953.31 1842.75 1963.99 1848.92 1970.17C1855.09 1976.34 1864.82 1979.43 1878.11 1979.43H1906.59V2060.65H1851.77C1814.27 2060.65 1787.68 2054 1772.02 2040.7C1756.35 2027.4 1746.39 2003.42 1742.11 1968.74L1720.04 1782.78C1719.57 1778.98 1719.09 1774.95 1718.62 1770.67C1718.62 1766.4 1718.62 1763.07 1718.62 1760.7C1718.62 1700.85 1752.79 1670.92 1821.15 1670.92H2018.38V2096.99C2018.38 2137.84 2008.18 2166.1 1987.77 2181.78C1967.83 2197.93 1930.09 2206 1874.55 2206Z" stroke="#524367" stroke-width="54" mask="url(#path-16-outside-1_1029_807)"/>
<path d="M2206.31 1919.58V1838.36H2296.74V1784.92L2296.03 1775.66C2296.03 1759.03 2283.69 1749.06 2259 1745.73L2246.9 1744.31C2226.96 1744.31 2212.96 1747.87 2204.89 1755C2196.82 1762.12 2192.78 1774.47 2192.78 1792.05V1970.17L2193.5 1979.43C2195.87 1992.73 2200.38 2001.75 2207.03 2006.5C2214.15 2011.25 2226.73 2013.63 2244.76 2013.63H2373.64V2096.99H2204.18C2165.73 2096.99 2137.96 2088.2 2120.87 2070.63C2104.25 2052.58 2095.95 2022.89 2095.95 1981.57V1770.67L2097.37 1752.86C2101.17 1721.51 2113.99 1699.42 2135.82 1686.6C2158.13 1673.3 2195.87 1666.65 2249.04 1666.65C2302.68 1666.65 2339.94 1674.72 2360.83 1690.87C2382.19 1706.55 2392.87 1733.62 2392.87 1772.1V1919.58H2206.31Z" stroke="#524367" stroke-width="54" mask="url(#path-16-outside-1_1029_807)"/>
<path d="M2614.61 1750.72C2582.8 1755 2566.9 1773.76 2566.9 1807.01V2096.99H2469.35V1804.87C2469.35 1758.32 2478.37 1725.55 2496.41 1706.55C2514.92 1687.07 2550.05 1673.77 2601.79 1666.65C2610.81 1665.22 2618.88 1664.75 2626 1665.22V1750.01L2614.61 1750.72Z" stroke="#524367" stroke-width="54" mask="url(#path-16-outside-1_1029_807)"/>
</g>
<defs>
<filter id="filter0_i_1029_807" x="113" y="127" width="853.212" height="2580" filterUnits="userSpaceOnUse" color-interpolation-filters="sRGB">
<feFlood flood-opacity="0" result="BackgroundImageFix"/>
<feBlend mode="normal" in="SourceGraphic" in2="BackgroundImageFix" result="shape"/>
<feColorMatrix in="SourceAlpha" type="matrix" values="0 0 0 0 0 0 0 0 0 0 0 0 0 0 0 0 0 0 127 0" result="hardAlpha"/>
<feOffset dx="45" dy="54"/>
<feComposite in2="hardAlpha" operator="arithmetic" k2="-1" k3="1"/>
<feColorMatrix type="matrix" values="0 0 0 0 0 0 0 0 0 0 0 0 0 0 0 0 0 0 0.71 0"/>
<feBlend mode="normal" in2="shape" result="effect1_innerShadow_1029_807"/>
</filter>
<filter id="filter1_d_1029_807" x="939" y="588.5" width="1761" height="1679.5" filterUnits="userSpaceOnUse" color-interpolation-filters="sRGB">
<feFlood flood-opacity="0" result="BackgroundImageFix"/>
<feColorMatrix in="SourceAlpha" type="matrix" values="0 0 0 0 0 0 0 0 0 0 0 0 0 0 0 0 0 0 127 0" result="hardAlpha"/>
<feOffset dx="47" dy="35"/>
<feComposite in2="hardAlpha" operator="out"/>
<feColorMatrix type="matrix" values="0 0 0 0 0 0 0 0 0 0 0 0 0 0 0 0 0 0 0.5 0"/>
<feBlend mode="normal" in2="BackgroundImageFix" result="effect1_dropShadow_1029_807"/>
<feBlend mode="normal" in="SourceGraphic" in2="effect1_dropShadow_1029_807" result="shape"/>
</filter>
</defs>
</svg>
