<svg width="2833" height="976" viewBox="0 0 2833 976" fill="none" xmlns="http://www.w3.org/2000/svg">
<g filter="url(#filter0_i_1029_806)">
<path d="M0 361.963V507.481C0 550.075 3.51915 592.596 10.5215 634.61L17 673.481L31.1816 729.628C38.0468 756.809 47.3288 783.321 58.9168 808.848L66.4119 825.359C72.7917 839.413 80.3919 852.881 89.1253 865.606L91.8766 869.615C104.558 888.094 119.864 904.626 137.312 918.691C152.377 930.836 168.911 941.037 186.523 949.055L190.832 951.017C214.813 961.933 240.272 969.257 266.388 972.751L270.222 973.264C288.699 975.736 307.369 976.448 325.98 975.389L327.275 975.315C348.7 974.096 369.938 970.64 390.645 965.005L400.356 962.362C425.725 955.458 450.359 946.094 473.908 934.403L509 916.981L620.313 853.438C628.426 848.807 636.883 844.807 645.609 841.473L649.506 839.984C667.682 833.041 686.975 829.481 706.432 829.481C714.466 829.481 722.488 830.088 730.43 831.296L736.729 832.255C755.182 835.063 773.251 839.981 790.582 846.914L844.5 868.481L864.808 876.342C902.609 890.975 942.793 898.481 983.328 898.481H992.6C1004.51 898.481 1016.41 897.497 1028.16 895.538L1042.11 893.213C1054.96 891.071 1067.4 886.946 1078.98 880.985L1099.54 870.405C1108.32 865.891 1115.55 858.871 1120.32 850.238L1129.97 832.794C1133.92 825.65 1133.15 816.826 1128.03 810.468C1124.22 805.734 1118.46 802.981 1112.39 802.981H1089L1058.06 800.142C1042.42 798.708 1027.04 795.225 1012.31 789.785L1001.11 785.649C986.513 780.256 973.112 772.052 961.67 761.501L959.16 759.187C946.897 747.879 937.507 733.811 931.769 718.148L928.554 709.373C924.262 697.656 923.162 685.008 925.366 672.726C927.739 659.506 933.845 647.24 942.963 637.378L944.595 635.612C950.491 629.236 957.403 623.88 965.049 619.762L982.357 610.443C997.715 602.173 1014.12 596.021 1031.13 592.156L1051.7 587.481H2325.23L2354.16 600.581C2364.86 605.429 2374.1 613.009 2380.95 622.56L2392.73 638.989C2402.18 652.173 2418.91 657.977 2434.5 653.481C2497.34 640.515 2561.33 633.981 2625.49 633.981H2702.5C2715.87 633.981 2728.96 630.069 2740.13 622.726L2825 566.981L2826.95 565.752C2835.78 560.184 2834.65 546.967 2825 542.981L2401 388.981L2390.71 384.427C2378.26 378.914 2363.78 380.662 2353 388.981L2320.83 416.481H1117.19L1113 414.981L1082.57 403.756C1068.88 398.703 1057.14 389.437 1049.04 377.291L1047.23 374.577C1039.03 362.275 1035.62 347.393 1037.66 332.748C1038.87 324.009 1041.98 315.643 1046.78 308.235L1052.46 299.444C1058.45 290.19 1065.83 281.911 1074.33 274.895L1088.57 263.145C1104.78 249.767 1122.77 238.704 1142.02 230.272L1143.83 229.478C1168.76 218.559 1195.36 211.936 1222.51 209.89L1275.27 205.913C1279.08 205.625 1282.91 205.66 1286.72 206.017L1337.06 210.737C1349.9 211.941 1361 201.836 1361 188.936C1361 184.411 1359.6 179.997 1356.99 176.301L1340.54 153.028C1332.58 141.761 1322.6 132.067 1311.11 124.439L1303.57 119.436C1282.81 105.656 1259.12 96.9168 1234.38 93.9132L1223.99 92.6506C1209.37 90.876 1194.61 90.6869 1179.95 92.0865L1155.55 94.4168C1127.25 97.1196 1099.29 102.621 1072.08 110.839L897.431 163.583C874.532 170.498 851.011 175.158 827.206 177.495L810.477 179.137C791.234 181.025 771.831 180.508 752.716 177.595C736.947 175.192 721.467 171.173 706.521 165.602L430.609 62.7623C409.582 54.9253 387.869 49.0745 365.751 45.2864L351.856 42.9065C323.138 37.988 293.817 37.7121 265.012 42.0894C226.455 47.9486 189.606 62.0253 156.963 83.3662L147.298 89.6847C55.3925 149.768 0 252.16 0 361.963Z" fill="#360404"/>
</g>
<mask id="mask0_1029_806" style="mask-type:alpha" maskUnits="userSpaceOnUse" x="0" y="39" width="2833" height="937">
<path d="M0 361.963V507.481C0 550.075 3.51915 592.596 10.5215 634.61L17 673.481L31.1816 729.628C38.0468 756.809 47.3288 783.321 58.9168 808.848L66.4119 825.359C72.7917 839.413 80.3919 852.881 89.1253 865.606L91.8766 869.615C104.558 888.094 119.864 904.626 137.312 918.691C152.377 930.836 168.911 941.037 186.523 949.055L190.832 951.017C214.813 961.933 240.272 969.257 266.388 972.751L270.222 973.264C288.699 975.736 307.369 976.448 325.98 975.389L327.275 975.315C348.7 974.096 369.938 970.64 390.645 965.005L400.356 962.362C425.725 955.458 450.359 946.094 473.908 934.403L509 916.981L620.313 853.438C628.426 848.807 636.883 844.807 645.609 841.473L649.506 839.984C667.682 833.041 686.975 829.481 706.432 829.481C714.466 829.481 722.488 830.088 730.43 831.296L736.729 832.255C755.182 835.063 773.251 839.981 790.582 846.914L844.5 868.481L864.808 876.342C902.609 890.975 942.793 898.481 983.328 898.481H992.6C1004.51 898.481 1016.41 897.497 1028.16 895.538L1042.11 893.213C1054.96 891.071 1067.4 886.946 1078.98 880.985L1099.54 870.405C1108.32 865.891 1115.55 858.871 1120.32 850.238L1129.97 832.794C1133.92 825.65 1133.15 816.826 1128.03 810.468C1124.22 805.734 1118.46 802.981 1112.39 802.981H1089L1058.06 800.142C1042.42 798.708 1027.04 795.225 1012.31 789.785L1001.11 785.649C986.513 780.256 973.112 772.052 961.67 761.501L959.16 759.187C946.897 747.879 937.507 733.811 931.769 718.148L928.554 709.373C924.262 697.656 923.162 685.008 925.366 672.726C927.739 659.506 933.845 647.24 942.963 637.378L944.595 635.612C950.491 629.236 957.403 623.88 965.049 619.762L982.357 610.443C997.715 602.173 1014.12 596.021 1031.13 592.156L1051.7 587.481H2325.23L2354.16 600.581C2364.86 605.429 2374.1 613.009 2380.95 622.56L2392.73 638.989C2402.18 652.173 2418.91 657.977 2434.5 653.481C2497.34 640.515 2561.33 633.981 2625.49 633.981H2702.5C2715.87 633.981 2728.96 630.069 2740.13 622.726L2825 566.981L2826.95 565.752C2835.78 560.184 2834.65 546.967 2825 542.981L2401 388.981L2390.71 384.427C2378.26 378.914 2363.78 380.662 2353 388.981L2320.83 416.481H1117.19L1113 414.981L1082.57 403.756C1068.88 398.703 1057.14 389.437 1049.04 377.291L1047.23 374.577C1039.03 362.275 1035.62 347.393 1037.66 332.748C1038.87 324.009 1041.98 315.643 1046.78 308.235L1052.46 299.444C1058.45 290.19 1065.83 281.911 1074.33 274.895L1088.57 263.145C1104.78 249.767 1122.77 238.704 1142.02 230.272L1143.83 229.478C1168.76 218.559 1195.36 211.936 1222.51 209.89L1275.27 205.913C1279.08 205.625 1282.91 205.66 1286.72 206.017L1337.06 210.737C1349.9 211.941 1361 201.836 1361 188.936C1361 184.411 1359.6 179.997 1356.99 176.301L1340.54 153.028C1332.58 141.761 1322.6 132.067 1311.11 124.439L1303.57 119.436C1282.81 105.656 1259.12 96.9168 1234.38 93.9132L1223.99 92.6506C1209.37 90.876 1194.61 90.6869 1179.95 92.0865L1155.55 94.4168C1127.25 97.1196 1099.29 102.621 1072.08 110.839L897.431 163.583C874.532 170.498 851.011 175.158 827.206 177.495L810.477 179.137C791.234 181.025 771.831 180.508 752.716 177.595C736.947 175.192 721.467 171.173 706.521 165.602L430.609 62.7623C409.582 54.9253 387.869 49.0745 365.751 45.2864L351.856 42.9065C323.138 37.988 293.817 37.7121 265.012 42.0894C226.455 47.9486 189.606 62.0253 156.963 83.3662L147.298 89.6847C55.3925 149.768 0 252.16 0 361.963Z" fill="#D9D9D9"/>
</mask>
<g mask="url(#mask0_1029_806)">
<path d="M303.133 395.88L333.896 322.977C363.277 253.348 355.915 173.574 314.349 110.456C314.195 110.222 313.83 110.358 313.868 110.636L316.897 132.32C319.906 153.863 317.32 175.818 309.39 196.074C302.202 214.431 290.833 230.859 276.184 244.052L269.586 249.995C257.577 260.81 244.039 269.796 229.407 276.66L187.518 296.312C162.989 307.819 139.494 321.409 117.289 336.933L93.1794 353.789C59.4149 377.395 30.4965 407.264 7.99433 441.774C-15.3208 477.531 -31.2902 517.569 -38.9843 559.556L-44.6474 590.461C-54.8026 645.879 -55.085 702.656 -45.4817 758.172L-38.0913 800.896C-30.9508 842.174 -18.0723 882.252 0.169956 919.963C27.7847 977.05 67.1713 1027.65 115.74 1068.42L119.123 1071.26C140.106 1088.88 162.589 1104.62 186.315 1118.32L229.921 1143.5C232.044 1144.72 234.025 1146.18 235.826 1147.85L238.333 1150.16C250.896 1161.76 270.61 1160.47 281.556 1147.33C282.659 1146.01 283.874 1144.78 285.187 1143.67L354.781 1084.67L415.769 1041.1L479.21 993.574C500.557 977.581 520.425 959.702 538.572 940.153L567.596 908.889C586.32 888.719 601.094 865.215 611.15 839.596C626.801 799.722 630.471 756.146 621.71 714.216L619.086 701.661C615.278 683.433 609.544 665.662 601.981 648.645L596.461 636.227C596.278 635.814 595.681 635.85 595.549 636.281L583.101 676.737C580.042 686.677 576.258 696.379 571.778 705.765L561.888 726.487C559.908 730.636 557.357 734.487 554.309 737.928C544.962 748.481 531.541 754.522 517.444 754.522H511.296C529.663 740.394 542.878 720.622 548.91 698.248L550.934 690.74C556.174 671.3 556.781 650.902 552.706 631.185L539.611 567.824L526.121 493.87C523.532 479.674 517.752 466.251 509.218 454.614C487.809 425.419 484.86 386.479 501.497 354.324C507.934 341.883 517.05 330.959 528.153 322.418L539.151 313.958C539.301 313.843 539.219 313.604 539.031 313.604H530.358C500.873 313.604 472.037 322.253 447.419 338.481C426.643 352.177 409.581 370.805 397.758 392.702L380.804 424.1C363.605 455.955 352.467 490.725 347.957 526.644L337.355 611.076C337.355 582.726 330.008 554.86 316.029 530.196L310.373 520.217C292.909 489.404 287.681 453.148 295.729 418.657C297.546 410.868 300.023 403.249 303.133 395.88Z" fill="#E13030"/>
<mask id="mask1_1029_806" style="mask-type:alpha" maskUnits="userSpaceOnUse" x="-53" y="110" width="680" height="1049">
<path d="M303.133 395.88L333.896 322.977C363.277 253.348 355.915 173.574 314.349 110.456C314.195 110.222 313.83 110.358 313.868 110.636L316.897 132.32C319.906 153.863 317.32 175.818 309.39 196.074C302.202 214.431 290.833 230.859 276.184 244.052L269.586 249.995C257.577 260.81 244.039 269.796 229.407 276.66L187.518 296.312C162.989 307.819 139.494 321.409 117.289 336.933L93.1794 353.789C59.4149 377.395 30.4965 407.264 7.99433 441.774C-15.3208 477.531 -31.2902 517.569 -38.9843 559.556L-44.6474 590.461C-54.8026 645.879 -55.085 702.656 -45.4817 758.172L-38.0913 800.896C-30.9508 842.174 -18.0723 882.252 0.169956 919.963C27.7847 977.05 67.1713 1027.65 115.74 1068.42L119.123 1071.26C140.106 1088.88 162.589 1104.62 186.315 1118.32L229.921 1143.5C232.044 1144.72 234.025 1146.18 235.826 1147.85L238.333 1150.16C250.896 1161.76 270.61 1160.47 281.556 1147.33C282.659 1146.01 283.874 1144.78 285.187 1143.67L354.781 1084.67L415.769 1041.1L479.21 993.574C500.557 977.581 520.425 959.702 538.572 940.153L567.596 908.889C586.32 888.719 601.094 865.215 611.15 839.596C626.801 799.722 630.471 756.146 621.71 714.216L619.086 701.661C615.278 683.433 609.544 665.662 601.981 648.645L596.461 636.227C596.278 635.814 595.681 635.85 595.549 636.281L583.101 676.737C580.042 686.677 576.258 696.379 571.778 705.765L561.888 726.487C559.908 730.636 557.357 734.487 554.309 737.928C544.962 748.481 531.541 754.522 517.444 754.522H511.296C529.663 740.394 542.878 720.622 548.91 698.248L550.934 690.74C556.174 671.3 556.781 650.902 552.706 631.185L539.611 567.824L526.121 493.87C523.532 479.674 517.752 466.251 509.218 454.614C487.809 425.419 484.86 386.479 501.497 354.324C507.934 341.883 517.05 330.959 528.153 322.418L539.151 313.958C539.301 313.843 539.219 313.604 539.031 313.604H530.358C500.873 313.604 472.037 322.253 447.419 338.481C426.643 352.177 409.581 370.805 397.758 392.702L380.804 424.1C363.605 455.955 352.467 490.725 347.957 526.644L337.355 611.076C337.355 582.726 330.008 554.86 316.029 530.196L310.373 520.217C292.909 489.404 287.681 453.148 295.729 418.657C297.546 410.868 300.023 403.249 303.133 395.88Z" fill="#E13030"/>
</mask>
<g mask="url(#mask1_1029_806)">
<path d="M236.863 693.153L216.591 645.087C197.231 599.185 202.083 546.603 229.472 504.99C229.574 504.836 229.815 504.926 229.789 505.109L227.793 519.408C225.811 533.608 227.514 548.079 232.739 561.43C237.476 573.534 244.97 584.366 254.625 593.067L258.965 596.977C266.879 604.109 275.803 610.035 285.447 614.561L313.037 627.511C329.203 635.099 344.688 644.06 359.321 654.297L375.191 665.397C397.447 680.965 416.507 700.661 431.336 723.416C446.696 746.984 457.216 773.372 462.284 801.044L466.019 821.434C472.71 857.966 472.896 895.392 466.569 931.989L461.697 960.169C456.993 987.375 448.509 1013.79 436.491 1038.65C418.293 1076.29 392.335 1109.65 360.323 1136.54L358.113 1138.39C344.284 1150.01 329.467 1160.39 313.829 1169.42L285.103 1186.02C283.704 1186.83 282.399 1187.79 281.213 1188.88L279.562 1190.41C271.284 1198.05 258.291 1197.2 251.08 1188.54C250.354 1187.67 249.553 1186.86 248.688 1186.13L202.832 1147.23L162.647 1118.51L120.851 1087.18C106.781 1076.64 93.6869 1064.85 81.727 1051.96L62.6127 1031.36C50.2709 1018.06 40.5338 1002.56 33.9068 985.667C23.5948 959.383 21.1767 930.66 26.949 903.022L28.6787 894.74C31.1885 882.722 34.9671 871.005 39.951 859.786L43.5865 851.602C43.7073 851.33 44.1009 851.353 44.1884 851.638L52.3906 878.309C54.4056 884.861 56.8988 891.256 59.8502 897.443L66.3684 911.107C67.6723 913.841 69.3524 916.378 71.3598 918.646C77.5192 925.603 86.3658 929.587 95.6581 929.587H99.7032C87.6009 920.273 78.8937 907.24 74.9208 892.495L73.5845 887.535C70.1322 874.722 69.7323 861.277 72.4167 848.282L81.0457 806.507L89.9344 757.753C91.6407 748.394 95.4492 739.545 101.073 731.872C115.18 712.625 117.123 686.959 106.162 665.762C101.919 657.558 95.9093 650.354 88.5898 644.72L81.3489 639.147C81.2504 639.072 81.304 638.914 81.4283 638.914H87.1319C106.566 638.914 125.573 644.618 141.797 655.318C155.484 664.344 166.722 676.62 174.508 691.048L185.689 711.765C197.019 732.76 204.356 755.676 207.327 779.348L214.314 835.021C214.314 816.331 219.156 797.96 228.368 781.698L232.091 775.125C243.6 754.81 247.045 730.909 241.742 708.17C240.544 703.035 238.912 698.011 236.863 693.153Z" fill="#E19D30"/>
</g>
<rect x="551.5" y="377.981" width="81" height="244" rx="40.5" fill="#060606" stroke="black" stroke-width="3"/>
<rect x="740.5" y="377.981" width="81" height="244" rx="40.5" fill="#060606" stroke="black" stroke-width="3"/>
<circle cx="2415" cy="446.481" r="22.5" fill="#F2F2F2" stroke="#9A9E7E"/>
<circle cx="2676" cy="547.481" r="22.5" fill="#F2F2F2" stroke="#9A9E7E"/>
<circle cx="2590" cy="514.481" r="22.5" fill="#F2F2F2" stroke="#9A9E7E"/>
<circle cx="2505" cy="484.481" r="22.5" fill="#F2F2F2" stroke="#9A9E7E"/>
<path d="M2416.94 451.481H415M2501.46 484.31H415M2590.48 517.139H415M2672 550.481H415" stroke="#9A9E7E" stroke-width="5"/>
<rect x="335.5" y="372.981" width="126" height="254" rx="8.5" fill="#121212" stroke="black" stroke-width="3"/>
</g>
<g filter="url(#filter1_d_1029_806)">
<path d="M1353.06 434.628L1353.64 434.569L1354.2 434.462C1379.06 429.727 1398.94 418.194 1412.33 399.177C1425.49 380.471 1431.33 356.015 1431.33 327.225V118.275C1431.33 90.6327 1424.83 67.4743 1408.71 52.2775C1392.74 37.2207 1368.38 31.275 1339.08 31.275H1180H1166.5V44.775V422.775V436.275H1180H1336.45H1337.15L1337.84 436.203L1353.06 434.628ZM1323.23 126.771L1323.55 127.089L1323.89 127.385C1325.05 128.405 1327.68 132.18 1327.68 143.475V315.15C1327.68 327.933 1324.94 335.005 1321.79 338.746C1319.02 342.04 1314.27 344.7 1304.95 344.7H1270.68V122.85H1304.95C1317.26 122.85 1321.89 125.432 1323.23 126.771ZM1807.46 331.004V184.275H1837.01H1850.51V170.775V108.825V95.325H1837.01H1808.51V39V19.7499L1790.41 26.3074L1717.96 52.5574L1709.06 55.7825V65.25V339.825C1709.06 370.089 1714.8 395.142 1729.03 412.046L1729.16 412.193L1729.29 412.336C1744.35 429.222 1766.97 436.275 1793.96 436.275H1836.49H1849.99V422.775V359.25V345.75H1836.49H1821.26C1813.57 345.75 1810.23 344.282 1809.11 343.467C1808.69 343.165 1808.54 342.94 1808.43 342.687C1808.28 342.361 1807.99 341.521 1807.99 339.825V339.404L1807.96 338.983L1807.46 331.004Z" fill="white" stroke="#524367" stroke-width="27"/>
<circle cx="1569.15" cy="299.275" r="110" fill="#947EB4" stroke="#524367" stroke-width="27"/>
<mask id="path-16-outside-1_1029_806" maskUnits="userSpaceOnUse" x="1153" y="424.775" width="1278" height="513" fill="black">
<rect fill="white" x="1153" y="424.775" width="1278" height="513"/>
<path d="M1351.68 828.2L1336.45 829.775H1180V451.775H1339.08C1367.08 451.775 1387.2 457.55 1399.45 469.1C1411.7 480.65 1417.83 499.375 1417.83 525.275V734.225C1417.83 788.475 1395.78 819.8 1351.68 828.2ZM1341.18 550.475C1341.18 537.875 1338.38 529.125 1332.78 524.225C1327.53 518.975 1318.25 516.35 1304.95 516.35H1257.18V765.2H1304.95C1329.1 765.2 1341.18 750.85 1341.18 722.15V550.475Z"/>
<path d="M1695.31 831.875C1671.86 831.875 1654.36 828.2 1642.81 820.85C1631.26 813.5 1624.44 802.125 1622.34 786.725L1621.81 782L1620.24 759.425L1607.64 596.675C1606.24 579.525 1597.49 570.95 1581.39 570.95C1578.59 570.95 1575.96 570.95 1573.51 570.95C1573.16 570.95 1570.19 571.65 1564.59 573.05C1558.99 574.1 1554.61 576.375 1551.46 579.875C1548.66 583.025 1546.91 587.225 1546.21 592.475L1545.69 596.15V735.275C1545.69 747.875 1547.96 756.45 1552.51 761C1557.41 765.2 1566.51 767.3 1579.81 767.3H1614.46V829.775H1560.39C1528.54 829.775 1506.14 823.65 1493.19 811.4C1480.59 798.8 1474.29 776.925 1474.29 745.775V602.45C1474.29 565.7 1482.34 541.55 1498.44 530C1514.54 518.45 1548.31 512.675 1599.76 512.675C1628.46 512.675 1648.41 517.4 1659.61 526.85C1670.81 536.3 1676.41 552.575 1676.41 575.675L1690.59 745.775L1691.11 748.4L1692.16 755.75C1693.56 763.1 1698.46 767.3 1706.86 768.35H1710.54V829.775L1695.31 831.875Z"/>
<path d="M1849.89 910.1L1826.79 909.575C1792.49 909.575 1769.22 904.15 1756.97 893.3C1744.72 882.45 1738.59 861.45 1738.59 830.3L1738.07 817.175H1806.32L1806.84 823.475C1808.94 845.175 1821.37 856.025 1844.12 856.025C1846.22 856.025 1850.07 855.675 1855.67 854.975C1874.92 852.525 1884.54 841.15 1884.54 820.85L1884.02 575.675H1840.97C1818.92 575.675 1807.89 585.125 1807.89 604.025C1807.89 606.825 1808.07 609.1 1808.42 610.85L1822.07 712.7C1823.47 723.9 1826.44 731.775 1830.99 736.325C1835.54 740.875 1842.72 743.15 1852.52 743.15H1873.52V803H1833.09C1805.44 803 1785.84 798.1 1774.29 788.3C1762.74 778.5 1755.39 760.825 1752.24 735.275L1735.97 598.25C1735.62 595.45 1735.27 592.475 1734.92 589.325C1734.92 586.175 1734.92 583.725 1734.92 581.975C1734.92 537.875 1760.12 515.825 1810.52 515.825H1955.94V829.775C1955.94 859.875 1948.42 880.7 1933.37 892.25C1918.67 904.15 1890.84 910.1 1849.89 910.1Z"/>
<path d="M2094.5 699.05V639.2H2161.18V599.825L2160.65 593C2160.65 580.75 2151.55 573.4 2133.35 570.95L2124.43 569.9C2109.73 569.9 2099.4 572.525 2093.45 577.775C2087.5 583.025 2084.53 592.125 2084.53 605.075V736.325L2085.05 743.15C2086.8 752.95 2090.13 759.6 2095.03 763.1C2100.28 766.6 2109.55 768.35 2122.85 768.35H2217.88V829.775H2092.93C2064.58 829.775 2044.1 823.3 2031.5 810.35C2019.25 797.05 2013.13 775.175 2013.13 744.725V589.325L2014.18 576.2C2016.98 553.1 2026.43 536.825 2042.53 527.375C2058.98 517.575 2086.8 512.675 2126 512.675C2165.55 512.675 2193.03 518.625 2208.43 530.525C2224.18 542.075 2232.05 562.025 2232.05 590.375V699.05H2094.5Z"/>
<path d="M2395.55 574.625C2372.1 577.775 2360.37 591.6 2360.37 616.1V829.775H2288.45V614.525C2288.45 580.225 2295.1 556.075 2308.4 542.075C2322.05 527.725 2347.95 517.925 2386.1 512.675C2392.75 511.625 2398.7 511.275 2403.95 511.625V574.1L2395.55 574.625Z"/>
</mask>
<path d="M1351.68 828.2L1336.45 829.775H1180V451.775H1339.08C1367.08 451.775 1387.2 457.55 1399.45 469.1C1411.7 480.65 1417.83 499.375 1417.83 525.275V734.225C1417.83 788.475 1395.78 819.8 1351.68 828.2ZM1341.18 550.475C1341.18 537.875 1338.38 529.125 1332.78 524.225C1327.53 518.975 1318.25 516.35 1304.95 516.35H1257.18V765.2H1304.95C1329.1 765.2 1341.18 750.85 1341.18 722.15V550.475Z" fill="white"/>
<path d="M1695.31 831.875C1671.86 831.875 1654.36 828.2 1642.81 820.85C1631.26 813.5 1624.44 802.125 1622.34 786.725L1621.81 782L1620.24 759.425L1607.64 596.675C1606.24 579.525 1597.49 570.95 1581.39 570.95C1578.59 570.95 1575.96 570.95 1573.51 570.95C1573.16 570.95 1570.19 571.65 1564.59 573.05C1558.99 574.1 1554.61 576.375 1551.46 579.875C1548.66 583.025 1546.91 587.225 1546.21 592.475L1545.69 596.15V735.275C1545.69 747.875 1547.96 756.45 1552.51 761C1557.41 765.2 1566.51 767.3 1579.81 767.3H1614.46V829.775H1560.39C1528.54 829.775 1506.14 823.65 1493.19 811.4C1480.59 798.8 1474.29 776.925 1474.29 745.775V602.45C1474.29 565.7 1482.34 541.55 1498.44 530C1514.54 518.45 1548.31 512.675 1599.76 512.675C1628.46 512.675 1648.41 517.4 1659.61 526.85C1670.81 536.3 1676.41 552.575 1676.41 575.675L1690.59 745.775L1691.11 748.4L1692.16 755.75C1693.56 763.1 1698.46 767.3 1706.86 768.35H1710.54V829.775L1695.31 831.875Z" fill="white"/>
<path d="M1849.89 910.1L1826.79 909.575C1792.49 909.575 1769.22 904.15 1756.97 893.3C1744.72 882.45 1738.59 861.45 1738.59 830.3L1738.07 817.175H1806.32L1806.84 823.475C1808.94 845.175 1821.37 856.025 1844.12 856.025C1846.22 856.025 1850.07 855.675 1855.67 854.975C1874.92 852.525 1884.54 841.15 1884.54 820.85L1884.02 575.675H1840.97C1818.92 575.675 1807.89 585.125 1807.89 604.025C1807.89 606.825 1808.07 609.1 1808.42 610.85L1822.07 712.7C1823.47 723.9 1826.44 731.775 1830.99 736.325C1835.54 740.875 1842.72 743.15 1852.52 743.15H1873.52V803H1833.09C1805.44 803 1785.84 798.1 1774.29 788.3C1762.74 778.5 1755.39 760.825 1752.24 735.275L1735.97 598.25C1735.62 595.45 1735.27 592.475 1734.92 589.325C1734.92 586.175 1734.92 583.725 1734.92 581.975C1734.92 537.875 1760.12 515.825 1810.52 515.825H1955.94V829.775C1955.94 859.875 1948.42 880.7 1933.37 892.25C1918.67 904.15 1890.84 910.1 1849.89 910.1Z" fill="white"/>
<path d="M2094.5 699.05V639.2H2161.18V599.825L2160.65 593C2160.65 580.75 2151.55 573.4 2133.35 570.95L2124.43 569.9C2109.73 569.9 2099.4 572.525 2093.45 577.775C2087.5 583.025 2084.53 592.125 2084.53 605.075V736.325L2085.05 743.15C2086.8 752.95 2090.13 759.6 2095.03 763.1C2100.28 766.6 2109.55 768.35 2122.85 768.35H2217.88V829.775H2092.93C2064.58 829.775 2044.1 823.3 2031.5 810.35C2019.25 797.05 2013.13 775.175 2013.13 744.725V589.325L2014.18 576.2C2016.98 553.1 2026.43 536.825 2042.53 527.375C2058.98 517.575 2086.8 512.675 2126 512.675C2165.55 512.675 2193.03 518.625 2208.43 530.525C2224.18 542.075 2232.05 562.025 2232.05 590.375V699.05H2094.5Z" fill="white"/>
<path d="M2395.55 574.625C2372.1 577.775 2360.37 591.6 2360.37 616.1V829.775H2288.45V614.525C2288.45 580.225 2295.1 556.075 2308.4 542.075C2322.05 527.725 2347.95 517.925 2386.1 512.675C2392.75 511.625 2398.7 511.275 2403.95 511.625V574.1L2395.55 574.625Z" fill="white"/>
<path d="M1351.68 828.2L1336.45 829.775H1180V451.775H1339.08C1367.08 451.775 1387.2 457.55 1399.45 469.1C1411.7 480.65 1417.83 499.375 1417.83 525.275V734.225C1417.83 788.475 1395.78 819.8 1351.68 828.2ZM1341.18 550.475C1341.18 537.875 1338.38 529.125 1332.78 524.225C1327.53 518.975 1318.25 516.35 1304.95 516.35H1257.18V765.2H1304.95C1329.1 765.2 1341.18 750.85 1341.18 722.15V550.475Z" stroke="#524367" stroke-width="54" mask="url(#path-16-outside-1_1029_806)"/>
<path d="M1695.31 831.875C1671.86 831.875 1654.36 828.2 1642.81 820.85C1631.26 813.5 1624.44 802.125 1622.34 786.725L1621.81 782L1620.24 759.425L1607.64 596.675C1606.24 579.525 1597.49 570.95 1581.39 570.95C1578.59 570.95 1575.96 570.95 1573.51 570.95C1573.16 570.95 1570.19 571.65 1564.59 573.05C1558.99 574.1 1554.61 576.375 1551.46 579.875C1548.66 583.025 1546.91 587.225 1546.21 592.475L1545.69 596.15V735.275C1545.69 747.875 1547.96 756.45 1552.51 761C1557.41 765.2 1566.51 767.3 1579.81 767.3H1614.46V829.775H1560.39C1528.54 829.775 1506.14 823.65 1493.19 811.4C1480.59 798.8 1474.29 776.925 1474.29 745.775V602.45C1474.29 565.7 1482.34 541.55 1498.44 530C1514.54 518.45 1548.31 512.675 1599.76 512.675C1628.46 512.675 1648.41 517.4 1659.61 526.85C1670.81 536.3 1676.41 552.575 1676.41 575.675L1690.59 745.775L1691.11 748.4L1692.16 755.75C1693.56 763.1 1698.46 767.3 1706.86 768.35H1710.54V829.775L1695.31 831.875Z" stroke="#524367" stroke-width="54" mask="url(#path-16-outside-1_1029_806)"/>
<path d="M1849.89 910.1L1826.79 909.575C1792.49 909.575 1769.22 904.15 1756.97 893.3C1744.72 882.45 1738.59 861.45 1738.59 830.3L1738.07 817.175H1806.32L1806.84 823.475C1808.94 845.175 1821.37 856.025 1844.12 856.025C1846.22 856.025 1850.07 855.675 1855.67 854.975C1874.92 852.525 1884.54 841.15 1884.54 820.85L1884.02 575.675H1840.97C1818.92 575.675 1807.89 585.125 1807.89 604.025C1807.89 606.825 1808.07 609.1 1808.42 610.85L1822.07 712.7C1823.47 723.9 1826.44 731.775 1830.99 736.325C1835.54 740.875 1842.72 743.15 1852.52 743.15H1873.52V803H1833.09C1805.44 803 1785.84 798.1 1774.29 788.3C1762.74 778.5 1755.39 760.825 1752.24 735.275L1735.97 598.25C1735.62 595.45 1735.27 592.475 1734.92 589.325C1734.92 586.175 1734.92 583.725 1734.92 581.975C1734.92 537.875 1760.12 515.825 1810.52 515.825H1955.94V829.775C1955.94 859.875 1948.42 880.7 1933.37 892.25C1918.67 904.15 1890.84 910.1 1849.89 910.1Z" stroke="#524367" stroke-width="54" mask="url(#path-16-outside-1_1029_806)"/>
<path d="M2094.5 699.05V639.2H2161.18V599.825L2160.65 593C2160.65 580.75 2151.55 573.4 2133.35 570.95L2124.43 569.9C2109.73 569.9 2099.4 572.525 2093.45 577.775C2087.5 583.025 2084.53 592.125 2084.53 605.075V736.325L2085.05 743.15C2086.8 752.95 2090.13 759.6 2095.03 763.1C2100.28 766.6 2109.55 768.35 2122.85 768.35H2217.88V829.775H2092.93C2064.58 829.775 2044.1 823.3 2031.5 810.35C2019.25 797.05 2013.13 775.175 2013.13 744.725V589.325L2014.18 576.2C2016.98 553.1 2026.43 536.825 2042.53 527.375C2058.98 517.575 2086.8 512.675 2126 512.675C2165.55 512.675 2193.03 518.625 2208.43 530.525C2224.18 542.075 2232.05 562.025 2232.05 590.375V699.05H2094.5Z" stroke="#524367" stroke-width="54" mask="url(#path-16-outside-1_1029_806)"/>
<path d="M2395.55 574.625C2372.1 577.775 2360.37 591.6 2360.37 616.1V829.775H2288.45V614.525C2288.45 580.225 2295.1 556.075 2308.4 542.075C2322.05 527.725 2347.95 517.925 2386.1 512.675C2392.75 511.625 2398.7 511.275 2403.95 511.625V574.1L2395.55 574.625Z" stroke="#524367" stroke-width="54" mask="url(#path-16-outside-1_1029_806)"/>
</g>
<defs>
<filter id="filter0_i_1029_806" x="0" y="39" width="2832.95" height="936.864" filterUnits="userSpaceOnUse" color-interpolation-filters="sRGB">
<feFlood flood-opacity="0" result="BackgroundImageFix"/>
<feBlend mode="normal" in="SourceGraphic" in2="BackgroundImageFix" result="shape"/>
<feColorMatrix in="SourceAlpha" type="matrix" values="0 0 0 0 0 0 0 0 0 0 0 0 0 0 0 0 0 0 127 0" result="hardAlpha"/>
<feOffset dx="45" dy="54"/>
<feComposite in2="hardAlpha" operator="arithmetic" k2="-1" k3="1"/>
<feColorMatrix type="matrix" values="0 0 0 0 0 0 0 0 0 0 0 0 0 0 0 0 0 0 0.71 0"/>
<feBlend mode="normal" in2="shape" result="effect1_innerShadow_1029_806"/>
</filter>
<filter id="filter1_d_1029_806" x="1153" y="0.499756" width="1324.95" height="971.6" filterUnits="userSpaceOnUse" color-interpolation-filters="sRGB">
<feFlood flood-opacity="0" result="BackgroundImageFix"/>
<feColorMatrix in="SourceAlpha" type="matrix" values="0 0 0 0 0 0 0 0 0 0 0 0 0 0 0 0 0 0 127 0" result="hardAlpha"/>
<feOffset dx="47" dy="35"/>
<feComposite in2="hardAlpha" operator="out"/>
<feColorMatrix type="matrix" values="0 0 0 0 0 0 0 0 0 0 0 0 0 0 0 0 0 0 0.5 0"/>
<feBlend mode="normal" in2="BackgroundImageFix" result="effect1_dropShadow_1029_806"/>
<feBlend mode="normal" in="SourceGraphic" in2="effect1_dropShadow_1029_806" result="shape"/>
</filter>
</defs>
</svg>
