<svg width="32768" height="2166" viewBox="0 0 32768 2166" fill="none" xmlns="http://www.w3.org/2000/svg">
<path fill-rule="evenodd" clip-rule="evenodd" d="M1483.05 331.722C1105.61 111.177 597.443 255.503 353.307 675.569C127.056 1064.86 218.313 1536.63 533.676 1778.15C577.342 1811.6 631.219 1836.23 696.073 1860.73C932.614 1950.07 1191.55 1960.71 1434.59 1891.09L1509.13 1869.73C1569.67 1852.39 1632.76 1887.54 1650.06 1948.23C1667.35 2008.93 1632.3 2072.2 1571.77 2089.54L1497.23 2110.89C1207.12 2194 898.048 2181.3 615.704 2074.66C545.616 2048.18 466.217 2014.15 395.287 1959.83C-19.362 1642.27 -122.639 1040.46 156.323 560.468C456.709 43.6195 1099.74 -156.843 1597.84 134.209C2072.98 411.84 2169.94 988.887 1935.02 1477.49C1891.36 1568.3 1808.36 1625.88 1720.12 1647.54L1676.67 1658.21C1585.53 1680.59 1490.87 1654.97 1423.68 1593.18C1416.24 1604.09 1408.47 1614.65 1400.35 1624.83C1352.43 1684.84 1290.72 1733.45 1211.74 1759.65C1133.42 1785.63 1046.92 1786.67 953.559 1766.34C578.942 1684.81 340.146 1315.17 421.368 939.971C502.59 564.771 872.734 327.66 1247.35 409.192C1340.72 429.513 1419 466.412 1479.53 522.61C1540.57 579.281 1576.63 649.172 1595.42 723.7C1630.6 863.25 1606.86 1027.68 1573.95 1181.65L1562.03 1385.69C1561.39 1396.59 1564.4 1407.38 1570.57 1416.37C1582.09 1433.13 1602.74 1441.01 1622.45 1436.17L1665.9 1425.5C1697.71 1417.69 1719.64 1399.03 1729.65 1378.22C1926.33 969.155 1830.67 534.841 1483.05 331.722ZM1198.99 632.594C946.558 577.654 698.496 737.509 644.17 988.462C589.845 1239.42 749.489 1488 1001.92 1542.94C1065.32 1556.74 1109.09 1552.91 1140.13 1542.62C1170.5 1532.54 1197.21 1513.47 1222.37 1481.96C1277.08 1413.43 1315.36 1298.52 1349.26 1141.92C1383.16 985.316 1395.84 864.835 1374.38 779.727C1364.52 740.602 1348.1 712.142 1324.63 690.345C1300.64 668.076 1262.39 646.392 1198.99 632.594Z" fill="#443678"/>
<path fill-rule="evenodd" clip-rule="evenodd" d="M4554.08 331.722C4176.63 111.177 3668.47 255.503 3424.33 675.569C3198.08 1064.86 3289.34 1536.63 3604.7 1778.15C3648.37 1811.6 3702.24 1836.23 3767.1 1860.73C4003.64 1950.07 4262.57 1960.71 4505.62 1891.09L4580.16 1869.73C4640.69 1852.39 4703.79 1887.54 4721.08 1948.23C4738.38 2008.93 4703.32 2072.2 4642.79 2089.54L4568.25 2110.89C4278.15 2194 3969.07 2181.3 3686.73 2074.66C3616.64 2048.18 3537.24 2014.15 3466.31 1959.83C3051.66 1642.27 2948.39 1040.46 3227.35 560.468C3527.73 43.6195 4170.76 -156.843 4668.87 134.209C5144.01 411.84 5240.97 988.887 5006.04 1477.49C4962.38 1568.3 4879.39 1625.88 4791.15 1647.54L4747.7 1658.21C4656.55 1680.59 4561.89 1654.97 4494.71 1593.18C4487.27 1604.09 4479.5 1614.65 4471.37 1624.83C4423.46 1684.84 4361.74 1733.45 4282.76 1759.65C4204.45 1785.63 4117.95 1786.67 4024.58 1766.34C3649.97 1684.81 3411.17 1315.17 3492.39 939.971C3573.61 564.771 3943.76 327.66 4318.38 409.192C4411.74 429.513 4490.03 466.412 4550.55 522.61C4611.59 579.281 4647.66 649.172 4666.45 723.7C4701.63 863.25 4677.88 1027.68 4644.97 1181.65L4633.05 1385.69C4632.41 1396.59 4635.42 1407.38 4641.6 1416.37C4653.11 1433.13 4673.76 1441.01 4693.48 1436.17L4736.93 1425.5C4768.73 1417.69 4790.66 1399.03 4800.67 1378.22C4997.35 969.155 4901.69 534.841 4554.08 331.722ZM4270.01 632.594C4017.58 577.654 3769.52 737.509 3715.19 988.462C3660.87 1239.42 3820.51 1488 4072.94 1542.94C4136.34 1556.74 4180.12 1552.91 4211.15 1542.62C4241.53 1532.54 4268.24 1513.47 4293.39 1481.96C4348.11 1413.43 4386.38 1298.52 4420.29 1141.92C4454.19 985.316 4466.87 864.835 4445.41 779.727C4435.54 740.602 4419.13 712.142 4395.65 690.345C4371.67 668.076 4333.41 646.392 4270.01 632.594Z" fill="#443678"/>
<path fill-rule="evenodd" clip-rule="evenodd" d="M7625.1 331.722C7247.66 111.177 6739.49 255.503 6495.36 675.569C6269.1 1064.86 6360.36 1536.63 6675.72 1778.15C6719.39 1811.6 6773.27 1836.23 6838.12 1860.73C7074.66 1950.07 7333.6 1960.71 7576.64 1891.09L7651.18 1869.73C7711.71 1852.39 7774.81 1887.54 7792.11 1948.23C7809.4 2008.93 7774.35 2072.2 7713.81 2089.54L7639.27 2110.89C7349.17 2194 7040.1 2181.3 6757.75 2074.66C6687.66 2048.18 6608.27 2014.15 6537.34 1959.83C6122.69 1642.27 6019.41 1040.46 6298.37 560.468C6598.76 43.6195 7241.78 -156.843 7739.89 134.209C8215.03 411.84 8311.99 988.887 8077.07 1477.49C8033.4 1568.3 7950.41 1625.88 7862.17 1647.54L7818.72 1658.21C7727.58 1680.59 7632.92 1654.97 7565.73 1593.18C7558.29 1604.09 7550.52 1614.65 7542.4 1624.83C7494.48 1684.84 7432.76 1733.45 7353.79 1759.65C7275.47 1785.63 7188.97 1786.67 7095.61 1766.34C6720.99 1684.81 6482.19 1315.17 6563.42 939.971C6644.64 564.771 7014.78 327.66 7389.4 409.192C7482.77 429.513 7561.05 466.412 7621.58 522.61C7682.61 579.281 7718.68 649.172 7737.47 723.7C7772.65 863.25 7748.91 1027.68 7716 1181.65L7704.07 1385.69C7703.44 1396.59 7706.45 1407.38 7712.62 1416.37C7724.14 1433.13 7744.79 1441.01 7764.5 1436.17L7807.95 1425.5C7839.76 1417.69 7861.69 1399.03 7871.7 1378.22C8068.38 969.155 7972.72 534.841 7625.1 331.722ZM7341.04 632.594C7088.61 577.654 6840.54 737.509 6786.22 988.462C6731.89 1239.42 6891.54 1488 7143.97 1542.94C7207.37 1556.74 7251.14 1552.91 7282.18 1542.62C7312.55 1532.54 7339.26 1513.47 7364.42 1481.96C7419.13 1413.43 7457.41 1298.52 7491.31 1141.92C7525.21 985.316 7537.89 864.835 7516.43 779.727C7506.57 740.602 7490.15 712.142 7466.67 690.345C7442.69 668.076 7404.44 646.392 7341.04 632.594Z" fill="#443678"/>
<path fill-rule="evenodd" clip-rule="evenodd" d="M10696.1 331.722C10318.7 111.177 9810.52 255.503 9566.38 675.569C9340.13 1064.86 9431.39 1536.63 9746.75 1778.15C9790.41 1811.6 9844.29 1836.23 9909.15 1860.73C10145.7 1950.07 10404.6 1960.71 10647.7 1891.09L10722.2 1869.73C10782.7 1852.39 10845.8 1887.54 10863.1 1948.23C10880.4 2008.93 10845.4 2072.2 10784.8 2089.54L10710.3 2110.89C10420.2 2194 10111.1 2181.3 9828.78 2074.66C9758.69 2048.18 9679.29 2014.15 9608.36 1959.83C9193.71 1642.27 9090.43 1040.46 9369.4 560.468C9669.78 43.6195 10312.8 -156.843 10810.9 134.209C11286.1 411.84 11383 988.887 11148.1 1477.49C11104.4 1568.3 11021.4 1625.88 10933.2 1647.54L10889.7 1658.21C10798.6 1680.59 10703.9 1654.97 10636.8 1593.18C10629.3 1604.09 10621.5 1614.65 10613.4 1624.83C10565.5 1684.84 10503.8 1733.45 10424.8 1759.65C10346.5 1785.63 10260 1786.67 10166.6 1766.34C9792.02 1684.81 9553.22 1315.17 9634.44 939.971C9715.66 564.771 10085.8 327.66 10460.4 409.192C10553.8 429.513 10632.1 466.412 10692.6 522.61C10753.6 579.281 10789.7 649.172 10808.5 723.7C10843.7 863.25 10819.9 1027.68 10787 1181.65L10775.1 1385.69C10774.5 1396.59 10777.5 1407.38 10783.6 1416.37C10795.2 1433.13 10815.8 1441.01 10835.5 1436.17L10879 1425.5C10910.8 1417.69 10932.7 1399.03 10942.7 1378.22C11139.4 969.155 11043.7 534.841 10696.1 331.722ZM10412.1 632.594C10159.6 577.654 9911.57 737.509 9857.24 988.462C9802.92 1239.42 9962.56 1488 10215 1542.94C10278.4 1556.74 10322.2 1552.91 10353.2 1542.62C10383.6 1532.54 10410.3 1513.47 10435.4 1481.96C10490.2 1413.43 10528.4 1298.52 10562.3 1141.92C10596.2 985.316 10608.9 864.835 10587.5 779.727C10577.6 740.602 10561.2 712.142 10537.7 690.345C10513.7 668.076 10475.5 646.392 10412.1 632.594Z" fill="#443678"/>
<path fill-rule="evenodd" clip-rule="evenodd" d="M13767.1 331.722C13389.7 111.177 12881.5 255.503 12637.4 675.569C12411.2 1064.86 12502.4 1536.63 12817.8 1778.15C12861.4 1811.6 12915.3 1836.23 12980.2 1860.73C13216.7 1950.07 13475.6 1960.71 13718.7 1891.09L13793.2 1869.73C13853.8 1852.39 13916.9 1887.54 13934.2 1948.23C13951.5 2008.93 13916.4 2072.2 13855.9 2089.54L13781.3 2110.89C13491.2 2194 13182.1 2181.3 12899.8 2074.66C12829.7 2048.18 12750.3 2014.15 12679.4 1959.83C12264.7 1642.27 12161.5 1040.46 12440.4 560.468C12740.8 43.6195 13383.8 -156.843 13881.9 134.209C14357.1 411.84 14454 988.887 14219.1 1477.49C14175.5 1568.3 14092.5 1625.88 14004.2 1647.54L13960.8 1658.21C13869.6 1680.59 13775 1654.97 13707.8 1593.18C13700.3 1604.09 13692.6 1614.65 13684.4 1624.83C13636.5 1684.84 13574.8 1733.45 13495.8 1759.65C13417.5 1785.63 13331 1786.67 13237.7 1766.34C12863 1684.81 12624.2 1315.17 12705.5 939.971C12786.7 564.771 13156.8 327.66 13531.4 409.192C13624.8 429.513 13703.1 466.412 13763.6 522.61C13824.7 579.281 13860.7 649.172 13879.5 723.7C13914.7 863.25 13891 1027.68 13858 1181.65L13846.1 1385.69C13845.5 1396.59 13848.5 1407.38 13854.7 1416.37C13866.2 1433.13 13886.8 1441.01 13906.5 1436.17L13950 1425.5C13981.8 1417.69 14003.7 1399.03 14013.7 1378.22C14210.4 969.155 14114.8 534.841 13767.1 331.722ZM13483.1 632.594C13230.7 577.654 12982.6 737.509 12928.3 988.462C12873.9 1239.42 13033.6 1488 13286 1542.94C13349.4 1556.74 13393.2 1552.91 13424.2 1542.62C13454.6 1532.54 13481.3 1513.47 13506.5 1481.96C13561.2 1413.43 13599.5 1298.52 13633.4 1141.92C13667.3 985.316 13679.9 864.835 13658.5 779.727C13648.6 740.602 13632.2 712.142 13608.7 690.345C13584.7 668.076 13546.5 646.392 13483.1 632.594Z" fill="#443678"/>
<path fill-rule="evenodd" clip-rule="evenodd" d="M16838.2 331.722C16460.7 111.177 15952.6 255.503 15708.4 675.569C15482.2 1064.86 15573.4 1536.63 15888.8 1778.15C15932.5 1811.6 15986.3 1836.23 16051.2 1860.73C16287.7 1950.07 16546.7 1960.71 16789.7 1891.09L16864.3 1869.73C16924.8 1852.39 16987.9 1887.54 17005.2 1948.23C17022.5 2008.93 16987.4 2072.2 16926.9 2089.54L16852.3 2110.89C16562.2 2194 16253.2 2181.3 15970.8 2074.66C15900.7 2048.18 15821.3 2014.15 15750.4 1959.83C15335.8 1642.27 15232.5 1040.46 15511.4 560.468C15811.8 43.6195 16454.9 -156.843 16953 134.209C17428.1 411.84 17525.1 988.887 17290.1 1477.49C17246.5 1568.3 17163.5 1625.88 17075.2 1647.54L17031.8 1658.21C16940.6 1680.59 16846 1654.97 16778.8 1593.18C16771.4 1604.09 16763.6 1614.65 16755.5 1624.83C16707.6 1684.84 16645.8 1733.45 16566.9 1759.65C16488.5 1785.63 16402 1786.67 16308.7 1766.34C15934.1 1684.81 15695.3 1315.17 15776.5 939.971C15857.7 564.771 16227.9 327.66 16602.5 409.192C16695.8 429.513 16774.1 466.412 16834.7 522.61C16895.7 579.281 16931.8 649.172 16950.5 723.7C16985.7 863.25 16962 1027.68 16929.1 1181.65L16917.1 1385.69C16916.5 1396.59 16919.5 1407.38 16925.7 1416.37C16937.2 1433.13 16957.9 1441.01 16977.6 1436.17L17021 1425.5C17052.8 1417.69 17074.8 1399.03 17084.8 1378.22C17281.5 969.155 17185.8 534.841 16838.2 331.722ZM16554.1 632.594C16301.7 577.654 16053.6 737.509 15999.3 988.462C15945 1239.42 16104.6 1488 16357 1542.94C16420.4 1556.74 16464.2 1552.91 16495.3 1542.62C16525.6 1532.54 16552.3 1513.47 16577.5 1481.96C16632.2 1413.43 16670.5 1298.52 16704.4 1141.92C16738.3 985.316 16751 864.835 16729.5 779.727C16719.6 740.602 16703.2 712.142 16679.7 690.345C16655.8 668.076 16617.5 646.392 16554.1 632.594Z" fill="#443678"/>
<path fill-rule="evenodd" clip-rule="evenodd" d="M19909.2 331.722C19531.8 111.177 19023.6 255.503 18779.5 675.569C18553.2 1064.86 18644.5 1536.63 18959.8 1778.15C19003.5 1811.6 19057.4 1836.23 19122.2 1860.73C19358.8 1950.07 19617.7 1960.71 19860.7 1891.09L19935.3 1869.73C19995.8 1852.39 20058.9 1887.54 20076.2 1948.23C20093.5 2008.93 20058.4 2072.2 19997.9 2089.54L19923.4 2110.89C19633.3 2194 19324.2 2181.3 19041.8 2074.66C18971.8 2048.18 18892.4 2014.15 18821.4 1959.83C18406.8 1642.27 18303.5 1040.46 18582.5 560.468C18882.9 43.6195 19525.9 -156.843 20024 134.209C20499.1 411.84 20596.1 988.887 20361.2 1477.49C20317.5 1568.3 20234.5 1625.88 20146.3 1647.54L20102.8 1658.21C20011.7 1680.59 19917 1654.97 19849.8 1593.18C19842.4 1604.09 19834.6 1614.65 19826.5 1624.83C19778.6 1684.84 19716.9 1733.45 19637.9 1759.65C19559.6 1785.63 19473.1 1786.67 19379.7 1766.34C19005.1 1684.81 18766.3 1315.17 18847.5 939.971C18928.7 564.771 19298.9 327.66 19673.5 409.192C19766.9 429.513 19845.1 466.412 19905.7 522.61C19966.7 579.281 20002.8 649.172 20021.6 723.7C20056.8 863.25 20033 1027.68 20000.1 1181.65L19988.2 1385.69C19987.5 1396.59 19990.5 1407.38 19996.7 1416.37C20008.2 1433.13 20028.9 1441.01 20048.6 1436.17L20092.1 1425.5C20123.9 1417.69 20145.8 1399.03 20155.8 1378.22C20352.5 969.155 20256.8 534.841 19909.2 331.722ZM19625.1 632.594C19372.7 577.654 19124.6 737.509 19070.3 988.462C19016 1239.42 19175.6 1488 19428.1 1542.94C19491.5 1556.74 19535.2 1552.91 19566.3 1542.62C19596.6 1532.54 19623.4 1513.47 19648.5 1481.96C19703.2 1413.43 19741.5 1298.52 19775.4 1141.92C19809.3 985.316 19822 864.835 19800.5 779.727C19790.7 740.602 19774.2 712.142 19750.8 690.345C19726.8 668.076 19688.5 646.392 19625.1 632.594Z" fill="#443678"/>
<path fill-rule="evenodd" clip-rule="evenodd" d="M22980.2 331.722C22602.8 111.177 22094.6 255.503 21850.5 675.569C21624.2 1064.86 21715.5 1536.63 22030.8 1778.15C22074.5 1811.6 22128.4 1836.23 22193.2 1860.73C22429.8 1950.07 22688.7 1960.71 22931.8 1891.09L23006.3 1869.73C23066.8 1852.39 23129.9 1887.54 23147.2 1948.23C23164.5 2008.93 23129.5 2072.2 23068.9 2089.54L22994.4 2110.89C22704.3 2194 22395.2 2181.3 22112.9 2074.66C22042.8 2048.18 21963.4 2014.15 21892.5 1959.83C21477.8 1642.27 21374.5 1040.46 21653.5 560.468C21953.9 43.6195 22596.9 -156.843 23095 134.209C23570.2 411.84 23667.1 988.887 23432.2 1477.49C23388.5 1568.3 23305.5 1625.88 23217.3 1647.54L23173.8 1658.21C23082.7 1680.59 22988 1654.97 22920.9 1593.18C22913.4 1604.09 22905.6 1614.65 22897.5 1624.83C22849.6 1684.84 22787.9 1733.45 22708.9 1759.65C22630.6 1785.63 22544.1 1786.67 22450.7 1766.34C22076.1 1684.81 21837.3 1315.17 21918.5 939.971C21999.8 564.771 22369.9 327.66 22744.5 409.192C22837.9 429.513 22916.2 466.412 22976.7 522.61C23037.7 579.281 23073.8 649.172 23092.6 723.7C23127.8 863.25 23104 1027.68 23071.1 1181.65L23059.2 1385.69C23058.6 1396.59 23061.6 1407.38 23067.7 1416.37C23079.3 1433.13 23099.9 1441.01 23119.6 1436.17L23163.1 1425.5C23194.9 1417.69 23216.8 1399.03 23226.8 1378.22C23423.5 969.155 23327.8 534.841 22980.2 331.722ZM22696.2 632.594C22443.7 577.654 22195.7 737.509 22141.3 988.462C22087 1239.42 22246.7 1488 22499.1 1542.94C22562.5 1556.74 22606.3 1552.91 22637.3 1542.62C22667.7 1532.54 22694.4 1513.47 22719.5 1481.96C22774.3 1413.43 22812.5 1298.52 22846.4 1141.92C22880.3 985.316 22893 864.835 22871.6 779.727C22861.7 740.602 22845.3 712.142 22821.8 690.345C22797.8 668.076 22759.6 646.392 22696.2 632.594Z" fill="#443678"/>
<path fill-rule="evenodd" clip-rule="evenodd" d="M26051.2 331.722C25673.8 111.177 25165.6 255.503 24921.5 675.569C24695.3 1064.86 24786.5 1536.63 25101.9 1778.15C25145.5 1811.6 25199.4 1836.23 25264.3 1860.73C25500.8 1950.07 25759.7 1960.71 26002.8 1891.09L26077.3 1869.73C26137.9 1852.39 26201 1887.54 26218.3 1948.23C26235.5 2008.93 26200.5 2072.2 26140 2089.54L26065.4 2110.89C25775.3 2194 25466.2 2181.3 25183.9 2074.66C25113.8 2048.18 25034.4 2014.15 24963.5 1959.83C24548.8 1642.27 24445.6 1040.46 24724.5 560.468C25024.9 43.6195 25667.9 -156.843 26166 134.209C26641.2 411.84 26738.1 988.887 26503.2 1477.49C26459.5 1568.3 26376.6 1625.88 26288.3 1647.54L26244.9 1658.21C26153.7 1680.59 26059.1 1654.97 25991.9 1593.18C25984.4 1604.09 25976.7 1614.65 25968.5 1624.83C25920.6 1684.84 25858.9 1733.45 25779.9 1759.65C25701.6 1785.63 25615.1 1786.67 25521.8 1766.34C25147.1 1684.81 24908.3 1315.17 24989.6 939.971C25070.8 564.771 25440.9 327.66 25815.5 409.192C25908.9 429.513 25987.2 466.412 26047.7 522.61C26108.8 579.281 26144.8 649.172 26163.6 723.7C26198.8 863.25 26175.1 1027.68 26142.1 1181.65L26130.2 1385.69C26129.6 1396.59 26132.6 1407.38 26138.8 1416.37C26150.3 1433.13 26170.9 1441.01 26190.6 1436.17L26234.1 1425.5C26265.9 1417.69 26287.8 1399.03 26297.8 1378.22C26494.5 969.155 26398.9 534.841 26051.2 331.722ZM25767.2 632.594C25514.8 577.654 25266.7 737.509 25212.4 988.462C25158 1239.42 25317.7 1488 25570.1 1542.94C25633.5 1556.74 25677.3 1552.91 25708.3 1542.62C25738.7 1532.54 25765.4 1513.47 25790.6 1481.96C25845.3 1413.43 25883.6 1298.52 25917.5 1141.92C25951.4 985.316 25964 864.835 25942.6 779.727C25932.7 740.602 25916.3 712.142 25892.8 690.345C25868.8 668.076 25830.6 646.392 25767.2 632.594Z" fill="#443678"/>
<path fill-rule="evenodd" clip-rule="evenodd" d="M29122.3 331.722C28744.8 111.177 28236.7 255.503 27992.5 675.569C27766.3 1064.86 27857.5 1536.63 28172.9 1778.15C28216.6 1811.6 28270.4 1836.23 28335.3 1860.73C28571.8 1950.07 28830.8 1960.71 29073.8 1891.09L29148.3 1869.73C29208.9 1852.39 29272 1887.54 29289.3 1948.23C29306.6 2008.93 29271.5 2072.2 29211 2089.54L29136.4 2110.89C28846.3 2194 28537.3 2181.3 28254.9 2074.66C28184.8 2048.18 28105.4 2014.15 28034.5 1959.83C27619.9 1642.27 27516.6 1040.46 27795.5 560.468C28095.9 43.6195 28739 -156.843 29237.1 134.209C29712.2 411.84 29809.2 988.887 29574.2 1477.49C29530.6 1568.3 29447.6 1625.88 29359.3 1647.54L29315.9 1658.21C29224.7 1680.59 29130.1 1654.97 29062.9 1593.18C29055.5 1604.09 29047.7 1614.65 29039.6 1624.83C28991.7 1684.84 28929.9 1733.45 28851 1759.65C28772.6 1785.63 28686.1 1786.67 28592.8 1766.34C28218.2 1684.81 27979.4 1315.17 28060.6 939.971C28141.8 564.771 28512 327.66 28886.6 409.192C28979.9 429.513 29058.2 466.412 29118.7 522.61C29179.8 579.281 29215.9 649.172 29234.6 723.7C29269.8 863.25 29246.1 1027.68 29213.2 1181.65L29201.2 1385.69C29200.6 1396.59 29203.6 1407.38 29209.8 1416.37C29221.3 1433.13 29242 1441.01 29261.7 1436.17L29305.1 1425.5C29336.9 1417.69 29358.9 1399.03 29368.9 1378.22C29565.5 969.155 29469.9 534.841 29122.3 331.722ZM28838.2 632.594C28585.8 577.654 28337.7 737.509 28283.4 988.462C28229.1 1239.42 28388.7 1488 28641.1 1542.94C28704.5 1556.74 28748.3 1552.91 28779.3 1542.62C28809.7 1532.54 28836.4 1513.47 28861.6 1481.96C28916.3 1413.43 28954.6 1298.52 28988.5 1141.92C29022.4 985.316 29035.1 864.835 29013.6 779.727C29003.7 740.602 28987.3 712.142 28963.8 690.345C28939.9 668.076 28901.6 646.392 28838.2 632.594Z" fill="#443678"/>
<path fill-rule="evenodd" clip-rule="evenodd" d="M32193.3 331.722C31815.9 111.177 31307.7 255.503 31063.5 675.569C30837.3 1064.86 30928.6 1536.63 31243.9 1778.15C31287.6 1811.6 31341.5 1836.23 31406.3 1860.73C31642.9 1950.07 31901.8 1960.71 32144.8 1891.09L32219.4 1869.73C32279.9 1852.39 32343 1887.54 32360.3 1948.23C32377.6 2008.93 32342.5 2072.2 32282 2089.54L32207.5 2110.89C31917.4 2194 31608.3 2181.3 31325.9 2074.66C31255.9 2048.18 31176.5 2014.15 31105.5 1959.83C30690.9 1642.27 30587.6 1040.46 30866.6 560.468C31167 43.6195 31810 -156.843 32308.1 134.209C32783.2 411.84 32880.2 988.887 32645.3 1477.49C32601.6 1568.3 32518.6 1625.88 32430.4 1647.54L32386.9 1658.21C32295.8 1680.59 32201.1 1654.97 32133.9 1593.18C32126.5 1604.09 32118.7 1614.65 32110.6 1624.83C32062.7 1684.84 32001 1733.45 31922 1759.65C31843.7 1785.63 31757.2 1786.67 31663.8 1766.34C31289.2 1684.81 31050.4 1315.17 31131.6 939.971C31212.8 564.771 31583 327.66 31957.6 409.192C32051 429.513 32129.2 466.412 32189.8 522.61C32250.8 579.281 32286.9 649.172 32305.7 723.7C32340.8 863.25 32317.1 1027.68 32284.2 1181.65L32272.3 1385.69C32271.6 1396.59 32274.6 1407.38 32280.8 1416.37C32292.3 1433.13 32313 1441.01 32332.7 1436.17L32376.1 1425.5C32408 1417.69 32429.9 1399.03 32439.9 1378.22C32636.6 969.155 32540.9 534.841 32193.3 331.722ZM31909.2 632.594C31656.8 577.654 31408.7 737.509 31354.4 988.462C31300.1 1239.42 31459.7 1488 31712.2 1542.94C31775.6 1556.74 31819.3 1552.91 31850.4 1542.62C31880.7 1532.54 31907.5 1513.47 31932.6 1481.96C31987.3 1413.43 32025.6 1298.52 32059.5 1141.92C32093.4 985.316 32106.1 864.835 32084.6 779.727C32074.8 740.602 32058.3 712.142 32034.9 690.345C32010.9 668.076 31972.6 646.392 31909.2 632.594Z" fill="#443678"/>
</svg>
