<svg width="1364" height="158" viewBox="0 0 1364 158" fill="none" xmlns="http://www.w3.org/2000/svg">
<path d="M330.732 66.1453C324.797 67.3689 321.6 71.9891 323.592 76.4647C325.584 80.9404 332.01 83.5768 337.945 82.3531C343.881 81.1295 347.077 76.5094 345.085 72.0337C343.093 67.558 336.667 64.9217 330.732 66.1453Z" fill="#826293"/>
<path d="M362.835 60.9375C357.431 62.0515 354.521 66.2578 356.335 70.3326C358.148 74.4074 363.999 76.8076 369.402 75.6936C374.806 74.5796 377.716 70.3733 375.902 66.2985C374.089 62.2237 368.238 59.8235 362.835 60.9375Z" fill="#826293"/>
<path d="M392.54 53.6957C387.53 54.7287 384.831 58.6291 386.513 62.4076C388.195 66.186 393.62 68.4117 398.63 67.3787C403.641 66.3457 406.339 62.4453 404.657 58.6668C402.976 54.8884 397.551 52.6627 392.54 53.6957Z" fill="#826293"/>
<path d="M370.425 28.5842L400.177 29.7384M369.679 16.1024L399.214 17.384M342.688 73.6214L336.314 2L398.252 5.02954L402.531 59.938M372.987 67.2749L368.26 3.56259M330.732 66.1453C324.797 67.3689 321.6 71.9891 323.592 76.4647C325.584 80.9404 332.01 83.5768 337.945 82.3531C343.881 81.1295 347.077 76.5094 345.085 72.0337C343.093 67.558 336.667 64.9217 330.732 66.1453ZM362.835 60.9375C357.431 62.0515 354.521 66.2578 356.335 70.3326C358.148 74.4074 363.999 76.8076 369.402 75.6936C374.806 74.5796 377.716 70.3733 375.902 66.2985C374.089 62.2237 368.238 59.8235 362.835 60.9375ZM392.54 53.6957C387.53 54.7287 384.831 58.6291 386.513 62.4076C388.195 66.186 393.62 68.4117 398.63 67.3787C403.641 66.3457 406.339 62.4453 404.657 58.6668C402.976 54.8884 397.551 52.6627 392.54 53.6957Z" stroke="#826293" stroke-width="3"/>
<path d="M856.426 66.1453C862.361 67.3689 865.557 71.9891 863.565 76.4647C861.573 80.9404 855.147 83.5768 849.212 82.3531C843.277 81.1295 840.081 76.5094 842.073 72.0337C844.065 67.558 850.491 64.9217 856.426 66.1453Z" fill="#826293"/>
<path d="M824.323 60.9375C829.726 62.0515 832.636 66.2578 830.823 70.3326C829.009 74.4074 823.159 76.8076 817.755 75.6936C812.352 74.5796 809.441 70.3733 811.255 66.2985C813.069 62.2237 818.919 59.8235 824.323 60.9375Z" fill="#826293"/>
<path d="M794.617 53.6957C799.628 54.7287 802.326 58.6291 800.645 62.4076C798.963 66.186 793.538 68.4117 788.527 67.3787C783.517 66.3457 780.818 62.4453 782.5 58.6668C784.182 54.8884 789.607 52.6627 794.617 53.6957Z" fill="#826293"/>
<path d="M816.732 28.5842L786.98 29.7384M817.479 16.1024L787.943 17.384M844.47 73.6214L850.844 2L788.906 5.02954L784.627 59.938M814.17 67.2749L818.897 3.56259M856.426 66.1453C862.361 67.3689 865.557 71.9891 863.565 76.4647C861.573 80.9404 855.147 83.5768 849.212 82.3531C843.277 81.1295 840.081 76.5094 842.073 72.0337C844.065 67.558 850.491 64.9217 856.426 66.1453ZM824.323 60.9375C829.726 62.0515 832.636 66.2578 830.823 70.3326C829.009 74.4074 823.159 76.8076 817.755 75.6936C812.352 74.5796 809.441 70.3733 811.255 66.2985C813.069 62.2237 818.919 59.8235 824.323 60.9375ZM794.617 53.6957C799.628 54.7287 802.326 58.6291 800.645 62.4076C798.963 66.186 793.538 68.4117 788.527 67.3787C783.517 66.3457 780.818 62.4453 782.5 58.6668C784.182 54.8884 789.607 52.6627 794.617 53.6957Z" stroke="#826293" stroke-width="3"/>
<path d="M277.098 73.037L279.312 19M285.314 80.7568C279.643 77.9774 276.025 73.699 277.232 71.2008C278.44 68.7025 284.015 68.9304 289.686 71.7098C295.357 74.4891 298.975 78.7675 297.768 81.2657C296.56 83.764 290.985 83.5361 285.314 80.7568Z" stroke="#826293" stroke-width="3"/>
<path d="M702.098 80.963L704.312 135M710.314 73.2432C704.643 76.0226 701.025 80.301 702.232 82.7992C703.44 85.2975 709.015 85.0696 714.686 82.2902C720.357 79.5109 723.975 75.2325 722.768 72.7343C721.56 70.236 715.985 70.4639 710.314 73.2432Z" stroke="#826293" stroke-width="3"/>
<path d="M243.79 56.176C237.806 59.4165 233.836 64.4113 234.922 67.3322C236.008 70.2531 241.74 69.9941 247.723 66.7537C253.707 63.5133 257.677 58.5185 256.591 55.5975C255.504 52.6766 249.773 52.9356 243.79 56.176Z" fill="#826293"/>
<path d="M236.363 65.6225L233.883 128.335M243.79 56.176C237.806 59.4165 233.836 64.4113 234.922 67.3322C236.008 70.2531 241.74 69.9941 247.723 66.7537C253.707 63.5133 257.677 58.5185 256.591 55.5975C255.504 52.6766 249.773 52.9356 243.79 56.176Z" stroke="#826293" stroke-width="3"/>
<path d="M563.907 39.6104C557.923 42.8509 553.953 47.8456 555.039 50.7666C556.125 53.6875 561.856 53.4285 567.84 50.1881C573.824 46.9476 577.794 41.9529 576.708 39.0319C575.621 36.111 569.89 36.37 563.907 39.6104Z" fill="#826293"/>
<path d="M556.48 49.0569L554 111.769M563.907 39.6104C557.923 42.8509 553.953 47.8456 555.039 50.7666C556.125 53.6875 561.856 53.4285 567.84 50.1881C573.824 46.9476 577.794 41.9529 576.708 39.0319C575.621 36.111 569.89 36.37 563.907 39.6104Z" stroke="#826293" stroke-width="3"/>
<path d="M520.907 85.6104C514.923 88.8509 510.953 93.8456 512.039 96.7666C513.125 99.6875 518.856 99.4285 524.84 96.1881C530.824 92.9476 534.794 87.9529 533.708 85.0319C532.621 82.111 526.89 82.37 520.907 85.6104Z" fill="#826293"/>
<path d="M513.48 95.0569L511 157.769M520.907 85.6104C514.923 88.8509 510.953 93.8456 512.039 96.7666C513.125 99.6875 518.856 99.4285 524.84 96.1881C530.824 92.9476 534.794 87.9529 533.708 85.0319C532.621 82.111 526.89 82.37 520.907 85.6104Z" stroke="#826293" stroke-width="3"/>
<path d="M958.907 43.6104C952.923 46.8509 948.953 51.8456 950.039 54.7666C951.125 57.6875 956.856 57.4285 962.84 54.1881C968.824 50.9476 972.794 45.9529 971.708 43.0319C970.621 40.111 964.89 40.37 958.907 43.6104Z" fill="#826293"/>
<path d="M951.48 53.0569L949 115.769M958.907 43.6104C952.923 46.8509 948.953 51.8456 950.039 54.7666C951.125 57.6875 956.856 57.4285 962.84 54.1881C968.824 50.9476 972.794 45.9529 971.708 43.0319C970.621 40.111 964.89 40.37 958.907 43.6104Z" stroke="#826293" stroke-width="3"/>
<path d="M748.907 100.158C742.923 96.9181 738.953 91.9233 740.039 89.0023C741.125 86.0814 746.856 86.3404 752.84 89.5808C758.824 92.8213 762.794 97.8161 761.708 100.737C760.621 103.658 754.89 103.399 748.907 100.158Z" fill="#826293"/>
<path d="M741.48 90.712L739 28M748.907 100.158C742.923 96.9181 738.953 91.9233 740.039 89.0023C741.125 86.0814 746.856 86.3404 752.84 89.5808C758.824 92.8213 762.794 97.8161 761.708 100.737C760.621 103.658 754.89 103.399 748.907 100.158Z" stroke="#826293" stroke-width="3"/>
<path d="M197.351 68.8875C191.813 66.9481 188.143 63.4181 189.153 61.0029C190.163 58.5877 195.471 58.2019 201.009 60.1413C206.547 62.0806 210.217 65.6107 209.207 68.0259C208.197 70.4411 202.888 70.8268 197.351 68.8875Z" fill="#826293"/>
<path d="M175.091 44.1945L176.585 54.3413L176.343 50.0032L176.567 44.8369C176.646 43.0271 177.362 41.3325 178.636 39.9445C179.796 38.6804 181.378 37.7146 183.233 37.1382L186.735 36.0497L187.896 35.8228C188.973 35.6125 189.707 34.8854 189.758 33.9793L189.859 32.143C189.9 31.402 188.97 30.7767 188.092 30.9549L185.479 31.7781C184.113 32.2085 182.826 32.7598 181.638 33.4227L180.464 34.0786C178.748 35.0367 177.366 36.3156 176.419 37.8231C175.22 39.7325 174.759 41.9401 175.091 44.1945Z" fill="#826293"/>
<path d="M173.843 35.0371L175.336 45.1839L175.094 40.8457L175.318 35.6794C175.397 33.8697 176.114 32.175 177.387 30.7871C178.547 29.5229 180.129 28.5571 181.984 27.9807L185.486 26.8923L186.648 26.6653C187.725 26.455 188.459 25.7279 188.509 24.8219L188.61 22.9856C188.651 22.2445 187.721 21.6192 186.843 21.7975L184.231 22.6207C182.865 23.0511 181.577 23.6023 180.39 24.2653L179.215 24.9211C177.499 25.8792 176.118 27.1581 175.171 28.6656C173.971 30.575 173.511 32.7827 173.843 35.0371Z" fill="#826293"/>
<path d="M173.872 25.802L175.365 35.9488L175.123 31.6107L175.347 26.4444C175.426 24.6346 176.143 22.9399 177.416 21.552C178.576 20.2879 180.158 19.322 182.013 18.7456L185.515 17.6572L186.677 17.4303C187.754 17.2199 188.488 16.4929 188.538 15.5868L188.64 13.7505C188.681 13.0095 187.75 12.3841 186.873 12.5624L184.26 13.3856C182.894 13.816 181.606 14.3673 180.419 15.0302L179.244 15.686C177.528 16.6442 176.147 17.923 175.2 19.4305C174 21.34 173.54 23.5476 173.872 25.802Z" fill="#826293"/>
<path d="M190.485 62.2028L188.276 13.0048M197.351 68.8875C191.813 66.9481 188.143 63.4181 189.153 61.0029C190.163 58.5877 195.471 58.2019 201.009 60.1413C206.547 62.0806 210.217 65.6107 209.207 68.0259C208.197 70.4411 202.888 70.8268 197.351 68.8875ZM176.585 54.3413L175.091 44.1945C174.759 41.9401 175.22 39.7325 176.419 37.8231C177.366 36.3156 178.748 35.0367 180.464 34.0786L181.638 33.4227C182.826 32.7598 184.113 32.2085 185.479 31.7781L188.092 30.9549C188.97 30.7767 189.9 31.402 189.859 32.143L189.758 33.9793C189.707 34.8854 188.973 35.6125 187.896 35.8228L186.735 36.0497L183.233 37.1382C181.378 37.7146 179.796 38.6804 178.636 39.9445C177.362 41.3325 176.646 43.0271 176.567 44.8369L176.343 50.0032L176.585 54.3413ZM175.336 45.1839L173.843 35.0371C173.511 32.7827 173.971 30.575 175.171 28.6656C176.118 27.1581 177.499 25.8792 179.215 24.9211L180.39 24.2653C181.577 23.6023 182.865 23.0511 184.231 22.6207L186.843 21.7975C187.721 21.6192 188.651 22.2445 188.61 22.9856L188.509 24.8219C188.459 25.7279 187.725 26.455 186.648 26.6653L185.486 26.8923L181.984 27.9807C180.129 28.5571 178.547 29.5229 177.387 30.7871C176.114 32.175 175.397 33.8697 175.318 35.6794L175.094 40.8457L175.336 45.1839ZM175.365 35.9488L173.872 25.802C173.54 23.5476 174 21.34 175.2 19.4305C176.147 17.923 177.528 16.6442 179.244 15.686L180.419 15.0302C181.606 14.3673 182.894 13.816 184.26 13.3856L186.873 12.5624C187.75 12.3841 188.681 13.0095 188.64 13.7505L188.538 15.5868C188.488 16.4929 187.754 17.2199 186.677 17.4303L185.515 17.6572L182.013 18.7456C180.158 19.322 178.576 20.2879 177.416 21.552C176.143 22.9399 175.426 24.6346 175.347 26.4444L175.123 31.6107L175.365 35.9488Z" stroke="#826293" stroke-width="2"/>
<path d="M491.613 43.2356C486.075 45.1749 482.405 48.705 483.415 51.1202C484.425 53.5354 489.733 53.9211 495.271 51.9818C500.809 50.0424 504.479 46.5124 503.469 44.0972C502.459 41.682 497.151 41.2962 491.613 43.2356Z" fill="#826293"/>
<path d="M469.353 67.9285L470.847 57.7817L470.605 62.1199L470.829 67.2862C470.908 69.0959 471.624 70.7906 472.898 72.1785C474.058 73.4427 475.64 74.4085 477.495 74.9849L480.997 76.0733L482.159 76.3002C483.236 76.5106 483.97 77.2377 484.02 78.1437L484.121 79.98C484.162 80.721 483.232 81.3464 482.354 81.1681L479.742 80.3449C478.376 79.9145 477.088 79.3632 475.901 78.7003L474.726 78.0445C473.01 77.0864 471.628 75.8075 470.681 74.3C469.482 72.3906 469.022 70.1829 469.353 67.9285Z" fill="#826293"/>
<path d="M468.105 77.086L469.598 66.9392L469.356 71.2773L469.581 76.4436C469.659 78.2534 470.376 79.948 471.649 81.336C472.81 82.6001 474.392 83.566 476.246 84.1423L479.748 85.2308L480.91 85.4577C481.987 85.6681 482.721 86.3951 482.771 87.3012L482.873 89.1375C482.914 89.8785 481.984 90.5038 481.106 90.3256L478.493 89.5024C477.127 89.072 475.839 88.5207 474.652 87.8578L473.477 87.202C471.761 86.2438 470.38 84.9649 469.433 83.4574C468.233 81.548 467.773 79.3404 468.105 77.086Z" fill="#826293"/>
<path d="M468.134 86.321L469.627 76.1742L469.385 80.5124L469.61 85.6787C469.688 87.4884 470.405 89.1831 471.679 90.5711C472.839 91.8352 474.421 92.801 476.275 93.3774L479.777 94.4658L480.939 94.6928C482.016 94.9031 482.75 95.6302 482.8 96.5362L482.902 98.3725C482.943 99.1136 482.013 99.7389 481.135 99.5606L478.522 98.7374C477.156 98.307 475.868 97.7558 474.681 97.0928L473.506 96.437C471.79 95.4789 470.409 94.2 469.462 92.6925C468.262 90.7831 467.802 88.5754 468.134 86.321Z" fill="#826293"/>
<path d="M484.747 49.9202L482.539 99.1183M491.613 43.2356C486.075 45.1749 482.405 48.705 483.415 51.1202C484.425 53.5354 489.733 53.9211 495.271 51.9818C500.809 50.0424 504.479 46.5124 503.469 44.0972C502.459 41.682 497.151 41.2962 491.613 43.2356ZM470.847 57.7817L469.353 67.9285C469.022 70.1829 469.482 72.3906 470.681 74.3C471.628 75.8075 473.01 77.0864 474.726 78.0445L475.901 78.7003C477.088 79.3632 478.376 79.9145 479.742 80.3449L482.354 81.1681C483.232 81.3464 484.162 80.721 484.121 79.98L484.02 78.1437C483.97 77.2377 483.236 76.5106 482.159 76.3002L480.997 76.0733L477.495 74.9849C475.64 74.4085 474.058 73.4427 472.898 72.1785C471.624 70.7906 470.908 69.0959 470.829 67.2862L470.605 62.1199L470.847 57.7817ZM469.598 66.9392L468.105 77.086C467.773 79.3404 468.233 81.548 469.433 83.4574C470.38 84.9649 471.761 86.2438 473.477 87.202L474.652 87.8578C475.839 88.5207 477.127 89.072 478.493 89.5024L481.106 90.3256C481.984 90.5038 482.914 89.8785 482.873 89.1375L482.771 87.3012C482.721 86.3951 481.987 85.6681 480.91 85.4577L479.748 85.2308L476.246 84.1423C474.392 83.566 472.81 82.6001 471.649 81.336C470.376 79.948 469.659 78.2534 469.581 76.4436L469.356 71.2773L469.598 66.9392ZM469.627 76.1742L468.134 86.321C467.802 88.5754 468.262 90.7831 469.462 92.6925C470.409 94.2 471.79 95.4789 473.506 96.437L474.681 97.0928C475.868 97.7558 477.156 98.307 478.522 98.7374L481.135 99.5606C482.013 99.7389 482.943 99.1136 482.902 98.3725L482.8 96.5362C482.75 95.6302 482.016 94.9031 480.939 94.6928L479.777 94.4658L476.275 93.3774C474.421 92.801 472.839 91.8352 471.679 90.5711C470.405 89.1831 469.688 87.4884 469.61 85.6787L469.385 80.5124L469.627 76.1742Z" stroke="#826293" stroke-width="2"/>
<path d="M912.613 72.2356C907.075 74.1749 903.405 77.705 904.415 80.1202C905.425 82.5354 910.733 82.9211 916.271 80.9818C921.809 79.0424 925.479 75.5124 924.469 73.0972C923.459 70.682 918.151 70.2962 912.613 72.2356Z" fill="#826293"/>
<path d="M890.353 96.9285L891.847 86.7817L891.605 91.1199L891.829 96.2862C891.908 98.0959 892.624 99.7906 893.898 101.179C895.058 102.443 896.64 103.408 898.495 103.985L901.997 105.073L903.159 105.3C904.236 105.511 904.97 106.238 905.02 107.144L905.121 108.98C905.162 109.721 904.232 110.346 903.354 110.168L900.742 109.345C899.376 108.915 898.088 108.363 896.901 107.7L895.726 107.044C894.01 106.086 892.628 104.807 891.681 103.3C890.482 101.391 890.022 99.1829 890.353 96.9285Z" fill="#826293"/>
<path d="M889.105 106.086L890.598 95.9392L890.356 100.277L890.581 105.444C890.659 107.253 891.376 108.948 892.649 110.336C893.81 111.6 895.392 112.566 897.246 113.142L900.748 114.231L901.91 114.458C902.987 114.668 903.721 115.395 903.771 116.301L903.873 118.137C903.914 118.878 902.984 119.504 902.106 119.326L899.493 118.502C898.127 118.072 896.839 117.521 895.652 116.858L894.477 116.202C892.761 115.244 891.38 113.965 890.433 112.457C889.233 110.548 888.773 108.34 889.105 106.086Z" fill="#826293"/>
<path d="M889.134 115.321L890.627 105.174L890.385 109.512L890.61 114.679C890.688 116.488 891.405 118.183 892.679 119.571C893.839 120.835 895.421 121.801 897.275 122.377L900.777 123.466L901.939 123.693C903.016 123.903 903.75 124.63 903.8 125.536L903.902 127.373C903.943 128.114 903.013 128.739 902.135 128.561L899.522 127.737C898.156 127.307 896.868 126.756 895.681 126.093L894.506 125.437C892.79 124.479 891.409 123.2 890.462 121.692C889.262 119.783 888.802 117.575 889.134 115.321Z" fill="#826293"/>
<path d="M905.747 78.9202L903.539 128.118M912.613 72.2356C907.075 74.1749 903.405 77.705 904.415 80.1202C905.425 82.5354 910.733 82.9211 916.271 80.9818C921.809 79.0424 925.479 75.5124 924.469 73.0972C923.459 70.682 918.151 70.2962 912.613 72.2356ZM891.847 86.7817L890.353 96.9285C890.022 99.1829 890.482 101.391 891.681 103.3C892.628 104.807 894.01 106.086 895.726 107.044L896.901 107.7C898.088 108.363 899.376 108.915 900.742 109.345L903.354 110.168C904.232 110.346 905.162 109.721 905.121 108.98L905.02 107.144C904.97 106.238 904.236 105.511 903.159 105.3L901.997 105.073L898.495 103.985C896.64 103.408 895.058 102.443 893.898 101.179C892.624 99.7906 891.908 98.0959 891.829 96.2862L891.605 91.1199L891.847 86.7817ZM890.598 95.9392L889.105 106.086C888.773 108.34 889.233 110.548 890.433 112.457C891.38 113.965 892.761 115.244 894.477 116.202L895.652 116.858C896.839 117.521 898.127 118.072 899.493 118.502L902.106 119.326C902.984 119.504 903.914 118.878 903.873 118.137L903.771 116.301C903.721 115.395 902.987 114.668 901.91 114.458L900.748 114.231L897.246 113.142C895.392 112.566 893.81 111.6 892.649 110.336C891.376 108.948 890.659 107.253 890.581 105.444L890.356 100.277L890.598 95.9392ZM890.627 105.174L889.134 115.321C888.802 117.575 889.262 119.783 890.462 121.692C891.409 123.2 892.79 124.479 894.506 125.437L895.681 126.093C896.868 126.756 898.156 127.307 899.522 127.737L902.135 128.561C903.013 128.739 903.943 128.114 903.902 127.373L903.8 125.536C903.75 124.63 903.016 123.903 901.939 123.693L900.777 123.466L897.275 122.377C895.421 121.801 893.839 120.835 892.679 119.571C891.405 118.183 890.688 116.488 890.61 114.679L890.385 109.512L890.627 105.174Z" stroke="#826293" stroke-width="2"/>
<path d="M448.613 110.356C443.075 108.416 439.405 104.886 440.415 102.471C441.425 100.056 446.733 99.6702 452.271 101.61C457.809 103.549 461.479 107.079 460.469 109.494C459.459 111.909 454.151 112.295 448.613 110.356Z" fill="#826293"/>
<path d="M426.353 85.6628L427.847 95.8096L427.605 91.4715L427.829 86.3051C427.908 84.4954 428.624 82.8007 429.898 81.4128C431.058 80.1487 432.64 79.1828 434.495 78.6064L437.997 77.518L439.159 77.2911C440.236 77.0807 440.97 76.3536 441.02 75.4476L441.121 73.6113C441.162 72.8703 440.232 72.2449 439.354 72.4232L436.742 73.2464C435.376 73.6768 434.088 74.2281 432.901 74.891L431.726 75.5468C430.01 76.5049 428.628 77.7838 427.681 79.2913C426.482 81.2007 426.022 83.4084 426.353 85.6628Z" fill="#826293"/>
<path d="M425.105 76.5053L426.598 86.6522L426.356 82.314L426.581 77.1477C426.659 75.3379 427.376 73.6433 428.649 72.2553C429.81 70.9912 431.392 70.0254 433.246 69.449L436.748 68.3605L437.91 68.1336C438.987 67.9233 439.721 67.1962 439.771 66.2901L439.873 64.4538C439.914 63.7128 438.984 63.0875 438.106 63.2657L435.493 64.0889C434.127 64.5193 432.839 65.0706 431.652 65.7335L430.477 66.3894C428.761 67.3475 427.38 68.6264 426.433 70.1339C425.233 72.0433 424.773 74.2509 425.105 76.5053Z" fill="#826293"/>
<path d="M425.134 67.2703L426.627 77.4171L426.385 73.0789L426.61 67.9126C426.688 66.1029 427.405 64.4082 428.679 63.0203C429.839 61.7561 431.421 60.7903 433.275 60.2139L436.777 59.1255L437.939 58.8985C439.016 58.6882 439.75 57.9611 439.8 57.0551L439.902 55.2188C439.943 54.4777 439.013 53.8524 438.135 54.0307L435.522 54.8539C434.156 55.2843 432.868 55.8355 431.681 56.4985L430.506 57.1543C428.79 58.1124 427.409 59.3913 426.462 60.8988C425.262 62.8082 424.802 65.0159 425.134 67.2703Z" fill="#826293"/>
<path d="M441.747 103.671L439.539 54.473M448.613 110.356C443.075 108.416 439.405 104.886 440.415 102.471C441.425 100.056 446.733 99.6702 452.271 101.61C457.809 103.549 461.479 107.079 460.469 109.494C459.459 111.909 454.151 112.295 448.613 110.356ZM427.847 95.8096L426.353 85.6628C426.022 83.4084 426.482 81.2007 427.681 79.2913C428.628 77.7838 430.01 76.5049 431.726 75.5468L432.901 74.891C434.088 74.2281 435.376 73.6768 436.742 73.2464L439.354 72.4232C440.232 72.2449 441.162 72.8703 441.121 73.6113L441.02 75.4476C440.97 76.3536 440.236 77.0807 439.159 77.2911L437.997 77.518L434.495 78.6064C432.64 79.1828 431.058 80.1487 429.898 81.4128C428.624 82.8007 427.908 84.4954 427.829 86.3051L427.605 91.4715L427.847 95.8096ZM426.598 86.6522L425.105 76.5053C424.773 74.2509 425.233 72.0433 426.433 70.1339C427.38 68.6264 428.761 67.3475 430.477 66.3894L431.652 65.7335C432.839 65.0706 434.127 64.5193 435.493 64.0889L438.106 63.2657C438.984 63.0875 439.914 63.7128 439.873 64.4538L439.771 66.2901C439.721 67.1962 438.987 67.9233 437.91 68.1336L436.748 68.3605L433.246 69.449C431.392 70.0254 429.81 70.9912 428.649 72.2553C427.376 73.6433 426.659 75.3379 426.581 77.1477L426.356 82.314L426.598 86.6522ZM426.627 77.4171L425.134 67.2703C424.802 65.0159 425.262 62.8082 426.462 60.8988C427.409 59.3913 428.79 58.1124 430.506 57.1543L431.681 56.4985C432.868 55.8355 434.156 55.2843 435.522 54.8539L438.135 54.0307C439.013 53.8524 439.943 54.4777 439.902 55.2188L439.8 57.0551C439.75 57.9611 439.016 58.6882 437.939 58.8985L436.777 59.1255L433.275 60.2139C431.421 60.7903 429.839 61.7561 428.679 63.0203C427.405 64.4082 426.688 66.1029 426.61 67.9126L426.385 73.0789L426.627 77.4171Z" stroke="#826293" stroke-width="2"/>
<path d="M146.245 75.2712C152.019 76.8879 155.073 81.0976 153.066 84.6738C151.06 88.2501 144.753 89.8386 138.979 88.2219C133.206 86.6052 130.152 82.3955 132.158 78.8193C134.164 75.243 140.471 73.6545 146.245 75.2712Z" fill="#826293"/>
<path d="M114.994 67.7155C120.251 69.1874 123.032 73.0201 121.205 76.276C119.378 79.5319 113.636 80.9782 108.38 79.5063C103.123 78.0344 100.342 74.2018 102.169 70.9458C103.996 67.6899 109.738 66.2436 114.994 67.7155Z" fill="#826293"/>
<path d="M86.1117 58.6819C90.986 60.0467 93.5644 63.6006 91.8706 66.6198C90.1769 69.6389 84.8525 70.98 79.9781 69.6151C75.1038 68.2503 72.5254 64.6964 74.2192 61.6772C75.9129 58.6581 81.2373 57.317 86.1117 58.6819Z" fill="#826293"/>
<path d="M134.474 80.394L139.387 16.175L81.3815 13.5282L76.2766 62.9585M104.999 72.0564L111.458 14.9006M146.245 75.2712C152.019 76.8879 155.073 81.0976 153.066 84.6738C151.06 88.2501 144.753 89.8386 138.979 88.2219C133.206 86.6052 130.152 82.3955 132.158 78.8193C134.164 75.243 140.471 73.6545 146.245 75.2712ZM114.994 67.7155C120.251 69.1874 123.032 73.0201 121.205 76.276C119.378 79.5319 113.636 80.9782 108.38 79.5063C103.123 78.0344 100.342 74.2018 102.169 70.9458C103.996 67.6899 109.738 66.2436 114.994 67.7155ZM86.1117 58.6819C90.986 60.0467 93.5644 63.6006 91.8706 66.6198C90.1769 69.6389 84.8525 70.98 79.9781 69.6151C75.1038 68.2503 72.5254 64.6964 74.2192 61.6772C75.9129 58.6581 81.2373 57.317 86.1117 58.6819Z" stroke="#826293" stroke-width="3"/>
<path d="M669.546 98.743C675.32 100.36 678.374 104.569 676.367 108.146C674.361 111.722 668.054 113.31 662.28 111.694C656.507 110.077 653.453 105.867 655.459 102.291C657.465 98.7148 663.772 97.1263 669.546 98.743Z" fill="#826293"/>
<path d="M638.295 91.1873C643.552 92.6592 646.333 96.4919 644.506 99.7478C642.679 103.004 636.937 104.45 631.681 102.978C626.424 101.506 623.643 97.6736 625.47 94.4176C627.297 91.1617 633.039 89.7154 638.295 91.1873Z" fill="#826293"/>
<path d="M609.413 82.1537C614.287 83.5185 616.865 87.0724 615.172 90.0916C613.478 93.1107 608.153 94.4518 603.279 93.0869C598.405 91.7221 595.826 88.1682 597.52 85.149C599.214 82.1299 604.538 80.7888 609.413 82.1537Z" fill="#826293"/>
<path d="M657.775 103.866L662.688 39.6468L604.683 37L599.578 86.4303M628.3 95.5282L634.759 38.3724M669.546 98.743C675.32 100.36 678.374 104.569 676.367 108.146C674.361 111.722 668.054 113.31 662.28 111.694C656.507 110.077 653.453 105.867 655.459 102.291C657.465 98.7148 663.772 97.1263 669.546 98.743ZM638.295 91.1873C643.552 92.6592 646.333 96.4919 644.506 99.7478C642.679 103.004 636.937 104.45 631.681 102.978C626.424 101.506 623.643 97.6736 625.47 94.4176C627.297 91.1617 633.039 89.7154 638.295 91.1873ZM609.413 82.1537C614.287 83.5185 616.865 87.0724 615.172 90.0916C613.478 93.1107 608.153 94.4518 603.279 93.0869C598.405 91.7221 595.826 88.1682 597.52 85.149C599.214 82.1299 604.538 80.7888 609.413 82.1537Z" stroke="#826293" stroke-width="3"/>
<path fill-rule="evenodd" clip-rule="evenodd" d="M47.9557 24.7129C50.1407 23.6234 52.7879 24.6688 53.6389 26.9572C53.673 27.0489 53.719 27.1357 53.7759 27.2152L54.7645 28.5984C56.7506 31.3775 57.8474 34.6935 57.9099 38.1088L57.9329 39.3616C57.9806 41.9688 57.5406 44.5619 56.6355 47.0073L55.8375 49.1634C55.0167 51.3811 53.8669 53.4627 52.4266 55.3383C50.7823 57.4796 48.7824 59.3226 46.5142 60.7868L45.2396 61.6095C43.7187 62.5912 42.1209 63.4417 40.4636 64.1536C38.9796 64.791 38.0922 66.3855 38.4963 67.9493V67.9493L39.3985 75.8456C39.6022 77.628 40.998 78.999 42.6571 79.6815C42.6818 79.6917 42.7065 79.7019 42.7311 79.7122L46.7281 81.3849C49.8676 82.6987 52.5207 84.9564 54.3202 87.845L55.3882 89.5597C57.397 92.7844 57.8008 96.757 56.4821 100.32C55.2658 103.606 52.7042 106.217 49.4415 107.495L48.6866 107.791C48.1703 107.993 47.6444 108.164 47.1117 108.303C44.7405 108.923 42.6619 110.925 42.8515 113.369L42.914 114.175C43.0086 115.395 42.9987 116.62 42.8845 117.837L42.5304 121.61C42.336 123.682 41.4886 125.639 40.1103 127.198C38.5216 128.995 36.3302 130.149 33.9495 130.442L32.0212 130.679C30.4422 130.873 28.8396 130.686 27.3476 130.134C23.537 128.724 20.9648 125.14 20.8475 121.079L20.7398 117.352C20.7159 116.523 21.3678 115.833 22.1959 115.809C23.024 115.785 23.7147 116.437 23.7386 117.265L23.8462 120.992C23.9282 123.831 25.7258 126.335 28.389 127.32C29.4317 127.706 30.5516 127.837 31.6552 127.701L33.5834 127.464C35.2371 127.261 36.7591 126.46 37.8626 125.211C38.8199 124.128 39.4085 122.769 39.5436 121.33L39.8976 117.557C39.9958 116.51 40.0043 115.456 39.923 114.407L39.6714 111.164C39.5348 109.403 38.2601 107.941 36.5349 107.565L35.4033 107.318C30.9326 106.344 26.7281 104.407 23.0824 101.642L19.0691 98.5985C16.0607 96.3169 13.8559 93.1378 12.7732 89.5206C11.3722 84.8402 11.9567 79.7897 14.3896 75.553L14.5896 75.2046C16.4769 71.9179 19.3168 69.281 22.7341 67.642L27.1143 65.5412C29.306 64.49 31.603 63.6743 33.9668 63.1077V63.1077C34.0724 63.0824 34.1379 62.9767 34.1141 62.8708C33.0331 58.0674 32.5948 53.1412 32.8111 48.2217C32.8475 47.3941 33.567 46.7718 34.3934 46.8305V46.8305V46.8305C33.5765 46.6928 33.0258 45.919 33.1635 45.1021L33.8581 40.9795C34.3081 38.3085 35.3189 35.7632 36.8238 33.5111C38.3364 31.2474 40.3137 29.3318 42.6241 27.8916L46.7948 25.2919L47.9557 24.7129ZM35.8846 47.0082C35.6313 50.6442 35.757 54.2913 36.2563 57.891C36.5821 60.239 39.0194 61.611 41.1272 60.5262C41.9773 60.0886 42.8069 59.6091 43.6126 59.089L44.8872 58.2663C46.8668 56.9884 48.6122 55.38 50.0472 53.5112C51.3042 51.8743 52.3077 50.0576 53.024 48.1221L53.822 45.966C54.5974 43.8712 54.9743 41.6499 54.9334 39.4166L54.9104 38.1638C54.859 35.3552 53.9571 32.6282 52.3237 30.3428L51.3352 28.9596C51.1243 28.6645 50.9534 28.3428 50.827 28.0029C50.5975 27.3858 49.8837 27.1039 49.2945 27.3977L48.2609 27.9131L44.2111 30.4375C42.2621 31.6524 40.5941 33.2683 39.3181 35.1779C38.0487 37.0776 37.196 39.2248 36.8164 41.4779L35.8846 47.0082ZM34.9437 66.192C34.9122 66.07 34.7887 65.9957 34.6661 66.0251V66.0251C32.5086 66.5422 30.4121 67.2867 28.4117 68.2462L24.0314 70.347C21.1614 71.7235 18.7763 73.9381 17.1912 76.6985L16.9911 77.0469C14.9683 80.5695 14.4824 84.7688 15.6472 88.6603C16.5474 91.6678 18.3807 94.3112 20.882 96.2082L24.8953 99.2521C28.1935 101.754 31.9974 103.506 36.0419 104.387V104.387C37.6151 104.73 39.0737 103.459 38.9492 101.853L38.1001 90.9084L37.2842 83.7673C37.1526 82.6156 36.1316 81.7442 35.0128 82.0476V82.0476L33.3879 82.4883C30.8368 83.1801 28.8623 85.2021 28.2311 87.7689C27.706 89.9044 28.1759 92.1628 29.509 93.9118L32.5416 97.8903C33.0438 98.5491 32.9168 99.4903 32.258 99.9925C31.5991 100.495 30.6579 100.368 30.1557 99.7089L27.1231 95.7304C25.2398 93.2597 24.5761 90.0693 25.3179 87.0526C26.2095 83.4265 28.9989 80.5701 32.6028 79.5928L34.2276 79.1522V79.1522C35.5547 78.7923 36.5785 77.5912 36.4224 76.2251L35.5394 68.4974L34.9437 66.192ZM41.573 82.4797C40.8795 82.1895 40.1917 82.7876 40.2771 83.5345L41.0869 90.622L42.001 102.406C42.1489 104.312 43.6515 105.925 45.5325 105.582C46.233 105.455 46.923 105.26 47.5923 104.997L48.3472 104.702C50.8132 103.736 52.7493 101.763 53.6686 99.2787C54.6653 96.5858 54.3601 93.5832 52.8419 91.1459L51.7738 89.4312C50.3034 87.0707 48.1354 85.2259 45.57 84.1523L41.573 82.4797V82.4797Z" fill="#826293"/>
<path d="M33.1693 119.312C31.5434 123.705 25.6293 125.565 19.9598 123.467C14.2902 121.368 11.0122 116.106 12.6382 111.713C14.2641 107.32 20.1782 105.46 25.8477 107.558C31.5173 109.657 34.7953 114.919 33.1693 119.312Z" fill="#826293"/>
<path d="M0 48.5H1363.5" stroke="#826293" stroke-width="2"/>
<path d="M0 104.5H1363.5" stroke="#826293" stroke-width="2"/>
<path d="M0 90.5H1363.5" stroke="#826293" stroke-width="2"/>
<path d="M0 76.5H1363.5" stroke="#826293" stroke-width="2"/>
<path d="M0 62.5H1363.5" stroke="#826293" stroke-width="2"/>
</svg>
