<svg width="925" height="347" viewBox="0 0 925 347" fill="none" xmlns="http://www.w3.org/2000/svg">
<path d="M1 293.5L54.114 299.5L120.964 298.5L122.01 298.375C160.33 293.798 198.247 286.318 235.434 276V276L260.319 265.344C274.788 259.147 288.28 250.881 300.371 240.805V240.805C311.367 231.642 321.103 221.066 329.327 209.352L337.999 197L350.054 180.046C362.097 163.109 376.592 148.058 393.063 135.386V135.386C403.34 127.479 414.33 120.543 425.889 114.667L438.014 108.503C453.734 100.512 470.026 93.7007 486.756 88.1252L532.14 73L595.327 57L676.83 41.5L784.889 28L859.065 23H925" stroke="currentColor"/>
<path d="M1 299L54.114 305L120.964 304L122.01 303.875C160.33 299.298 198.247 291.818 235.434 281.5V281.5L260.319 270.844C274.788 264.647 288.28 256.381 300.371 246.305V246.305C311.367 237.142 321.103 226.566 329.327 214.852L337.999 202.5L350.054 185.546C362.097 168.609 376.592 153.558 393.063 140.886V140.886C403.34 132.979 414.33 126.043 425.889 120.167L438.014 114.003C453.734 106.012 470.026 99.2007 486.756 93.6252L532.14 78.5L595.327 62.5L676.83 47L784.889 33.5L859.065 28.5H925" stroke="currentColor"/>
<path d="M1 304.5L54.114 310.5L120.964 309.5L122.01 309.375C160.33 304.798 198.247 297.318 235.434 287V287L260.319 276.344C274.788 270.147 288.28 261.881 300.371 251.805V251.805C311.367 242.642 321.103 232.066 329.327 220.352L337.999 208L350.054 191.046C362.097 174.109 376.592 159.058 393.063 146.386V146.386C403.34 138.479 414.33 131.543 425.889 125.667L438.014 119.503C453.734 111.512 470.026 104.701 486.756 99.1252L532.14 84L595.327 68L676.83 52.5L784.889 39L859.065 34H925" stroke="currentColor"/>
<path d="M1 310L54.114 316L120.964 315L122.01 314.875C160.33 310.298 198.247 302.818 235.434 292.5V292.5L260.319 281.844C274.788 275.647 288.28 267.381 300.371 257.305V257.305C311.367 248.142 321.103 237.566 329.327 225.852L337.999 213.5L350.054 196.546C362.097 179.609 376.592 164.558 393.063 151.886V151.886C403.34 143.979 414.33 137.043 425.889 131.167L438.014 125.003C453.734 117.012 470.026 110.201 486.756 104.625L532.14 89.5L595.327 73.5L676.83 58L784.889 44.5L859.065 39.5H925" stroke="currentColor"/>
<path d="M1 315.5L54.114 321.5L120.964 320.5L122.01 320.375C160.33 315.798 198.247 308.318 235.434 298V298L260.319 287.344C274.788 281.147 288.28 272.881 300.371 262.805V262.805C311.367 253.642 321.103 243.066 329.327 231.352L337.999 219L350.054 202.046C362.097 185.109 376.592 170.058 393.063 157.386V157.386C403.34 149.479 414.33 142.543 425.889 136.667L438.014 130.503C453.734 122.512 470.026 115.701 486.756 110.125L532.14 95L595.327 79L676.83 63.5L784.889 50L859.065 45H925" stroke="currentColor"/>
<path d="M1 321L54.114 327L120.964 326L122.01 325.875C160.33 321.298 198.247 313.818 235.434 303.5V303.5L260.319 292.844C274.788 286.647 288.28 278.381 300.371 268.305V268.305C311.367 259.142 321.103 248.566 329.327 236.852L337.999 224.5L350.054 207.546C362.097 190.609 376.592 175.558 393.063 162.886V162.886C403.34 154.979 414.33 148.043 425.889 142.167L438.014 136.003C453.734 128.012 470.026 121.201 486.756 115.625L532.14 100.5L595.327 84.5L676.83 69L784.889 55.5L859.065 50.5H925" stroke="currentColor"/>
<path d="M321.857 256.389L304 231M326.759 257.645C324 258.465 321.395 257.816 320.94 256.196C320.485 254.576 322.353 252.598 325.112 251.779C327.871 250.959 330.477 251.608 330.932 253.228C331.387 254.848 329.519 256.825 326.759 257.645Z" stroke="currentColor" stroke-width="2"/>
<path d="M730.738 49.1597L722.145 19.3333M734.962 51.9473C732.087 51.8216 729.835 50.3581 729.934 48.6784C730.033 46.9987 732.444 45.7389 735.32 45.8645C738.195 45.9901 740.447 47.4537 740.348 49.1334C740.249 50.8131 737.838 52.0729 734.962 51.9473Z" stroke="currentColor" stroke-width="2"/>
<path d="M318.143 213.611L336 239M313.241 212.355C316 211.535 318.605 212.184 319.06 213.804C319.515 215.424 317.647 217.402 314.888 218.221C312.129 219.041 309.523 218.392 309.068 216.772C308.613 215.152 310.481 213.175 313.241 212.355Z" stroke="currentColor" stroke-width="2"/>
<path d="M534.164 82.2131L543.821 111.712M529.843 79.5787C532.721 79.6012 535.023 80.9831 534.985 82.6653C534.947 84.3474 532.582 85.6929 529.704 85.6704C526.825 85.648 524.523 84.2661 524.562 82.5839C524.6 80.9018 526.965 79.5563 529.843 79.5787Z" stroke="currentColor" stroke-width="2"/>
<path d="M555.164 59.2131L564.821 88.7122M550.843 56.5787C553.721 56.6012 556.023 57.9831 555.985 59.6653C555.947 61.3474 553.582 62.6929 550.704 62.6704C547.825 62.648 545.523 61.2661 545.562 59.5839C545.6 57.9018 547.965 56.5563 550.843 56.5787Z" stroke="currentColor" stroke-width="2"/>
<path d="M847.834 37.898L846.278 68.8987M844.744 33.8901C847.423 34.9426 849.077 37.0577 848.438 38.6144C847.799 40.171 845.11 40.5797 842.431 39.5272C839.752 38.4748 838.098 36.3596 838.736 34.803C839.375 33.2463 842.065 32.8376 844.744 33.8901Z" stroke="currentColor" stroke-width="2"/>
<path d="M708.164 50.2131L717.821 79.7122M703.843 47.5787C706.721 47.6012 709.023 48.9831 708.985 50.6653C708.947 52.3474 706.582 53.6929 703.704 53.6704C700.825 53.648 698.523 52.2661 698.562 50.5839C698.6 48.9018 700.965 47.5563 703.843 47.5787Z" stroke="currentColor" stroke-width="2"/>
<path d="M377.215 159.6L407.246 186.05M370.448 160.587C373.672 158.716 377.151 158.692 378.218 160.532C379.286 162.372 377.538 165.38 374.314 167.25C371.09 169.121 367.611 169.146 366.544 167.305C365.476 165.465 367.224 162.457 370.448 160.587Z" stroke="currentColor" stroke-width="2"/>
<path d="M655.626 51.0312L663.018 90.3607M649.684 47.6447C653.377 48.1543 656.134 50.2758 655.843 52.3831C655.552 54.4905 652.323 55.7857 648.631 55.2761C644.939 54.7665 642.182 52.6451 642.472 50.5377C642.763 48.4304 645.992 47.1351 649.684 47.6447Z" stroke="currentColor" stroke-width="2"/>
<path d="M678.626 34.0312L686.018 73.3607M672.684 30.6447C676.377 31.1543 679.134 33.2758 678.843 35.3831C678.552 37.4905 675.323 38.7857 671.631 38.2761C667.939 37.7665 665.182 35.6451 665.472 33.5377C665.763 31.4304 668.992 30.1351 672.684 30.6447Z" stroke="currentColor" stroke-width="2"/>
<path d="M147.649 329.437C144.322 329.06 141.801 327.212 142.019 325.31C142.238 323.407 145.111 322.171 148.439 322.548C151.766 322.925 154.286 324.773 154.068 326.675C153.85 328.578 150.976 329.814 147.649 329.437Z" fill="currentColor"/>
<path d="M131.902 315.892L134.151 322.845L133.408 319.8L132.806 316.082C132.596 314.779 132.753 313.443 133.261 312.224C133.723 311.114 134.46 310.139 135.402 309.393L137.181 307.983L137.79 307.611C138.355 307.266 138.658 306.616 138.558 305.961L138.356 304.636C138.275 304.101 137.674 303.824 137.215 304.11L135.889 305.17C135.196 305.724 134.563 306.349 134.001 307.037L133.445 307.716C132.633 308.709 132.051 309.87 131.74 311.115C131.346 312.692 131.403 314.347 131.902 315.892Z" fill="currentColor"/>
<path d="M129.927 309.599L132.176 316.552L131.434 313.507L130.832 309.789C130.621 308.486 130.778 307.15 131.286 305.931C131.748 304.82 132.485 303.846 133.428 303.1L135.207 301.69L135.816 301.318C136.38 300.973 136.683 300.322 136.583 299.668L136.382 298.342C136.3 297.808 135.699 297.531 135.24 297.817L133.914 298.876C133.221 299.43 132.588 300.056 132.026 300.743L131.471 301.423C130.658 302.416 130.076 303.577 129.765 304.822C129.372 306.399 129.428 308.054 129.927 309.599Z" fill="currentColor"/>
<path d="M128.647 303.019L130.895 309.972L130.153 306.927L129.551 303.209C129.34 301.906 129.497 300.57 130.005 299.351C130.468 298.24 131.205 297.266 132.147 296.52L133.926 295.11L134.535 294.738C135.099 294.393 135.402 293.742 135.303 293.088L135.101 291.762C135.019 291.228 134.418 290.951 133.959 291.237L132.633 292.296C131.94 292.85 131.308 293.476 130.746 294.163L130.19 294.843C129.378 295.836 128.795 296.997 128.484 298.242C128.091 299.819 128.147 301.474 128.647 303.019Z" fill="currentColor"/>
<path d="M142.923 325.923L134.796 291.297M147.649 329.437C144.322 329.06 141.801 327.212 142.019 325.31C142.238 323.407 145.111 322.171 148.439 322.548C151.766 322.925 154.286 324.773 154.068 326.675C153.85 328.578 150.976 329.814 147.649 329.437ZM134.151 322.845L131.902 315.892C131.403 314.347 131.346 312.692 131.74 311.115C132.051 309.87 132.633 308.709 133.445 307.716L134.001 307.037C134.563 306.349 135.196 305.724 135.889 305.17L137.215 304.11C137.674 303.824 138.275 304.101 138.356 304.636L138.558 305.961C138.658 306.616 138.355 307.266 137.79 307.611L137.181 307.983L135.402 309.393C134.46 310.139 133.723 311.114 133.261 312.224C132.753 313.443 132.596 314.779 132.806 316.082L133.408 319.8L134.151 322.845ZM132.176 316.552L129.927 309.599C129.428 308.054 129.372 306.399 129.765 304.822C130.076 303.577 130.658 302.416 131.471 301.423L132.026 300.743C132.588 300.056 133.221 299.43 133.914 298.876L135.24 297.817C135.699 297.531 136.3 297.808 136.382 298.342L136.583 299.668C136.683 300.322 136.38 300.973 135.816 301.318L135.207 301.69L133.428 303.1C132.485 303.846 131.748 304.82 131.286 305.931C130.778 307.15 130.621 308.486 130.832 309.789L131.434 313.507L132.176 316.552ZM130.895 309.972L128.647 303.019C128.147 301.474 128.091 299.819 128.484 298.242C128.795 296.997 129.378 295.836 130.19 294.843L130.746 294.163C131.308 293.476 131.94 292.85 132.633 292.296L133.959 291.237C134.418 290.951 135.019 291.228 135.101 291.762L135.303 293.088C135.402 293.742 135.099 294.393 134.535 294.738L133.926 295.11L132.147 296.52C131.205 297.266 130.468 298.24 130.005 299.351C129.497 300.57 129.34 301.906 129.551 303.209L130.153 306.927L130.895 309.972Z" stroke="currentColor"/>
<path d="M457.649 128.437C454.322 128.06 451.801 126.212 452.019 124.31C452.238 122.407 455.111 121.171 458.439 121.548C461.766 121.925 464.286 123.773 464.068 125.675C463.85 127.578 460.976 128.814 457.649 128.437Z" fill="currentColor"/>
<path d="M441.902 114.892L444.151 121.845L443.408 118.8L442.806 115.082C442.596 113.779 442.753 112.443 443.261 111.224C443.723 110.114 444.46 109.139 445.402 108.393L447.181 106.983L447.79 106.611C448.355 106.266 448.658 105.616 448.558 104.961L448.356 103.636C448.275 103.101 447.674 102.824 447.215 103.11L445.889 104.17C445.196 104.724 444.563 105.349 444.001 106.037L443.445 106.716C442.633 107.709 442.051 108.87 441.74 110.115C441.346 111.692 441.403 113.347 441.902 114.892Z" fill="currentColor"/>
<path d="M439.927 108.599L442.176 115.552L441.434 112.507L440.832 108.789C440.621 107.486 440.778 106.15 441.286 104.931C441.748 103.82 442.485 102.846 443.428 102.1L445.207 100.69L445.816 100.318C446.38 99.973 446.683 99.3223 446.583 98.6682L446.382 97.3425C446.3 96.8075 445.699 96.5309 445.24 96.8169L443.914 97.8764C443.221 98.4304 442.588 99.0562 442.026 99.7434L441.471 100.423C440.658 101.416 440.076 102.577 439.765 103.822C439.372 105.399 439.428 107.054 439.927 108.599Z" fill="currentColor"/>
<path d="M438.647 102.019L440.895 108.972L440.153 105.927L439.551 102.209C439.34 100.906 439.497 99.5696 440.005 98.3506C440.468 97.2404 441.205 96.2661 442.147 95.5196L443.926 94.1101L444.535 93.7379C445.099 93.393 445.402 92.7424 445.303 92.0882L445.101 90.7625C445.019 90.2275 444.418 89.9509 443.959 90.2369L442.633 91.2965C441.94 91.8505 441.308 92.4763 440.746 93.1634L440.19 93.8432C439.378 94.8363 438.795 95.9972 438.484 97.242C438.091 98.8188 438.147 100.474 438.647 102.019Z" fill="currentColor"/>
<path d="M452.923 124.923L444.796 90.2974M457.649 128.437C454.322 128.06 451.801 126.212 452.019 124.31C452.238 122.407 455.111 121.171 458.439 121.548C461.766 121.925 464.286 123.773 464.068 125.675C463.85 127.578 460.976 128.814 457.649 128.437ZM444.151 121.845L441.902 114.892C441.403 113.347 441.346 111.692 441.74 110.115C442.051 108.87 442.633 107.709 443.445 106.716L444.001 106.037C444.563 105.349 445.196 104.724 445.889 104.17L447.215 103.11C447.674 102.824 448.275 103.101 448.356 103.636L448.558 104.961C448.658 105.616 448.355 106.266 447.79 106.611L447.181 106.983L445.402 108.393C444.46 109.139 443.723 110.114 443.261 111.224C442.753 112.443 442.596 113.779 442.806 115.082L443.408 118.8L444.151 121.845ZM442.176 115.552L439.927 108.599C439.428 107.054 439.372 105.399 439.765 103.822C440.076 102.577 440.658 101.416 441.471 100.423L442.026 99.7434C442.588 99.0562 443.221 98.4304 443.914 97.8764L445.24 96.8169C445.699 96.5309 446.3 96.8075 446.382 97.3425L446.583 98.6682C446.683 99.3223 446.38 99.973 445.816 100.318L445.207 100.69L443.428 102.1C442.485 102.846 441.748 103.82 441.286 104.931C440.778 106.15 440.621 107.486 440.832 108.789L441.434 112.507L442.176 115.552ZM440.895 108.972L438.647 102.019C438.147 100.474 438.091 98.8188 438.484 97.242C438.795 95.9972 439.378 94.8363 440.19 93.8432L440.746 93.1634C441.308 92.4763 441.94 91.8505 442.633 91.2965L443.959 90.2369C444.418 89.9509 445.019 90.2275 445.101 90.7625L445.303 92.0882C445.402 92.7424 445.099 93.393 444.535 93.7379L443.926 94.1101L442.147 95.5196C441.205 96.2661 440.468 97.2404 440.005 98.3506C439.497 99.5696 439.34 100.906 439.551 102.209L440.153 105.927L440.895 108.972Z" stroke="currentColor"/>
<path d="M818.116 19.6562C815.124 21.1599 813.398 23.7651 814.26 25.475C815.122 27.1849 818.246 27.3521 821.238 25.8483C824.23 24.3446 825.956 21.7394 825.094 20.0295C824.232 18.3196 821.107 18.1524 818.116 19.6562Z" fill="currentColor"/>
<path d="M808.021 37.8093L807.728 30.5074L808.084 33.6211L808.804 37.3186C809.056 38.6138 809.666 39.8134 810.564 40.7818C811.381 41.6638 812.41 42.3233 813.552 42.6982L815.708 43.406L816.408 43.5447C817.057 43.6733 817.566 44.1792 817.699 44.8274L817.968 46.1412C818.076 46.6713 817.608 47.1386 817.078 47.0289L815.468 46.4929C814.626 46.2126 813.816 45.844 813.051 45.3934L812.295 44.9477C811.189 44.2964 810.242 43.4084 809.52 42.3477C808.605 41.0041 808.086 39.4316 808.021 37.8093Z" fill="currentColor"/>
<path d="M808.343 44.3971L808.05 37.0953L808.405 40.2089L809.126 43.9064C809.378 45.2017 809.988 46.4013 810.886 47.3697C811.703 48.2516 812.732 48.9112 813.874 49.286L816.03 49.9939L816.73 50.1326C817.379 50.2611 817.888 50.767 818.021 51.4153L818.29 52.729C818.398 53.2592 817.93 53.7265 817.4 53.6168L815.79 53.0807C814.948 52.8004 814.138 52.4319 813.373 51.9813L812.617 51.5355C811.511 50.8843 810.564 49.9963 809.842 48.9355C808.927 47.5919 808.408 46.0194 808.343 44.3971Z" fill="currentColor"/>
<path d="M809.415 51.0143L809.122 43.7124L809.478 46.8261L810.198 50.5236C810.451 51.8188 811.06 53.0185 811.958 53.9868C812.776 54.8688 813.804 55.5283 814.946 55.9032L817.103 56.611L817.803 56.7497C818.452 56.8783 818.961 57.3842 819.093 58.0324L819.362 59.3462C819.471 59.8764 819.002 60.3436 818.473 60.234L816.862 59.6979C816.02 59.4176 815.21 59.049 814.446 58.5985L813.689 58.1527C812.584 57.5014 811.636 56.6134 810.914 55.5527C810 54.2091 809.48 52.6366 809.415 51.0143Z" fill="currentColor"/>
<path d="M814.895 24.5877L819.237 59.8881M818.116 19.6562C815.124 21.1599 813.398 23.7651 814.26 25.475C815.122 27.1849 818.246 27.3521 821.238 25.8483C824.23 24.3446 825.956 21.7394 825.094 20.0295C824.232 18.3196 821.107 18.1524 818.116 19.6562ZM807.728 30.5074L808.021 37.8093C808.086 39.4316 808.605 41.0041 809.52 42.3477C810.242 43.4084 811.189 44.2964 812.295 44.9477L813.051 45.3934C813.816 45.844 814.626 46.2126 815.468 46.4929L817.078 47.0289C817.608 47.1386 818.076 46.6713 817.968 46.1412L817.699 44.8274C817.566 44.1792 817.057 43.6733 816.408 43.5447L815.708 43.406L813.552 42.6982C812.41 42.3233 811.381 41.6638 810.564 40.7818C809.666 39.8134 809.056 38.6138 808.804 37.3186L808.084 33.6211L807.728 30.5074ZM808.05 37.0953L808.343 44.3971C808.408 46.0194 808.927 47.5919 809.842 48.9355C810.564 49.9963 811.511 50.8843 812.617 51.5355L813.373 51.9813C814.138 52.4319 814.948 52.8004 815.79 53.0807L817.4 53.6168C817.93 53.7265 818.398 53.2592 818.29 52.729L818.021 51.4153C817.888 50.767 817.379 50.2611 816.73 50.1326L816.03 49.9939L813.874 49.286C812.732 48.9112 811.703 48.2516 810.886 47.3697C809.988 46.4013 809.378 45.2017 809.126 43.9064L808.405 40.2089L808.05 37.0953ZM809.122 43.7124L809.415 51.0143C809.48 52.6366 810 54.2091 810.914 55.5527C811.636 56.6134 812.584 57.5014 813.689 58.1527L814.446 58.5985C815.21 59.049 816.02 59.4176 816.862 59.6979L818.473 60.234C819.002 60.3436 819.471 59.8764 819.362 59.3462L819.093 58.0324C818.961 57.3842 818.452 56.8783 817.803 56.7497L817.103 56.611L814.946 55.9032C813.804 55.5283 812.776 54.8688 811.958 53.9868C811.06 53.0185 810.451 51.8188 810.198 50.5236L809.478 46.8261L809.122 43.7124Z" stroke="currentColor"/>
<path d="M239.22 271.273C242.547 271.65 245.067 273.498 244.849 275.4C244.631 277.303 241.757 278.539 238.43 278.162C235.103 277.785 232.582 275.937 232.801 274.035C233.019 272.132 235.893 270.896 239.22 271.273Z" fill="currentColor"/>
<path d="M254.966 284.818L252.718 277.865L253.46 280.91L254.062 284.628C254.273 285.931 254.115 287.267 253.608 288.486C253.145 289.597 252.408 290.571 251.466 291.317L249.687 292.727L249.078 293.099C248.514 293.444 248.211 294.095 248.31 294.749L248.512 296.074C248.594 296.609 249.194 296.886 249.654 296.6L250.979 295.54C251.673 294.986 252.305 294.361 252.867 293.674L253.423 292.994C254.235 292.001 254.818 290.84 255.128 289.595C255.522 288.018 255.466 286.363 254.966 284.818Z" fill="currentColor"/>
<path d="M256.941 291.111L254.692 284.158L255.435 287.203L256.037 290.922C256.247 292.224 256.09 293.561 255.582 294.779C255.12 295.89 254.383 296.864 253.441 297.61L251.662 299.02L251.053 299.392C250.488 299.737 250.186 300.388 250.285 301.042L250.487 302.368C250.568 302.903 251.169 303.179 251.628 302.893L252.954 301.834C253.647 301.28 254.28 300.654 254.842 299.967L255.398 299.287C256.21 298.294 256.792 297.133 257.103 295.888C257.497 294.311 257.441 292.656 256.941 291.111Z" fill="currentColor"/>
<path d="M258.222 297.691L255.973 290.738L256.716 293.783L257.317 297.501C257.528 298.804 257.371 300.141 256.863 301.359C256.401 302.47 255.664 303.444 254.722 304.19L252.943 305.6L252.334 305.972C251.769 306.317 251.466 306.968 251.566 307.622L251.768 308.948C251.849 309.483 252.45 309.759 252.909 309.473L254.235 308.414C254.928 307.86 255.561 307.234 256.123 306.547L256.679 305.867C257.491 304.874 258.073 303.713 258.384 302.468C258.778 300.891 258.721 299.236 258.222 297.691Z" fill="currentColor"/>
<path d="M243.946 274.787L252.073 309.413M239.22 271.273C242.547 271.65 245.067 273.498 244.849 275.4C244.631 277.303 241.757 278.539 238.43 278.162C235.103 277.785 232.582 275.937 232.801 274.035C233.019 272.132 235.893 270.896 239.22 271.273ZM252.718 277.865L254.966 284.818C255.466 286.363 255.522 288.018 255.128 289.595C254.818 290.84 254.235 292.001 253.423 292.994L252.867 293.674C252.305 294.361 251.673 294.986 250.979 295.54L249.654 296.6C249.194 296.886 248.594 296.609 248.512 296.074L248.31 294.749C248.211 294.095 248.514 293.444 249.078 293.099L249.687 292.727L251.466 291.317C252.408 290.571 253.145 289.597 253.608 288.486C254.115 287.267 254.273 285.931 254.062 284.628L253.46 280.91L252.718 277.865ZM254.692 284.158L256.941 291.111C257.441 292.656 257.497 294.311 257.103 295.888C256.792 297.133 256.21 298.294 255.398 299.287L254.842 299.967C254.28 300.654 253.647 301.28 252.954 301.834L251.628 302.893C251.169 303.179 250.568 302.903 250.487 302.368L250.285 301.042C250.186 300.388 250.488 299.737 251.053 299.392L251.662 299.02L253.441 297.61C254.383 296.864 255.12 295.89 255.582 294.779C256.09 293.561 256.247 292.224 256.037 290.922L255.435 287.203L254.692 284.158ZM255.973 290.738L258.222 297.691C258.721 299.236 258.778 300.891 258.384 302.468C258.073 303.713 257.491 304.874 256.679 305.867L256.123 306.547C255.561 307.234 254.928 307.86 254.235 308.414L252.909 309.473C252.45 309.759 251.849 309.483 251.768 308.948L251.566 307.622C251.466 306.968 251.769 306.317 252.334 305.972L252.943 305.6L254.722 304.19C255.664 303.444 256.401 302.47 256.863 301.359C257.371 300.141 257.528 298.804 257.317 297.501L256.716 293.783L255.973 290.738Z" stroke="currentColor"/>
<path d="M23.855 320.023L21.5305 318.121C19.6877 316.613 18.53 314.416 18.3207 312.044V312.044C18.0807 309.324 19.1166 306.634 21.1264 304.785V304.785C22.8711 303.18 25.1899 302.347 27.5571 302.475L28.4426 302.523C31.1263 302.668 33.6618 303.799 35.5623 305.7L35.7463 305.884C37.8296 307.967 39 310.793 39 313.739V314.173C39 316.572 38.133 318.89 36.5587 320.701V320.701C35.0754 322.406 33.0553 323.556 30.8312 323.961L28.5086 324.383C25.4662 324.936 22.3299 324.632 19.4502 323.505L17.6063 322.784C14.6034 321.609 12.0854 319.454 10.4606 316.669V316.669C8.86538 313.934 8.22214 310.747 8.63162 307.608L8.80229 306.3C9.20712 303.196 10.4067 300.249 12.2847 297.745L14.1936 295.2C15.2675 293.768 16.4924 292.456 17.847 291.286V291.286C19.9445 289.474 21.7257 287.326 23.1174 284.929L23.5858 284.123C24.7059 282.194 25.5392 280.112 26.0598 277.943V277.943C26.4816 276.186 26.6947 274.385 26.6947 272.577V270.035C26.6947 268.19 26.4227 266.355 25.8876 264.589L25.3251 262.732C24.6736 260.582 23.432 258.659 21.7414 257.179L20.705 256.272C20.5968 256.178 20.5016 256.069 20.4218 255.95V255.95C19.7916 255.004 18.4123 254.976 17.744 255.895L17.229 256.603L15.421 259.616C14.2692 261.536 13.4706 263.646 13.063 265.848V265.848C12.6877 267.874 12.6492 269.949 12.9491 271.988L13.6794 276.954V276.954C14.7786 281.822 16.5354 286.518 18.9014 290.912L20.3053 293.519L27.1679 311.031L34.2672 330.908L35.274 335.775C35.5451 337.085 35.4857 338.442 35.1012 339.724L35.0663 339.84C34.5498 341.562 33.4488 343.049 31.9531 344.047L31.2712 344.501C30.4473 345.05 29.4792 345.344 28.489 345.344V345.344C26.2952 345.344 24.356 343.918 23.7016 341.824L22.4351 337.771" stroke="currentColor" stroke-width="3" stroke-linecap="round"/>
<circle cx="22.4352" cy="336.115" r="7.33588" fill="currentColor"/>
<path d="M206.016 308.011L216.718 302.015M209.273 312.162L219.859 306.166M182.983 298.787L200.898 323L223 310.317L209.041 291.869M196.012 295.098L212.298 316.458M180.667 303.449C178.121 304.178 175.628 303.298 175.099 301.484C174.571 299.669 176.206 297.608 178.753 296.879C181.299 296.15 183.792 297.03 184.321 298.844C184.85 300.658 183.214 302.72 180.667 303.449ZM194.042 299.053C191.724 299.717 189.454 298.915 188.973 297.264C188.492 295.612 189.981 293.735 192.299 293.071C194.618 292.407 196.887 293.208 197.369 294.86C197.85 296.512 196.361 298.389 194.042 299.053ZM207.104 295.763C204.955 296.379 202.85 295.636 202.404 294.104C201.957 292.572 203.338 290.832 205.488 290.216C207.638 289.601 209.743 290.344 210.189 291.875C210.635 293.407 209.254 295.148 207.104 295.763Z" stroke="currentColor" stroke-width="2"/>
<path d="M349.416 189.347L356.756 179.518M345.726 185.576L353.05 175.862M355.559 213.386L333.888 192.468L349.344 172.207L365.815 188.452M360.916 200.949L341.86 182.018M350.635 215.074C349.58 217.504 350.128 220.09 351.858 220.851C353.588 221.611 355.845 220.258 356.9 217.829C357.955 215.399 357.407 212.812 355.677 212.052C353.947 211.291 351.69 212.644 350.635 215.074ZM356.737 202.386C355.777 204.598 356.276 206.953 357.851 207.645C359.426 208.338 361.481 207.106 362.441 204.894C363.401 202.682 362.903 200.327 361.328 199.635C359.753 198.942 357.698 200.174 356.737 202.386ZM361.702 189.864C360.811 191.916 361.273 194.099 362.734 194.741C364.194 195.383 366.1 194.241 366.991 192.19C367.881 190.139 367.419 187.955 365.958 187.313C364.498 186.671 362.592 187.813 361.702 189.864Z" stroke="currentColor" stroke-width="2"/>
<path d="M769.094 28.2116L756.827 28.2409M768.268 23.0003L756.103 23.0863M784.726 47.4789L780.86 17.6084L755.379 17.9316L758.596 40.8411M771.549 44.3614L767.717 17.7751M789.018 44.533C791.597 45.1355 793.347 47.1174 792.926 48.9597C792.505 50.8021 790.072 51.8072 787.493 51.2047C784.914 50.6022 783.164 48.6203 783.585 46.778C784.006 44.9357 786.439 43.9306 789.018 44.533ZM775.194 41.8645C777.543 42.413 779.135 44.2174 778.752 45.8947C778.369 47.572 776.154 48.4871 773.806 47.9386C771.457 47.3901 769.865 45.5857 770.248 43.9084C770.631 42.2311 772.846 41.316 775.194 41.8645ZM762.182 38.3815C764.36 38.8901 765.837 40.5633 765.482 42.1186C765.126 43.6739 763.073 44.5225 760.895 44.0139C758.717 43.5052 757.24 41.8321 757.596 40.2768C757.951 38.7214 760.005 37.8729 762.182 38.3815Z" stroke="currentColor" stroke-width="2"/>
<path d="M611.901 56.651L623.521 52.7171M611 51.4524L622.541 47.6049M603.329 79.9343L597.341 50.4156L621.561 42.4927L625.915 65.2135M614.793 72.7283L609.834 46.3291M598.316 78.5322C596.069 79.9354 595.053 82.3761 596.047 83.9837C597.04 85.5914 599.667 85.7571 601.913 84.3539C604.16 82.9507 605.176 80.51 604.182 78.9024C603.189 77.2947 600.562 77.129 598.316 78.5322ZM610.537 71.5424C608.491 72.8199 607.567 75.042 608.471 76.5056C609.376 77.9693 611.767 78.1202 613.812 76.8427C615.858 75.5652 616.783 73.343 615.878 71.8794C614.974 70.4158 612.582 70.2649 610.537 71.5424ZM621.727 64.044C619.83 65.2286 618.972 67.2891 619.811 68.6463C620.65 70.0035 622.867 70.1434 624.764 68.9588C626.661 67.7742 627.518 65.7137 626.68 64.3565C625.841 62.9993 623.623 62.8594 621.727 64.044Z" stroke="currentColor" stroke-width="2"/>
<path d="M98.8975 329.641L83.7107 303.168L62.2339 311.493L73.4492 332.084M86.139 331.075L73.3701 307.176M101.762 325.689C104.257 325.402 106.462 326.591 106.687 328.345C106.912 330.1 105.072 331.755 102.577 332.043C100.082 332.33 97.8771 331.141 97.6521 329.387C97.4271 327.632 99.2671 325.977 101.762 325.689ZM88.5738 327.723C90.8452 327.461 92.8526 328.544 93.0575 330.141C93.2624 331.739 91.5871 333.246 89.3157 333.508C87.0443 333.769 85.0369 332.687 84.832 331.089C84.6271 329.492 86.3024 327.985 88.5738 327.723ZM75.8437 328.783C77.9499 328.54 79.8114 329.544 80.0014 331.025C80.1914 332.506 78.6379 333.904 76.5317 334.147C74.4255 334.389 72.5641 333.385 72.3741 331.904C72.1841 330.423 73.7375 329.025 75.8437 328.783Z" stroke="currentColor" stroke-width="2"/>
<path d="M487.788 112.251L473.485 85.2899L491.976 71.5562L503.42 92.0214M495.802 102.22L482.388 78.6773M482.917 112.568C481.344 114.525 481.175 117.025 482.539 118.15C483.904 119.276 486.285 118.602 487.858 116.644C489.432 114.686 489.601 112.187 488.236 111.061C486.872 109.936 484.49 110.61 482.917 112.568ZM491.668 102.493C490.236 104.276 490.082 106.551 491.324 107.576C492.566 108.601 494.734 107.987 496.167 106.205C497.599 104.423 497.753 102.147 496.511 101.122C495.268 100.097 493.1 100.711 491.668 102.493ZM499.35 92.2878C498.022 93.9404 497.88 96.0505 499.031 97.0008C500.183 97.9512 502.194 97.3818 503.522 95.7292C504.85 94.0765 504.993 91.9664 503.841 91.0161C502.689 90.0658 500.678 90.6351 499.35 92.2878Z" stroke="currentColor" stroke-width="2"/>
<path d="M306.898 280.641L291.711 254.168L270.234 262.493L281.449 283.084M294.139 282.075L281.37 258.176M309.762 276.689C312.257 276.402 314.462 277.591 314.687 279.345C314.912 281.1 313.072 282.755 310.577 283.043C308.082 283.33 305.877 282.141 305.652 280.387C305.427 278.632 307.267 276.977 309.762 276.689ZM296.574 278.723C298.845 278.461 300.853 279.544 301.058 281.141C301.262 282.739 299.587 284.246 297.316 284.508C295.044 284.769 293.037 283.687 292.832 282.089C292.627 280.492 294.302 278.985 296.574 278.723ZM283.844 279.783C285.95 279.54 287.811 280.544 288.001 282.025C288.191 283.506 286.638 284.904 284.532 285.147C282.426 285.389 280.564 284.385 280.374 282.904C280.184 281.423 281.738 280.025 283.844 279.783Z" stroke="currentColor" stroke-width="2"/>
<path d="M897.792 41.4261L894.149 11.1243L871.127 10.4007L873.411 33.7365M885.487 37.7638L883.064 10.7759M901.973 38.9062C904.382 39.6158 905.947 41.5717 905.469 43.2748C904.991 44.9779 902.651 45.7833 900.242 45.0737C897.833 44.3641 896.267 42.4082 896.745 40.7051C897.223 39.002 899.563 38.1966 901.973 38.9062ZM889.037 35.6284C891.231 36.2744 892.656 38.0551 892.221 39.6057C891.785 41.1562 889.655 41.8895 887.461 41.2434C885.268 40.5974 883.843 38.8167 884.278 37.2661C884.713 35.7156 886.844 34.9823 889.037 35.6284ZM876.904 31.6327C878.938 32.2318 880.26 33.883 879.856 35.3208C879.452 36.7586 877.477 37.4385 875.443 36.8394C873.409 36.2404 872.088 34.5892 872.491 33.1514C872.895 31.7136 874.87 31.0337 876.904 31.6327Z" stroke="currentColor" stroke-width="2"/>
<path d="M413.425 134.631L390.611 114.358L372.894 129.077L390.072 145.035M401.783 140.046L382.08 121.445M414.884 129.973C417.158 128.907 419.627 129.334 420.398 130.926C421.169 132.518 419.951 134.672 417.676 135.738C415.402 136.804 412.934 136.377 412.163 134.785C411.392 133.193 412.61 131.038 414.884 129.973ZM403.026 136.093C405.097 135.123 407.344 135.511 408.046 136.961C408.748 138.41 407.639 140.372 405.569 141.342C403.498 142.312 401.251 141.923 400.549 140.474C399.847 139.025 400.956 137.063 403.026 136.093ZM391.293 141.144C393.213 140.245 395.297 140.605 395.948 141.949C396.599 143.293 395.57 145.112 393.651 146.011C391.731 146.911 389.647 146.551 388.996 145.207C388.345 143.863 389.374 142.044 391.293 141.144Z" stroke="currentColor" stroke-width="2"/>
</svg>
