<svg width="3180" height="4185" viewBox="0 0 3180 4185" fill="none" xmlns="http://www.w3.org/2000/svg">
<path d="M746.096 2433.4L885.5 2248.5L1031.5 2019L1260.5 1626.5L1463.5 1229.5L1724 810.5L1869.5 532.5L1936.23 432.273C1973.89 375.702 2019.27 324.671 2071.06 280.659L2087.45 266.728C2141.73 220.601 2203.69 184.369 2270.5 159.685L2303.71 147.416C2349.21 130.605 2397.33 122 2445.84 122C2518.95 122 2590.73 141.544 2653.75 178.607L2734.37 226.023C2801.28 265.373 2860.81 316.093 2910.28 375.904L2928.54 397.977C2977.6 457.296 3013.31 526.489 3033.24 600.848C3045.36 646.087 3051.5 692.721 3051.5 739.557V837.856C3051.5 974.409 3029.69 1110.09 2986.9 1239.76L2927.15 1420.82C2889.77 1534.13 2844.22 1644.57 2790.86 1751.28L2668 1997L2403 2557L2063.5 3130.5L1900.5 3347L1538.5 3739.5L1401.4 3874.55C1294.15 3980.19 1164.71 4060.62 1022.5 4110L887.677 4142.25C769.62 4170.5 647.293 4176.2 527.122 4159.06L493.862 4154.32C431.892 4145.48 371.36 4128.49 313.837 4103.81L229.602 4067.66C179.609 4046.2 135.543 4012.98 101.158 3970.82C60.2502 3920.67 34.6269 3859.81 27.3423 3795.49L16.8255 3702.64C8.01309 3624.84 13.2081 3546.09 32.1644 3470.13L44.4543 3420.87C61.1008 3354.16 85.0419 3289.48 115.845 3228.01L128.129 3203.5C165.604 3128.71 210.893 3058.1 263.238 2992.85L365 2866L401.346 2817.17C453.675 2746.87 512.263 2681.45 576.394 2621.72C638.346 2564.02 695.13 2501 746.096 2433.4Z" fill="#508125" stroke="black" stroke-width="25"/>
<path d="M677.513 3487.69L912.5 3264.5L1036.41 3149.28C1082.03 3106.86 1123.33 3060.04 1159.72 3009.49L1204.96 2946.66C1234.13 2906.15 1269.62 2870.59 1310.08 2841.34L1363.93 2802.41C1432.33 2752.96 1477.61 2677.74 1489.3 2594.15C1494.72 2555.4 1507.42 2518.03 1526.75 2484L1603.93 2348.11C1679.84 2214.45 1782.27 2097.71 1904.94 2005.07L2005 1929.5C2142.76 1807.3 2259.9 1663.66 2351.88 1504.13L2525.5 1203L2712.89 758.165C2725.25 728.841 2733.81 698.062 2738.38 666.572L2743.85 628.811C2754.52 555.268 2735.68 480.49 2691.45 420.773L2670.35 392.28C2639.39 350.483 2593.1 322.699 2541.65 315.045C2499.99 308.847 2457.45 316.227 2420.31 336.094L2308.03 396.161C2245.66 429.526 2192.6 477.923 2153.66 536.967C2141.57 555.295 2128.08 572.659 2113.31 588.903L1890 834.5C1766.92 1001.36 1683 1193.79 1644.48 1397.53L1637.25 1435.77C1615.49 1550.89 1580.75 1663.17 1533.71 1770.46L1519 1804L1451.11 1942.42C1402.29 2041.95 1339.4 2133.94 1264.36 2215.56C1199.37 2286.24 1143.45 2364.76 1097.89 2449.28L976.5 2674.5L872.5 2832L653.5 3085.5L485.723 3294.92C460.786 3326.04 441.777 3361.48 429.639 3399.47L395.852 3505.23C389.887 3523.9 391.949 3544.21 401.543 3561.3C419.995 3594.16 461.003 3606.75 494.715 3589.89L623.878 3525.31C643.517 3515.49 661.592 3502.81 677.513 3487.69Z" fill="#659C2C"/>
<g filter="url(#filter0_d_1039_846)">
<path d="M1285.19 3519.85L1257.82 3565.47C1247.67 3582.39 1253.02 3604.32 1269.82 3614.66C1275.5 3618.15 1282.03 3620 1288.69 3620H1309.07C1340.34 3620 1369.62 3604.66 1387.42 3578.95L1395.74 3566.94C1406.67 3551.15 1409.97 3531.3 1404.74 3512.81L1398.15 3489.51C1394.22 3475.6 1381.52 3466 1367.07 3466C1361.77 3466 1356.55 3467.3 1351.88 3469.79L1319.97 3486.79C1305.6 3494.45 1293.57 3505.88 1285.19 3519.85Z" fill="#345C0F"/>
<path d="M1285.19 3519.85L1257.82 3565.47C1247.67 3582.39 1253.02 3604.32 1269.82 3614.66C1275.5 3618.15 1282.03 3620 1288.69 3620H1309.07C1340.34 3620 1369.62 3604.66 1387.42 3578.95L1395.74 3566.94C1406.67 3551.15 1409.97 3531.3 1404.74 3512.81L1398.15 3489.51C1394.22 3475.6 1381.52 3466 1367.07 3466C1361.77 3466 1356.55 3467.3 1351.88 3469.79L1319.97 3486.79C1305.6 3494.45 1293.57 3505.88 1285.19 3519.85Z" stroke="black"/>
</g>
<g filter="url(#filter1_d_1039_846)">
<path d="M300.45 3441.41L309.1 3388.91C312.307 3369.44 299.254 3351.02 279.827 3347.6C273.265 3346.44 266.511 3347.13 260.316 3349.58L241.371 3357.08C212.297 3368.6 190.722 3393.65 183.64 3424.1L180.333 3438.33C175.983 3457.04 180.221 3476.71 191.888 3491.97L206.599 3511.21C215.379 3522.69 230.716 3526.94 244.154 3521.62C249.08 3519.67 253.449 3516.54 256.879 3512.5L280.284 3484.95C290.83 3472.53 297.801 3457.48 300.45 3441.41Z" fill="#345C0F"/>
<path d="M300.45 3441.41L309.1 3388.91C312.307 3369.44 299.254 3351.02 279.827 3347.6C273.265 3346.44 266.511 3347.13 260.316 3349.58L241.371 3357.08C212.297 3368.6 190.722 3393.65 183.64 3424.1L180.333 3438.33C175.983 3457.04 180.221 3476.71 191.888 3491.97L206.599 3511.21C215.379 3522.69 230.716 3526.94 244.154 3521.62C249.08 3519.67 253.449 3516.54 256.879 3512.5L280.284 3484.95C290.83 3472.53 297.801 3457.48 300.45 3441.41Z" stroke="black"/>
</g>
<g filter="url(#filter2_d_1039_846)">
<path d="M778.091 2720.34L807.298 2675.87C818.127 2659.38 813.672 2637.24 797.305 2626.23C791.778 2622.51 785.326 2620.4 778.668 2620.13L758.308 2619.3C727.062 2618.02 697.181 2632.16 678.349 2657.13L669.554 2668.79C657.988 2684.12 653.879 2703.82 658.351 2722.5L663.991 2746.06C667.356 2760.11 679.649 2770.22 694.091 2770.81C699.384 2771.03 704.649 2769.94 709.422 2767.64L741.994 2751.95C756.671 2744.88 769.149 2733.95 778.091 2720.34Z" fill="#345C0F"/>
<path d="M778.091 2720.34L807.298 2675.87C818.127 2659.38 813.672 2637.24 797.305 2626.23C791.778 2622.51 785.326 2620.4 778.668 2620.13L758.308 2619.3C727.062 2618.02 697.181 2632.16 678.349 2657.13L669.554 2668.79C657.988 2684.12 653.879 2703.82 658.351 2722.5L663.991 2746.06C667.356 2760.11 679.649 2770.22 694.091 2770.81C699.384 2771.03 704.649 2769.94 709.422 2767.64L741.994 2751.95C756.671 2744.88 769.149 2733.95 778.091 2720.34Z" stroke="black"/>
</g>
<g filter="url(#filter3_d_1039_846)">
<path d="M1909.59 2609.18L1893.22 2659.8C1887.15 2678.57 1897.31 2698.73 1916.01 2705.01C1922.33 2707.13 1929.11 2707.46 1935.6 2705.96L1955.45 2701.36C1985.92 2694.3 2010.98 2672.74 2022.52 2643.68L2027.91 2630.1C2034.99 2612.25 2033.73 2592.17 2024.47 2575.34L2012.78 2554.13C2005.81 2541.47 1991.28 2534.98 1977.2 2538.24C1972.04 2539.44 1967.25 2541.88 1963.26 2545.36L1936.01 2569.13C1923.73 2579.83 1914.6 2593.68 1909.59 2609.18Z" fill="#345C0F"/>
<path d="M1909.59 2609.18L1893.22 2659.8C1887.15 2678.57 1897.31 2698.73 1916.01 2705.01C1922.33 2707.13 1929.11 2707.46 1935.6 2705.96L1955.45 2701.36C1985.92 2694.3 2010.98 2672.74 2022.52 2643.68L2027.91 2630.1C2034.99 2612.25 2033.73 2592.17 2024.47 2575.34L2012.78 2554.13C2005.81 2541.47 1991.28 2534.98 1977.2 2538.24C1972.04 2539.44 1967.25 2541.88 1963.26 2545.36L1936.01 2569.13C1923.73 2579.83 1914.6 2593.68 1909.59 2609.18Z" stroke="black"/>
</g>
<g filter="url(#filter4_d_1039_846)">
<path d="M1267.73 2086.2L1291.73 2038.71C1300.62 2021.11 1293.7 1999.62 1276.19 1990.52C1270.28 1987.45 1263.63 1986.08 1256.98 1986.56L1236.66 1988.04C1205.47 1990.31 1177.38 2007.73 1161.49 2034.67L1154.07 2047.25C1144.31 2063.79 1142.45 2083.83 1149 2101.88L1157.27 2124.65C1162.2 2138.23 1175.56 2146.89 1189.97 2145.84C1195.26 2145.46 1200.36 2143.78 1204.85 2140.96L1235.44 2121.69C1249.22 2113.01 1260.38 2100.74 1267.73 2086.2Z" fill="#345C0F"/>
<path d="M1267.73 2086.2L1291.73 2038.71C1300.62 2021.11 1293.7 1999.62 1276.19 1990.52C1270.28 1987.45 1263.63 1986.08 1256.98 1986.56L1236.66 1988.04C1205.47 1990.31 1177.38 2007.73 1161.49 2034.67L1154.07 2047.25C1144.31 2063.79 1142.45 2083.83 1149 2101.88L1157.27 2124.65C1162.2 2138.23 1175.56 2146.89 1189.97 2145.84C1195.26 2145.46 1200.36 2143.78 1204.85 2140.96L1235.44 2121.69C1249.22 2113.01 1260.38 2100.74 1267.73 2086.2Z" stroke="black"/>
</g>
<g filter="url(#filter5_d_1039_846)">
<path d="M1626.86 1371.96L1635.33 1319.43C1638.48 1299.96 1625.36 1281.58 1605.92 1278.22C1599.36 1277.08 1592.6 1277.79 1586.42 1280.27L1567.5 1287.84C1538.46 1299.45 1516.97 1324.57 1510 1355.05L1506.74 1369.29C1502.45 1388.01 1506.75 1407.67 1518.47 1422.89L1533.25 1442.08C1542.07 1453.53 1557.42 1457.73 1570.84 1452.36C1575.76 1450.4 1580.12 1447.25 1583.53 1443.2L1606.84 1415.57C1617.35 1403.11 1624.27 1388.04 1626.86 1371.96Z" fill="#345C0F"/>
<path d="M1626.86 1371.96L1635.33 1319.43C1638.48 1299.96 1625.36 1281.58 1605.92 1278.22C1599.36 1277.08 1592.6 1277.79 1586.42 1280.27L1567.5 1287.84C1538.46 1299.45 1516.97 1324.57 1510 1355.05L1506.74 1369.29C1502.45 1388.01 1506.75 1407.67 1518.47 1422.89L1533.25 1442.08C1542.07 1453.53 1557.42 1457.73 1570.84 1452.36C1575.76 1450.4 1580.12 1447.25 1583.53 1443.2L1606.84 1415.57C1617.35 1403.11 1624.27 1388.04 1626.86 1371.96Z" stroke="black"/>
</g>
<g filter="url(#filter6_d_1039_846)">
<path d="M2024.27 2169.12L2000.86 2216.9C1992.18 2234.61 1999.37 2256.01 2016.99 2264.89C2022.94 2267.89 2029.6 2269.18 2036.24 2268.62L2056.54 2266.89C2087.7 2264.24 2115.58 2246.47 2131.14 2219.35L2138.41 2206.68C2147.96 2190.02 2149.57 2169.96 2142.8 2151.98L2134.25 2129.32C2129.16 2115.8 2115.69 2107.31 2101.29 2108.53C2096.01 2108.98 2090.93 2110.72 2086.48 2113.6L2056.13 2133.24C2042.45 2142.09 2031.44 2154.49 2024.27 2169.12Z" fill="#345C0F"/>
<path d="M2024.27 2169.12L2000.86 2216.9C1992.18 2234.61 1999.37 2256.01 2016.99 2264.89C2022.94 2267.89 2029.6 2269.18 2036.24 2268.62L2056.54 2266.89C2087.7 2264.24 2115.58 2246.47 2131.14 2219.35L2138.41 2206.68C2147.96 2190.02 2149.57 2169.96 2142.8 2151.98L2134.25 2129.32C2129.16 2115.8 2115.69 2107.31 2101.29 2108.53C2096.01 2108.98 2090.93 2110.72 2086.48 2113.6L2056.13 2133.24C2042.45 2142.09 2031.44 2154.49 2024.27 2169.12Z" stroke="black"/>
</g>
<g filter="url(#filter7_d_1039_846)">
<path d="M1775.36 2761.86L1828.51 2759.6C1848.22 2758.77 1864.93 2773.95 1865.99 2793.64C1866.35 2800.3 1864.86 2806.92 1861.67 2812.77L1851.94 2830.68C1837 2858.15 1809.54 2876.55 1778.45 2879.91L1763.93 2881.47C1744.83 2883.54 1725.81 2876.96 1712.07 2863.54L1694.75 2846.61C1684.41 2836.51 1682.04 2820.77 1688.94 2808.08C1691.47 2803.42 1695.11 2799.46 1699.53 2796.54L1729.7 2776.63C1743.3 2767.66 1759.08 2762.55 1775.36 2761.86Z" fill="#345C0F"/>
<path d="M1775.36 2761.86L1828.51 2759.6C1848.22 2758.77 1864.93 2773.95 1865.99 2793.64C1866.35 2800.3 1864.86 2806.92 1861.67 2812.77L1851.94 2830.68C1837 2858.15 1809.54 2876.55 1778.45 2879.91L1763.93 2881.47C1744.83 2883.54 1725.81 2876.96 1712.07 2863.54L1694.75 2846.61C1684.41 2836.51 1682.04 2820.77 1688.94 2808.08C1691.47 2803.42 1695.11 2799.46 1699.53 2796.54L1729.7 2776.63C1743.3 2767.66 1759.08 2762.55 1775.36 2761.86Z" stroke="black"/>
</g>
<path d="M1847.5 1409L1802.58 1363.11C1770.74 1330.59 1744.43 1293.08 1724.68 1252.08L1712.74 1227.29C1701.32 1203.58 1693.76 1178.2 1690.36 1152.11L1686.57 1123.14C1681.99 1088.03 1689.11 1052.39 1706.85 1021.74L1707.5 1020.61C1722.83 994.118 1745.59 972.706 1772.96 959.02L1776.1 957.448C1795.76 947.618 1817.44 942.5 1839.42 942.5V942.5C1866.88 942.5 1893.75 950.484 1916.75 965.479L1972 1001.5M2241 1597L2258.05 1600.64C2289.9 1607.45 2322.91 1606.67 2354.41 1598.37V1598.37C2382.81 1590.87 2409.3 1577.44 2432.13 1558.95L2451.82 1543.01C2462.9 1534.03 2472.86 1523.77 2481.5 1512.43L2485.36 1507.37C2506.53 1479.56 2518 1445.57 2518 1410.62V1410.62C2518 1400.23 2516.99 1389.87 2514.97 1379.68L2512.15 1365.39C2505.43 1331.37 2493.03 1298.73 2475.46 1268.84L2468.5 1257" stroke="black" stroke-width="22" stroke-linecap="round" stroke-linejoin="round"/>
<path d="M1825.24 996.252L1830.77 994.743C1846.84 990.361 1863.89 991.19 1879.46 997.11C1887.1 1000.02 1894.25 1004.1 1900.64 1009.22L1928.5 1031.5L1988 1094.5L2053.5 1166L2057.29 1171.44C2072.14 1192.78 2096.5 1205.5 2122.5 1205.5H2182.83C2208.53 1205.5 2234.15 1208.37 2259.21 1214.07L2263.77 1215.11C2286.84 1220.35 2309.23 1228.27 2330.47 1238.69L2358.82 1252.61C2390.65 1268.23 2417.55 1292.35 2436.55 1322.29L2444.4 1334.67C2458.84 1357.42 2466.5 1383.81 2466.5 1410.75V1414.59C2466.5 1435.54 2461.31 1456.16 2451.39 1474.61C2435.75 1503.71 2409.37 1525.56 2377.86 1535.51L2352.54 1543.5C2327.45 1551.41 2301 1554.09 2274.83 1551.37L2221.46 1545.82C2193.88 1542.94 2166.62 1537.53 2140.04 1529.65L2136.37 1528.57C2081.54 1512.31 2029.97 1486.63 1983.97 1452.66L1946.5 1425L1923.17 1410.92C1901.77 1398 1881.64 1383.1 1863.04 1366.41L1857.65 1361.57C1831.37 1337.99 1808.8 1310.58 1790.72 1280.25L1788.52 1276.57C1775.22 1254.27 1764.73 1230.43 1757.27 1205.57L1747.86 1174.21C1740.71 1150.36 1738.91 1125.23 1742.58 1100.61L1743.9 1091.8C1745.95 1078.04 1750.46 1064.64 1757.11 1052.42C1764.58 1038.69 1774.79 1026.47 1786.99 1016.71L1790.42 1013.96C1800.7 1005.74 1812.55 999.714 1825.24 996.252Z" fill="#132209" stroke="black"/>
<path d="M1918 841.5L1921.07 858.555C1925.62 883.79 1936.53 907.719 1952.49 927.787V927.787C1959.43 936.507 1967.38 944.528 1976.05 951.521V951.521C1989.58 962.426 2004.89 970.921 2021.3 976.635L2052.5 987.5M2303 1124L2346 1161L2350.11 1163.63C2383.67 1185.09 2422.67 1196.5 2462.5 1196.5V1196.5H2465.88C2488.09 1196.5 2509.77 1189.69 2528 1177V1177" stroke="black" stroke-width="22" stroke-linecap="round" stroke-linejoin="round"/>
<circle cx="2127.96" cy="735.962" r="181" transform="rotate(5.8303 2127.96 735.962)" fill="white" stroke="black" stroke-width="21"/>
<path d="M2673.69 973.126C2663.97 1068.37 2573.33 1138.29 2469.94 1127.73C2366.54 1117.17 2291.9 1030.38 2301.63 935.134C2311.35 839.892 2401.99 769.975 2505.39 780.533C2608.79 791.091 2683.42 877.884 2673.69 973.126Z" fill="white" stroke="black" stroke-width="21"/>
<path d="M2150 955L2109 1006.5L2092.29 1031.24C2086.79 1039.37 2082.45 1048.23 2079.4 1057.57L2070.68 1084.23C2067.99 1092.44 2068.51 1101.36 2072.12 1109.21V1109.21C2079.01 1124.17 2095.57 1132.11 2111.55 1128.11L2113.7 1127.58C2117.87 1126.53 2121.82 1124.77 2125.39 1122.37L2163 1097L2219.5 1052.5" stroke="black" stroke-width="22" stroke-linecap="round"/>
<path d="M2767.75 93.2929C2762.4 89.671 2756.72 86.5103 2750.77 83.8577L2672.25 48.8438C2617.03 24.2237 2557.26 11.5 2496.8 11.5H2474.79C2433.74 11.5 2392.81 16.2339 2352.84 25.608L2315.42 34.382C2209.42 59.2379 2109.06 103.849 2019.59 165.879L1917 237C1778.06 365.33 1658.33 513.011 1561.51 675.49L1490 795.5L1361 1093.5L1317.65 1179C1286.46 1240.52 1272.47 1309.33 1277.16 1378.14L1279.22 1408.29C1281.38 1440.1 1289.98 1471.14 1304.5 1499.52C1326.93 1543.4 1335.04 1593.21 1327.68 1641.94L1316.61 1715.28C1313.88 1733.38 1309.35 1751.17 1303.1 1768.37C1281.67 1827.36 1240.81 1877.3 1187.22 1909.97L1168.23 1921.56C1167.74 1921.85 1167.24 1922.11 1166.71 1922.33C1155.36 1927.09 1158.76 1944 1171.07 1944H1201.6C1204.17 1944 1206.71 1943.43 1209.03 1942.33L1244.81 1925.45C1288.37 1904.89 1322.72 1868.85 1341.18 1824.36L1391.9 1702.08C1406.26 1667.46 1416.96 1631.42 1423.81 1594.57L1441.36 1500.26C1446.77 1471.15 1449.5 1441.6 1449.5 1411.98C1449.5 1341.52 1464.93 1271.9 1494.71 1208.04L1513.09 1168.61C1541.87 1106.89 1579.77 1049.85 1625.52 999.401L1673.5 946.5L1808.5 795.5L1864.25 729.967C1927.42 655.706 2000.92 590.891 2082.5 537.5L2169.66 495.977C2195.32 483.755 2224.58 481.402 2251.86 489.367C2269.05 494.387 2287.18 495.347 2304.8 492.171L2362.1 481.846C2379.59 478.695 2397.63 481.11 2413.68 488.75C2425.08 494.182 2437.56 497 2450.19 497H2451.7C2445.47 508.656 2445.08 523.108 2451.87 535.529L2454.63 540.595C2457.84 546.463 2462.28 551.568 2467.64 555.563L2538 608L2573.01 636.178C2617.16 671.716 2650.76 718.645 2670.18 771.893C2682.63 806.033 2689 842.092 2689 878.431V985L2693.74 1058.62C2699.86 1153.68 2687.96 1249.05 2658.69 1339.7L2657.55 1343.21C2646.2 1378.35 2632.12 1412.55 2615.45 1445.5L2560.2 1554.64C2558.75 1557.53 2556.79 1560.12 2554.42 1562.32L2549.82 1566.58C2533.31 1581.88 2544.14 1609.5 2566.65 1609.5C2573.86 1609.5 2580.7 1606.36 2585.41 1600.91L2667.13 1506.11C2690.84 1478.6 2709.33 1446.99 2721.67 1412.84L2739.5 1363.5L2678.99 1565.31C2662.21 1621.27 2626.08 1669.44 2577.04 1701.21C2551.24 1717.92 2522.54 1729.65 2492.42 1735.8L2409.38 1752.75C2397.14 1755.25 2385.11 1758.66 2373.39 1762.95L2291.6 1792.92C2242.29 1810.99 2209.5 1857.92 2209.5 1910.44V1944.68C2209.5 1948.14 2208.43 1951.52 2206.44 1954.35L2199.67 1964C2189.95 1977.83 2207.12 1994.6 2220.72 1984.55C2222.55 1983.2 2224.04 1981.45 2225.09 1979.43L2239.56 1951.54C2249.64 1932.11 2273.82 1924.89 2292.91 1935.62L2297.14 1938C2309.77 1945.09 2325.58 1942.92 2335.83 1932.67C2356.19 1912.31 2391 1926.73 2391 1955.53V2018.5L2369.87 2173.9C2368.97 2180.54 2366.52 2186.87 2362.71 2192.39L2337.88 2228.34C2325.89 2245.71 2340.55 2268.97 2361.39 2265.64C2366.03 2264.9 2370.35 2262.81 2373.81 2259.63L2408.68 2227.64C2448.47 2191.13 2469.94 2138.79 2467.24 2084.85L2463.17 2003.41C2460.85 1956.97 2479.59 1911.96 2514.19 1880.89C2529.89 1866.78 2548.33 1856.04 2568.36 1849.35L2629.79 1828.8C2669.09 1815.66 2706.46 1797.34 2740.92 1774.33L2848.5 1702.5C2963.8 1610.06 3041.16 1478.51 3065.88 1332.81L3075.24 1277.66C3083.72 1227.72 3097.88 1178.91 3117.44 1132.18C3151.47 1050.87 3169 963.608 3169 875.464V713.833C3169 643.693 3158.23 573.969 3137.07 507.097L3134.76 499.799C3104.02 402.617 3050.94 313.981 2979.8 240.985L2955.88 216.447C2928.76 188.622 2897.85 164.773 2864.05 145.609L2780.75 98.3794C2776.67 96.0631 2772.29 94.3555 2767.75 93.2929Z" fill="url(#paint0_linear_1039_846)" stroke="black" stroke-width="22" stroke-linecap="round"/>
<path d="M2479.98 931.589L2478.51 943.002C2478.23 945.205 2476.21 946.755 2474.01 946.455L2460.27 944.582C2456.18 944.024 2454.03 949.27 2457.33 951.745L2461.67 955.003C2462.52 955.641 2463.08 956.592 2463.23 957.645L2467.16 985.479C2467.65 989.002 2472.16 990.171 2474.31 987.336L2490.12 966.456C2491.78 964.271 2495.09 964.361 2496.63 966.634L2501.71 974.163C2503.69 977.093 2508.21 976.206 2508.94 972.746L2513.34 951.783C2513.44 951.266 2513.65 950.776 2513.95 950.34L2521.45 939.413C2523.79 936.006 2519.91 931.782 2516.32 933.819C2516.11 933.939 2515.88 934.04 2515.65 934.118L2495.01 941.138C2492.83 941.878 2490.48 940.638 2489.86 938.425L2487.8 931.025C2486.63 926.823 2480.54 927.263 2479.98 931.589Z" fill="black" stroke="black" stroke-width="22" stroke-linecap="round"/>
<path d="M2143.49 702.271L2131.98 702.331C2129.76 702.342 2127.96 700.542 2127.96 698.321L2128 684.455C2128.01 680.329 2122.52 678.891 2120.51 682.491L2117.86 687.229C2117.34 688.157 2116.47 688.839 2115.44 689.126L2088.38 696.709C2084.95 697.669 2084.39 702.289 2087.48 704.042L2110.28 716.95C2112.66 718.301 2113.01 721.597 2110.96 723.419L2104.18 729.456C2101.53 731.804 2103.02 736.174 2106.54 736.434L2127.9 738.01C2128.43 738.048 2128.94 738.191 2129.41 738.43L2141.24 744.413C2144.93 746.278 2148.6 741.876 2146.1 738.583C2145.95 738.389 2145.83 738.181 2145.72 737.962L2136.02 718.429C2135 716.371 2135.92 713.878 2138.03 712.973L2145.09 709.948C2149.1 708.23 2147.85 702.248 2143.49 702.271Z" fill="black" stroke="black" stroke-width="22" stroke-linecap="round"/>
<path d="M2186.34 459.612L2175.31 472.029C2171.89 475.875 2170 480.843 2170 485.989C2170 497.593 2179.41 507 2191.01 507H2212.5H2248.11C2274.66 507 2301.17 509.126 2327.38 513.358L2340.82 515.529C2369.51 520.161 2397.57 528.075 2424.46 539.116L2435.72 543.743C2457.16 552.547 2477.42 563.968 2496.06 577.747C2524.43 598.728 2548.6 624.864 2567.31 654.789L2573.57 664.807C2578.85 673.253 2583.37 682.146 2587.09 691.385L2605.37 736.768C2609.31 746.572 2616.76 754.564 2626.26 759.195L2633.97 762.952C2653.44 772.441 2676.78 762.341 2683.2 741.654C2685.35 734.72 2685.31 727.292 2683.09 720.381L2670.16 680.174C2666.07 667.436 2660.48 655.23 2653.51 643.81L2640.27 622.131C2621.19 590.872 2597.68 562.486 2570.53 537.904C2538.11 508.543 2500.86 484.915 2460.47 468.117L2438.15 458.831C2418.42 450.627 2398 444.209 2377.13 439.653L2325.91 428.474C2297.48 422.27 2267.92 423.746 2240.25 432.75L2214.68 441.071C2203.76 444.626 2193.98 451.026 2186.34 459.612Z" fill="black" stroke="black" stroke-width="22" stroke-linecap="round"/>
<path d="M1887 1561L1876.47 1576.48C1864.06 1594.72 1868.77 1619.57 1887 1632L1906.88 1644.75C1922.55 1654.8 1942.85 1653.94 1957.62 1642.6C1959.87 1640.87 1961.95 1638.93 1963.82 1636.8L2002.5 1593C2020.64 1576.41 2019.15 1547.4 1999.4 1532.76L1995 1529.5L1970.23 1514.59C1954.21 1504.95 1933.85 1506.46 1919.42 1518.35C1916.49 1520.77 1913.88 1523.57 1911.66 1526.66L1887 1561Z" fill="#161411" stroke="black" stroke-width="22" stroke-linecap="round"/>
<path d="M2326.97 612.448L2096.61 465.33C2052.28 437.013 1993.37 450.122 1965.22 494.568L1847.3 680.78C1818.66 726.004 1833.02 785.949 1879.04 813.285L2107.57 949.022C2150.64 974.6 2206.16 962.351 2234.46 921.028L2354.22 746.197C2384.54 701.922 2372.2 641.333 2326.97 612.448Z" fill="white" fill-opacity="0.64" stroke="black" stroke-width="22" stroke-linecap="round"/>
<path d="M2305.69 1063.05L2536.04 1210.17C2580.38 1238.49 2639.29 1225.38 2667.44 1180.93L2785.36 994.72C2814 949.496 2799.64 889.551 2753.61 862.215L2525.08 726.478C2482.02 700.9 2426.5 713.149 2398.19 754.472L2278.44 929.303C2248.12 973.578 2260.46 1034.17 2305.69 1063.05Z" fill="white" fill-opacity="0.64" stroke="black" stroke-width="22" stroke-linecap="round"/>
<rect x="2307.62" y="803" width="51" height="60.1822" transform="rotate(36.2847 2307.62 803)" fill="black"/>
<defs>
<filter id="filter0_d_1039_846" x="1252.18" y="3465.5" width="160.492" height="161" filterUnits="userSpaceOnUse" color-interpolation-filters="sRGB">
<feFlood flood-opacity="0" result="BackgroundImageFix"/>
<feColorMatrix in="SourceAlpha" type="matrix" values="0 0 0 0 0 0 0 0 0 0 0 0 0 0 0 0 0 0 127 0" result="hardAlpha"/>
<feOffset dx="5" dy="6"/>
<feComposite in2="hardAlpha" operator="out"/>
<feColorMatrix type="matrix" values="0 0 0 0 0.435294 0 0 0 0 0.643137 0 0 0 0 0.196078 0 0 0 1 0"/>
<feBlend mode="normal" in2="BackgroundImageFix" result="effect1_dropShadow_1039_846"/>
<feBlend mode="normal" in="SourceGraphic" in2="effect1_dropShadow_1039_846" result="shape"/>
</filter>
<filter id="filter1_d_1039_846" x="178.161" y="3346.55" width="136.923" height="183.842" filterUnits="userSpaceOnUse" color-interpolation-filters="sRGB">
<feFlood flood-opacity="0" result="BackgroundImageFix"/>
<feColorMatrix in="SourceAlpha" type="matrix" values="0 0 0 0 0 0 0 0 0 0 0 0 0 0 0 0 0 0 127 0" result="hardAlpha"/>
<feOffset dx="5" dy="6"/>
<feComposite in2="hardAlpha" operator="out"/>
<feColorMatrix type="matrix" values="0 0 0 0 0.435294 0 0 0 0 0.643137 0 0 0 0 0.196078 0 0 0 1 0"/>
<feBlend mode="normal" in2="BackgroundImageFix" result="effect1_dropShadow_1039_846"/>
<feBlend mode="normal" in="SourceGraphic" in2="effect1_dropShadow_1039_846" result="shape"/>
</filter>
<filter id="filter2_d_1039_846" x="656.083" y="2618.72" width="162.629" height="158.619" filterUnits="userSpaceOnUse" color-interpolation-filters="sRGB">
<feFlood flood-opacity="0" result="BackgroundImageFix"/>
<feColorMatrix in="SourceAlpha" type="matrix" values="0 0 0 0 0 0 0 0 0 0 0 0 0 0 0 0 0 0 127 0" result="hardAlpha"/>
<feOffset dx="5" dy="6"/>
<feComposite in2="hardAlpha" operator="out"/>
<feColorMatrix type="matrix" values="0 0 0 0 0.435294 0 0 0 0 0.643137 0 0 0 0 0.196078 0 0 0 1 0"/>
<feBlend mode="normal" in2="BackgroundImageFix" result="effect1_dropShadow_1039_846"/>
<feBlend mode="normal" in="SourceGraphic" in2="effect1_dropShadow_1039_846" result="shape"/>
</filter>
<filter id="filter3_d_1039_846" x="1890.96" y="2536.9" width="146.985" height="176.481" filterUnits="userSpaceOnUse" color-interpolation-filters="sRGB">
<feFlood flood-opacity="0" result="BackgroundImageFix"/>
<feColorMatrix in="SourceAlpha" type="matrix" values="0 0 0 0 0 0 0 0 0 0 0 0 0 0 0 0 0 0 127 0" result="hardAlpha"/>
<feOffset dx="5" dy="6"/>
<feComposite in2="hardAlpha" operator="out"/>
<feColorMatrix type="matrix" values="0 0 0 0 0.435294 0 0 0 0 0.643137 0 0 0 0 0.196078 0 0 0 1 0"/>
<feBlend mode="normal" in2="BackgroundImageFix" result="effect1_dropShadow_1039_846"/>
<feBlend mode="normal" in="SourceGraphic" in2="effect1_dropShadow_1039_846" result="shape"/>
</filter>
<filter id="filter4_d_1039_846" x="1144.64" y="1985.97" width="156.462" height="166.456" filterUnits="userSpaceOnUse" color-interpolation-filters="sRGB">
<feFlood flood-opacity="0" result="BackgroundImageFix"/>
<feColorMatrix in="SourceAlpha" type="matrix" values="0 0 0 0 0 0 0 0 0 0 0 0 0 0 0 0 0 0 127 0" result="hardAlpha"/>
<feOffset dx="5" dy="6"/>
<feComposite in2="hardAlpha" operator="out"/>
<feColorMatrix type="matrix" values="0 0 0 0 0.435294 0 0 0 0 0.643137 0 0 0 0 0.196078 0 0 0 1 0"/>
<feBlend mode="normal" in2="BackgroundImageFix" result="effect1_dropShadow_1039_846"/>
<feBlend mode="normal" in="SourceGraphic" in2="effect1_dropShadow_1039_846" result="shape"/>
</filter>
<filter id="filter5_d_1039_846" x="1504.61" y="1277.19" width="136.687" height="183.982" filterUnits="userSpaceOnUse" color-interpolation-filters="sRGB">
<feFlood flood-opacity="0" result="BackgroundImageFix"/>
<feColorMatrix in="SourceAlpha" type="matrix" values="0 0 0 0 0 0 0 0 0 0 0 0 0 0 0 0 0 0 127 0" result="hardAlpha"/>
<feOffset dx="5" dy="6"/>
<feComposite in2="hardAlpha" operator="out"/>
<feColorMatrix type="matrix" values="0 0 0 0 0.435294 0 0 0 0 0.643137 0 0 0 0 0.196078 0 0 0 1 0"/>
<feBlend mode="normal" in2="BackgroundImageFix" result="effect1_dropShadow_1039_846"/>
<feBlend mode="normal" in="SourceGraphic" in2="effect1_dropShadow_1039_846" result="shape"/>
</filter>
<filter id="filter6_d_1039_846" x="1996.68" y="2107.91" width="155.753" height="167.332" filterUnits="userSpaceOnUse" color-interpolation-filters="sRGB">
<feFlood flood-opacity="0" result="BackgroundImageFix"/>
<feColorMatrix in="SourceAlpha" type="matrix" values="0 0 0 0 0 0 0 0 0 0 0 0 0 0 0 0 0 0 127 0" result="hardAlpha"/>
<feOffset dx="5" dy="6"/>
<feComposite in2="hardAlpha" operator="out"/>
<feColorMatrix type="matrix" values="0 0 0 0 0.435294 0 0 0 0 0.643137 0 0 0 0 0.196078 0 0 0 1 0"/>
<feBlend mode="normal" in2="BackgroundImageFix" result="effect1_dropShadow_1039_846"/>
<feBlend mode="normal" in="SourceGraphic" in2="effect1_dropShadow_1039_846" result="shape"/>
</filter>
<filter id="filter7_d_1039_846" x="1684.51" y="2759.07" width="187.03" height="129.275" filterUnits="userSpaceOnUse" color-interpolation-filters="sRGB">
<feFlood flood-opacity="0" result="BackgroundImageFix"/>
<feColorMatrix in="SourceAlpha" type="matrix" values="0 0 0 0 0 0 0 0 0 0 0 0 0 0 0 0 0 0 127 0" result="hardAlpha"/>
<feOffset dx="5" dy="6"/>
<feComposite in2="hardAlpha" operator="out"/>
<feColorMatrix type="matrix" values="0 0 0 0 0.435294 0 0 0 0 0.643137 0 0 0 0 0.196078 0 0 0 1 0"/>
<feBlend mode="normal" in2="BackgroundImageFix" result="effect1_dropShadow_1039_846"/>
<feBlend mode="normal" in="SourceGraphic" in2="effect1_dropShadow_1039_846" result="shape"/>
</filter>
<linearGradient id="paint0_linear_1039_846" x1="2017.5" y1="305" x2="2974" y2="2049" gradientUnits="userSpaceOnUse">
<stop stop-color="#13110F"/>
<stop offset="1" stop-color="#211E19"/>
</linearGradient>
</defs>
</svg>
