<svg width="32280" height="3072" viewBox="0 0 32280 3072" fill="none" xmlns="http://www.w3.org/2000/svg">
<g clip-path="url(#clip0_1076_272)">
<path d="M2763.28 1310.58L2578.43 1268.29L2365.92 1201.55L2015.44 1076.48L1678.88 934.884L1294.7 809.835L1056.92 712.447L962.253 684.863C908.822 669.294 853.477 661.267 797.824 661.015L780.207 660.935C721.879 660.671 663.958 670.657 609.086 690.437L581.815 700.268C544.446 713.738 509.763 733.732 479.379 759.318C433.584 797.882 398.929 847.987 379.005 904.444L353.515 976.67C332.362 1036.61 321.828 1099.78 322.387 1163.34L322.594 1186.8C323.148 1249.83 337.277 1312.01 364.019 1369.1C380.288 1403.83 401.041 1436.28 425.745 1465.62L477.596 1527.19C549.624 1612.73 634.849 1686.21 730.053 1744.87L862.985 1826.77C946.167 1878.02 1032.95 1923.17 1122.67 1961.87L1329.23 2050.98L1790.61 2261.97L2305.78 2442.13L2522.08 2491.77L2955.86 2546.68L3112.97 2558.95C3235.88 2568.55 3359.38 2550.66 3474.51 2506.58L3575.97 2455.66C3664.82 2411.08 3744.45 2350.13 3810.68 2276.01L3829.01 2255.49C3863.17 2217.27 3892.13 2174.7 3915.14 2128.9L3948.83 2061.82C3968.83 2022.01 3978.91 1977.96 3978.21 1933.42C3977.38 1880.42 3961.33 1828.78 3931.97 1784.65L3889.58 1720.95C3854.06 1667.57 3809.27 1620.98 3757.32 1583.39L3723.64 1559.02C3678.03 1526.02 3628.92 1498.13 3577.2 1475.87L3556.57 1467C3493.65 1439.92 3428.04 1419.58 3360.83 1406.32L3230.18 1380.54L3181.65 1369.12C3111.79 1352.69 3040.59 1342.61 2968.91 1339.03C2899.67 1335.56 2830.86 1326.04 2763.28 1310.58Z" fill="#008CCF"/>
<path d="M3362.35 1934.8L3097.43 1918.94L2959.03 1912.13C2908.09 1909.62 2857.52 1902.08 2808.06 1889.62L2746.58 1874.12C2706.94 1864.13 2665.96 1860.58 2625.19 1863.6L2570.92 1867.61C2501.99 1872.72 2433.95 1849.49 2382.54 1803.29C2358.7 1781.88 2331.03 1765.17 2300.98 1754.05L2180.95 1709.64C2062.9 1665.96 1937.16 1646.87 1811.47 1653.54L1708.92 1658.98C1558.17 1655.1 1409.04 1626.92 1267.27 1575.51L999.679 1478.46L647.658 1298.67C624.453 1286.82 602.854 1272.05 583.384 1254.74L560.036 1233.97C514.564 1193.53 486.919 1136.76 483.124 1076.02L481.314 1047.04C478.658 1004.53 493.002 962.708 521.189 930.777C544.013 904.922 574.556 887.103 608.296 879.959L710.313 858.359C766.978 846.361 825.741 848.689 881.28 865.132C898.519 870.235 916.128 873.996 933.948 876.381L1203.37 912.429C1368.48 952.021 1522.56 1028.3 1654.15 1135.6L1678.85 1155.74C1753.2 1216.37 1834.18 1268.37 1920.25 1310.77L1947.15 1324.02L2062.69 1374.91C2145.77 1411.51 2233.69 1435.95 2323.74 1447.5C2401.73 1457.49 2478.17 1477.18 2551.29 1506.09L2746.13 1583.13L2894.35 1626.93L3165.25 1670.2L3380.8 1712.88C3412.84 1719.22 3443.44 1731.4 3471.08 1748.79L3548.03 1797.21C3561.61 1805.76 3571.03 1819.57 3574.04 1835.34C3579.82 1865.66 3560.77 1895.17 3530.76 1902.39L3415.79 1930.07C3398.31 1934.28 3380.3 1935.87 3362.35 1934.8Z" fill="#00AEEF"/>
<g filter="url(#filter0_d_1076_272)">
<path d="M2998.67 2275.48L3039.88 2289.61C3055.16 2294.86 3063.38 2311.42 3058.31 2326.76C3056.6 2331.94 3053.48 2336.54 3049.31 2340.06L3036.54 2350.8C3016.95 2367.3 2990.52 2373.13 2965.81 2366.42L2954.27 2363.28C2939.09 2359.16 2926.55 2348.46 2920.07 2334.13L2911.91 2316.05C2907.04 2305.27 2909.93 2292.56 2918.98 2284.93C2922.3 2282.14 2926.25 2280.2 2930.49 2279.3L2959.45 2273.12C2972.49 2270.33 2986.05 2271.15 2998.67 2275.48Z" fill="#125677"/>
</g>
<g filter="url(#filter1_d_1076_272)">
<path d="M3574.12 1706.91L3541.01 1678.59C3528.74 1668.09 3527.2 1649.67 3537.56 1637.28C3541.06 1633.09 3545.65 1629.96 3550.83 1628.23L3566.65 1622.93C3590.94 1614.81 3617.66 1619.12 3638.17 1634.46L3647.74 1641.63C3660.33 1651.05 3668.06 1665.61 3668.8 1681.32L3669.73 1701.13C3670.29 1712.96 3662.92 1723.71 3651.7 1727.47C3647.58 1728.84 3643.19 1729.19 3638.92 1728.46L3609.72 1723.55C3596.57 1721.34 3584.26 1715.59 3574.12 1706.91Z" fill="#125677"/>
</g>
<g filter="url(#filter2_d_1076_272)">
<path d="M2894.59 1507.19L2852.84 1494.74C2837.36 1490.12 2828.47 1473.91 2832.92 1458.38C2834.42 1453.13 2837.34 1448.41 2841.37 1444.72L2853.69 1433.46C2872.59 1416.19 2898.76 1409.28 2923.73 1414.99L2935.39 1417.65C2950.72 1421.16 2963.68 1431.33 2970.74 1445.39L2979.63 1463.12C2984.93 1473.7 2982.57 1486.51 2973.83 1494.5C2970.63 1497.42 2966.76 1499.52 2962.55 1500.6L2933.88 1507.95C2920.95 1511.27 2907.37 1511 2894.59 1507.19Z" fill="#125677"/>
</g>
<g filter="url(#filter3_d_1076_272)">
<path d="M1730.25 1867.24L1767.21 1890.31C1780.91 1898.87 1785.18 1916.86 1776.78 1930.65C1773.94 1935.31 1769.87 1939.1 1765.01 1941.58L1750.15 1949.17C1727.34 1960.82 1700.27 1960.54 1677.71 1948.42L1667.18 1942.75C1653.32 1935.31 1643.52 1922.06 1640.45 1906.64L1636.57 1887.19C1634.26 1875.58 1639.94 1863.85 1650.48 1858.46C1654.35 1856.49 1658.64 1855.5 1662.97 1855.57L1692.57 1856.09C1705.91 1856.32 1718.94 1860.17 1730.25 1867.24Z" fill="#125677"/>
</g>
<g filter="url(#filter4_d_1076_272)">
<path d="M2253.4 1368.25L2213.32 1351.16C2198.46 1344.82 2191.46 1327.71 2197.63 1312.78C2199.71 1307.74 2203.16 1303.37 2207.57 1300.17L2221.08 1290.37C2241.82 1275.34 2268.6 1271.44 2292.76 1279.93L2304.05 1283.89C2318.89 1289.1 2330.62 1300.68 2336.04 1315.44L2342.87 1334.06C2346.94 1345.17 2343.14 1357.64 2333.56 1364.59C2330.05 1367.14 2325.97 1368.78 2321.67 1369.37L2292.34 1373.44C2279.13 1375.27 2265.67 1373.48 2253.4 1368.25Z" fill="#125677"/>
</g>
<g filter="url(#filter5_d_1076_272)">
<path d="M1651.69 1110.29L1618.68 1081.85C1606.44 1071.31 1604.96 1052.88 1615.37 1040.53C1618.88 1036.35 1623.48 1033.23 1628.66 1031.52L1644.51 1026.28C1668.82 1018.24 1695.53 1022.64 1715.98 1038.05L1725.53 1045.25C1738.09 1054.72 1745.77 1069.3 1746.45 1085.02L1747.32 1104.83C1747.84 1116.66 1740.44 1127.39 1729.2 1131.1C1725.08 1132.46 1720.69 1132.79 1716.41 1132.06L1687.24 1127.04C1674.09 1124.79 1661.8 1118.99 1651.69 1110.29Z" fill="#125677"/>
</g>
<g filter="url(#filter6_d_1076_272)">
<path d="M917.064 1522.32L956.929 1539.9C971.71 1546.41 978.494 1563.61 972.143 1578.47C969.998 1583.48 966.502 1587.81 962.046 1590.95L948.417 1600.58C927.502 1615.36 900.669 1618.93 876.615 1610.15L865.38 1606.05C850.607 1600.65 839.017 1588.94 833.781 1574.1L827.178 1555.4C823.238 1544.24 827.191 1531.82 836.858 1524.99C840.401 1522.49 844.505 1520.9 848.809 1520.35L878.182 1516.65C891.417 1514.97 904.857 1516.94 917.064 1522.32Z" fill="#125677"/>
</g>
<g filter="url(#filter7_d_1076_272)">
<path d="M2291.82 2059.23L2257.33 2085.86C2244.54 2095.73 2242.08 2114.05 2251.81 2126.95C2255.09 2131.3 2259.52 2134.66 2264.61 2136.65L2280.15 2142.73C2303.99 2152.06 2330.9 2149.1 2352.15 2134.8L2362.07 2128.13C2375.12 2119.35 2383.56 2105.19 2385.09 2089.54L2387.02 2069.8C2388.16 2058.02 2381.35 2046.91 2370.33 2042.6C2366.29 2041.02 2361.92 2040.45 2357.61 2040.96L2328.21 2044.4C2314.96 2045.95 2302.38 2051.08 2291.82 2059.23Z" fill="#125677"/>
</g>
<path d="M6052.07 2121.16L5879.22 2043.17L5669.56 1967.95L5314.73 1855.84L4960.99 1765.31L4579.31 1632.82L4331 1566.75L4238.9 1531.53C4186.92 1511.65 4137.97 1484.61 4093.47 1451.18L4079.39 1440.6C4032.75 1405.57 3992.63 1362.62 3960.86 1313.7L3945.07 1289.39C3923.43 1256.08 3907.88 1219.19 3899.13 1180.44C3885.94 1122.04 3888.6 1061.18 3906.84 1004.16L3930.17 931.204C3949.53 870.662 3979.3 813.962 4018.15 763.654L4032.49 745.087C4071.02 695.193 4119.85 654.185 4175.65 624.855C4209.6 607.01 4245.74 593.693 4283.15 585.244L4361.67 567.51C4470.75 542.875 4583.06 535.816 4694.36 546.602L4849.76 561.662C4947.01 571.086 5043.45 587.546 5138.31 610.915L5356.75 664.722L5851.88 775.369L6371.22 943.09L6573.56 1034.23L6952.39 1252.58L7085 1337.73C7188.73 1404.34 7276.33 1493.22 7341.43 1597.91L7391.51 1699.78C7435.37 1788.99 7461.99 1885.67 7469.98 1984.75L7472.2 2012.17C7476.32 2063.27 7473.67 2114.68 7464.33 2165.09L7450.65 2238.89C7442.53 2282.7 7423.95 2323.89 7396.47 2358.96C7363.79 2400.69 7319.8 2432.13 7269.74 2449.55L7197.47 2474.7C7136.92 2495.78 7073.08 2505.84 7008.97 2504.4L6967.42 2503.47C6911.12 2502.21 6855.14 2494.75 6800.48 2481.24L6778.68 2475.85C6712.19 2459.41 6647.61 2435.97 6586.05 2405.93L6466.37 2347.53L6420.81 2327.31C6355.21 2298.19 6292.39 2263.19 6233.1 2222.74C6175.84 2183.67 6115.26 2149.68 6052.07 2121.16Z" fill="#008CCF"/>
<path d="M6906.58 1985.74L6685.91 1838.31L6571.52 1760.12C6529.41 1731.33 6484.56 1706.79 6437.61 1686.84L6379.27 1662.04C6341.64 1646.05 6306.84 1624.11 6276.17 1597.07L6235.36 1561.08C6183.52 1515.36 6115.27 1492.77 6046.39 1498.51C6014.46 1501.17 5982.31 1497.77 5951.65 1488.47L5829.18 1451.34C5708.72 1414.81 5596.99 1354.05 5500.87 1272.78L5422.45 1206.49C5299.98 1118.49 5164.12 1050.84 5020.09 1006.15L4748.23 921.793L4359.1 852.358C4333.45 847.781 4307.32 846.494 4281.34 848.527L4250.19 850.966C4189.53 855.716 4133.19 884.251 4093.47 930.354L4074.52 952.351C4046.72 984.619 4032.88 1026.61 4036.04 1069.09C4038.61 1103.48 4052.18 1136.13 4074.75 1162.21L4142.98 1241.06C4180.89 1284.86 4229.12 1318.51 4283.31 1338.97C4300.13 1345.32 4316.43 1352.96 4332.07 1361.83L4568.53 1495.9C4724.02 1564.11 4892.87 1596.42 5062.56 1590.44L5094.41 1589.31C5190.29 1585.93 5286.24 1593.42 5380.43 1611.64L5409.88 1617.34L5532.69 1646.59C5621.01 1667.63 5705.83 1701.27 5784.56 1746.49C5852.75 1785.64 5925.55 1816.15 6001.29 1837.29L6203.08 1893.63L6347.65 1948.29L6589.65 2077.48L6787.2 2173.72C6816.56 2188.02 6848.29 2196.81 6880.83 2199.66L6971.4 2207.56C6987.39 2208.96 7003.24 2203.65 7015.16 2192.9C7038.09 2172.24 7040.74 2137.21 7021.2 2113.32L6946.31 2021.8C6934.92 2007.88 6921.53 1995.73 6906.58 1985.74Z" fill="#00AEEF"/>
<g filter="url(#filter8_d_1076_272)">
<path d="M6822.64 1494.54L6864.02 1508.18C6879.36 1513.23 6895.91 1505 6901.14 1489.72C6902.91 1484.55 6903.21 1479 6902 1473.68L6898.33 1457.4C6892.69 1432.42 6875.15 1411.8 6851.4 1402.22L6840.31 1397.75C6825.72 1391.87 6809.27 1392.81 6795.45 1400.32L6778.02 1409.79C6767.62 1415.44 6762.25 1427.31 6764.85 1438.86C6765.81 1443.09 6767.79 1447.02 6770.62 1450.31L6789.96 1472.73C6798.67 1482.83 6809.97 1490.37 6822.64 1494.54Z" fill="#125677"/>
</g>
<g filter="url(#filter9_d_1076_272)">
<path d="M6937.63 2295.28L6894.14 2297.85C6878.01 2298.8 6865.65 2312.55 6866.42 2328.68C6866.68 2334.13 6868.45 2339.4 6871.53 2343.91L6880.94 2357.69C6895.38 2378.83 6919.28 2391.55 6944.89 2391.71L6956.85 2391.79C6972.58 2391.89 6987.52 2384.95 6997.61 2372.88L7010.32 2357.66C7017.91 2348.57 7018.54 2335.55 7011.86 2325.78C7009.42 2322.2 7006.13 2319.27 7002.28 2317.26L6976.05 2303.54C6964.23 2297.35 6950.95 2294.5 6937.63 2295.28Z" fill="#125677"/>
</g>
<g filter="url(#filter10_d_1076_272)">
<path d="M6275.49 2043.84L6234.7 2028.53C6219.57 2022.86 6202.7 2030.41 6196.85 2045.47C6194.88 2050.56 6194.36 2056.09 6195.34 2061.46L6198.35 2077.87C6202.97 2103.06 6219.66 2124.38 6243 2134.91L6253.9 2139.84C6268.23 2146.31 6284.71 2146.04 6298.82 2139.09L6316.62 2130.34C6327.24 2125.12 6333.1 2113.47 6330.96 2101.83C6330.18 2097.56 6328.36 2093.56 6325.66 2090.16L6307.25 2066.97C6298.96 2056.52 6287.98 2048.53 6275.49 2043.84Z" fill="#125677"/>
</g>
<g filter="url(#filter11_d_1076_272)">
<path d="M5982.57 1160.09L6025.96 1164.03C6042.05 1165.49 6056.32 1153.74 6057.96 1137.67C6058.51 1132.24 6057.55 1126.76 6055.18 1121.85L6047.92 1106.82C6036.79 1083.76 6015.05 1067.63 5989.75 1063.66L5977.94 1061.8C5962.4 1059.36 5946.58 1063.99 5934.82 1074.43L5919.98 1087.59C5911.12 1095.44 5908.56 1108.22 5913.71 1118.88C5915.59 1122.78 5918.41 1126.17 5921.91 1128.73L5945.81 1146.2C5956.58 1154.08 5969.28 1158.88 5982.57 1160.09Z" fill="#125677"/>
</g>
<g filter="url(#filter12_d_1076_272)">
<path d="M5680.62 1767.13L5638.36 1756.53C5622.69 1752.6 5606.78 1762.01 5602.67 1777.64C5601.29 1782.91 5601.39 1788.47 5602.98 1793.69L5607.82 1809.66C5615.26 1834.16 5634.25 1853.46 5658.63 1861.29L5670.01 1864.95C5684.99 1869.76 5701.33 1867.63 5714.57 1859.14L5731.26 1848.43C5741.22 1842.04 5745.73 1829.81 5742.29 1818.48C5741.03 1814.33 5738.77 1810.56 5735.71 1807.48L5714.8 1786.53C5705.38 1777.08 5693.56 1770.38 5680.62 1767.13Z" fill="#125677"/>
</g>
<g filter="url(#filter13_d_1076_272)">
<path d="M5045.31 1609.12L5001.83 1611.83C4985.71 1612.83 4973.39 1626.62 4974.22 1642.76C4974.5 1648.21 4976.28 1653.47 4979.37 1657.97L4988.83 1671.72C5003.35 1692.81 5027.29 1705.45 5052.9 1705.52L5064.86 1705.56C5080.58 1705.6 5095.51 1698.62 5105.55 1686.51L5118.21 1671.25C5125.77 1662.14 5126.36 1649.12 5119.65 1639.36C5117.19 1635.79 5113.89 1632.88 5110.04 1630.88L5083.76 1617.24C5071.92 1611.1 5058.63 1608.29 5045.31 1609.12Z" fill="#125677"/>
</g>
<g filter="url(#filter14_d_1076_272)">
<path d="M5610.37 1147.87L5652.76 1157.95C5668.47 1161.69 5684.27 1152.08 5688.19 1136.41C5689.51 1131.11 5689.33 1125.56 5687.69 1120.36L5682.64 1104.45C5674.91 1080.04 5655.69 1060.98 5631.21 1053.44L5619.78 1049.92C5604.75 1045.3 5588.43 1047.63 5575.3 1056.28L5558.74 1067.2C5548.86 1073.71 5544.5 1085.99 5548.08 1097.28C5549.39 1101.41 5551.7 1105.16 5554.8 1108.19L5575.96 1128.9C5585.5 1138.22 5597.39 1144.78 5610.37 1147.87Z" fill="#125677"/>
</g>
<g filter="url(#filter15_d_1076_272)">
<path d="M6128.75 1239.76L6117.35 1197.71C6113.13 1182.11 6122.24 1166.03 6137.78 1161.63C6143.03 1160.14 6148.59 1160.14 6153.84 1161.63L6169.9 1166.17C6194.54 1173.15 6214.19 1191.76 6222.48 1215.99L6226.35 1227.31C6231.44 1242.19 6229.62 1258.57 6221.38 1271.96L6210.98 1288.86C6204.78 1298.94 6192.64 1303.67 6181.25 1300.45C6177.08 1299.27 6173.26 1297.08 6170.13 1294.07L6148.78 1273.56C6139.16 1264.32 6132.23 1252.63 6128.75 1239.76Z" fill="#125677"/>
</g>
<path d="M9363.54 2144.13L9535.76 2064.78L9744.83 1987.92L10098.8 1873.03L10451.8 1779.73L10832.4 1644.26L11080.2 1576.24L11172 1540.3C11223.8 1520.02 11272.6 1492.59 11316.8 1458.82L11330.8 1448.13C11377.2 1412.73 11417 1369.46 11448.3 1320.3L11463.9 1295.87C11485.3 1262.39 11500.6 1225.38 11509 1186.56C11521.8 1128.06 11518.6 1067.22 11499.9 1010.34L11476 937.576C11456.2 877.187 11426 820.722 11386.7 770.72L11372.3 752.266C11333.3 702.675 11284.2 662.051 11228.2 633.16C11194.1 615.582 11157.8 602.548 11120.4 594.392L11041.7 577.274C10932.4 553.494 10820.1 547.317 10708.9 558.974L10553.6 575.252C10456.4 585.437 10360.1 602.653 10265.4 626.764L10047.4 682.282L9553.17 796.807L9035.16 968.592L8833.54 1061.32L8456.43 1282.63L8324.5 1368.81C8221.29 1436.24 8134.39 1525.8 8070.11 1630.99L8020.83 1733.26C7977.67 1822.8 7951.8 1919.69 7944.59 2018.83L7942.6 2046.27C7938.88 2097.4 7941.92 2148.79 7951.66 2199.12L7965.92 2272.82C7974.38 2316.55 7993.29 2357.6 8021.03 2392.45C8054.04 2433.92 8098.28 2465.02 8148.47 2482.05L8220.94 2506.64C8281.65 2527.24 8345.57 2536.79 8409.66 2534.85L8451.21 2533.6C8507.49 2531.89 8563.41 2524 8617.96 2510.06L8639.72 2504.5C8706.09 2487.53 8770.47 2463.59 8831.8 2433.07L8951.02 2373.73L8996.42 2353.15C9061.79 2323.53 9124.34 2288.04 9183.3 2247.12C9240.26 2207.6 9300.57 2173.14 9363.54 2144.13Z" fill="#008CCF"/>
<path d="M8507.99 2015.41L8727.5 1866.25L8841.28 1787.16C8883.16 1758.05 8927.82 1733.15 8974.6 1712.83L9032.75 1687.58C9070.25 1671.29 9104.88 1649.09 9135.33 1621.81L9175.86 1585.5C9227.34 1539.38 9295.41 1516.25 9364.33 1521.45C9396.28 1523.86 9428.4 1520.2 9458.99 1510.67L9581.17 1472.57C9701.34 1435.11 9812.59 1373.47 9908.07 1291.45L9985.97 1224.55C10107.7 1135.59 10243.1 1066.88 10386.7 1021.06L10657.9 934.574L11046.5 862.092C11072.1 857.314 11098.2 855.822 11124.2 857.652L11155.4 859.847C11216.1 864.121 11272.7 892.214 11312.7 938.003L11331.9 959.852C11359.9 991.901 11374.1 1033.78 11371.3 1076.28C11369 1110.69 11355.6 1143.45 11333.3 1169.71L11265.7 1249.09C11228.1 1293.18 11180.1 1327.21 11126.1 1348.09C11109.3 1354.57 11093.1 1362.34 11077.5 1371.33L10842.1 1507.25C10687.2 1576.68 10518.6 1610.32 10348.9 1605.66L10317 1604.79C10221.1 1602.15 10125.2 1610.4 10031.2 1629.35L10001.8 1635.28L9879.18 1665.5C9791.03 1687.23 9706.47 1721.54 9628.1 1767.36C9560.22 1807.06 9487.66 1838.13 9412.09 1859.87L9210.74 1917.78L9066.61 1973.57L8825.63 2104.66L8628.84 2202.44C8599.59 2216.98 8567.93 2226.02 8535.41 2229.11L8444.91 2237.73C8428.93 2239.25 8413.04 2234.07 8401.03 2223.41C8377.95 2202.93 8375.02 2167.92 8394.38 2143.88L8468.55 2051.78C8479.82 2037.77 8493.12 2025.52 8507.99 2015.41Z" fill="#00AEEF"/>
<g filter="url(#filter16_d_1076_272)">
<path d="M8588.07 1523.57L8546.8 1537.52C8531.5 1542.7 8514.88 1534.6 8509.53 1519.35C8507.73 1514.2 8507.39 1508.66 8508.55 1503.32L8512.09 1487.02C8517.54 1462 8534.92 1441.24 8558.59 1431.47L8569.65 1426.91C8584.18 1420.91 8600.64 1421.73 8614.52 1429.13L8632.02 1438.46C8642.46 1444.03 8647.94 1455.86 8645.42 1467.43C8644.5 1471.67 8642.55 1475.61 8639.74 1478.92L8620.58 1501.49C8611.95 1511.66 8600.71 1519.29 8588.07 1523.57Z" fill="#125677"/>
</g>
<g filter="url(#filter17_d_1076_272)">
<path d="M8479.36 2325.18L8522.87 2327.4C8539 2328.23 8551.47 2341.88 8550.83 2358.02C8550.61 2363.47 8548.89 2368.76 8545.84 2373.29L8536.54 2387.14C8522.26 2408.4 8498.47 2421.3 8472.86 2421.66L8460.9 2421.83C8445.17 2422.05 8430.17 2415.24 8419.99 2403.24L8407.16 2388.12C8399.5 2379.1 8398.77 2366.08 8405.37 2356.26C8407.79 2352.66 8411.06 2349.71 8414.88 2347.67L8441.01 2333.74C8452.78 2327.46 8466.04 2324.5 8479.36 2325.18Z" fill="#125677"/>
</g>
<g filter="url(#filter18_d_1076_272)">
<path d="M9139.51 2068.56L9180.18 2052.93C9195.26 2047.14 9212.19 2054.56 9218.15 2069.57C9220.17 2074.64 9220.73 2080.17 9219.79 2085.55L9216.91 2101.98C9212.49 2127.2 9195.97 2148.65 9172.71 2159.37L9161.85 2164.38C9147.57 2170.96 9131.09 2170.82 9116.92 2163.99L9099.06 2155.38C9088.4 2150.24 9082.45 2138.64 9084.49 2126.98C9085.24 2122.71 9087.03 2118.68 9089.7 2115.27L9107.92 2091.94C9116.14 2081.42 9127.05 2073.34 9139.51 2068.56Z" fill="#125677"/>
</g>
<g filter="url(#filter19_d_1076_272)">
<path d="M9425.49 1182.53L9382.14 1186.82C9366.06 1188.41 9351.7 1176.76 9349.93 1160.71C9349.33 1155.28 9350.25 1149.8 9352.59 1144.87L9359.72 1129.78C9370.68 1106.64 9392.29 1090.33 9417.55 1086.16L9429.35 1084.21C9444.87 1081.65 9460.72 1086.16 9472.57 1096.5L9487.52 1109.55C9496.43 1117.33 9499.09 1130.09 9494.03 1140.79C9492.18 1144.71 9489.38 1148.11 9485.9 1150.7L9462.14 1168.37C9451.44 1176.32 9438.77 1181.22 9425.49 1182.53Z" fill="#125677"/>
</g>
<g filter="url(#filter20_d_1076_272)">
<path d="M9732.19 1787.2L9774.37 1776.26C9790 1772.21 9805.99 1781.5 9810.22 1797.09C9811.65 1802.35 9811.59 1807.91 9810.04 1813.15L9805.32 1829.15C9798.08 1853.71 9779.24 1873.16 9754.92 1881.18L9743.57 1884.93C9728.63 1889.86 9712.27 1887.86 9698.97 1879.47L9682.19 1868.89C9672.18 1862.58 9667.58 1850.38 9670.93 1839.03C9672.15 1834.87 9674.39 1831.07 9677.42 1827.98L9698.17 1806.86C9707.52 1797.34 9719.28 1790.54 9732.19 1787.2Z" fill="#125677"/>
</g>
<g filter="url(#filter21_d_1076_272)">
<path d="M10366.2 1624.21L10409.8 1626.58C10425.9 1627.46 10438.3 1641.15 10437.6 1657.29C10437.4 1662.74 10435.6 1668.02 10432.6 1672.54L10423.2 1686.36C10408.9 1707.57 10385 1720.39 10359.4 1720.67L10347.5 1720.8C10331.7 1720.97 10316.8 1714.1 10306.6 1702.07L10293.8 1686.91C10286.2 1677.86 10285.5 1664.84 10292.2 1655.04C10294.6 1651.44 10297.9 1648.5 10301.7 1646.48L10327.9 1632.64C10339.7 1626.4 10352.9 1623.49 10366.2 1624.21Z" fill="#125677"/>
</g>
<g filter="url(#filter22_d_1076_272)">
<path d="M9797.58 1167.4L9755.27 1177.81C9739.59 1181.67 9723.72 1172.19 9719.68 1156.55C9718.32 1151.26 9718.45 1145.71 9720.05 1140.49L9724.97 1124.55C9732.52 1100.08 9751.59 1080.86 9776 1073.14L9787.41 1069.53C9802.4 1064.79 9818.73 1066.99 9831.93 1075.54L9848.58 1086.32C9858.51 1092.76 9862.96 1105.01 9859.48 1116.32C9858.2 1120.46 9855.92 1124.23 9852.84 1127.29L9831.84 1148.16C9822.38 1157.56 9810.54 1164.21 9797.58 1167.4Z" fill="#125677"/>
</g>
<g filter="url(#filter23_d_1076_272)">
<path d="M9279.94 1263.35L9291.01 1221.21C9295.11 1205.59 9285.88 1189.57 9270.3 1185.29C9265.04 1183.85 9259.48 1183.89 9254.24 1185.42L9238.22 1190.09C9213.63 1197.26 9194.13 1216.03 9186.03 1240.32L9182.25 1251.67C9177.27 1266.59 9179.22 1282.95 9187.57 1296.28L9198.09 1313.09C9204.37 1323.13 9216.55 1327.76 9227.92 1324.45C9232.08 1323.24 9235.88 1321.02 9238.99 1317.99L9260.18 1297.31C9269.72 1287.99 9276.56 1276.25 9279.94 1263.35Z" fill="#125677"/>
</g>
<path d="M13163.5 1115.46L13351.3 1141.66L13573.6 1154.84L13945.7 1162.56L14310.6 1149.89L14714.1 1169.62L14971 1163.14L15069.3 1171.02C15124.7 1175.47 15179.3 1187.64 15231.4 1207.2L15247.9 1213.38C15302.5 1233.88 15353.1 1263.81 15397.4 1301.8L15419.4 1320.69C15449.5 1346.57 15474.8 1377.59 15494.1 1412.3C15523.2 1464.63 15537.8 1523.78 15536.3 1583.64L15534.5 1660.2C15532.9 1723.75 15520.3 1786.54 15497.2 1845.74L15488.7 1867.6C15465.7 1926.32 15430.4 1979.41 15385.1 2023.25C15357.6 2049.93 15326.6 2072.88 15293.1 2091.52L15222.7 2130.63C15125 2184.96 15019.2 2223.34 14909.4 2244.31L14756 2273.6C14660.1 2291.92 14562.9 2303.26 14465.3 2307.53L14240.5 2317.37L13734.3 2350.53L13188.7 2335.73L12968.9 2305.21L12543.9 2202.29L12392.7 2157.9C12274.4 2123.17 12165.4 2062.54 12073.4 1980.4L11996.7 1896.74C11929.5 1823.48 11876.8 1738.19 11841.2 1645.36L11831.4 1619.67C11813.1 1571.8 11801.1 1521.72 11795.9 1470.73L11788.3 1396.05C11783.7 1351.74 11790 1306.98 11806.5 1265.59C11826.1 1216.36 11859.4 1173.8 11902.6 1143L11964.8 1098.52C12017 1061.26 12075.5 1033.64 12137.4 1016.98L12177.5 1006.18C12231.9 991.553 12287.7 982.953 12344 980.54L12366.4 979.578C12434.8 976.642 12503.4 980.961 12570.9 992.463L12702.2 1014.82L12751.6 1021.41C12822.7 1030.89 12892.9 1046.79 12961.1 1068.92C13027.1 1090.31 13094.8 1105.88 13163.5 1115.46Z" fill="#008CCF"/>
<path d="M12381.6 1485.87L12634.8 1565.25L12766.6 1608.09C12815.1 1623.86 12865.1 1634.79 12915.7 1640.73L12978.7 1648.1C13019.3 1652.86 13058.9 1664.11 13095.9 1681.43L13145.2 1704.48C13207.8 1733.76 13279.6 1736.24 13344.1 1711.35C13374 1699.81 13405.8 1694.03 13437.9 1694.32L13565.8 1695.49C13691.7 1696.64 13816 1723.51 13931.1 1774.44L14025 1815.98C14167.3 1865.96 14316.7 1892.65 14467.5 1895L14752.1 1899.45L15145.1 1856.57C15171 1853.75 15196.4 1847.63 15220.7 1838.37L15250 1827.26C15306.8 1805.63 15352.9 1762.4 15378 1706.98L15390 1680.54C15407.6 1641.75 15409.1 1597.56 15394.1 1557.69C15381.9 1525.41 15359.7 1497.9 15330.7 1479.22L15243.1 1422.76C15194.4 1391.4 15138.6 1372.68 15080.9 1368.3C15062.9 1366.94 15045.1 1364.19 15027.6 1360.08L14763 1297.98C14594.6 1276.27 14423.5 1292.78 14262.3 1346.28L14232.1 1356.32C14141 1386.55 14046.8 1406.36 13951.3 1415.38L13921.5 1418.2L13795.4 1424.69C13704.7 1429.35 13613.9 1420.94 13525.6 1399.71C13449.1 1381.32 13370.7 1372.54 13292.1 1373.56L13082.6 1376.29L12928.5 1364.53L12659.9 1308.65L12443.2 1271.89C12411 1266.43 12378.1 1266.93 12346.1 1273.35L12257 1291.25C12241.2 1294.41 12227.5 1303.97 12219.1 1317.64C12202.9 1343.92 12210.2 1378.28 12235.7 1395.7L12333.3 1462.45C12348.2 1472.6 12364.4 1480.49 12381.6 1485.87Z" fill="#00AEEF"/>
<g filter="url(#filter24_d_1076_272)">
<path d="M12600.4 1933.6L12556.8 1932.16C12540.7 1931.62 12527.1 1944.18 12526.4 1960.32C12526.1 1965.77 12527.4 1971.18 12530.1 1975.95L12538.2 1990.54C12550.6 2012.92 12573.3 2027.77 12598.7 2030.28L12610.6 2031.45C12626.3 2032.99 12641.8 2027.46 12653 2016.36L12667 2002.37C12675.4 1994.02 12677.2 1981.12 12671.5 1970.77C12669.4 1966.98 12666.4 1963.76 12662.7 1961.41L12637.9 1945.34C12626.7 1938.09 12613.7 1934.04 12600.4 1933.6Z" fill="#125677"/>
</g>
<g filter="url(#filter25_d_1076_272)">
<path d="M12264.7 1197.58L12305.7 1182.88C12320.9 1177.43 12328.9 1160.76 12323.6 1145.49C12321.8 1140.33 12318.6 1135.77 12314.4 1132.31L12301.5 1121.74C12281.7 1105.51 12255.2 1100.04 12230.6 1107.09L12219.1 1110.38C12204 1114.71 12191.6 1125.57 12185.3 1139.99L12177.4 1158.18C12172.6 1169.03 12175.7 1181.7 12184.9 1189.2C12188.2 1191.95 12192.2 1193.83 12196.5 1194.68L12225.5 1200.47C12238.6 1203.08 12252.1 1202.08 12264.7 1197.58Z" fill="#125677"/>
</g>
<g filter="url(#filter26_d_1076_272)">
<path d="M12970.8 1252.53L13014.3 1255.73C13030.4 1256.92 13044.4 1244.93 13045.8 1228.83C13046.3 1223.4 13045.2 1217.94 13042.8 1213.06L13035.3 1198.16C13023.7 1175.29 13001.7 1159.53 12976.4 1155.99L12964.5 1154.33C12948.9 1152.15 12933.2 1157.05 12921.6 1167.69L12907 1181.09C12898.3 1189.1 12895.9 1201.92 12901.3 1212.49C12903.2 1216.36 12906.1 1219.7 12909.6 1222.2L12933.8 1239.27C12944.7 1246.96 12957.5 1251.54 12970.8 1252.53Z" fill="#125677"/>
</g>
<g filter="url(#filter27_d_1076_272)">
<path d="M13500.6 2018.14L13457.8 2026.56C13442 2029.69 13431.6 2044.98 13434.6 2060.87C13435.6 2066.23 13438 2071.22 13441.7 2075.26L13452.9 2087.64C13470 2106.64 13495.4 2116 13520.8 2112.69L13532.7 2111.15C13548.3 2109.12 13562.2 2100.22 13570.5 2086.9L13581.1 2070.1C13587.3 2060.07 13586.2 2047.08 13578.3 2038.3C13575.4 2035.09 13571.7 2032.63 13567.6 2031.16L13539.8 2021.11C13527.2 2016.59 13513.7 2015.56 13500.6 2018.14Z" fill="#125677"/>
</g>
<g filter="url(#filter28_d_1076_272)">
<path d="M13619.5 1350.65L13663 1348.93C13679.2 1348.29 13691.8 1334.79 13691.4 1318.64C13691.2 1313.18 13689.5 1307.88 13686.5 1303.31L13677.4 1289.36C13663.4 1267.93 13639.7 1254.76 13614.1 1254.1L13602.2 1253.8C13586.4 1253.4 13571.4 1260.04 13561 1271.91L13548 1286.89C13540.3 1295.82 13539.4 1308.83 13545.9 1318.73C13548.3 1322.36 13551.5 1325.35 13555.3 1327.43L13581.3 1341.66C13593 1348.07 13606.2 1351.18 13619.5 1350.65Z" fill="#125677"/>
</g>
<g filter="url(#filter29_d_1076_272)">
<path d="M14273.6 1323.5L14314.6 1308.66C14329.8 1303.16 14337.7 1286.46 14332.4 1271.21C14330.6 1266.06 14327.4 1261.51 14323.1 1258.07L14310.2 1247.54C14290.3 1231.38 14263.8 1225.99 14239.2 1233.13L14227.7 1236.46C14212.6 1240.84 14200.3 1251.74 14194 1266.19L14186.2 1284.4C14181.5 1295.26 14184.6 1307.92 14193.8 1315.39C14197.1 1318.13 14201.1 1320 14205.4 1320.83L14234.4 1326.52C14247.5 1329.09 14261.1 1328.04 14273.6 1323.5Z" fill="#125677"/>
</g>
<g filter="url(#filter30_d_1076_272)">
<path d="M13861.2 1925.12L13817.7 1927.38C13801.5 1928.21 13789.1 1941.88 13789.7 1958.02C13790 1963.47 13791.7 1968.75 13794.7 1973.28L13804.1 1987.12C13818.4 2008.37 13842.2 2021.25 13867.8 2021.6L13879.7 2021.76C13895.5 2021.97 13910.4 2015.14 13920.6 2003.14L13933.4 1988C13941.1 1978.97 13941.8 1965.96 13935.2 1956.14C13932.8 1952.54 13929.5 1949.59 13925.7 1947.55L13899.5 1933.65C13887.8 1927.38 13874.5 1924.43 13861.2 1925.12Z" fill="#125677"/>
</g>
<g filter="url(#filter31_d_1076_272)">
<path d="M13337.9 1982.82L13360.7 2019.97C13369.1 2033.74 13364.9 2051.74 13351.2 2060.34C13346.6 2063.24 13341.3 2064.8 13335.8 2064.86L13319.1 2065.01C13293.5 2065.25 13269.4 2052.92 13254.6 2032L13247.7 2022.23C13238.7 2009.38 13235.8 1993.16 13240 1977.98L13245.2 1958.85C13248.3 1947.43 13258.6 1939.47 13270.4 1939.36C13274.8 1939.32 13279.1 1940.34 13282.9 1942.35L13309.2 1956.02C13321 1962.18 13330.9 1971.44 13337.9 1982.82Z" fill="#125677"/>
</g>
<path d="M18497.6 1215.21L18309.4 1192.72L18091 1148.84L17729.2 1061.56L17379.6 956.369L16984.3 872.675L16737.6 800.993L16640.5 783.581C16585.7 773.754 16529.9 771.628 16474.5 777.267L16457 779.051C16398.9 784.961 16342.4 801.019 16289.9 826.495L16263.8 839.156C16228.1 856.505 16195.7 880.056 16168.2 908.714C16126.8 951.907 16097.6 1005.4 16083.8 1063.65L16066.1 1138.16C16051.4 1200.01 16047.6 1263.94 16054.9 1327.08L16057.6 1350.38C16064.8 1413.01 16085.4 1473.34 16118 1527.28C16137.9 1560.09 16162 1590.17 16189.6 1616.72L16247.7 1672.47C16328.4 1749.9 16420.9 1813.95 16521.8 1862.2L16662.6 1929.58C16750.8 1971.74 16841.9 2007.45 16935.2 2036.44L17150 2103.2L17631.1 2264.19L18162.4 2388.82L18382.8 2415.29L18819.9 2423.99L18977.5 2419.57C19100.7 2416.11 19221.6 2385.25 19331.4 2329.23L19426.9 2267.87C19510.6 2214.14 19583.3 2145.1 19641.3 2064.39L19657.4 2042.05C19687.3 2000.42 19711.6 1955.03 19729.6 1907.05L19756 1836.79C19771.7 1795.08 19777.1 1750.21 19771.7 1705.99C19765.2 1653.38 19743.8 1603.73 19709.9 1562.96L19661 1504.09C19620.1 1454.77 19570.6 1413.18 19515 1381.31L19478.9 1360.64C19430.1 1332.64 19378.3 1310.11 19324.5 1293.45L19303 1286.81C19237.6 1266.54 19170.2 1253.26 19102 1247.18L18969.3 1235.37L18919.9 1229.15C18848.7 1220.2 18776.8 1217.72 18705.1 1221.74C18635.9 1225.62 18566.5 1223.44 18497.6 1215.21Z" fill="#008CCF"/>
<path d="M19159.4 1772.54L18894.3 1784.8L18756 1792.67C18705 1795.57 18653.9 1793.42 18603.4 1786.26L18540.7 1777.36C18500.2 1771.62 18459.1 1772.42 18418.8 1779.73L18365.3 1789.47C18297.3 1801.84 18227.2 1785.94 18171.2 1745.45C18145.2 1726.67 18115.9 1712.99 18084.9 1705.11L17960.8 1673.65C17838.8 1642.7 17711.8 1637.02 17587.5 1656.96L17486.1 1673.22C17335.8 1685.32 17184.5 1673.07 17038.1 1636.95L16761.7 1568.77L16392.6 1427.23C16368.3 1417.9 16345.3 1405.51 16324.1 1390.35L16298.7 1372.17C16249.2 1336.77 16215.7 1283.24 16205.5 1223.24L16200.6 1194.62C16193.5 1152.63 16203.3 1109.52 16228 1074.79C16247.9 1046.66 16276.4 1025.71 16309.2 1015.04L16408.4 982.764C16463.4 964.837 16522.1 960.934 16579.1 971.407C16596.8 974.658 16614.7 976.535 16632.6 977.02L16904.4 984.356C17072.7 1006.26 17234 1065.8 17376.2 1158.57L17402.9 1175.99C17483.3 1228.41 17569.3 1271.55 17659.4 1304.6L17687.5 1314.93L17807.8 1353.32C17894.3 1380.92 17984.3 1395.92 18075.1 1397.87C18153.7 1399.56 18231.8 1411.04 18307.5 1432.06L18509.4 1488.05L18661.5 1515.92L18935.4 1530.28L19154.3 1549.91C19186.8 1552.83 19218.5 1561.69 19247.8 1576.07L19329.5 1616.08C19343.9 1623.14 19354.7 1635.87 19359.4 1651.23C19368.3 1680.77 19352.5 1712.13 19323.4 1722.49L19212 1762.18C19195.1 1768.21 19177.4 1771.7 19159.4 1772.54Z" fill="#00AEEF"/>
<g filter="url(#filter32_d_1076_272)">
<path d="M18833.8 2149.78L18876.3 2159.48C18892 2163.08 18902 2178.68 18898.5 2194.46C18897.4 2199.8 18894.8 2204.7 18891 2208.64L18879.4 2220.68C18861.7 2239.16 18836 2247.75 18810.8 2243.69L18798.9 2241.79C18783.4 2239.3 18769.8 2229.99 18761.9 2216.42L18751.8 2199.31C18745.8 2189.1 18747.4 2176.16 18755.6 2167.62C18758.6 2164.49 18762.3 2162.15 18766.4 2160.8L18794.6 2151.59C18807.2 2147.44 18820.8 2146.81 18833.8 2149.78Z" fill="#125677"/>
</g>
<g filter="url(#filter33_d_1076_272)">
<path d="M19345.9 1523.52L19310 1498.86C19296.6 1489.72 19293.2 1471.56 19302.1 1458.14C19305.2 1453.61 19309.4 1450.01 19314.4 1447.74L19329.6 1440.8C19352.8 1430.16 19379.9 1431.61 19401.9 1444.7L19412.2 1450.81C19425.7 1458.85 19434.9 1472.51 19437.3 1488.06L19440.3 1507.66C19442.1 1519.36 19435.9 1530.83 19425.2 1535.75C19421.2 1537.55 19416.9 1538.36 19412.6 1538.09L19383 1536.3C19369.7 1535.49 19356.9 1531.07 19345.9 1523.52Z" fill="#125677"/>
</g>
<g filter="url(#filter34_d_1076_272)">
<path d="M18649 1396.82L18606.2 1388.86C18590.3 1385.91 18579.8 1370.73 18582.5 1354.81C18583.5 1349.44 18585.9 1344.43 18589.5 1340.34L18600.5 1327.84C18617.5 1308.66 18642.8 1299.02 18668.2 1302.05L18680.1 1303.47C18695.7 1305.33 18709.7 1314.08 18718.2 1327.31L18728.9 1344C18735.3 1353.96 18734.3 1366.95 18726.5 1375.82C18723.6 1379.07 18720 1381.56 18715.9 1383.08L18688.2 1393.42C18675.7 1398.09 18662.1 1399.26 18649 1396.82Z" fill="#125677"/>
</g>
<g filter="url(#filter35_d_1076_272)">
<path d="M17941.7 2002.27L17980.9 2021.3C17995.4 2028.36 18001.6 2045.8 17994.7 2060.41C17992.4 2065.34 17988.7 2069.53 17984.1 2072.52L17970.2 2081.64C17948.7 2095.63 17921.8 2098.22 17898.1 2088.55L17887 2084.04C17872.4 2078.1 17861.3 2065.97 17856.6 2050.95L17850.7 2032.02C17847.2 2020.72 17851.6 2008.46 17861.5 2001.99C17865.1 1999.62 17869.3 1998.18 17873.6 1997.79L17903.1 1995.17C17916.4 1993.99 17929.7 1996.44 17941.7 2002.27Z" fill="#125677"/>
</g>
<g filter="url(#filter36_d_1076_272)">
<path d="M17996.7 1326.51L17955.1 1313.76C17939.6 1309.03 17930.8 1292.75 17935.4 1277.25C17936.9 1272.02 17939.9 1267.31 17944 1263.66L17956.4 1252.49C17975.4 1235.35 18001.6 1228.63 18026.5 1234.52L18038.2 1237.27C18053.5 1240.88 18066.4 1251.15 18073.3 1265.26L18082.1 1283.05C18087.3 1293.67 18084.8 1306.47 18076.1 1314.39C18072.8 1317.29 18068.9 1319.36 18064.7 1320.41L18036 1327.55C18023.1 1330.77 18009.5 1330.41 17996.7 1326.51Z" fill="#125677"/>
</g>
<g filter="url(#filter37_d_1076_272)">
<path d="M17371.1 1133.66L17335.3 1108.88C17322 1099.7 17318.6 1081.53 17327.6 1068.14C17330.7 1063.62 17334.9 1060.03 17339.9 1057.78L17355.1 1050.89C17378.4 1040.32 17405.4 1041.87 17427.4 1055.03L17437.6 1061.18C17451.1 1069.27 17460.3 1082.96 17462.7 1098.51L17465.6 1118.12C17467.4 1129.83 17461.2 1141.28 17450.4 1146.16C17446.4 1147.95 17442.1 1148.74 17437.8 1148.46L17408.2 1146.57C17394.9 1145.71 17382.1 1141.25 17371.1 1133.66Z" fill="#125677"/>
</g>
<g filter="url(#filter38_d_1076_272)">
<path d="M17616.7 1820.49L17658.2 1833.75C17673.6 1838.67 17682.2 1855.05 17677.4 1870.49C17675.8 1875.71 17672.8 1880.38 17668.7 1883.98L17656.2 1895C17636.9 1911.9 17610.6 1918.3 17585.8 1912.11L17574.2 1909.21C17558.9 1905.41 17546.1 1894.99 17539.4 1880.8L17530.8 1862.9C17525.7 1852.22 17528.3 1839.45 17537.2 1831.63C17540.5 1828.77 17544.4 1826.75 17548.6 1825.75L17577.4 1818.96C17590.4 1815.9 17604 1816.43 17616.7 1820.49Z" fill="#125677"/>
</g>
<g filter="url(#filter39_d_1076_272)">
<path d="M18108 2009.55L18076.6 2039.67C18064.9 2050.84 18064.4 2069.32 18075.4 2081.12C18079.2 2085.1 18083.9 2087.97 18089.2 2089.41L18105.3 2093.81C18130 2100.57 18156.4 2094.78 18176 2078.31L18185.2 2070.62C18197.2 2060.51 18204.1 2045.54 18204 2029.82L18203.8 2009.98C18203.7 1998.15 18195.8 1987.82 18184.4 1984.7C18180.2 1983.55 18175.8 1983.46 18171.5 1984.41L18142.7 1990.95C18129.7 1993.9 18117.7 2000.32 18108 2009.55Z" fill="#125677"/>
</g>
<path d="M21589.5 1883.04L21777.7 1859.88L22000.2 1850.31L22372.3 1848.62L22737 1867.2L23140.8 1854.02L23397.5 1864.66L23495.9 1858.37C23551.5 1854.83 23606.2 1843.54 23658.7 1824.83L23675.2 1818.91C23730.2 1799.3 23781.2 1770.2 23826.1 1732.92L23848.4 1714.4C23879 1689.01 23904.8 1658.41 23924.6 1624.01C23954.6 1572.16 23970.1 1513.25 23969.6 1453.38L23969 1376.79C23968.5 1313.23 23956.9 1250.25 23934.7 1190.67L23926.5 1168.69C23904.6 1109.6 23870.1 1055.95 23825.5 1011.37C23798.4 984.249 23767.9 960.801 23734.7 941.624L23664.9 901.376C23568.1 845.465 23462.9 805.377 23353.5 782.628L23200.6 750.865C23104.9 730.988 23008 718.072 22910.4 712.218L22685.9 698.739L22180.2 657.382L21634.5 663.332L21414.2 690.284L20987.6 786.3L20835.7 828.237C20716.9 861.043 20606.9 919.902 20513.6 1000.54L20435.5 1082.95C20367.2 1155.11 20313 1239.52 20276 1331.77L20265.7 1357.3C20246.6 1404.86 20233.9 1454.74 20227.8 1505.65L20219 1580.19C20213.7 1624.42 20219.3 1669.28 20235.1 1710.93C20253.9 1760.47 20286.6 1803.56 20329.2 1835.06L20390.7 1880.54C20442.3 1918.64 20500.3 1947.2 20561.9 1964.86L20601.9 1976.32C20656 1991.82 20711.7 2001.33 20767.9 2004.65L20790.3 2005.98C20858.7 2010.02 20927.3 2006.82 20995 1996.41L21126.6 1976.18L21176.1 1970.4C21247.4 1962.07 21317.8 1947.31 21386.4 1926.28C21452.7 1905.97 21520.7 1891.5 21589.5 1883.04Z" fill="#008CCF"/>
<path d="M20813.7 1500L21068.2 1424.74L21200.6 1384.04C21249.4 1369.06 21299.5 1358.94 21350.3 1353.82L21413.3 1347.47C21454 1343.37 21493.8 1332.76 21531.1 1316.04L21580.7 1293.79C21643.8 1265.53 21715.7 1264.22 21779.8 1290.15C21809.5 1302.18 21841.2 1308.47 21873.2 1308.7L22001.2 1309.6C22127.1 1310.49 22251.8 1285.65 22367.7 1236.59L22462.3 1196.57C22605.3 1148.9 22755.2 1124.64 22906 1124.73L23190.6 1124.9L23582.8 1174.14C23608.7 1177.38 23634 1183.91 23658.2 1193.57L23687.2 1205.15C23743.7 1227.7 23789.1 1271.67 23813.3 1327.49L23824.9 1354.12C23841.8 1393.19 23842.6 1437.4 23827 1477.02C23814.3 1509.1 23791.6 1536.25 23762.3 1554.45L23673.8 1609.48C23624.6 1640.05 23568.5 1657.87 23510.7 1661.31C23492.8 1662.38 23474.9 1664.83 23457.4 1668.66L23191.7 1726.47C23023 1745.44 22852.2 1726.16 22691.9 1670.06L22661.8 1659.52C22571.3 1627.83 22477.4 1606.49 22382.1 1595.92L22352.3 1592.62L22226.3 1584.09C22135.7 1577.95 22044.8 1584.89 21956.2 1604.69C21879.4 1621.84 21800.8 1629.35 21722.2 1627.05L21512.8 1620.92L21358.5 1630.19L21089.1 1681.71L20871.9 1714.95C20839.6 1719.89 20806.7 1718.86 20774.8 1711.91L20685.9 1692.57C20670.3 1689.16 20656.7 1679.38 20648.5 1665.58C20632.7 1639.04 20640.6 1604.8 20666.4 1587.79L20765.1 1522.64C20780.1 1512.73 20796.5 1505.1 20813.7 1500Z" fill="#00AEEF"/>
<g filter="url(#filter40_d_1076_272)">
<path d="M21039.7 1055.88L20996.1 1056.61C20980 1056.88 20966.6 1044.11 20966.2 1027.96C20966 1022.51 20967.4 1017.12 20970.1 1012.39L20978.5 997.939C20991.3 975.762 21014.1 961.277 21039.6 959.181L21051.6 958.202C21067.2 956.915 21082.7 962.7 21093.6 973.974L21107.5 988.192C21115.7 996.677 21117.3 1009.61 21111.4 1019.86C21109.2 1023.62 21106.2 1026.78 21102.5 1029.08L21077.4 1044.75C21066.1 1051.81 21053 1055.65 21039.7 1055.88Z" fill="#125677"/>
</g>
<g filter="url(#filter41_d_1076_272)">
<path d="M20692.1 1786.36L20732.9 1801.72C20748 1807.42 20755.7 1824.22 20750.2 1839.4C20748.3 1844.52 20745.1 1849.03 20740.8 1852.42L20727.7 1862.78C20707.7 1878.69 20681.1 1883.73 20656.6 1876.28L20645.1 1872.8C20630.1 1868.23 20617.9 1857.17 20611.8 1842.65L20604.2 1824.34C20599.7 1813.41 20602.9 1800.79 20612.2 1793.44C20615.6 1790.75 20619.6 1788.93 20623.9 1788.15L20653 1782.83C20666.1 1780.44 20679.6 1781.66 20692.1 1786.36Z" fill="#125677"/>
</g>
<g filter="url(#filter42_d_1076_272)">
<path d="M21399.1 1742.86L21442.6 1740.36C21458.7 1739.43 21472.6 1751.65 21473.7 1767.77C21474.1 1773.21 21472.9 1778.65 21470.4 1783.49L21462.6 1798.26C21450.7 1820.94 21428.5 1836.35 21403.1 1839.48L21391.2 1840.94C21375.6 1842.87 21359.9 1837.72 21348.5 1826.9L21334.1 1813.25C21325.5 1805.11 21323.4 1792.25 21328.9 1781.77C21330.9 1777.93 21333.8 1774.64 21337.4 1772.2L21361.9 1755.52C21372.9 1748.01 21385.8 1743.63 21399.1 1742.86Z" fill="#125677"/>
</g>
<g filter="url(#filter43_d_1076_272)">
<path d="M21941.2 985.94L21898.6 976.822C21882.8 973.441 21872.7 957.979 21875.9 942.145C21876.9 936.797 21879.5 931.854 21883.2 927.867L21894.6 915.671C21912.1 896.956 21937.6 888.007 21963 891.725L21974.8 893.461C21990.4 895.745 22004.1 904.863 22012.2 918.322L22022.5 935.294C22028.6 945.422 22027.3 958.386 22019.2 967.036C22016.2 970.206 22012.5 972.6 22008.4 974.006L21980.4 983.599C21967.8 987.923 21954.2 988.731 21941.2 985.94Z" fill="#125677"/>
</g>
<g filter="url(#filter44_d_1076_272)">
<path d="M22049.3 1655.27L22092.8 1657.69C22108.9 1658.59 22121.3 1672.3 22120.6 1688.44C22120.3 1693.89 22118.6 1699.17 22115.5 1703.68L22106.2 1717.49C22091.8 1738.68 22067.9 1751.47 22042.3 1751.71L22030.4 1751.83C22014.6 1751.97 21999.7 1745.09 21989.5 1733.05L21976.8 1717.86C21969.2 1708.8 21968.5 1695.79 21975.1 1685.99C21977.6 1682.4 21980.9 1679.47 21984.7 1677.44L22010.9 1663.64C22022.7 1657.42 22036 1654.52 22049.3 1655.27Z" fill="#125677"/>
</g>
<g filter="url(#filter45_d_1076_272)">
<path d="M22702.8 1693.02L22743.6 1708.52C22758.7 1714.26 22766.3 1731.09 22760.8 1746.25C22758.9 1751.37 22755.6 1755.87 22751.3 1759.24L22738.2 1769.56C22718.1 1785.4 22691.5 1790.35 22667 1782.82L22655.6 1779.3C22640.5 1774.68 22628.3 1763.58 22622.3 1749.03L22614.8 1730.7C22610.3 1719.76 22613.6 1707.15 22622.9 1699.83C22626.3 1697.15 22630.3 1695.34 22634.6 1694.58L22663.7 1689.36C22676.9 1687.01 22690.4 1688.27 22702.8 1693.02Z" fill="#125677"/>
</g>
<g filter="url(#filter46_d_1076_272)">
<path d="M22300.2 1084.79L22256.8 1081.83C22240.6 1080.73 22228.4 1066.87 22229.3 1050.74C22229.6 1045.29 22231.5 1040.04 22234.6 1035.56L22244.1 1021.87C22258.7 1000.86 22282.8 988.36 22308.4 988.434L22320.3 988.468C22336.1 988.513 22350.9 995.584 22360.9 1007.75L22373.5 1023.09C22381 1032.24 22381.5 1045.26 22374.7 1054.97C22372.3 1058.53 22368.9 1061.43 22365.1 1063.41L22338.7 1076.89C22326.8 1082.96 22313.5 1085.69 22300.2 1084.79Z" fill="#125677"/>
</g>
<g filter="url(#filter47_d_1076_272)">
<path d="M21777.9 1018.62L21801.3 981.844C21810 968.21 21806.1 950.142 21792.5 941.326C21787.9 938.348 21782.6 936.698 21777.2 936.558L21760.5 936.13C21734.9 935.474 21710.6 947.418 21695.5 968.093L21688.4 977.749C21679.2 990.447 21676 1006.63 21679.9 1021.87L21684.8 1041.08C21687.8 1052.55 21698 1060.68 21709.8 1060.98C21714.1 1061.09 21718.4 1060.14 21722.3 1058.19L21748.8 1044.95C21760.7 1038.98 21770.8 1029.88 21777.9 1018.62Z" fill="#125677"/>
</g>
<path d="M25628 1366.69L25809.2 1310.8L26016.1 1228.48L26356.4 1077.75L26681.5 911.568L27055.4 758.357L27285.3 643.594L27377.6 609.062C27429.7 589.572 27484.3 577.46 27539.8 573.079L27557.4 571.693C27615.5 567.101 27674 572.762 27730.2 588.416L27758.1 596.196C27796.4 606.857 27832.5 624.222 27864.7 647.483C27913.2 682.542 27951.5 729.938 27975.5 784.761L28006.3 854.896C28031.9 913.101 28047.1 975.316 28051.2 1038.74L28052.7 1062.15C28056.9 1125.06 28047.4 1188.11 28025 1247.02C28011.3 1282.87 27993 1316.77 27970.6 1347.86L27923.4 1413.11C27857.9 1503.75 27778.4 1583.36 27687.8 1648.91L27561.3 1740.45C27482.2 1797.73 27399 1849.2 27312.4 1894.45L27113 1998.64L26668.6 2243.29L26168.2 2461.18L25956.2 2526.72L25527.6 2613.67L25371.9 2637.57C25250 2656.26 25125.5 2647.58 25007.5 2612.16L24902.5 2568.92C24810.6 2531.06 24726.6 2476.18 24655.1 2407.18L24635.3 2388.08C24598.4 2352.49 24566.4 2312.19 24540 2268.22L24501.4 2203.83C24478.5 2165.62 24465.2 2122.43 24462.6 2077.96C24459.5 2025.05 24471.7 1972.36 24497.7 1926.18L24535.2 1859.5C24566.7 1803.63 24607.9 1753.85 24656.9 1712.51L24688.7 1685.71C24731.7 1649.41 24778.6 1617.96 24828.6 1591.92L24848.5 1581.54C24909.2 1549.87 24973.1 1524.71 25039.2 1506.5L25167.6 1471.1L25215.1 1456.12C25283.5 1434.54 25353.8 1419.21 25425 1410.32C25493.8 1401.72 25561.7 1387.13 25628 1366.69Z" fill="#008CCF"/>
<path d="M25076.9 2033.64L25339.9 1998.17L25477.4 1981.11C25528 1974.83 25577.9 1963.55 25626.3 1947.45L25686.4 1927.44C25725.2 1914.54 25765.8 1907.95 25806.7 1907.94L25861.1 1907.92C25930.3 1907.89 25996.4 1879.68 26044.2 1829.79C26066.4 1806.67 26092.8 1787.95 26121.9 1774.64L26238.3 1721.44C26352.8 1669.12 26476.8 1640.75 26602.6 1638.08L26705.3 1635.9C26855.3 1620.85 27002 1581.67 27139.5 1519.88L27399.2 1403.25L27736.9 1197.83C27759.1 1184.29 27779.6 1167.97 27797.7 1149.25L27819.5 1126.81C27861.8 1083.11 27885.2 1024.44 27884.4 963.591L27884.1 934.556C27883.6 891.967 27866.2 851.323 27835.7 821.572C27811 797.481 27779.2 781.978 27745.1 777.357L27641.7 763.386C27584.3 755.626 27525.9 762.308 27471.7 782.826C27454.9 789.195 27437.6 794.252 27420 797.952L27154 853.892C26992.3 905.626 26844.3 993.126 26721.1 1109.89L26697.9 1131.81C26628.3 1197.79 26551.4 1255.66 26468.7 1304.32L26442.9 1319.54L26331.4 1378.86C26251.3 1421.52 26165.4 1452.42 26076.5 1470.62C25999.4 1486.37 25924.7 1511.68 25853.9 1545.94L25665.3 1637.22L25520.7 1691.9L25253.8 1755.15L25042 1813.7C25010.5 1822.41 24980.9 1836.82 24954.6 1856.21L24881.5 1910.21C24868.6 1919.75 24860.2 1934.21 24858.4 1950.16C24854.9 1980.83 24876.1 2008.85 24906.5 2013.82L25023.2 2032.89C25041 2035.79 25059.1 2036.04 25076.9 2033.64Z" fill="#00AEEF"/>
<g filter="url(#filter48_d_1076_272)">
<path d="M25464.8 2346.39L25424.8 2363.55C25409.9 2369.91 25403 2387.04 25409.2 2401.96C25411.3 2407 25414.7 2411.36 25419.1 2414.55L25432.7 2424.32C25453.4 2439.32 25480.2 2443.18 25504.3 2434.65L25515.6 2430.66C25530.5 2425.42 25542.2 2413.83 25547.6 2399.05L25554.4 2380.42C25558.4 2369.3 25554.6 2356.84 25545 2349.91C25541.5 2347.37 25537.4 2345.74 25533.1 2345.15L25503.8 2341.13C25490.5 2339.32 25477.1 2341.14 25464.8 2346.39Z" fill="#125677"/>
</g>
<g filter="url(#filter49_d_1076_272)">
<path d="M24848.8 1822.1L24879.7 1791.4C24891.2 1780.02 24891.3 1761.53 24880.1 1749.94C24876.3 1746.02 24871.5 1743.24 24866.2 1741.9L24850 1737.79C24825.2 1731.5 24798.8 1737.78 24779.5 1754.6L24770.5 1762.46C24758.7 1772.79 24752 1787.88 24752.5 1803.6L24753 1823.43C24753.3 1835.26 24761.5 1845.44 24772.9 1848.35C24777.1 1849.42 24781.5 1849.43 24785.8 1848.4L24814.5 1841.33C24827.5 1838.15 24839.3 1831.5 24848.8 1822.1Z" fill="#125677"/>
</g>
<g filter="url(#filter50_d_1076_272)">
<path d="M25511.6 1572.5L25552.3 1556.99C25567.4 1551.24 25575.1 1534.41 25569.5 1519.25C25567.6 1514.13 25564.3 1509.63 25560.1 1506.26L25546.9 1495.95C25526.8 1480.12 25500.2 1475.17 25475.7 1482.72L25464.3 1486.24C25449.3 1490.87 25437.1 1501.98 25431.1 1516.52L25423.5 1534.86C25419 1545.8 25422.3 1558.41 25431.7 1565.73C25435.1 1568.41 25439.1 1570.21 25443.4 1570.97L25472.5 1576.18C25485.6 1578.52 25499.1 1577.25 25511.6 1572.5Z" fill="#125677"/>
</g>
<g filter="url(#filter51_d_1076_272)">
<path d="M26316 2041.31L26280.9 2067.07C26267.8 2076.62 26264.9 2094.87 26274.3 2108.01C26277.5 2112.45 26281.8 2115.91 26286.9 2118.03L26302.2 2124.5C26325.9 2134.42 26352.8 2132.13 26374.4 2118.37L26384.5 2111.94C26397.8 2103.49 26406.6 2089.56 26408.5 2073.94L26410.9 2054.26C26412.4 2042.51 26405.8 2031.24 26394.9 2026.65C26390.9 2024.97 26386.6 2024.3 26382.2 2024.69L26352.8 2027.4C26339.5 2028.62 26326.8 2033.43 26316 2041.31Z" fill="#125677"/>
</g>
<g filter="url(#filter52_d_1076_272)">
<path d="M26140.7 1386.37L26179.4 1366.35C26193.8 1358.93 26199.5 1341.34 26192.2 1326.91C26189.8 1322.04 26186 1317.94 26181.4 1315.07L26167.2 1306.31C26145.4 1292.86 26118.4 1290.95 26094.9 1301.21L26084 1306C26069.6 1312.3 26058.7 1324.71 26054.4 1339.84L26049 1358.91C26045.7 1370.3 26050.4 1382.45 26060.5 1388.67C26064.2 1390.94 26068.4 1392.28 26072.7 1392.56L26102.3 1394.44C26115.6 1395.28 26128.9 1392.49 26140.7 1386.37Z" fill="#125677"/>
</g>
<g filter="url(#filter53_d_1076_272)">
<path d="M26721.6 1084.47L26752.4 1053.67C26763.9 1042.25 26764 1023.76 26752.7 1012.21C26748.9 1008.3 26744 1005.54 26738.8 1004.21L26722.6 1000.16C26697.7 993.949 26671.4 1000.32 26652.2 1017.21L26643.2 1025.09C26631.3 1035.47 26624.8 1050.58 26625.3 1066.3L26625.9 1086.13C26626.2 1097.96 26634.4 1108.11 26645.9 1110.98C26650.1 1112.03 26654.5 1112.03 26658.7 1110.98L26687.4 1103.82C26700.4 1100.59 26712.2 1093.9 26721.6 1084.47Z" fill="#125677"/>
</g>
<g filter="url(#filter54_d_1076_272)">
<path d="M26603.2 1804.2L26564.7 1824.69C26550.5 1832.28 26545 1849.94 26552.4 1864.28C26554.9 1869.12 26558.7 1873.18 26563.4 1875.98L26577.7 1884.58C26599.7 1897.76 26626.7 1899.33 26650 1888.79L26660.9 1883.86C26675.2 1877.39 26685.9 1864.84 26690.1 1849.66L26695.3 1830.52C26698.4 1819.1 26693.5 1807.01 26683.3 1800.91C26679.6 1798.68 26675.4 1797.4 26671.1 1797.17L26641.5 1795.66C26628.2 1794.97 26614.9 1797.93 26603.2 1804.2Z" fill="#125677"/>
</g>
<g filter="url(#filter55_d_1076_272)">
<path d="M26153.7 2078.3L26190.1 2102.29C26203.5 2111.18 26207.4 2129.27 26198.6 2142.86C26195.7 2147.45 26191.5 2151.12 26186.6 2153.48L26171.5 2160.7C26148.4 2171.77 26121.4 2170.82 26099.1 2158.14L26088.7 2152.21C26075.1 2144.42 26065.6 2130.94 26062.9 2115.44L26059.5 2095.9C26057.5 2084.24 26063.5 2072.65 26074.2 2067.53C26078.1 2065.66 26082.4 2064.77 26086.7 2064.95L26116.3 2066.21C26129.6 2066.77 26142.5 2070.95 26153.7 2078.3Z" fill="#125677"/>
</g>
<path d="M29519.1 1747.1L29703.6 1790.83L29915.6 1859.22L30265.1 1987.01L30600.6 2131.23L30983.8 2259.27L31220.8 2358.5L31315.2 2386.82C31368.5 2402.81 31423.8 2411.26 31479.5 2411.95L31497.1 2412.17C31555.4 2412.88 31613.4 2403.35 31668.4 2384L31695.8 2374.38C31733.2 2361.2 31768.1 2341.48 31798.7 2316.13C31844.7 2277.92 31879.8 2228.09 31900.2 2171.79L31926.2 2099.76C31947.8 2039.99 31958.9 1976.9 31958.8 1913.34L31958.8 1889.88C31958.7 1826.84 31945.1 1764.56 31918.8 1707.26C31902.8 1672.41 31882.3 1639.8 31857.8 1610.27L31806.4 1548.29C31735.1 1462.2 31650.4 1388.05 31555.7 1328.66L31423.4 1245.73C31340.6 1193.83 31254.2 1148 31164.8 1108.61L30958.9 1017.89L30499.2 803.308L29985.4 619.146L29769.5 567.829L29336.2 509.541L29179.2 496.045C29056.3 485.488 28932.7 502.416 28817.2 545.602L28715.4 595.722C28626.2 639.609 28546.1 699.94 28479.3 773.546L28460.8 793.917C28426.3 831.874 28397 874.214 28373.7 919.839L28339.4 986.649C28319.1 1026.3 28308.7 1070.27 28309.1 1114.82C28309.5 1167.82 28325.1 1219.59 28354.2 1263.94L28396 1327.97C28431.1 1381.63 28475.6 1428.57 28527.2 1466.56L28560.7 1491.19C28606.1 1524.55 28655 1552.81 28706.5 1575.47L28727.1 1584.51C28789.8 1612.08 28855.2 1632.93 28922.3 1646.71L29052.8 1673.51L29101.2 1685.3C29170.9 1702.28 29242.1 1712.91 29313.7 1717.05C29382.9 1721.06 29451.7 1731.11 29519.1 1747.1Z" fill="#008CCF"/>
<path d="M28924.9 1118.23L29189.7 1136.15L29328.1 1144.04C29379 1146.95 29429.5 1154.88 29478.8 1167.73L29540.2 1183.71C29579.8 1194 29620.7 1197.88 29661.5 1195.18L29715.8 1191.58C29784.8 1187.01 29852.6 1210.77 29903.7 1257.37C29927.3 1278.97 29954.9 1295.89 29984.9 1307.24L30104.5 1352.59C30222.2 1397.19 30347.8 1417.26 30473.6 1411.56L30576.2 1406.92C30726.9 1411.97 30875.8 1441.32 31017.1 1493.83L31284 1592.96L31634.6 1775.48C31657.7 1787.52 31679.2 1802.45 31698.5 1819.91L31721.7 1840.86C31766.9 1881.66 31794.1 1938.64 31797.4 1999.41L31799 2028.4C31801.3 2070.93 31786.6 2112.64 31758.2 2144.35C31735.2 2170.03 31704.5 2187.61 31670.7 2194.49L31568.5 2215.29C31511.7 2226.85 31453 2224.06 31397.6 2207.19C31380.4 2201.95 31362.8 2198.05 31345 2195.53L31075.9 2157.39C30911.1 2116.51 30757.6 2039.03 30626.9 1930.71L30602.3 1910.38C30528.4 1849.18 30447.9 1796.54 30362.1 1753.48L30335.3 1740.02L30220.2 1688.22C30137.4 1650.98 30049.7 1625.85 29959.7 1613.61C29881.8 1603 29805.5 1582.73 29732.6 1553.24L29538.4 1474.69L29390.5 1429.74L29120 1384.36L28904.7 1340C28872.8 1333.41 28842.3 1321 28814.7 1303.39L28738.2 1254.37C28724.7 1245.72 28715.3 1231.83 28712.5 1216.05C28706.9 1185.68 28726.2 1156.32 28756.3 1149.33L28871.4 1122.55C28889 1118.47 28907 1117.02 28924.9 1118.23Z" fill="#00AEEF"/>
<g filter="url(#filter56_d_1076_272)">
<path d="M29291.2 780.401L29250.1 765.942C29234.9 760.581 29226.8 743.955 29232 728.657C29233.8 723.49 29236.9 718.911 29241.1 715.429L29254 704.78C29273.7 688.438 29300.2 682.809 29324.8 689.717L29336.3 692.944C29351.5 697.187 29363.9 707.976 29370.3 722.36L29378.3 740.498C29383.1 751.323 29380.1 764.01 29371 771.563C29367.7 774.332 29363.7 776.236 29359.4 777.109L29330.4 783.065C29317.4 785.749 29303.8 784.828 29291.2 780.401Z" fill="#125677"/>
</g>
<g filter="url(#filter57_d_1076_272)">
<path d="M28711.4 1344.46L28744.3 1373.04C28756.5 1383.64 28757.9 1402.07 28747.4 1414.38C28743.9 1418.54 28739.3 1421.64 28734.1 1423.33L28718.2 1428.5C28693.9 1436.43 28667.2 1431.92 28646.8 1416.41L28637.3 1409.17C28624.7 1399.65 28617.1 1385.03 28616.5 1369.32L28615.7 1349.5C28615.3 1337.67 28622.7 1326.98 28634 1323.31C28638.1 1321.97 28642.5 1321.66 28646.8 1322.41L28675.9 1327.55C28689.1 1329.87 28701.3 1335.71 28711.4 1344.46Z" fill="#125677"/>
</g>
<g filter="url(#filter58_d_1076_272)">
<path d="M29389.3 1549.47L29431 1562.25C29446.4 1566.99 29455.2 1583.27 29450.6 1598.76C29449.1 1604 29446.1 1608.7 29442.1 1612.35L29429.7 1623.52C29410.6 1640.65 29384.4 1647.35 29359.5 1641.45L29347.9 1638.69C29332.5 1635.07 29319.7 1624.8 29312.7 1610.68L29304 1592.89C29298.7 1582.26 29301.2 1569.47 29310 1561.55C29313.2 1558.65 29317.1 1556.58 29321.3 1555.54L29350.1 1548.41C29363 1545.19 29376.6 1545.56 29389.3 1549.47Z" fill="#125677"/>
</g>
<g filter="url(#filter59_d_1076_272)">
<path d="M30160.8 1028.26L30124 1004.9C30110.4 996.236 30106.3 978.214 30114.8 964.482C30117.7 959.844 30121.8 956.094 30126.6 953.65L30141.6 946.175C30164.5 934.705 30191.5 935.197 30214 947.492L30224.5 953.235C30238.3 960.786 30248 974.108 30250.9 989.557L30254.6 1009.04C30256.9 1020.66 30251.1 1032.35 30240.5 1037.65C30236.6 1039.59 30232.3 1040.55 30228 1040.45L30198.4 1039.7C30185.1 1039.37 30172.1 1035.41 30160.8 1028.26Z" fill="#125677"/>
</g>
<g filter="url(#filter60_d_1076_272)">
<path d="M30029.4 1693.41L30069.4 1710.8C30084.2 1717.26 30091 1734.42 30084.8 1749.31C30082.6 1754.33 30079.2 1758.67 30074.7 1761.84L30061.1 1771.53C30040.3 1786.4 30013.5 1790.09 29989.4 1781.42L29978.1 1777.36C29963.3 1772.04 29951.7 1760.37 29946.4 1745.56L29939.7 1726.89C29935.7 1715.75 29939.6 1703.31 29949.2 1696.44C29952.8 1693.92 29956.9 1692.31 29961.2 1691.75L29990.5 1687.91C30003.8 1686.18 30017.2 1688.08 30029.4 1693.41Z" fill="#125677"/>
</g>
<g filter="url(#filter61_d_1076_272)">
<path d="M30629.1 1956.04L30661.9 1984.73C30674.1 1995.37 30675.4 2013.81 30664.9 2026.08C30661.3 2030.23 30656.7 2033.31 30651.5 2034.98L30635.6 2040.1C30611.3 2047.95 30584.6 2043.34 30564.3 2027.77L30554.8 2020.5C30542.3 2010.93 30534.7 1996.29 30534.2 1980.57L30533.4 1960.75C30533 1948.92 30540.5 1938.25 30551.8 1934.62C30555.9 1933.29 30560.3 1933 30564.6 1933.77L30593.7 1939.01C30606.8 1941.37 30619.1 1947.26 30629.1 1956.04Z" fill="#125677"/>
</g>
<g filter="url(#filter62_d_1076_272)">
<path d="M30463.1 1245.77L30423.4 1227.89C30408.6 1221.25 30402 1204 30408.4 1189.2C30410.6 1184.2 30414.2 1179.9 30418.6 1176.79L30432.3 1167.27C30453.4 1152.65 30480.2 1149.29 30504.2 1158.26L30515.4 1162.45C30530.1 1167.96 30541.6 1179.77 30546.8 1194.64L30553.2 1213.39C30557.1 1224.58 30553 1236.97 30543.3 1243.72C30539.7 1246.2 30535.6 1247.76 30531.3 1248.27L30501.9 1251.75C30488.7 1253.32 30475.2 1251.25 30463.1 1245.77Z" fill="#125677"/>
</g>
<g filter="url(#filter63_d_1076_272)">
<path d="M29996.4 1002.14L30031.1 975.787C30043.9 966.015 30046.6 947.711 30036.9 934.739C30033.7 930.357 30029.3 926.964 30024.2 924.936L30008.7 918.735C29984.9 909.219 29958 911.972 29936.7 926.103L29926.7 932.703C29913.6 941.381 29905 955.468 29903.4 971.109L29901.3 990.833C29900 1002.6 29906.8 1013.77 29917.8 1018.16C29921.8 1019.78 29926.1 1020.37 29930.5 1019.9L29959.9 1016.69C29973.2 1015.24 29985.8 1010.21 29996.4 1002.14Z" fill="#125677"/>
</g>
</g>
<defs>
<filter id="filter0_d_1076_272" x="2909.56" y="2271.5" width="155.24" height="103.655" filterUnits="userSpaceOnUse" color-interpolation-filters="sRGB">
<feFlood flood-opacity="0" result="BackgroundImageFix"/>
<feColorMatrix in="SourceAlpha" type="matrix" values="0 0 0 0 0 0 0 0 0 0 0 0 0 0 0 0 0 0 127 0" result="hardAlpha"/>
<feOffset dx="5" dy="6"/>
<feComposite in2="hardAlpha" operator="out"/>
<feColorMatrix type="matrix" values="0 0 0 0 0.0555556 0 0 0 0 0.19769 0 0 0 0 0.266667 0 0 0 1 0"/>
<feBlend mode="normal" in2="BackgroundImageFix" result="effect1_dropShadow_1076_272"/>
<feBlend mode="normal" in="SourceGraphic" in2="effect1_dropShadow_1076_272" result="shape"/>
</filter>
<filter id="filter1_d_1076_272" x="3530.7" y="1618.9" width="144.064" height="115.929" filterUnits="userSpaceOnUse" color-interpolation-filters="sRGB">
<feFlood flood-opacity="0" result="BackgroundImageFix"/>
<feColorMatrix in="SourceAlpha" type="matrix" values="0 0 0 0 0 0 0 0 0 0 0 0 0 0 0 0 0 0 127 0" result="hardAlpha"/>
<feOffset dx="5" dy="6"/>
<feComposite in2="hardAlpha" operator="out"/>
<feColorMatrix type="matrix" values="0 0 0 0 0.0555556 0 0 0 0 0.19769 0 0 0 0 0.266667 0 0 0 1 0"/>
<feBlend mode="normal" in2="BackgroundImageFix" result="effect1_dropShadow_1076_272"/>
<feBlend mode="normal" in="SourceGraphic" in2="effect1_dropShadow_1076_272" result="shape"/>
</filter>
<filter id="filter2_d_1076_272" x="2831.77" y="1413.02" width="155.664" height="103.233" filterUnits="userSpaceOnUse" color-interpolation-filters="sRGB">
<feFlood flood-opacity="0" result="BackgroundImageFix"/>
<feColorMatrix in="SourceAlpha" type="matrix" values="0 0 0 0 0 0 0 0 0 0 0 0 0 0 0 0 0 0 127 0" result="hardAlpha"/>
<feOffset dx="5" dy="6"/>
<feComposite in2="hardAlpha" operator="out"/>
<feColorMatrix type="matrix" values="0 0 0 0 0.0555556 0 0 0 0 0.19769 0 0 0 0 0.266667 0 0 0 1 0"/>
<feBlend mode="normal" in2="BackgroundImageFix" result="effect1_dropShadow_1076_272"/>
<feBlend mode="normal" in="SourceGraphic" in2="effect1_dropShadow_1076_272" result="shape"/>
</filter>
<filter id="filter3_d_1076_272" x="1636.06" y="1855.57" width="150.02" height="108.139" filterUnits="userSpaceOnUse" color-interpolation-filters="sRGB">
<feFlood flood-opacity="0" result="BackgroundImageFix"/>
<feColorMatrix in="SourceAlpha" type="matrix" values="0 0 0 0 0 0 0 0 0 0 0 0 0 0 0 0 0 0 127 0" result="hardAlpha"/>
<feOffset dx="5" dy="6"/>
<feComposite in2="hardAlpha" operator="out"/>
<feColorMatrix type="matrix" values="0 0 0 0 0.0555556 0 0 0 0 0.19769 0 0 0 0 0.266667 0 0 0 1 0"/>
<feBlend mode="normal" in2="BackgroundImageFix" result="effect1_dropShadow_1076_272"/>
<feBlend mode="normal" in="SourceGraphic" in2="effect1_dropShadow_1076_272" result="shape"/>
</filter>
<filter id="filter4_d_1076_272" x="2195.39" y="1275.51" width="154.1" height="104.627" filterUnits="userSpaceOnUse" color-interpolation-filters="sRGB">
<feFlood flood-opacity="0" result="BackgroundImageFix"/>
<feColorMatrix in="SourceAlpha" type="matrix" values="0 0 0 0 0 0 0 0 0 0 0 0 0 0 0 0 0 0 127 0" result="hardAlpha"/>
<feOffset dx="5" dy="6"/>
<feComposite in2="hardAlpha" operator="out"/>
<feColorMatrix type="matrix" values="0 0 0 0 0.0555556 0 0 0 0 0.19769 0 0 0 0 0.266667 0 0 0 1 0"/>
<feBlend mode="normal" in2="BackgroundImageFix" result="effect1_dropShadow_1076_272"/>
<feBlend mode="normal" in="SourceGraphic" in2="effect1_dropShadow_1076_272" result="shape"/>
</filter>
<filter id="filter5_d_1076_272" x="1608.44" y="1022.33" width="143.908" height="116.104" filterUnits="userSpaceOnUse" color-interpolation-filters="sRGB">
<feFlood flood-opacity="0" result="BackgroundImageFix"/>
<feColorMatrix in="SourceAlpha" type="matrix" values="0 0 0 0 0 0 0 0 0 0 0 0 0 0 0 0 0 0 127 0" result="hardAlpha"/>
<feOffset dx="5" dy="6"/>
<feComposite in2="hardAlpha" operator="out"/>
<feColorMatrix type="matrix" values="0 0 0 0 0.0555556 0 0 0 0 0.19769 0 0 0 0 0.266667 0 0 0 1 0"/>
<feBlend mode="normal" in2="BackgroundImageFix" result="effect1_dropShadow_1076_272"/>
<feBlend mode="normal" in="SourceGraphic" in2="effect1_dropShadow_1076_272" result="shape"/>
</filter>
<filter id="filter6_d_1076_272" x="825.667" y="1516.07" width="153.857" height="104.82" filterUnits="userSpaceOnUse" color-interpolation-filters="sRGB">
<feFlood flood-opacity="0" result="BackgroundImageFix"/>
<feColorMatrix in="SourceAlpha" type="matrix" values="0 0 0 0 0 0 0 0 0 0 0 0 0 0 0 0 0 0 127 0" result="hardAlpha"/>
<feOffset dx="5" dy="6"/>
<feComposite in2="hardAlpha" operator="out"/>
<feColorMatrix type="matrix" values="0 0 0 0 0.0555556 0 0 0 0 0.19769 0 0 0 0 0.266667 0 0 0 1 0"/>
<feBlend mode="normal" in2="BackgroundImageFix" result="effect1_dropShadow_1076_272"/>
<feBlend mode="normal" in="SourceGraphic" in2="effect1_dropShadow_1076_272" result="shape"/>
</filter>
<filter id="filter7_d_1076_272" x="2245.86" y="2040.78" width="146.277" height="113.318" filterUnits="userSpaceOnUse" color-interpolation-filters="sRGB">
<feFlood flood-opacity="0" result="BackgroundImageFix"/>
<feColorMatrix in="SourceAlpha" type="matrix" values="0 0 0 0 0 0 0 0 0 0 0 0 0 0 0 0 0 0 127 0" result="hardAlpha"/>
<feOffset dx="5" dy="6"/>
<feComposite in2="hardAlpha" operator="out"/>
<feColorMatrix type="matrix" values="0 0 0 0 0.0555556 0 0 0 0 0.19769 0 0 0 0 0.266667 0 0 0 1 0"/>
<feBlend mode="normal" in2="BackgroundImageFix" result="effect1_dropShadow_1076_272"/>
<feBlend mode="normal" in="SourceGraphic" in2="effect1_dropShadow_1076_272" result="shape"/>
</filter>
<filter id="filter8_d_1076_272" x="6764.2" y="1393.92" width="143.527" height="121.744" filterUnits="userSpaceOnUse" color-interpolation-filters="sRGB">
<feFlood flood-opacity="0" result="BackgroundImageFix"/>
<feColorMatrix in="SourceAlpha" type="matrix" values="0 0 0 0 0 0 0 0 0 0 0 0 0 0 0 0 0 0 127 0" result="hardAlpha"/>
<feOffset dx="5" dy="6"/>
<feComposite in2="hardAlpha" operator="out"/>
<feColorMatrix type="matrix" values="0 0 0 0 0.0555556 0 0 0 0 0.19769 0 0 0 0 0.266667 0 0 0 1 0"/>
<feBlend mode="normal" in2="BackgroundImageFix" result="effect1_dropShadow_1076_272"/>
<feBlend mode="normal" in="SourceGraphic" in2="effect1_dropShadow_1076_272" result="shape"/>
</filter>
<filter id="filter9_d_1076_272" x="6866.39" y="2295.16" width="155.084" height="102.629" filterUnits="userSpaceOnUse" color-interpolation-filters="sRGB">
<feFlood flood-opacity="0" result="BackgroundImageFix"/>
<feColorMatrix in="SourceAlpha" type="matrix" values="0 0 0 0 0 0 0 0 0 0 0 0 0 0 0 0 0 0 127 0" result="hardAlpha"/>
<feOffset dx="5" dy="6"/>
<feComposite in2="hardAlpha" operator="out"/>
<feColorMatrix type="matrix" values="0 0 0 0 0.0555556 0 0 0 0 0.19769 0 0 0 0 0.266667 0 0 0 1 0"/>
<feBlend mode="normal" in2="BackgroundImageFix" result="effect1_dropShadow_1076_272"/>
<feBlend mode="normal" in="SourceGraphic" in2="effect1_dropShadow_1076_272" result="shape"/>
</filter>
<filter id="filter10_d_1076_272" x="6194.86" y="2026.65" width="141.541" height="123.857" filterUnits="userSpaceOnUse" color-interpolation-filters="sRGB">
<feFlood flood-opacity="0" result="BackgroundImageFix"/>
<feColorMatrix in="SourceAlpha" type="matrix" values="0 0 0 0 0 0 0 0 0 0 0 0 0 0 0 0 0 0 127 0" result="hardAlpha"/>
<feOffset dx="5" dy="6"/>
<feComposite in2="hardAlpha" operator="out"/>
<feColorMatrix type="matrix" values="0 0 0 0 0.0555556 0 0 0 0 0.19769 0 0 0 0 0.266667 0 0 0 1 0"/>
<feBlend mode="normal" in2="BackgroundImageFix" result="effect1_dropShadow_1076_272"/>
<feBlend mode="normal" in="SourceGraphic" in2="effect1_dropShadow_1076_272" result="shape"/>
</filter>
<filter id="filter11_d_1076_272" x="5911.07" y="1061.16" width="152.037" height="108.991" filterUnits="userSpaceOnUse" color-interpolation-filters="sRGB">
<feFlood flood-opacity="0" result="BackgroundImageFix"/>
<feColorMatrix in="SourceAlpha" type="matrix" values="0 0 0 0 0 0 0 0 0 0 0 0 0 0 0 0 0 0 127 0" result="hardAlpha"/>
<feOffset dx="5" dy="6"/>
<feComposite in2="hardAlpha" operator="out"/>
<feColorMatrix type="matrix" values="0 0 0 0 0.0555556 0 0 0 0 0.19769 0 0 0 0 0.266667 0 0 0 1 0"/>
<feBlend mode="normal" in2="BackgroundImageFix" result="effect1_dropShadow_1076_272"/>
<feBlend mode="normal" in="SourceGraphic" in2="effect1_dropShadow_1076_272" result="shape"/>
</filter>
<filter id="filter12_d_1076_272" x="5601.71" y="1755.64" width="146.727" height="117.839" filterUnits="userSpaceOnUse" color-interpolation-filters="sRGB">
<feFlood flood-opacity="0" result="BackgroundImageFix"/>
<feColorMatrix in="SourceAlpha" type="matrix" values="0 0 0 0 0 0 0 0 0 0 0 0 0 0 0 0 0 0 127 0" result="hardAlpha"/>
<feOffset dx="5" dy="6"/>
<feComposite in2="hardAlpha" operator="out"/>
<feColorMatrix type="matrix" values="0 0 0 0 0.0555556 0 0 0 0 0.19769 0 0 0 0 0.266667 0 0 0 1 0"/>
<feBlend mode="normal" in2="BackgroundImageFix" result="effect1_dropShadow_1076_272"/>
<feBlend mode="normal" in="SourceGraphic" in2="effect1_dropShadow_1076_272" result="shape"/>
</filter>
<filter id="filter13_d_1076_272" x="4974.18" y="1608.98" width="155.129" height="102.578" filterUnits="userSpaceOnUse" color-interpolation-filters="sRGB">
<feFlood flood-opacity="0" result="BackgroundImageFix"/>
<feColorMatrix in="SourceAlpha" type="matrix" values="0 0 0 0 0 0 0 0 0 0 0 0 0 0 0 0 0 0 127 0" result="hardAlpha"/>
<feOffset dx="5" dy="6"/>
<feComposite in2="hardAlpha" operator="out"/>
<feColorMatrix type="matrix" values="0 0 0 0 0.0555556 0 0 0 0 0.19769 0 0 0 0 0.266667 0 0 0 1 0"/>
<feBlend mode="normal" in2="BackgroundImageFix" result="effect1_dropShadow_1076_272"/>
<feBlend mode="normal" in="SourceGraphic" in2="effect1_dropShadow_1076_272" result="shape"/>
</filter>
<filter id="filter14_d_1076_272" x="5546.84" y="1047.59" width="147.225" height="117.163" filterUnits="userSpaceOnUse" color-interpolation-filters="sRGB">
<feFlood flood-opacity="0" result="BackgroundImageFix"/>
<feColorMatrix in="SourceAlpha" type="matrix" values="0 0 0 0 0 0 0 0 0 0 0 0 0 0 0 0 0 0 127 0" result="hardAlpha"/>
<feOffset dx="5" dy="6"/>
<feComposite in2="hardAlpha" operator="out"/>
<feColorMatrix type="matrix" values="0 0 0 0 0.0555556 0 0 0 0 0.19769 0 0 0 0 0.266667 0 0 0 1 0"/>
<feBlend mode="normal" in2="BackgroundImageFix" result="effect1_dropShadow_1076_272"/>
<feBlend mode="normal" in="SourceGraphic" in2="effect1_dropShadow_1076_272" result="shape"/>
</filter>
<filter id="filter15_d_1076_272" x="6116.32" y="1160.51" width="117.869" height="146.939" filterUnits="userSpaceOnUse" color-interpolation-filters="sRGB">
<feFlood flood-opacity="0" result="BackgroundImageFix"/>
<feColorMatrix in="SourceAlpha" type="matrix" values="0 0 0 0 0 0 0 0 0 0 0 0 0 0 0 0 0 0 127 0" result="hardAlpha"/>
<feOffset dx="5" dy="6"/>
<feComposite in2="hardAlpha" operator="out"/>
<feColorMatrix type="matrix" values="0 0 0 0 0.0555556 0 0 0 0 0.19769 0 0 0 0 0.266667 0 0 0 1 0"/>
<feBlend mode="normal" in2="BackgroundImageFix" result="effect1_dropShadow_1076_272"/>
<feBlend mode="normal" in="SourceGraphic" in2="effect1_dropShadow_1076_272" result="shape"/>
</filter>
<filter id="filter16_d_1076_272" x="8507.87" y="1422.93" width="143.156" height="122.155" filterUnits="userSpaceOnUse" color-interpolation-filters="sRGB">
<feFlood flood-opacity="0" result="BackgroundImageFix"/>
<feColorMatrix in="SourceAlpha" type="matrix" values="0 0 0 0 0 0 0 0 0 0 0 0 0 0 0 0 0 0 127 0" result="hardAlpha"/>
<feOffset dx="5" dy="6"/>
<feComposite in2="hardAlpha" operator="out"/>
<feColorMatrix type="matrix" values="0 0 0 0 0.0555556 0 0 0 0 0.19769 0 0 0 0 0.266667 0 0 0 1 0"/>
<feBlend mode="normal" in2="BackgroundImageFix" result="effect1_dropShadow_1076_272"/>
<feBlend mode="normal" in="SourceGraphic" in2="effect1_dropShadow_1076_272" result="shape"/>
</filter>
<filter id="filter17_d_1076_272" x="8400.88" y="2325.09" width="154.975" height="102.75" filterUnits="userSpaceOnUse" color-interpolation-filters="sRGB">
<feFlood flood-opacity="0" result="BackgroundImageFix"/>
<feColorMatrix in="SourceAlpha" type="matrix" values="0 0 0 0 0 0 0 0 0 0 0 0 0 0 0 0 0 0 127 0" result="hardAlpha"/>
<feOffset dx="5" dy="6"/>
<feComposite in2="hardAlpha" operator="out"/>
<feColorMatrix type="matrix" values="0 0 0 0 0.0555556 0 0 0 0 0.19769 0 0 0 0 0.266667 0 0 0 1 0"/>
<feBlend mode="normal" in2="BackgroundImageFix" result="effect1_dropShadow_1076_272"/>
<feBlend mode="normal" in="SourceGraphic" in2="effect1_dropShadow_1076_272" result="shape"/>
</filter>
<filter id="filter18_d_1076_272" x="9084.09" y="2050.96" width="141.143" height="124.258" filterUnits="userSpaceOnUse" color-interpolation-filters="sRGB">
<feFlood flood-opacity="0" result="BackgroundImageFix"/>
<feColorMatrix in="SourceAlpha" type="matrix" values="0 0 0 0 0 0 0 0 0 0 0 0 0 0 0 0 0 0 127 0" result="hardAlpha"/>
<feOffset dx="5" dy="6"/>
<feComposite in2="hardAlpha" operator="out"/>
<feColorMatrix type="matrix" values="0 0 0 0 0.0555556 0 0 0 0 0.19769 0 0 0 0 0.266667 0 0 0 1 0"/>
<feBlend mode="normal" in2="BackgroundImageFix" result="effect1_dropShadow_1076_272"/>
<feBlend mode="normal" in="SourceGraphic" in2="effect1_dropShadow_1076_272" result="shape"/>
</filter>
<filter id="filter19_d_1076_272" x="9349.75" y="1083.51" width="151.82" height="109.452" filterUnits="userSpaceOnUse" color-interpolation-filters="sRGB">
<feFlood flood-opacity="0" result="BackgroundImageFix"/>
<feColorMatrix in="SourceAlpha" type="matrix" values="0 0 0 0 0 0 0 0 0 0 0 0 0 0 0 0 0 0 127 0" result="hardAlpha"/>
<feOffset dx="5" dy="6"/>
<feComposite in2="hardAlpha" operator="out"/>
<feColorMatrix type="matrix" values="0 0 0 0 0.0555556 0 0 0 0 0.19769 0 0 0 0 0.266667 0 0 0 1 0"/>
<feBlend mode="normal" in2="BackgroundImageFix" result="effect1_dropShadow_1076_272"/>
<feBlend mode="normal" in="SourceGraphic" in2="effect1_dropShadow_1076_272" result="shape"/>
</filter>
<filter id="filter20_d_1076_272" x="9669.84" y="1775.31" width="146.402" height="118.269" filterUnits="userSpaceOnUse" color-interpolation-filters="sRGB">
<feFlood flood-opacity="0" result="BackgroundImageFix"/>
<feColorMatrix in="SourceAlpha" type="matrix" values="0 0 0 0 0 0 0 0 0 0 0 0 0 0 0 0 0 0 127 0" result="hardAlpha"/>
<feOffset dx="5" dy="6"/>
<feComposite in2="hardAlpha" operator="out"/>
<feColorMatrix type="matrix" values="0 0 0 0 0.0555556 0 0 0 0 0.19769 0 0 0 0 0.266667 0 0 0 1 0"/>
<feBlend mode="normal" in2="BackgroundImageFix" result="effect1_dropShadow_1076_272"/>
<feBlend mode="normal" in="SourceGraphic" in2="effect1_dropShadow_1076_272" result="shape"/>
</filter>
<filter id="filter21_d_1076_272" x="10287.6" y="1624.1" width="155.023" height="102.697" filterUnits="userSpaceOnUse" color-interpolation-filters="sRGB">
<feFlood flood-opacity="0" result="BackgroundImageFix"/>
<feColorMatrix in="SourceAlpha" type="matrix" values="0 0 0 0 0 0 0 0 0 0 0 0 0 0 0 0 0 0 127 0" result="hardAlpha"/>
<feOffset dx="5" dy="6"/>
<feComposite in2="hardAlpha" operator="out"/>
<feColorMatrix type="matrix" values="0 0 0 0 0.0555556 0 0 0 0 0.19769 0 0 0 0 0.266667 0 0 0 1 0"/>
<feBlend mode="normal" in2="BackgroundImageFix" result="effect1_dropShadow_1076_272"/>
<feBlend mode="normal" in="SourceGraphic" in2="effect1_dropShadow_1076_272" result="shape"/>
</filter>
<filter id="filter22_d_1076_272" x="9718.74" y="1067.08" width="146.91" height="117.596" filterUnits="userSpaceOnUse" color-interpolation-filters="sRGB">
<feFlood flood-opacity="0" result="BackgroundImageFix"/>
<feColorMatrix in="SourceAlpha" type="matrix" values="0 0 0 0 0 0 0 0 0 0 0 0 0 0 0 0 0 0 127 0" result="hardAlpha"/>
<feOffset dx="5" dy="6"/>
<feComposite in2="hardAlpha" operator="out"/>
<feColorMatrix type="matrix" values="0 0 0 0 0.0555556 0 0 0 0 0.19769 0 0 0 0 0.266667 0 0 0 1 0"/>
<feBlend mode="normal" in2="BackgroundImageFix" result="effect1_dropShadow_1076_272"/>
<feBlend mode="normal" in="SourceGraphic" in2="effect1_dropShadow_1076_272" result="shape"/>
</filter>
<filter id="filter23_d_1076_272" x="9179.54" y="1184.24" width="117.441" height="147.271" filterUnits="userSpaceOnUse" color-interpolation-filters="sRGB">
<feFlood flood-opacity="0" result="BackgroundImageFix"/>
<feColorMatrix in="SourceAlpha" type="matrix" values="0 0 0 0 0 0 0 0 0 0 0 0 0 0 0 0 0 0 127 0" result="hardAlpha"/>
<feOffset dx="5" dy="6"/>
<feComposite in2="hardAlpha" operator="out"/>
<feColorMatrix type="matrix" values="0 0 0 0 0.0555556 0 0 0 0 0.19769 0 0 0 0 0.266667 0 0 0 1 0"/>
<feBlend mode="normal" in2="BackgroundImageFix" result="effect1_dropShadow_1076_272"/>
<feBlend mode="normal" in="SourceGraphic" in2="effect1_dropShadow_1076_272" result="shape"/>
</filter>
<filter id="filter24_d_1076_272" x="12526.4" y="1932.14" width="153.455" height="105.565" filterUnits="userSpaceOnUse" color-interpolation-filters="sRGB">
<feFlood flood-opacity="0" result="BackgroundImageFix"/>
<feColorMatrix in="SourceAlpha" type="matrix" values="0 0 0 0 0 0 0 0 0 0 0 0 0 0 0 0 0 0 127 0" result="hardAlpha"/>
<feOffset dx="5" dy="6"/>
<feComposite in2="hardAlpha" operator="out"/>
<feColorMatrix type="matrix" values="0 0 0 0 0.0555556 0 0 0 0 0.19769 0 0 0 0 0.266667 0 0 0 1 0"/>
<feBlend mode="normal" in2="BackgroundImageFix" result="effect1_dropShadow_1076_272"/>
<feBlend mode="normal" in="SourceGraphic" in2="effect1_dropShadow_1076_272" result="shape"/>
</filter>
<filter id="filter25_d_1076_272" x="12175.2" y="1104.07" width="155.064" height="103.816" filterUnits="userSpaceOnUse" color-interpolation-filters="sRGB">
<feFlood flood-opacity="0" result="BackgroundImageFix"/>
<feColorMatrix in="SourceAlpha" type="matrix" values="0 0 0 0 0 0 0 0 0 0 0 0 0 0 0 0 0 0 127 0" result="hardAlpha"/>
<feOffset dx="5" dy="6"/>
<feComposite in2="hardAlpha" operator="out"/>
<feColorMatrix type="matrix" values="0 0 0 0 0.0555556 0 0 0 0 0.19769 0 0 0 0 0.266667 0 0 0 1 0"/>
<feBlend mode="normal" in2="BackgroundImageFix" result="effect1_dropShadow_1076_272"/>
<feBlend mode="normal" in="SourceGraphic" in2="effect1_dropShadow_1076_272" result="shape"/>
</filter>
<filter id="filter26_d_1076_272" x="12898.4" y="1153.82" width="152.484" height="107.992" filterUnits="userSpaceOnUse" color-interpolation-filters="sRGB">
<feFlood flood-opacity="0" result="BackgroundImageFix"/>
<feColorMatrix in="SourceAlpha" type="matrix" values="0 0 0 0 0 0 0 0 0 0 0 0 0 0 0 0 0 0 127 0" result="hardAlpha"/>
<feOffset dx="5" dy="6"/>
<feComposite in2="hardAlpha" operator="out"/>
<feColorMatrix type="matrix" values="0 0 0 0 0.0555556 0 0 0 0 0.19769 0 0 0 0 0.266667 0 0 0 1 0"/>
<feBlend mode="normal" in2="BackgroundImageFix" result="effect1_dropShadow_1076_272"/>
<feBlend mode="normal" in="SourceGraphic" in2="effect1_dropShadow_1076_272" result="shape"/>
</filter>
<filter id="filter27_d_1076_272" x="13434.1" y="2016.75" width="156.039" height="102.599" filterUnits="userSpaceOnUse" color-interpolation-filters="sRGB">
<feFlood flood-opacity="0" result="BackgroundImageFix"/>
<feColorMatrix in="SourceAlpha" type="matrix" values="0 0 0 0 0 0 0 0 0 0 0 0 0 0 0 0 0 0 127 0" result="hardAlpha"/>
<feOffset dx="5" dy="6"/>
<feComposite in2="hardAlpha" operator="out"/>
<feColorMatrix type="matrix" values="0 0 0 0 0.0555556 0 0 0 0 0.19769 0 0 0 0 0.266667 0 0 0 1 0"/>
<feBlend mode="normal" in2="BackgroundImageFix" result="effect1_dropShadow_1076_272"/>
<feBlend mode="normal" in="SourceGraphic" in2="effect1_dropShadow_1076_272" result="shape"/>
</filter>
<filter id="filter28_d_1076_272" x="13541.6" y="1253.78" width="154.807" height="102.929" filterUnits="userSpaceOnUse" color-interpolation-filters="sRGB">
<feFlood flood-opacity="0" result="BackgroundImageFix"/>
<feColorMatrix in="SourceAlpha" type="matrix" values="0 0 0 0 0 0 0 0 0 0 0 0 0 0 0 0 0 0 127 0" result="hardAlpha"/>
<feOffset dx="5" dy="6"/>
<feComposite in2="hardAlpha" operator="out"/>
<feColorMatrix type="matrix" values="0 0 0 0 0.0555556 0 0 0 0 0.19769 0 0 0 0 0.266667 0 0 0 1 0"/>
<feBlend mode="normal" in2="BackgroundImageFix" result="effect1_dropShadow_1076_272"/>
<feBlend mode="normal" in="SourceGraphic" in2="effect1_dropShadow_1076_272" result="shape"/>
</filter>
<filter id="filter29_d_1076_272" x="14184" y="1230.04" width="155.018" height="103.857" filterUnits="userSpaceOnUse" color-interpolation-filters="sRGB">
<feFlood flood-opacity="0" result="BackgroundImageFix"/>
<feColorMatrix in="SourceAlpha" type="matrix" values="0 0 0 0 0 0 0 0 0 0 0 0 0 0 0 0 0 0 127 0" result="hardAlpha"/>
<feOffset dx="5" dy="6"/>
<feComposite in2="hardAlpha" operator="out"/>
<feColorMatrix type="matrix" values="0 0 0 0 0.0555556 0 0 0 0 0.19769 0 0 0 0 0.266667 0 0 0 1 0"/>
<feBlend mode="normal" in2="BackgroundImageFix" result="effect1_dropShadow_1076_272"/>
<feBlend mode="normal" in="SourceGraphic" in2="effect1_dropShadow_1076_272" result="shape"/>
</filter>
<filter id="filter30_d_1076_272" x="13789.7" y="1925.02" width="154.986" height="102.737" filterUnits="userSpaceOnUse" color-interpolation-filters="sRGB">
<feFlood flood-opacity="0" result="BackgroundImageFix"/>
<feColorMatrix in="SourceAlpha" type="matrix" values="0 0 0 0 0 0 0 0 0 0 0 0 0 0 0 0 0 0 127 0" result="hardAlpha"/>
<feOffset dx="5" dy="6"/>
<feComposite in2="hardAlpha" operator="out"/>
<feColorMatrix type="matrix" values="0 0 0 0 0.0555556 0 0 0 0 0.19769 0 0 0 0 0.266667 0 0 0 1 0"/>
<feBlend mode="normal" in2="BackgroundImageFix" result="effect1_dropShadow_1076_272"/>
<feBlend mode="normal" in="SourceGraphic" in2="effect1_dropShadow_1076_272" result="shape"/>
</filter>
<filter id="filter31_d_1076_272" x="13238.1" y="1939.35" width="131.926" height="131.661" filterUnits="userSpaceOnUse" color-interpolation-filters="sRGB">
<feFlood flood-opacity="0" result="BackgroundImageFix"/>
<feColorMatrix in="SourceAlpha" type="matrix" values="0 0 0 0 0 0 0 0 0 0 0 0 0 0 0 0 0 0 127 0" result="hardAlpha"/>
<feOffset dx="5" dy="6"/>
<feComposite in2="hardAlpha" operator="out"/>
<feColorMatrix type="matrix" values="0 0 0 0 0.0555556 0 0 0 0 0.19769 0 0 0 0 0.266667 0 0 0 1 0"/>
<feBlend mode="normal" in2="BackgroundImageFix" result="effect1_dropShadow_1076_272"/>
<feBlend mode="normal" in="SourceGraphic" in2="effect1_dropShadow_1076_272" result="shape"/>
</filter>
<filter id="filter32_d_1076_272" x="18748.2" y="2147.94" width="156.016" height="102.745" filterUnits="userSpaceOnUse" color-interpolation-filters="sRGB">
<feFlood flood-opacity="0" result="BackgroundImageFix"/>
<feColorMatrix in="SourceAlpha" type="matrix" values="0 0 0 0 0 0 0 0 0 0 0 0 0 0 0 0 0 0 127 0" result="hardAlpha"/>
<feOffset dx="5" dy="6"/>
<feComposite in2="hardAlpha" operator="out"/>
<feColorMatrix type="matrix" values="0 0 0 0 0.0555556 0 0 0 0 0.19769 0 0 0 0 0.266667 0 0 0 1 0"/>
<feBlend mode="normal" in2="BackgroundImageFix" result="effect1_dropShadow_1076_272"/>
<feBlend mode="normal" in="SourceGraphic" in2="effect1_dropShadow_1076_272" result="shape"/>
</filter>
<filter id="filter33_d_1076_272" x="19297.2" y="1433.74" width="148.488" height="110.406" filterUnits="userSpaceOnUse" color-interpolation-filters="sRGB">
<feFlood flood-opacity="0" result="BackgroundImageFix"/>
<feColorMatrix in="SourceAlpha" type="matrix" values="0 0 0 0 0 0 0 0 0 0 0 0 0 0 0 0 0 0 127 0" result="hardAlpha"/>
<feOffset dx="5" dy="6"/>
<feComposite in2="hardAlpha" operator="out"/>
<feColorMatrix type="matrix" values="0 0 0 0 0.0555556 0 0 0 0 0.19769 0 0 0 0 0.266667 0 0 0 1 0"/>
<feBlend mode="normal" in2="BackgroundImageFix" result="effect1_dropShadow_1076_272"/>
<feBlend mode="normal" in="SourceGraphic" in2="effect1_dropShadow_1076_272" result="shape"/>
</filter>
<filter id="filter34_d_1076_272" x="18582.1" y="1301.5" width="156.027" height="102.558" filterUnits="userSpaceOnUse" color-interpolation-filters="sRGB">
<feFlood flood-opacity="0" result="BackgroundImageFix"/>
<feColorMatrix in="SourceAlpha" type="matrix" values="0 0 0 0 0 0 0 0 0 0 0 0 0 0 0 0 0 0 127 0" result="hardAlpha"/>
<feOffset dx="5" dy="6"/>
<feComposite in2="hardAlpha" operator="out"/>
<feColorMatrix type="matrix" values="0 0 0 0 0.0555556 0 0 0 0 0.19769 0 0 0 0 0.266667 0 0 0 1 0"/>
<feBlend mode="normal" in2="BackgroundImageFix" result="effect1_dropShadow_1076_272"/>
<feBlend mode="normal" in="SourceGraphic" in2="effect1_dropShadow_1076_272" result="shape"/>
</filter>
<filter id="filter35_d_1076_272" x="17849.5" y="1994.88" width="153.047" height="105.444" filterUnits="userSpaceOnUse" color-interpolation-filters="sRGB">
<feFlood flood-opacity="0" result="BackgroundImageFix"/>
<feColorMatrix in="SourceAlpha" type="matrix" values="0 0 0 0 0 0 0 0 0 0 0 0 0 0 0 0 0 0 127 0" result="hardAlpha"/>
<feOffset dx="5" dy="6"/>
<feComposite in2="hardAlpha" operator="out"/>
<feColorMatrix type="matrix" values="0 0 0 0 0.0555556 0 0 0 0 0.19769 0 0 0 0 0.266667 0 0 0 1 0"/>
<feBlend mode="normal" in2="BackgroundImageFix" result="effect1_dropShadow_1076_272"/>
<feBlend mode="normal" in="SourceGraphic" in2="effect1_dropShadow_1076_272" result="shape"/>
</filter>
<filter id="filter36_d_1076_272" x="17934.2" y="1232.43" width="155.598" height="103.301" filterUnits="userSpaceOnUse" color-interpolation-filters="sRGB">
<feFlood flood-opacity="0" result="BackgroundImageFix"/>
<feColorMatrix in="SourceAlpha" type="matrix" values="0 0 0 0 0 0 0 0 0 0 0 0 0 0 0 0 0 0 127 0" result="hardAlpha"/>
<feOffset dx="5" dy="6"/>
<feComposite in2="hardAlpha" operator="out"/>
<feColorMatrix type="matrix" values="0 0 0 0 0.0555556 0 0 0 0 0.19769 0 0 0 0 0.266667 0 0 0 1 0"/>
<feBlend mode="normal" in2="BackgroundImageFix" result="effect1_dropShadow_1076_272"/>
<feBlend mode="normal" in="SourceGraphic" in2="effect1_dropShadow_1076_272" result="shape"/>
</filter>
<filter id="filter37_d_1076_272" x="17322.6" y="1043.94" width="148.361" height="110.583" filterUnits="userSpaceOnUse" color-interpolation-filters="sRGB">
<feFlood flood-opacity="0" result="BackgroundImageFix"/>
<feColorMatrix in="SourceAlpha" type="matrix" values="0 0 0 0 0 0 0 0 0 0 0 0 0 0 0 0 0 0 127 0" result="hardAlpha"/>
<feOffset dx="5" dy="6"/>
<feComposite in2="hardAlpha" operator="out"/>
<feColorMatrix type="matrix" values="0 0 0 0 0.0555556 0 0 0 0 0.19769 0 0 0 0 0.266667 0 0 0 1 0"/>
<feBlend mode="normal" in2="BackgroundImageFix" result="effect1_dropShadow_1076_272"/>
<feBlend mode="normal" in="SourceGraphic" in2="effect1_dropShadow_1076_272" result="shape"/>
</filter>
<filter id="filter38_d_1076_272" x="17528.2" y="1817" width="155.48" height="103.424" filterUnits="userSpaceOnUse" color-interpolation-filters="sRGB">
<feFlood flood-opacity="0" result="BackgroundImageFix"/>
<feColorMatrix in="SourceAlpha" type="matrix" values="0 0 0 0 0 0 0 0 0 0 0 0 0 0 0 0 0 0 127 0" result="hardAlpha"/>
<feOffset dx="5" dy="6"/>
<feComposite in2="hardAlpha" operator="out"/>
<feColorMatrix type="matrix" values="0 0 0 0 0.0555556 0 0 0 0 0.19769 0 0 0 0 0.266667 0 0 0 1 0"/>
<feBlend mode="normal" in2="BackgroundImageFix" result="effect1_dropShadow_1076_272"/>
<feBlend mode="normal" in="SourceGraphic" in2="effect1_dropShadow_1076_272" result="shape"/>
</filter>
<filter id="filter39_d_1076_272" x="18067.5" y="1983.76" width="141.531" height="118.817" filterUnits="userSpaceOnUse" color-interpolation-filters="sRGB">
<feFlood flood-opacity="0" result="BackgroundImageFix"/>
<feColorMatrix in="SourceAlpha" type="matrix" values="0 0 0 0 0 0 0 0 0 0 0 0 0 0 0 0 0 0 127 0" result="hardAlpha"/>
<feOffset dx="5" dy="6"/>
<feComposite in2="hardAlpha" operator="out"/>
<feColorMatrix type="matrix" values="0 0 0 0 0.0555556 0 0 0 0 0.19769 0 0 0 0 0.266667 0 0 0 1 0"/>
<feBlend mode="normal" in2="BackgroundImageFix" result="effect1_dropShadow_1076_272"/>
<feBlend mode="normal" in="SourceGraphic" in2="effect1_dropShadow_1076_272" result="shape"/>
</filter>
<filter id="filter40_d_1076_272" x="20966.2" y="958.025" width="153.801" height="104.591" filterUnits="userSpaceOnUse" color-interpolation-filters="sRGB">
<feFlood flood-opacity="0" result="BackgroundImageFix"/>
<feColorMatrix in="SourceAlpha" type="matrix" values="0 0 0 0 0 0 0 0 0 0 0 0 0 0 0 0 0 0 127 0" result="hardAlpha"/>
<feOffset dx="5" dy="6"/>
<feComposite in2="hardAlpha" operator="out"/>
<feColorMatrix type="matrix" values="0 0 0 0 0.0555556 0 0 0 0 0.19769 0 0 0 0 0.266667 0 0 0 1 0"/>
<feBlend mode="normal" in2="BackgroundImageFix" result="effect1_dropShadow_1076_272"/>
<feBlend mode="normal" in="SourceGraphic" in2="effect1_dropShadow_1076_272" result="shape"/>
</filter>
<filter id="filter41_d_1076_272" x="20602.2" y="1781.64" width="154.832" height="104.021" filterUnits="userSpaceOnUse" color-interpolation-filters="sRGB">
<feFlood flood-opacity="0" result="BackgroundImageFix"/>
<feColorMatrix in="SourceAlpha" type="matrix" values="0 0 0 0 0 0 0 0 0 0 0 0 0 0 0 0 0 0 127 0" result="hardAlpha"/>
<feOffset dx="5" dy="6"/>
<feComposite in2="hardAlpha" operator="out"/>
<feColorMatrix type="matrix" values="0 0 0 0 0.0555556 0 0 0 0 0.19769 0 0 0 0 0.266667 0 0 0 1 0"/>
<feBlend mode="normal" in2="BackgroundImageFix" result="effect1_dropShadow_1076_272"/>
<feBlend mode="normal" in="SourceGraphic" in2="effect1_dropShadow_1076_272" result="shape"/>
</filter>
<filter id="filter42_d_1076_272" x="21325.9" y="1740.31" width="152.891" height="107.029" filterUnits="userSpaceOnUse" color-interpolation-filters="sRGB">
<feFlood flood-opacity="0" result="BackgroundImageFix"/>
<feColorMatrix in="SourceAlpha" type="matrix" values="0 0 0 0 0 0 0 0 0 0 0 0 0 0 0 0 0 0 127 0" result="hardAlpha"/>
<feOffset dx="5" dy="6"/>
<feComposite in2="hardAlpha" operator="out"/>
<feColorMatrix type="matrix" values="0 0 0 0 0.0555556 0 0 0 0 0.19769 0 0 0 0 0.266667 0 0 0 1 0"/>
<feBlend mode="normal" in2="BackgroundImageFix" result="effect1_dropShadow_1076_272"/>
<feBlend mode="normal" in="SourceGraphic" in2="effect1_dropShadow_1076_272" result="shape"/>
</filter>
<filter id="filter43_d_1076_272" x="21875.3" y="890.897" width="156.035" height="102.671" filterUnits="userSpaceOnUse" color-interpolation-filters="sRGB">
<feFlood flood-opacity="0" result="BackgroundImageFix"/>
<feColorMatrix in="SourceAlpha" type="matrix" values="0 0 0 0 0 0 0 0 0 0 0 0 0 0 0 0 0 0 127 0" result="hardAlpha"/>
<feOffset dx="5" dy="6"/>
<feComposite in2="hardAlpha" operator="out"/>
<feColorMatrix type="matrix" values="0 0 0 0 0.0555556 0 0 0 0 0.19769 0 0 0 0 0.266667 0 0 0 1 0"/>
<feBlend mode="normal" in2="BackgroundImageFix" result="effect1_dropShadow_1076_272"/>
<feBlend mode="normal" in="SourceGraphic" in2="effect1_dropShadow_1076_272" result="shape"/>
</filter>
<filter id="filter44_d_1076_272" x="21970.6" y="1655.15" width="155.043" height="102.676" filterUnits="userSpaceOnUse" color-interpolation-filters="sRGB">
<feFlood flood-opacity="0" result="BackgroundImageFix"/>
<feColorMatrix in="SourceAlpha" type="matrix" values="0 0 0 0 0 0 0 0 0 0 0 0 0 0 0 0 0 0 127 0" result="hardAlpha"/>
<feOffset dx="5" dy="6"/>
<feComposite in2="hardAlpha" operator="out"/>
<feColorMatrix type="matrix" values="0 0 0 0 0.0555556 0 0 0 0 0.19769 0 0 0 0 0.266667 0 0 0 1 0"/>
<feBlend mode="normal" in2="BackgroundImageFix" result="effect1_dropShadow_1076_272"/>
<feBlend mode="normal" in="SourceGraphic" in2="effect1_dropShadow_1076_272" result="shape"/>
</filter>
<filter id="filter45_d_1076_272" x="22612.8" y="1688.21" width="154.781" height="104.065" filterUnits="userSpaceOnUse" color-interpolation-filters="sRGB">
<feFlood flood-opacity="0" result="BackgroundImageFix"/>
<feColorMatrix in="SourceAlpha" type="matrix" values="0 0 0 0 0 0 0 0 0 0 0 0 0 0 0 0 0 0 127 0" result="hardAlpha"/>
<feOffset dx="5" dy="6"/>
<feComposite in2="hardAlpha" operator="out"/>
<feColorMatrix type="matrix" values="0 0 0 0 0.0555556 0 0 0 0 0.19769 0 0 0 0 0.266667 0 0 0 1 0"/>
<feBlend mode="normal" in2="BackgroundImageFix" result="effect1_dropShadow_1076_272"/>
<feBlend mode="normal" in="SourceGraphic" in2="effect1_dropShadow_1076_272" result="shape"/>
</filter>
<filter id="filter46_d_1076_272" x="22229.3" y="988.433" width="155.203" height="102.525" filterUnits="userSpaceOnUse" color-interpolation-filters="sRGB">
<feFlood flood-opacity="0" result="BackgroundImageFix"/>
<feColorMatrix in="SourceAlpha" type="matrix" values="0 0 0 0 0 0 0 0 0 0 0 0 0 0 0 0 0 0 127 0" result="hardAlpha"/>
<feOffset dx="5" dy="6"/>
<feComposite in2="hardAlpha" operator="out"/>
<feColorMatrix type="matrix" values="0 0 0 0 0.0555556 0 0 0 0 0.19769 0 0 0 0 0.266667 0 0 0 1 0"/>
<feBlend mode="normal" in2="BackgroundImageFix" result="effect1_dropShadow_1076_272"/>
<feBlend mode="normal" in="SourceGraphic" in2="effect1_dropShadow_1076_272" result="shape"/>
</filter>
<filter id="filter47_d_1076_272" x="21678.3" y="936.104" width="132.625" height="130.886" filterUnits="userSpaceOnUse" color-interpolation-filters="sRGB">
<feFlood flood-opacity="0" result="BackgroundImageFix"/>
<feColorMatrix in="SourceAlpha" type="matrix" values="0 0 0 0 0 0 0 0 0 0 0 0 0 0 0 0 0 0 127 0" result="hardAlpha"/>
<feOffset dx="5" dy="6"/>
<feComposite in2="hardAlpha" operator="out"/>
<feColorMatrix type="matrix" values="0 0 0 0 0.0555556 0 0 0 0 0.19769 0 0 0 0 0.266667 0 0 0 1 0"/>
<feBlend mode="normal" in2="BackgroundImageFix" result="effect1_dropShadow_1076_272"/>
<feBlend mode="normal" in="SourceGraphic" in2="effect1_dropShadow_1076_272" result="shape"/>
</filter>
<filter id="filter48_d_1076_272" x="25406.9" y="2340.45" width="154.066" height="104.654" filterUnits="userSpaceOnUse" color-interpolation-filters="sRGB">
<feFlood flood-opacity="0" result="BackgroundImageFix"/>
<feColorMatrix in="SourceAlpha" type="matrix" values="0 0 0 0 0 0 0 0 0 0 0 0 0 0 0 0 0 0 127 0" result="hardAlpha"/>
<feOffset dx="5" dy="6"/>
<feComposite in2="hardAlpha" operator="out"/>
<feColorMatrix type="matrix" values="0 0 0 0 0.0555556 0 0 0 0 0.19769 0 0 0 0 0.266667 0 0 0 1 0"/>
<feBlend mode="normal" in2="BackgroundImageFix" result="effect1_dropShadow_1076_272"/>
<feBlend mode="normal" in="SourceGraphic" in2="effect1_dropShadow_1076_272" result="shape"/>
</filter>
<filter id="filter49_d_1076_272" x="24752.4" y="1735.4" width="140.953" height="119.765" filterUnits="userSpaceOnUse" color-interpolation-filters="sRGB">
<feFlood flood-opacity="0" result="BackgroundImageFix"/>
<feColorMatrix in="SourceAlpha" type="matrix" values="0 0 0 0 0 0 0 0 0 0 0 0 0 0 0 0 0 0 127 0" result="hardAlpha"/>
<feOffset dx="5" dy="6"/>
<feComposite in2="hardAlpha" operator="out"/>
<feColorMatrix type="matrix" values="0 0 0 0 0.0555556 0 0 0 0 0.19769 0 0 0 0 0.266667 0 0 0 1 0"/>
<feBlend mode="normal" in2="BackgroundImageFix" result="effect1_dropShadow_1076_272"/>
<feBlend mode="normal" in="SourceGraphic" in2="effect1_dropShadow_1076_272" result="shape"/>
</filter>
<filter id="filter50_d_1076_272" x="25421.5" y="1479.25" width="154.773" height="104.07" filterUnits="userSpaceOnUse" color-interpolation-filters="sRGB">
<feFlood flood-opacity="0" result="BackgroundImageFix"/>
<feColorMatrix in="SourceAlpha" type="matrix" values="0 0 0 0 0 0 0 0 0 0 0 0 0 0 0 0 0 0 127 0" result="hardAlpha"/>
<feOffset dx="5" dy="6"/>
<feComposite in2="hardAlpha" operator="out"/>
<feColorMatrix type="matrix" values="0 0 0 0 0.0555556 0 0 0 0 0.19769 0 0 0 0 0.266667 0 0 0 1 0"/>
<feBlend mode="normal" in2="BackgroundImageFix" result="effect1_dropShadow_1076_272"/>
<feBlend mode="normal" in="SourceGraphic" in2="effect1_dropShadow_1076_272" result="shape"/>
</filter>
<filter id="filter51_d_1076_272" x="26268.8" y="2024.58" width="147.301" height="112.014" filterUnits="userSpaceOnUse" color-interpolation-filters="sRGB">
<feFlood flood-opacity="0" result="BackgroundImageFix"/>
<feColorMatrix in="SourceAlpha" type="matrix" values="0 0 0 0 0 0 0 0 0 0 0 0 0 0 0 0 0 0 127 0" result="hardAlpha"/>
<feOffset dx="5" dy="6"/>
<feComposite in2="hardAlpha" operator="out"/>
<feColorMatrix type="matrix" values="0 0 0 0 0.0555556 0 0 0 0 0.19769 0 0 0 0 0.266667 0 0 0 1 0"/>
<feBlend mode="normal" in2="BackgroundImageFix" result="effect1_dropShadow_1076_272"/>
<feBlend mode="normal" in="SourceGraphic" in2="effect1_dropShadow_1076_272" result="shape"/>
</filter>
<filter id="filter52_d_1076_272" x="26048" y="1294.67" width="152.422" height="105.912" filterUnits="userSpaceOnUse" color-interpolation-filters="sRGB">
<feFlood flood-opacity="0" result="BackgroundImageFix"/>
<feColorMatrix in="SourceAlpha" type="matrix" values="0 0 0 0 0 0 0 0 0 0 0 0 0 0 0 0 0 0 127 0" result="hardAlpha"/>
<feOffset dx="5" dy="6"/>
<feComposite in2="hardAlpha" operator="out"/>
<feColorMatrix type="matrix" values="0 0 0 0 0.0555556 0 0 0 0 0.19769 0 0 0 0 0.266667 0 0 0 1 0"/>
<feBlend mode="normal" in2="BackgroundImageFix" result="effect1_dropShadow_1076_272"/>
<feBlend mode="normal" in="SourceGraphic" in2="effect1_dropShadow_1076_272" result="shape"/>
</filter>
<filter id="filter53_d_1076_272" x="26625.2" y="997.83" width="140.852" height="119.939" filterUnits="userSpaceOnUse" color-interpolation-filters="sRGB">
<feFlood flood-opacity="0" result="BackgroundImageFix"/>
<feColorMatrix in="SourceAlpha" type="matrix" values="0 0 0 0 0 0 0 0 0 0 0 0 0 0 0 0 0 0 127 0" result="hardAlpha"/>
<feOffset dx="5" dy="6"/>
<feComposite in2="hardAlpha" operator="out"/>
<feColorMatrix type="matrix" values="0 0 0 0 0.0555556 0 0 0 0 0.19769 0 0 0 0 0.266667 0 0 0 1 0"/>
<feBlend mode="normal" in2="BackgroundImageFix" result="effect1_dropShadow_1076_272"/>
<feBlend mode="normal" in="SourceGraphic" in2="effect1_dropShadow_1076_272" result="shape"/>
</filter>
<filter id="filter54_d_1076_272" x="26549.1" y="1795.56" width="152.098" height="106.152" filterUnits="userSpaceOnUse" color-interpolation-filters="sRGB">
<feFlood flood-opacity="0" result="BackgroundImageFix"/>
<feColorMatrix in="SourceAlpha" type="matrix" values="0 0 0 0 0 0 0 0 0 0 0 0 0 0 0 0 0 0 127 0" result="hardAlpha"/>
<feOffset dx="5" dy="6"/>
<feComposite in2="hardAlpha" operator="out"/>
<feColorMatrix type="matrix" values="0 0 0 0 0.0555556 0 0 0 0 0.19769 0 0 0 0 0.266667 0 0 0 1 0"/>
<feBlend mode="normal" in2="BackgroundImageFix" result="effect1_dropShadow_1076_272"/>
<feBlend mode="normal" in="SourceGraphic" in2="effect1_dropShadow_1076_272" result="shape"/>
</filter>
<filter id="filter55_d_1076_272" x="26059.1" y="2064.93" width="149.16" height="109.444" filterUnits="userSpaceOnUse" color-interpolation-filters="sRGB">
<feFlood flood-opacity="0" result="BackgroundImageFix"/>
<feColorMatrix in="SourceAlpha" type="matrix" values="0 0 0 0 0 0 0 0 0 0 0 0 0 0 0 0 0 0 127 0" result="hardAlpha"/>
<feOffset dx="5" dy="6"/>
<feComposite in2="hardAlpha" operator="out"/>
<feColorMatrix type="matrix" values="0 0 0 0 0.0555556 0 0 0 0 0.19769 0 0 0 0 0.266667 0 0 0 1 0"/>
<feBlend mode="normal" in2="BackgroundImageFix" result="effect1_dropShadow_1076_272"/>
<feBlend mode="normal" in="SourceGraphic" in2="effect1_dropShadow_1076_272" result="shape"/>
</filter>
<filter id="filter56_d_1076_272" x="29230.4" y="686.823" width="155.141" height="103.746" filterUnits="userSpaceOnUse" color-interpolation-filters="sRGB">
<feFlood flood-opacity="0" result="BackgroundImageFix"/>
<feColorMatrix in="SourceAlpha" type="matrix" values="0 0 0 0 0 0 0 0 0 0 0 0 0 0 0 0 0 0 127 0" result="hardAlpha"/>
<feOffset dx="5" dy="6"/>
<feComposite in2="hardAlpha" operator="out"/>
<feColorMatrix type="matrix" values="0 0 0 0 0.0555556 0 0 0 0 0.19769 0 0 0 0 0.266667 0 0 0 1 0"/>
<feBlend mode="normal" in2="BackgroundImageFix" result="effect1_dropShadow_1076_272"/>
<feBlend mode="normal" in="SourceGraphic" in2="effect1_dropShadow_1076_272" result="shape"/>
</filter>
<filter id="filter57_d_1076_272" x="28615.7" y="1322.01" width="143.703" height="116.333" filterUnits="userSpaceOnUse" color-interpolation-filters="sRGB">
<feFlood flood-opacity="0" result="BackgroundImageFix"/>
<feColorMatrix in="SourceAlpha" type="matrix" values="0 0 0 0 0 0 0 0 0 0 0 0 0 0 0 0 0 0 127 0" result="hardAlpha"/>
<feOffset dx="5" dy="6"/>
<feComposite in2="hardAlpha" operator="out"/>
<feColorMatrix type="matrix" values="0 0 0 0 0.0555556 0 0 0 0 0.19769 0 0 0 0 0.266667 0 0 0 1 0"/>
<feBlend mode="normal" in2="BackgroundImageFix" result="effect1_dropShadow_1076_272"/>
<feBlend mode="normal" in="SourceGraphic" in2="effect1_dropShadow_1076_272" result="shape"/>
</filter>
<filter id="filter58_d_1076_272" x="29301.2" y="1546.24" width="155.598" height="103.307" filterUnits="userSpaceOnUse" color-interpolation-filters="sRGB">
<feFlood flood-opacity="0" result="BackgroundImageFix"/>
<feColorMatrix in="SourceAlpha" type="matrix" values="0 0 0 0 0 0 0 0 0 0 0 0 0 0 0 0 0 0 127 0" result="hardAlpha"/>
<feOffset dx="5" dy="6"/>
<feComposite in2="hardAlpha" operator="out"/>
<feColorMatrix type="matrix" values="0 0 0 0 0.0555556 0 0 0 0 0.19769 0 0 0 0 0.266667 0 0 0 1 0"/>
<feBlend mode="normal" in2="BackgroundImageFix" result="effect1_dropShadow_1076_272"/>
<feBlend mode="normal" in="SourceGraphic" in2="effect1_dropShadow_1076_272" result="shape"/>
</filter>
<filter id="filter59_d_1076_272" x="30110.4" y="937.909" width="149.758" height="108.545" filterUnits="userSpaceOnUse" color-interpolation-filters="sRGB">
<feFlood flood-opacity="0" result="BackgroundImageFix"/>
<feColorMatrix in="SourceAlpha" type="matrix" values="0 0 0 0 0 0 0 0 0 0 0 0 0 0 0 0 0 0 127 0" result="hardAlpha"/>
<feOffset dx="5" dy="6"/>
<feComposite in2="hardAlpha" operator="out"/>
<feColorMatrix type="matrix" values="0 0 0 0 0.0555556 0 0 0 0 0.19769 0 0 0 0 0.266667 0 0 0 1 0"/>
<feBlend mode="normal" in2="BackgroundImageFix" result="effect1_dropShadow_1076_272"/>
<feBlend mode="normal" in="SourceGraphic" in2="effect1_dropShadow_1076_272" result="shape"/>
</filter>
<filter id="filter60_d_1076_272" x="29938.1" y="1687.29" width="153.945" height="104.749" filterUnits="userSpaceOnUse" color-interpolation-filters="sRGB">
<feFlood flood-opacity="0" result="BackgroundImageFix"/>
<feColorMatrix in="SourceAlpha" type="matrix" values="0 0 0 0 0 0 0 0 0 0 0 0 0 0 0 0 0 0 127 0" result="hardAlpha"/>
<feOffset dx="5" dy="6"/>
<feComposite in2="hardAlpha" operator="out"/>
<feColorMatrix type="matrix" values="0 0 0 0 0.0555556 0 0 0 0 0.19769 0 0 0 0 0.266667 0 0 0 1 0"/>
<feBlend mode="normal" in2="BackgroundImageFix" result="effect1_dropShadow_1076_272"/>
<feBlend mode="normal" in="SourceGraphic" in2="effect1_dropShadow_1076_272" result="shape"/>
</filter>
<filter id="filter61_d_1076_272" x="30533.4" y="1933.35" width="143.543" height="116.508" filterUnits="userSpaceOnUse" color-interpolation-filters="sRGB">
<feFlood flood-opacity="0" result="BackgroundImageFix"/>
<feColorMatrix in="SourceAlpha" type="matrix" values="0 0 0 0 0 0 0 0 0 0 0 0 0 0 0 0 0 0 127 0" result="hardAlpha"/>
<feOffset dx="5" dy="6"/>
<feComposite in2="hardAlpha" operator="out"/>
<feColorMatrix type="matrix" values="0 0 0 0 0.0555556 0 0 0 0 0.19769 0 0 0 0 0.266667 0 0 0 1 0"/>
<feBlend mode="normal" in2="BackgroundImageFix" result="effect1_dropShadow_1076_272"/>
<feBlend mode="normal" in="SourceGraphic" in2="effect1_dropShadow_1076_272" result="shape"/>
</filter>
<filter id="filter62_d_1076_272" x="30406" y="1153.31" width="153.695" height="104.946" filterUnits="userSpaceOnUse" color-interpolation-filters="sRGB">
<feFlood flood-opacity="0" result="BackgroundImageFix"/>
<feColorMatrix in="SourceAlpha" type="matrix" values="0 0 0 0 0 0 0 0 0 0 0 0 0 0 0 0 0 0 127 0" result="hardAlpha"/>
<feOffset dx="5" dy="6"/>
<feComposite in2="hardAlpha" operator="out"/>
<feColorMatrix type="matrix" values="0 0 0 0 0.0555556 0 0 0 0 0.19769 0 0 0 0 0.266667 0 0 0 1 0"/>
<feBlend mode="normal" in2="BackgroundImageFix" result="effect1_dropShadow_1076_272"/>
<feBlend mode="normal" in="SourceGraphic" in2="effect1_dropShadow_1076_272" result="shape"/>
</filter>
<filter id="filter63_d_1076_272" x="29901.1" y="913.146" width="146.605" height="112.913" filterUnits="userSpaceOnUse" color-interpolation-filters="sRGB">
<feFlood flood-opacity="0" result="BackgroundImageFix"/>
<feColorMatrix in="SourceAlpha" type="matrix" values="0 0 0 0 0 0 0 0 0 0 0 0 0 0 0 0 0 0 127 0" result="hardAlpha"/>
<feOffset dx="5" dy="6"/>
<feComposite in2="hardAlpha" operator="out"/>
<feColorMatrix type="matrix" values="0 0 0 0 0.0555556 0 0 0 0 0.19769 0 0 0 0 0.266667 0 0 0 1 0"/>
<feBlend mode="normal" in2="BackgroundImageFix" result="effect1_dropShadow_1076_272"/>
<feBlend mode="normal" in="SourceGraphic" in2="effect1_dropShadow_1076_272" result="shape"/>
</filter>
<clipPath id="clip0_1076_272">
<rect width="32280" height="3072" fill="white"/>
</clipPath>
</defs>
</svg>
